M48
; DRILL file {KiCad (6.0.9)} date Sat Nov 26 17:41:12 2022
; FORMAT={-:-/ absolute / inch / decimal}
; #@! TF.CreationDate,2022-11-26T17:41:12+01:00
; #@! TF.GenerationSoftware,Kicad,Pcbnew,(6.0.9)
; #@! TF.FileFunction,Plated,1,2,PTH
FMAT,2
INCH
; #@! TA.AperFunction,Plated,PTH,ComponentDrill
T1C0.0118
; #@! TA.AperFunction,Plated,PTH,ViaDrill
T2C0.0157
; #@! TA.AperFunction,Plated,PTH,ComponentDrill
T3C0.0256
; #@! TA.AperFunction,Plated,PTH,ComponentDrill
T4C0.0315
; #@! TA.AperFunction,Plated,PTH,ComponentDrill
T5C0.0394
; #@! TA.AperFunction,Plated,PTH,ComponentDrill
T6C0.0398
; #@! TA.AperFunction,Plated,PTH,ComponentDrill
T7C0.0512
; #@! TA.AperFunction,Plated,PTH,ComponentDrill
T8C0.0598
%
G90
G05
T1
X6.1134Y-5.258
X6.1134Y-5.2973
X6.1528Y-5.258
X6.1528Y-5.2973
T2
X5.6839Y-4.924
X5.6874Y-5.1031
X5.6953Y-5.3677
X5.6957Y-5.7728
X5.789Y-5.7126
X5.8055Y-4.9661
X5.8421Y-5.4953
X5.8583Y-6.0043
X5.9138Y-5.1091
X5.9189Y-5.0154
X5.9307Y-5.9358
X5.9445Y-4.9051
X5.9665Y-5.4894
X5.9858Y-5.7634
X5.9898Y-5.5555
X5.9972Y-5.6228
X6.0272Y-5.1232
X6.0406Y-5.6287
X6.0559Y-5.2083
X6.0681Y-5.1228
X6.0736Y-5.176
X6.0846Y-4.8555
X6.1059Y-5.7228
X6.1091Y-5.478
X6.1102Y-4.8941
X6.1157Y-5.6071
X6.1906Y-5.2118
X6.2059Y-5.5953
X6.2346Y-5.2047
X6.2555Y-5.4476
X6.2673Y-5.6508
X6.272Y-5.2232
X6.2925Y-5.9831
X6.3004Y-5.3508
X6.3217Y-5.7654
X6.3374Y-5.137
X6.3728Y-5.8244
X6.374Y-5.4291
X6.3846Y-5.9
X6.3886Y-5.7417
X6.4453Y-5.3209
X6.5567Y-5.902
X6.5728Y-5.6409
X6.578Y-5.0299
X6.5803Y-4.985
X6.6154Y-5.6346
X6.6169Y-5.3209
X6.6201Y-5.0535
X6.6303Y-5.1343
X6.6307Y-5.0114
X6.6594Y-5.0972
X6.6634Y-5.1661
X6.6819Y-5.4224
X6.7122Y-5.2248
X6.7142Y-5.5807
X6.7189Y-5.8118
X6.7201Y-5.3193
X6.724Y-4.8386
X6.7543Y-5.5161
X6.7587Y-5.6465
X6.7992Y-5.5075
X6.8012Y-5.5874
X6.8035Y-5.4272
X6.8295Y-5.0555
X6.8315Y-5.2992
X6.8348Y-5.5077
X6.8693Y-5.9157
X6.8772Y-5.3386
X6.911Y-5.5445
X6.9138Y-5.0327
X6.9217Y-5.3654
X6.922Y-5.3177
X6.9409Y-5.5831
X6.9449Y-5.4646
X6.9476Y-5.0323
X6.9492Y-5.198
X6.9563Y-5.5457
X6.961Y-5.8122
X6.9878Y-5.5445
X7.0091Y-5.2244
X7.0224Y-5.4205
X7.0248Y-5.1169
X7.039Y-5.5965
X7.076Y-5.3654
X7.0776Y-5.4697
X7.1232Y-5.513
X7.1276Y-5.4138
X7.1343Y-5.3094
X7.1362Y-5.6087
X7.1413Y-5.1346
X7.1807Y-5.461
X7.1843Y-5.3587
X7.1961Y-5.124
X7.2012Y-5.2366
X7.2303Y-5.7047
X7.2382Y-5.4067
X7.2504Y-5.5657
X7.263Y-5.9354
X7.265Y-5.187
X7.2685Y-5.5894
X7.2709Y-5.5453
X7.2756Y-5.2169
X7.2811Y-5.6146
X7.287Y-5.1402
X7.2929Y-5.2925
X7.3051Y-5.5358
X7.3102Y-5.8232
X7.3189Y-5.0224
X7.3217Y-5.2913
X7.3224Y-5.4252
X7.3335Y-5.365
X7.3366Y-5.5209
X7.3409Y-5.3331
X7.3469Y-5.3047
X7.3504Y-5.4228
X7.3547Y-5.2079
X7.3598Y-5.9823
X7.3638Y-5.0244
X7.3642Y-5.8717
X7.3642Y-5.9126
X7.3776Y-6.0205
X7.3815Y-5.4315
X7.3921Y-5.3724
X7.3941Y-5.4634
X7.3992Y-5.5602
X7.4012Y-5.6937
X7.4047Y-5.4063
X7.4098Y-5.9689
X7.4126Y-4.9972
X7.4224Y-5.3728
X7.4563Y-5.5469
X7.4583Y-5.2193
X7.4583Y-5.8146
X7.4591Y-5.1925
X7.5087Y-4.8346
X7.5091Y-5.5894
X7.5157Y-5.8902
X7.5386Y-5.7661
X7.5406Y-5.7079
X7.5409Y-4.9185
X7.5409Y-4.9622
X7.5524Y-5.8791
X7.5728Y-5.6626
X7.5734Y-5.5852
X7.574Y-5.5315
X7.5953Y-5.1331
X7.5957Y-4.9181
X7.5957Y-4.9591
X7.6087Y-5.1606
X7.6094Y-5.4193
X7.6189Y-5.8783
X7.6425Y-5.6925
X7.6449Y-5.3953
X7.6685Y-5.8594
X7.7146Y-5.8602
X7.778Y-5.6945
X7.7843Y-5.6626
X7.7988Y-5.728
X7.8232Y-5.9087
X7.8236Y-4.9642
X7.8713Y-5.1646
X7.8724Y-5.9417
X7.8823Y-5.0929
X7.902Y-5.1886
X7.9083Y-5.8197
X7.9114Y-5.7748
X7.9181Y-5.6039
X7.9374Y-5.5433
X7.9781Y-4.9593
X7.9902Y-5.6319
X7.9917Y-5.076
X8.0343Y-5.613
X8.035Y-5.5449
X8.0665Y-5.7114
X8.1484Y-5.1551
X8.2071Y-4.8654
X8.5886Y-4.9839
X8.5953Y-5.087
T3
X5.7224Y-5.6281
X5.7224Y-5.6781
X5.7224Y-5.7281
X6.485Y-4.937
X6.535Y-4.937
X8.6744Y-4.9709
X8.6744Y-5.0209
X8.6744Y-5.0709
T4
X8.6406Y-5.2827
X8.6957Y-5.578
T5
X6.487Y-5.0913
X6.487Y-5.6976
X7.6445Y-5.2961
X7.6445Y-5.4929
X7.8518Y-5.5543
X7.8548Y-5.2769
X8.1965Y-5.5524
X8.1993Y-5.2741
X8.4587Y-5.2205
X8.4587Y-5.6142
T6
X8.6161Y-5.7268
X8.6634Y-5.9276
T7
X5.8744Y-5.8384
X6.0122Y-5.8384
X6.0205Y-5.0085
X6.15Y-5.8384
X6.1583Y-5.0085
X6.2878Y-5.8384
X6.2961Y-5.0085
X8.0744Y-5.0022
X8.2122Y-5.0022
X8.35Y-5.0022
X8.4878Y-5.0022
T8
X8.1457Y-5.8339
X8.3457Y-5.8339
T0
M30
