%TF.GenerationSoftware,KiCad,Pcbnew,(6.0.9)*%
%TF.CreationDate,2022-11-26T17:41:11+01:00*%
%TF.ProjectId,LDAD_Junction_Box_79x31mm_AC220V,4c444144-5f4a-4756-9e63-74696f6e5f42,5.3*%
%TF.SameCoordinates,Original*%
%TF.FileFunction,Drillmap*%
%TF.FilePolarity,Positive*%
%FSLAX45Y45*%
G04 Gerber Fmt 4.5, Leading zero omitted, Abs format (unit mm)*
G04 Created by KiCad (PCBNEW (6.0.9)) date 2022-11-26 17:41:11*
%MOMM*%
%LPD*%
G01*
G04 APERTURE LIST*
%ADD10C,0.200000*%
%ADD11C,0.070000*%
G04 APERTURE END LIST*
D10*
D11*
X18839000Y-15044000D02*
X18909000Y-15114000D01*
X18909000Y-15044000D02*
X18839000Y-15114000D01*
X18966000Y-15044000D02*
X19036000Y-15114000D01*
X19036000Y-15044000D02*
X18966000Y-15114000D01*
X19093000Y-15044000D02*
X19163000Y-15114000D01*
X19163000Y-15044000D02*
X19093000Y-15114000D01*
X19220000Y-15044000D02*
X19290000Y-15114000D01*
X19290000Y-15044000D02*
X19220000Y-15114000D01*
X19347000Y-15044000D02*
X19417000Y-15114000D01*
X19417000Y-15044000D02*
X19347000Y-15114000D01*
D10*
X14621619Y-15655976D02*
X14621619Y-15455976D01*
X14669238Y-15455976D01*
X14697809Y-15465500D01*
X14716857Y-15484548D01*
X14726381Y-15503595D01*
X14735905Y-15541690D01*
X14735905Y-15570262D01*
X14726381Y-15608357D01*
X14716857Y-15627405D01*
X14697809Y-15646452D01*
X14669238Y-15655976D01*
X14621619Y-15655976D01*
X14821619Y-15655976D02*
X14821619Y-15522643D01*
X14821619Y-15560738D02*
X14831143Y-15541690D01*
X14840667Y-15532167D01*
X14859714Y-15522643D01*
X14878762Y-15522643D01*
X14945428Y-15655976D02*
X14945428Y-15522643D01*
X14945428Y-15455976D02*
X14935905Y-15465500D01*
X14945428Y-15475024D01*
X14954952Y-15465500D01*
X14945428Y-15455976D01*
X14945428Y-15475024D01*
X15069238Y-15655976D02*
X15050190Y-15646452D01*
X15040667Y-15627405D01*
X15040667Y-15455976D01*
X15174000Y-15655976D02*
X15154952Y-15646452D01*
X15145428Y-15627405D01*
X15145428Y-15455976D01*
X15402571Y-15655976D02*
X15402571Y-15455976D01*
X15469238Y-15598833D01*
X15535905Y-15455976D01*
X15535905Y-15655976D01*
X15716857Y-15655976D02*
X15716857Y-15551214D01*
X15707333Y-15532167D01*
X15688286Y-15522643D01*
X15650190Y-15522643D01*
X15631143Y-15532167D01*
X15716857Y-15646452D02*
X15697809Y-15655976D01*
X15650190Y-15655976D01*
X15631143Y-15646452D01*
X15621619Y-15627405D01*
X15621619Y-15608357D01*
X15631143Y-15589309D01*
X15650190Y-15579786D01*
X15697809Y-15579786D01*
X15716857Y-15570262D01*
X15812095Y-15522643D02*
X15812095Y-15722643D01*
X15812095Y-15532167D02*
X15831143Y-15522643D01*
X15869238Y-15522643D01*
X15888286Y-15532167D01*
X15897809Y-15541690D01*
X15907333Y-15560738D01*
X15907333Y-15617881D01*
X15897809Y-15636928D01*
X15888286Y-15646452D01*
X15869238Y-15655976D01*
X15831143Y-15655976D01*
X15812095Y-15646452D01*
X15993048Y-15636928D02*
X16002571Y-15646452D01*
X15993048Y-15655976D01*
X15983524Y-15646452D01*
X15993048Y-15636928D01*
X15993048Y-15655976D01*
X15993048Y-15532167D02*
X16002571Y-15541690D01*
X15993048Y-15551214D01*
X15983524Y-15541690D01*
X15993048Y-15532167D01*
X15993048Y-15551214D01*
D11*
X14294000Y-15950500D02*
X14364000Y-16020500D01*
X14364000Y-15950500D02*
X14294000Y-16020500D01*
D10*
X14659714Y-15875976D02*
X14678762Y-15875976D01*
X14697809Y-15885500D01*
X14707333Y-15895024D01*
X14716857Y-15914071D01*
X14726381Y-15952167D01*
X14726381Y-15999786D01*
X14716857Y-16037881D01*
X14707333Y-16056928D01*
X14697809Y-16066452D01*
X14678762Y-16075976D01*
X14659714Y-16075976D01*
X14640667Y-16066452D01*
X14631143Y-16056928D01*
X14621619Y-16037881D01*
X14612095Y-15999786D01*
X14612095Y-15952167D01*
X14621619Y-15914071D01*
X14631143Y-15895024D01*
X14640667Y-15885500D01*
X14659714Y-15875976D01*
X14812095Y-16056928D02*
X14821619Y-16066452D01*
X14812095Y-16075976D01*
X14802571Y-16066452D01*
X14812095Y-16056928D01*
X14812095Y-16075976D01*
X14888286Y-15875976D02*
X15021619Y-15875976D01*
X14935905Y-16075976D01*
X15135905Y-15875976D02*
X15154952Y-15875976D01*
X15174000Y-15885500D01*
X15183524Y-15895024D01*
X15193048Y-15914071D01*
X15202571Y-15952167D01*
X15202571Y-15999786D01*
X15193048Y-16037881D01*
X15183524Y-16056928D01*
X15174000Y-16066452D01*
X15154952Y-16075976D01*
X15135905Y-16075976D01*
X15116857Y-16066452D01*
X15107333Y-16056928D01*
X15097809Y-16037881D01*
X15088286Y-15999786D01*
X15088286Y-15952167D01*
X15097809Y-15914071D01*
X15107333Y-15895024D01*
X15116857Y-15885500D01*
X15135905Y-15875976D01*
X15326381Y-15875976D02*
X15345428Y-15875976D01*
X15364476Y-15885500D01*
X15374000Y-15895024D01*
X15383524Y-15914071D01*
X15393048Y-15952167D01*
X15393048Y-15999786D01*
X15383524Y-16037881D01*
X15374000Y-16056928D01*
X15364476Y-16066452D01*
X15345428Y-16075976D01*
X15326381Y-16075976D01*
X15307333Y-16066452D01*
X15297809Y-16056928D01*
X15288286Y-16037881D01*
X15278762Y-15999786D01*
X15278762Y-15952167D01*
X15288286Y-15914071D01*
X15297809Y-15895024D01*
X15307333Y-15885500D01*
X15326381Y-15875976D01*
X15478762Y-16075976D02*
X15478762Y-15942643D01*
X15478762Y-15961690D02*
X15488286Y-15952167D01*
X15507333Y-15942643D01*
X15535905Y-15942643D01*
X15554952Y-15952167D01*
X15564476Y-15971214D01*
X15564476Y-16075976D01*
X15564476Y-15971214D02*
X15574000Y-15952167D01*
X15593048Y-15942643D01*
X15621619Y-15942643D01*
X15640667Y-15952167D01*
X15650190Y-15971214D01*
X15650190Y-16075976D01*
X15745428Y-16075976D02*
X15745428Y-15942643D01*
X15745428Y-15961690D02*
X15754952Y-15952167D01*
X15774000Y-15942643D01*
X15802571Y-15942643D01*
X15821619Y-15952167D01*
X15831143Y-15971214D01*
X15831143Y-16075976D01*
X15831143Y-15971214D02*
X15840667Y-15952167D01*
X15859714Y-15942643D01*
X15888286Y-15942643D01*
X15907333Y-15952167D01*
X15916857Y-15971214D01*
X15916857Y-16075976D01*
X16307333Y-15866452D02*
X16135905Y-16123595D01*
X16564476Y-15875976D02*
X16583524Y-15875976D01*
X16602571Y-15885500D01*
X16612095Y-15895024D01*
X16621619Y-15914071D01*
X16631143Y-15952167D01*
X16631143Y-15999786D01*
X16621619Y-16037881D01*
X16612095Y-16056928D01*
X16602571Y-16066452D01*
X16583524Y-16075976D01*
X16564476Y-16075976D01*
X16545428Y-16066452D01*
X16535905Y-16056928D01*
X16526381Y-16037881D01*
X16516857Y-15999786D01*
X16516857Y-15952167D01*
X16526381Y-15914071D01*
X16535905Y-15895024D01*
X16545428Y-15885500D01*
X16564476Y-15875976D01*
X16716857Y-16056928D02*
X16726381Y-16066452D01*
X16716857Y-16075976D01*
X16707333Y-16066452D01*
X16716857Y-16056928D01*
X16716857Y-16075976D01*
X16850190Y-15875976D02*
X16869238Y-15875976D01*
X16888286Y-15885500D01*
X16897810Y-15895024D01*
X16907333Y-15914071D01*
X16916857Y-15952167D01*
X16916857Y-15999786D01*
X16907333Y-16037881D01*
X16897810Y-16056928D01*
X16888286Y-16066452D01*
X16869238Y-16075976D01*
X16850190Y-16075976D01*
X16831143Y-16066452D01*
X16821619Y-16056928D01*
X16812095Y-16037881D01*
X16802571Y-15999786D01*
X16802571Y-15952167D01*
X16812095Y-15914071D01*
X16821619Y-15895024D01*
X16831143Y-15885500D01*
X16850190Y-15875976D01*
X16993048Y-15895024D02*
X17002571Y-15885500D01*
X17021619Y-15875976D01*
X17069238Y-15875976D01*
X17088286Y-15885500D01*
X17097810Y-15895024D01*
X17107333Y-15914071D01*
X17107333Y-15933119D01*
X17097810Y-15961690D01*
X16983524Y-16075976D01*
X17107333Y-16075976D01*
X17174000Y-15875976D02*
X17307333Y-15875976D01*
X17221619Y-16075976D01*
X17469238Y-15875976D02*
X17431143Y-15875976D01*
X17412095Y-15885500D01*
X17402571Y-15895024D01*
X17383524Y-15923595D01*
X17374000Y-15961690D01*
X17374000Y-16037881D01*
X17383524Y-16056928D01*
X17393048Y-16066452D01*
X17412095Y-16075976D01*
X17450190Y-16075976D01*
X17469238Y-16066452D01*
X17478762Y-16056928D01*
X17488286Y-16037881D01*
X17488286Y-15990262D01*
X17478762Y-15971214D01*
X17469238Y-15961690D01*
X17450190Y-15952167D01*
X17412095Y-15952167D01*
X17393048Y-15961690D01*
X17383524Y-15971214D01*
X17374000Y-15990262D01*
X17564476Y-15875976D02*
X17564476Y-15914071D01*
X17640667Y-15875976D02*
X17640667Y-15914071D01*
X17935905Y-16152167D02*
X17926381Y-16142643D01*
X17907333Y-16114071D01*
X17897810Y-16095024D01*
X17888286Y-16066452D01*
X17878762Y-16018833D01*
X17878762Y-15980738D01*
X17888286Y-15933119D01*
X17897810Y-15904548D01*
X17907333Y-15885500D01*
X17926381Y-15856928D01*
X17935905Y-15847405D01*
X18107333Y-15875976D02*
X18012095Y-15875976D01*
X18002571Y-15971214D01*
X18012095Y-15961690D01*
X18031143Y-15952167D01*
X18078762Y-15952167D01*
X18097810Y-15961690D01*
X18107333Y-15971214D01*
X18116857Y-15990262D01*
X18116857Y-16037881D01*
X18107333Y-16056928D01*
X18097810Y-16066452D01*
X18078762Y-16075976D01*
X18031143Y-16075976D01*
X18012095Y-16066452D01*
X18002571Y-16056928D01*
X18354952Y-16075976D02*
X18354952Y-15875976D01*
X18440667Y-16075976D02*
X18440667Y-15971214D01*
X18431143Y-15952167D01*
X18412095Y-15942643D01*
X18383524Y-15942643D01*
X18364476Y-15952167D01*
X18354952Y-15961690D01*
X18564476Y-16075976D02*
X18545429Y-16066452D01*
X18535905Y-16056928D01*
X18526381Y-16037881D01*
X18526381Y-15980738D01*
X18535905Y-15961690D01*
X18545429Y-15952167D01*
X18564476Y-15942643D01*
X18593048Y-15942643D01*
X18612095Y-15952167D01*
X18621619Y-15961690D01*
X18631143Y-15980738D01*
X18631143Y-16037881D01*
X18621619Y-16056928D01*
X18612095Y-16066452D01*
X18593048Y-16075976D01*
X18564476Y-16075976D01*
X18745429Y-16075976D02*
X18726381Y-16066452D01*
X18716857Y-16047405D01*
X18716857Y-15875976D01*
X18897810Y-16066452D02*
X18878762Y-16075976D01*
X18840667Y-16075976D01*
X18821619Y-16066452D01*
X18812095Y-16047405D01*
X18812095Y-15971214D01*
X18821619Y-15952167D01*
X18840667Y-15942643D01*
X18878762Y-15942643D01*
X18897810Y-15952167D01*
X18907333Y-15971214D01*
X18907333Y-15990262D01*
X18812095Y-16009309D01*
X18983524Y-16066452D02*
X19002571Y-16075976D01*
X19040667Y-16075976D01*
X19059714Y-16066452D01*
X19069238Y-16047405D01*
X19069238Y-16037881D01*
X19059714Y-16018833D01*
X19040667Y-16009309D01*
X19012095Y-16009309D01*
X18993048Y-15999786D01*
X18983524Y-15980738D01*
X18983524Y-15971214D01*
X18993048Y-15952167D01*
X19012095Y-15942643D01*
X19040667Y-15942643D01*
X19059714Y-15952167D01*
X19135905Y-16152167D02*
X19145429Y-16142643D01*
X19164476Y-16114071D01*
X19174000Y-16095024D01*
X19183524Y-16066452D01*
X19193048Y-16018833D01*
X19193048Y-15980738D01*
X19183524Y-15933119D01*
X19174000Y-15904548D01*
X19164476Y-15885500D01*
X19145429Y-15856928D01*
X19135905Y-15847405D01*
X19497810Y-16152167D02*
X19488286Y-16142643D01*
X19469238Y-16114071D01*
X19459714Y-16095024D01*
X19450190Y-16066452D01*
X19440667Y-16018833D01*
X19440667Y-15980738D01*
X19450190Y-15933119D01*
X19459714Y-15904548D01*
X19469238Y-15885500D01*
X19488286Y-15856928D01*
X19497810Y-15847405D01*
X19574000Y-15942643D02*
X19574000Y-16075976D01*
X19574000Y-15961690D02*
X19583524Y-15952167D01*
X19602571Y-15942643D01*
X19631143Y-15942643D01*
X19650190Y-15952167D01*
X19659714Y-15971214D01*
X19659714Y-16075976D01*
X19783524Y-16075976D02*
X19764476Y-16066452D01*
X19754952Y-16056928D01*
X19745429Y-16037881D01*
X19745429Y-15980738D01*
X19754952Y-15961690D01*
X19764476Y-15952167D01*
X19783524Y-15942643D01*
X19812095Y-15942643D01*
X19831143Y-15952167D01*
X19840667Y-15961690D01*
X19850190Y-15980738D01*
X19850190Y-16037881D01*
X19840667Y-16056928D01*
X19831143Y-16066452D01*
X19812095Y-16075976D01*
X19783524Y-16075976D01*
X19907333Y-15942643D02*
X19983524Y-15942643D01*
X19935905Y-15875976D02*
X19935905Y-16047405D01*
X19945429Y-16066452D01*
X19964476Y-16075976D01*
X19983524Y-16075976D01*
X20202571Y-15942643D02*
X20202571Y-16142643D01*
X20202571Y-15952167D02*
X20221619Y-15942643D01*
X20259714Y-15942643D01*
X20278762Y-15952167D01*
X20288286Y-15961690D01*
X20297810Y-15980738D01*
X20297810Y-16037881D01*
X20288286Y-16056928D01*
X20278762Y-16066452D01*
X20259714Y-16075976D01*
X20221619Y-16075976D01*
X20202571Y-16066452D01*
X20412095Y-16075976D02*
X20393048Y-16066452D01*
X20383524Y-16047405D01*
X20383524Y-15875976D01*
X20574000Y-16075976D02*
X20574000Y-15971214D01*
X20564476Y-15952167D01*
X20545429Y-15942643D01*
X20507333Y-15942643D01*
X20488286Y-15952167D01*
X20574000Y-16066452D02*
X20554952Y-16075976D01*
X20507333Y-16075976D01*
X20488286Y-16066452D01*
X20478762Y-16047405D01*
X20478762Y-16028357D01*
X20488286Y-16009309D01*
X20507333Y-15999786D01*
X20554952Y-15999786D01*
X20574000Y-15990262D01*
X20640667Y-15942643D02*
X20716857Y-15942643D01*
X20669238Y-15875976D02*
X20669238Y-16047405D01*
X20678762Y-16066452D01*
X20697810Y-16075976D01*
X20716857Y-16075976D01*
X20859714Y-16066452D02*
X20840667Y-16075976D01*
X20802571Y-16075976D01*
X20783524Y-16066452D01*
X20774000Y-16047405D01*
X20774000Y-15971214D01*
X20783524Y-15952167D01*
X20802571Y-15942643D01*
X20840667Y-15942643D01*
X20859714Y-15952167D01*
X20869238Y-15971214D01*
X20869238Y-15990262D01*
X20774000Y-16009309D01*
X21040667Y-16075976D02*
X21040667Y-15875976D01*
X21040667Y-16066452D02*
X21021619Y-16075976D01*
X20983524Y-16075976D01*
X20964476Y-16066452D01*
X20954952Y-16056928D01*
X20945429Y-16037881D01*
X20945429Y-15980738D01*
X20954952Y-15961690D01*
X20964476Y-15952167D01*
X20983524Y-15942643D01*
X21021619Y-15942643D01*
X21040667Y-15952167D01*
X21116857Y-16152167D02*
X21126381Y-16142643D01*
X21145429Y-16114071D01*
X21154952Y-16095024D01*
X21164476Y-16066452D01*
X21174000Y-16018833D01*
X21174000Y-15980738D01*
X21164476Y-15933119D01*
X21154952Y-15904548D01*
X21145429Y-15885500D01*
X21126381Y-15856928D01*
X21116857Y-15847405D01*
M02*
