G04 #@! TF.GenerationSoftware,KiCad,Pcbnew,(6.0.9)*
G04 #@! TF.CreationDate,2022-11-26T17:41:20+01:00*
G04 #@! TF.ProjectId,LDAD_Junction_Box_79x31mm_AC220V,4c444144-5f4a-4756-9e63-74696f6e5f42,5.3*
G04 #@! TF.SameCoordinates,Original*
G04 #@! TF.FileFunction,AssemblyDrawing,Bot*
%FSLAX46Y46*%
G04 Gerber Fmt 4.6, Leading zero omitted, Abs format (unit mm)*
G04 Created by KiCad (PCBNEW (6.0.9)) date 2022-11-26 17:41:20*
%MOMM*%
%LPD*%
G01*
G04 APERTURE LIST*
%ADD10C,0.100000*%
%ADD11C,0.150000*%
%ADD12C,0.300000*%
%ADD13C,0.400000*%
%ADD14C,0.105000*%
%ADD15C,0.080000*%
%ADD16C,0.060000*%
%ADD17C,0.120000*%
%ADD18C,0.127000*%
G04 #@! TA.AperFunction,Profile*
%ADD19C,0.120000*%
G04 #@! TD*
%ADD20C,0.200000*%
G04 APERTURE END LIST*
D10*
D11*
X177002200Y-166007200D02*
X177002200Y-198007200D01*
X285002200Y-198007200D01*
X285002200Y-166007200D01*
X177002200Y-166007200D01*
D10*
D11*
X10000000Y-10000000D02*
X10000000Y-200007200D01*
X287002200Y-200007200D01*
X287002200Y-10000000D01*
X10000000Y-10000000D01*
D10*
D11*
X12000000Y-12000000D02*
X12000000Y-198007200D01*
X285002200Y-198007200D01*
X285002200Y-12000000D01*
X12000000Y-12000000D01*
D10*
D11*
X60000000Y-12000000D02*
X60000000Y-10000000D01*
D10*
D11*
X110000000Y-12000000D02*
X110000000Y-10000000D01*
D10*
D11*
X160000000Y-12000000D02*
X160000000Y-10000000D01*
D10*
D11*
X210000000Y-12000000D02*
X210000000Y-10000000D01*
D10*
D11*
X260000000Y-12000000D02*
X260000000Y-10000000D01*
D10*
D11*
X36065476Y-11588095D02*
X35322619Y-11588095D01*
X35694047Y-11588095D02*
X35694047Y-10288095D01*
X35570238Y-10473809D01*
X35446428Y-10597619D01*
X35322619Y-10659523D01*
D10*
D11*
X85322619Y-10411904D02*
X85384523Y-10350000D01*
X85508333Y-10288095D01*
X85817857Y-10288095D01*
X85941666Y-10350000D01*
X86003571Y-10411904D01*
X86065476Y-10535714D01*
X86065476Y-10659523D01*
X86003571Y-10845238D01*
X85260714Y-11588095D01*
X86065476Y-11588095D01*
D10*
D11*
X135260714Y-10288095D02*
X136065476Y-10288095D01*
X135632142Y-10783333D01*
X135817857Y-10783333D01*
X135941666Y-10845238D01*
X136003571Y-10907142D01*
X136065476Y-11030952D01*
X136065476Y-11340476D01*
X136003571Y-11464285D01*
X135941666Y-11526190D01*
X135817857Y-11588095D01*
X135446428Y-11588095D01*
X135322619Y-11526190D01*
X135260714Y-11464285D01*
D10*
D11*
X185941666Y-10721428D02*
X185941666Y-11588095D01*
X185632142Y-10226190D02*
X185322619Y-11154761D01*
X186127380Y-11154761D01*
D10*
D11*
X236003571Y-10288095D02*
X235384523Y-10288095D01*
X235322619Y-10907142D01*
X235384523Y-10845238D01*
X235508333Y-10783333D01*
X235817857Y-10783333D01*
X235941666Y-10845238D01*
X236003571Y-10907142D01*
X236065476Y-11030952D01*
X236065476Y-11340476D01*
X236003571Y-11464285D01*
X235941666Y-11526190D01*
X235817857Y-11588095D01*
X235508333Y-11588095D01*
X235384523Y-11526190D01*
X235322619Y-11464285D01*
D10*
D11*
X285941666Y-10288095D02*
X285694047Y-10288095D01*
X285570238Y-10350000D01*
X285508333Y-10411904D01*
X285384523Y-10597619D01*
X285322619Y-10845238D01*
X285322619Y-11340476D01*
X285384523Y-11464285D01*
X285446428Y-11526190D01*
X285570238Y-11588095D01*
X285817857Y-11588095D01*
X285941666Y-11526190D01*
X286003571Y-11464285D01*
X286065476Y-11340476D01*
X286065476Y-11030952D01*
X286003571Y-10907142D01*
X285941666Y-10845238D01*
X285817857Y-10783333D01*
X285570238Y-10783333D01*
X285446428Y-10845238D01*
X285384523Y-10907142D01*
X285322619Y-11030952D01*
D10*
D11*
X60000000Y-198007200D02*
X60000000Y-200007200D01*
D10*
D11*
X110000000Y-198007200D02*
X110000000Y-200007200D01*
D10*
D11*
X160000000Y-198007200D02*
X160000000Y-200007200D01*
D10*
D11*
X210000000Y-198007200D02*
X210000000Y-200007200D01*
D10*
D11*
X260000000Y-198007200D02*
X260000000Y-200007200D01*
D10*
D11*
X36065476Y-199595295D02*
X35322619Y-199595295D01*
X35694047Y-199595295D02*
X35694047Y-198295295D01*
X35570238Y-198481009D01*
X35446428Y-198604819D01*
X35322619Y-198666723D01*
D10*
D11*
X85322619Y-198419104D02*
X85384523Y-198357200D01*
X85508333Y-198295295D01*
X85817857Y-198295295D01*
X85941666Y-198357200D01*
X86003571Y-198419104D01*
X86065476Y-198542914D01*
X86065476Y-198666723D01*
X86003571Y-198852438D01*
X85260714Y-199595295D01*
X86065476Y-199595295D01*
D10*
D11*
X135260714Y-198295295D02*
X136065476Y-198295295D01*
X135632142Y-198790533D01*
X135817857Y-198790533D01*
X135941666Y-198852438D01*
X136003571Y-198914342D01*
X136065476Y-199038152D01*
X136065476Y-199347676D01*
X136003571Y-199471485D01*
X135941666Y-199533390D01*
X135817857Y-199595295D01*
X135446428Y-199595295D01*
X135322619Y-199533390D01*
X135260714Y-199471485D01*
D10*
D11*
X185941666Y-198728628D02*
X185941666Y-199595295D01*
X185632142Y-198233390D02*
X185322619Y-199161961D01*
X186127380Y-199161961D01*
D10*
D11*
X236003571Y-198295295D02*
X235384523Y-198295295D01*
X235322619Y-198914342D01*
X235384523Y-198852438D01*
X235508333Y-198790533D01*
X235817857Y-198790533D01*
X235941666Y-198852438D01*
X236003571Y-198914342D01*
X236065476Y-199038152D01*
X236065476Y-199347676D01*
X236003571Y-199471485D01*
X235941666Y-199533390D01*
X235817857Y-199595295D01*
X235508333Y-199595295D01*
X235384523Y-199533390D01*
X235322619Y-199471485D01*
D10*
D11*
X285941666Y-198295295D02*
X285694047Y-198295295D01*
X285570238Y-198357200D01*
X285508333Y-198419104D01*
X285384523Y-198604819D01*
X285322619Y-198852438D01*
X285322619Y-199347676D01*
X285384523Y-199471485D01*
X285446428Y-199533390D01*
X285570238Y-199595295D01*
X285817857Y-199595295D01*
X285941666Y-199533390D01*
X286003571Y-199471485D01*
X286065476Y-199347676D01*
X286065476Y-199038152D01*
X286003571Y-198914342D01*
X285941666Y-198852438D01*
X285817857Y-198790533D01*
X285570238Y-198790533D01*
X285446428Y-198852438D01*
X285384523Y-198914342D01*
X285322619Y-199038152D01*
D10*
D11*
X10000000Y-60000000D02*
X12000000Y-60000000D01*
D10*
D11*
X10000000Y-110000000D02*
X12000000Y-110000000D01*
D10*
D11*
X10000000Y-160000000D02*
X12000000Y-160000000D01*
D10*
D11*
X10690476Y-35216666D02*
X11309523Y-35216666D01*
X10566666Y-35588095D02*
X11000000Y-34288095D01*
X11433333Y-35588095D01*
D10*
D11*
X11092857Y-84907142D02*
X11278571Y-84969047D01*
X11340476Y-85030952D01*
X11402380Y-85154761D01*
X11402380Y-85340476D01*
X11340476Y-85464285D01*
X11278571Y-85526190D01*
X11154761Y-85588095D01*
X10659523Y-85588095D01*
X10659523Y-84288095D01*
X11092857Y-84288095D01*
X11216666Y-84350000D01*
X11278571Y-84411904D01*
X11340476Y-84535714D01*
X11340476Y-84659523D01*
X11278571Y-84783333D01*
X11216666Y-84845238D01*
X11092857Y-84907142D01*
X10659523Y-84907142D01*
D10*
D11*
X11402380Y-135464285D02*
X11340476Y-135526190D01*
X11154761Y-135588095D01*
X11030952Y-135588095D01*
X10845238Y-135526190D01*
X10721428Y-135402380D01*
X10659523Y-135278571D01*
X10597619Y-135030952D01*
X10597619Y-134845238D01*
X10659523Y-134597619D01*
X10721428Y-134473809D01*
X10845238Y-134350000D01*
X11030952Y-134288095D01*
X11154761Y-134288095D01*
X11340476Y-134350000D01*
X11402380Y-134411904D01*
D10*
D11*
X10659523Y-185588095D02*
X10659523Y-184288095D01*
X10969047Y-184288095D01*
X11154761Y-184350000D01*
X11278571Y-184473809D01*
X11340476Y-184597619D01*
X11402380Y-184845238D01*
X11402380Y-185030952D01*
X11340476Y-185278571D01*
X11278571Y-185402380D01*
X11154761Y-185526190D01*
X10969047Y-185588095D01*
X10659523Y-185588095D01*
D10*
D11*
X287002200Y-60000000D02*
X285002200Y-60000000D01*
D10*
D11*
X287002200Y-110000000D02*
X285002200Y-110000000D01*
D10*
D11*
X287002200Y-160000000D02*
X285002200Y-160000000D01*
D10*
D11*
X285692676Y-35216666D02*
X286311723Y-35216666D01*
X285568866Y-35588095D02*
X286002200Y-34288095D01*
X286435533Y-35588095D01*
D10*
D11*
X286095057Y-84907142D02*
X286280771Y-84969047D01*
X286342676Y-85030952D01*
X286404580Y-85154761D01*
X286404580Y-85340476D01*
X286342676Y-85464285D01*
X286280771Y-85526190D01*
X286156961Y-85588095D01*
X285661723Y-85588095D01*
X285661723Y-84288095D01*
X286095057Y-84288095D01*
X286218866Y-84350000D01*
X286280771Y-84411904D01*
X286342676Y-84535714D01*
X286342676Y-84659523D01*
X286280771Y-84783333D01*
X286218866Y-84845238D01*
X286095057Y-84907142D01*
X285661723Y-84907142D01*
D10*
D11*
X286404580Y-135464285D02*
X286342676Y-135526190D01*
X286156961Y-135588095D01*
X286033152Y-135588095D01*
X285847438Y-135526190D01*
X285723628Y-135402380D01*
X285661723Y-135278571D01*
X285599819Y-135030952D01*
X285599819Y-134845238D01*
X285661723Y-134597619D01*
X285723628Y-134473809D01*
X285847438Y-134350000D01*
X286033152Y-134288095D01*
X286156961Y-134288095D01*
X286342676Y-134350000D01*
X286404580Y-134411904D01*
D10*
D11*
X285661723Y-185588095D02*
X285661723Y-184288095D01*
X285971247Y-184288095D01*
X286156961Y-184350000D01*
X286280771Y-184473809D01*
X286342676Y-184597619D01*
X286404580Y-184845238D01*
X286404580Y-185030952D01*
X286342676Y-185278571D01*
X286280771Y-185402380D01*
X286156961Y-185526190D01*
X285971247Y-185588095D01*
X285661723Y-185588095D01*
D10*
D11*
X200434342Y-193785771D02*
X200434342Y-192285771D01*
X200791485Y-192285771D01*
X201005771Y-192357200D01*
X201148628Y-192500057D01*
X201220057Y-192642914D01*
X201291485Y-192928628D01*
X201291485Y-193142914D01*
X201220057Y-193428628D01*
X201148628Y-193571485D01*
X201005771Y-193714342D01*
X200791485Y-193785771D01*
X200434342Y-193785771D01*
X202577200Y-193785771D02*
X202577200Y-193000057D01*
X202505771Y-192857200D01*
X202362914Y-192785771D01*
X202077200Y-192785771D01*
X201934342Y-192857200D01*
X202577200Y-193714342D02*
X202434342Y-193785771D01*
X202077200Y-193785771D01*
X201934342Y-193714342D01*
X201862914Y-193571485D01*
X201862914Y-193428628D01*
X201934342Y-193285771D01*
X202077200Y-193214342D01*
X202434342Y-193214342D01*
X202577200Y-193142914D01*
X203077200Y-192785771D02*
X203648628Y-192785771D01*
X203291485Y-192285771D02*
X203291485Y-193571485D01*
X203362914Y-193714342D01*
X203505771Y-193785771D01*
X203648628Y-193785771D01*
X204720057Y-193714342D02*
X204577200Y-193785771D01*
X204291485Y-193785771D01*
X204148628Y-193714342D01*
X204077200Y-193571485D01*
X204077200Y-193000057D01*
X204148628Y-192857200D01*
X204291485Y-192785771D01*
X204577200Y-192785771D01*
X204720057Y-192857200D01*
X204791485Y-193000057D01*
X204791485Y-193142914D01*
X204077200Y-193285771D01*
X205434342Y-193642914D02*
X205505771Y-193714342D01*
X205434342Y-193785771D01*
X205362914Y-193714342D01*
X205434342Y-193642914D01*
X205434342Y-193785771D01*
X205434342Y-192857200D02*
X205505771Y-192928628D01*
X205434342Y-193000057D01*
X205362914Y-192928628D01*
X205434342Y-192857200D01*
X205434342Y-193000057D01*
X207220057Y-192428628D02*
X207291485Y-192357200D01*
X207434342Y-192285771D01*
X207791485Y-192285771D01*
X207934342Y-192357200D01*
X208005771Y-192428628D01*
X208077200Y-192571485D01*
X208077200Y-192714342D01*
X208005771Y-192928628D01*
X207148628Y-193785771D01*
X208077200Y-193785771D01*
X209005771Y-192285771D02*
X209148628Y-192285771D01*
X209291485Y-192357200D01*
X209362914Y-192428628D01*
X209434342Y-192571485D01*
X209505771Y-192857200D01*
X209505771Y-193214342D01*
X209434342Y-193500057D01*
X209362914Y-193642914D01*
X209291485Y-193714342D01*
X209148628Y-193785771D01*
X209005771Y-193785771D01*
X208862914Y-193714342D01*
X208791485Y-193642914D01*
X208720057Y-193500057D01*
X208648628Y-193214342D01*
X208648628Y-192857200D01*
X208720057Y-192571485D01*
X208791485Y-192428628D01*
X208862914Y-192357200D01*
X209005771Y-192285771D01*
X210077200Y-192428628D02*
X210148628Y-192357200D01*
X210291485Y-192285771D01*
X210648628Y-192285771D01*
X210791485Y-192357200D01*
X210862914Y-192428628D01*
X210934342Y-192571485D01*
X210934342Y-192714342D01*
X210862914Y-192928628D01*
X210005771Y-193785771D01*
X210934342Y-193785771D01*
X212362914Y-193785771D02*
X211505771Y-193785771D01*
X211934342Y-193785771D02*
X211934342Y-192285771D01*
X211791485Y-192500057D01*
X211648628Y-192642914D01*
X211505771Y-192714342D01*
X213005771Y-193214342D02*
X214148628Y-193214342D01*
X215648628Y-193785771D02*
X214791485Y-193785771D01*
X215220057Y-193785771D02*
X215220057Y-192285771D01*
X215077200Y-192500057D01*
X214934342Y-192642914D01*
X214791485Y-192714342D01*
X216220057Y-192428628D02*
X216291485Y-192357200D01*
X216434342Y-192285771D01*
X216791485Y-192285771D01*
X216934342Y-192357200D01*
X217005771Y-192428628D01*
X217077200Y-192571485D01*
X217077200Y-192714342D01*
X217005771Y-192928628D01*
X216148628Y-193785771D01*
X217077200Y-193785771D01*
X217720057Y-193214342D02*
X218862914Y-193214342D01*
X219505771Y-192428628D02*
X219577200Y-192357200D01*
X219720057Y-192285771D01*
X220077200Y-192285771D01*
X220220057Y-192357200D01*
X220291485Y-192428628D01*
X220362914Y-192571485D01*
X220362914Y-192714342D01*
X220291485Y-192928628D01*
X219434342Y-193785771D01*
X220362914Y-193785771D01*
X221220057Y-192928628D02*
X221077200Y-192857200D01*
X221005771Y-192785771D01*
X220934342Y-192642914D01*
X220934342Y-192571485D01*
X221005771Y-192428628D01*
X221077200Y-192357200D01*
X221220057Y-192285771D01*
X221505771Y-192285771D01*
X221648628Y-192357200D01*
X221720057Y-192428628D01*
X221791485Y-192571485D01*
X221791485Y-192642914D01*
X221720057Y-192785771D01*
X221648628Y-192857200D01*
X221505771Y-192928628D01*
X221220057Y-192928628D01*
X221077200Y-193000057D01*
X221005771Y-193071485D01*
X220934342Y-193214342D01*
X220934342Y-193500057D01*
X221005771Y-193642914D01*
X221077200Y-193714342D01*
X221220057Y-193785771D01*
X221505771Y-193785771D01*
X221648628Y-193714342D01*
X221720057Y-193642914D01*
X221791485Y-193500057D01*
X221791485Y-193214342D01*
X221720057Y-193071485D01*
X221648628Y-193000057D01*
X221505771Y-192928628D01*
D10*
D11*
X177002200Y-194507200D02*
X285002200Y-194507200D01*
D10*
D11*
X178434342Y-196585771D02*
X178434342Y-195085771D01*
X179291485Y-196585771D02*
X178648628Y-195728628D01*
X179291485Y-195085771D02*
X178434342Y-195942914D01*
X179934342Y-196585771D02*
X179934342Y-195585771D01*
X179934342Y-195085771D02*
X179862914Y-195157200D01*
X179934342Y-195228628D01*
X180005771Y-195157200D01*
X179934342Y-195085771D01*
X179934342Y-195228628D01*
X181505771Y-196442914D02*
X181434342Y-196514342D01*
X181220057Y-196585771D01*
X181077200Y-196585771D01*
X180862914Y-196514342D01*
X180720057Y-196371485D01*
X180648628Y-196228628D01*
X180577200Y-195942914D01*
X180577200Y-195728628D01*
X180648628Y-195442914D01*
X180720057Y-195300057D01*
X180862914Y-195157200D01*
X181077200Y-195085771D01*
X181220057Y-195085771D01*
X181434342Y-195157200D01*
X181505771Y-195228628D01*
X182791485Y-196585771D02*
X182791485Y-195800057D01*
X182720057Y-195657200D01*
X182577200Y-195585771D01*
X182291485Y-195585771D01*
X182148628Y-195657200D01*
X182791485Y-196514342D02*
X182648628Y-196585771D01*
X182291485Y-196585771D01*
X182148628Y-196514342D01*
X182077200Y-196371485D01*
X182077200Y-196228628D01*
X182148628Y-196085771D01*
X182291485Y-196014342D01*
X182648628Y-196014342D01*
X182791485Y-195942914D01*
X184148628Y-196585771D02*
X184148628Y-195085771D01*
X184148628Y-196514342D02*
X184005771Y-196585771D01*
X183720057Y-196585771D01*
X183577200Y-196514342D01*
X183505771Y-196442914D01*
X183434342Y-196300057D01*
X183434342Y-195871485D01*
X183505771Y-195728628D01*
X183577200Y-195657200D01*
X183720057Y-195585771D01*
X184005771Y-195585771D01*
X184148628Y-195657200D01*
X186005771Y-195800057D02*
X186505771Y-195800057D01*
X186720057Y-196585771D02*
X186005771Y-196585771D01*
X186005771Y-195085771D01*
X186720057Y-195085771D01*
X187362914Y-196442914D02*
X187434342Y-196514342D01*
X187362914Y-196585771D01*
X187291485Y-196514342D01*
X187362914Y-196442914D01*
X187362914Y-196585771D01*
X188077200Y-196585771D02*
X188077200Y-195085771D01*
X188434342Y-195085771D01*
X188648628Y-195157200D01*
X188791485Y-195300057D01*
X188862914Y-195442914D01*
X188934342Y-195728628D01*
X188934342Y-195942914D01*
X188862914Y-196228628D01*
X188791485Y-196371485D01*
X188648628Y-196514342D01*
X188434342Y-196585771D01*
X188077200Y-196585771D01*
X189577200Y-196442914D02*
X189648628Y-196514342D01*
X189577200Y-196585771D01*
X189505771Y-196514342D01*
X189577200Y-196442914D01*
X189577200Y-196585771D01*
X190220057Y-196157200D02*
X190934342Y-196157200D01*
X190077200Y-196585771D02*
X190577200Y-195085771D01*
X191077200Y-196585771D01*
X191577200Y-196442914D02*
X191648628Y-196514342D01*
X191577200Y-196585771D01*
X191505771Y-196514342D01*
X191577200Y-196442914D01*
X191577200Y-196585771D01*
X194577200Y-196585771D02*
X194577200Y-195085771D01*
X194720057Y-196014342D02*
X195148628Y-196585771D01*
X195148628Y-195585771D02*
X194577200Y-196157200D01*
X195791485Y-196585771D02*
X195791485Y-195585771D01*
X195791485Y-195085771D02*
X195720057Y-195157200D01*
X195791485Y-195228628D01*
X195862914Y-195157200D01*
X195791485Y-195085771D01*
X195791485Y-195228628D01*
X197148628Y-196514342D02*
X197005771Y-196585771D01*
X196720057Y-196585771D01*
X196577200Y-196514342D01*
X196505771Y-196442914D01*
X196434342Y-196300057D01*
X196434342Y-195871485D01*
X196505771Y-195728628D01*
X196577200Y-195657200D01*
X196720057Y-195585771D01*
X197005771Y-195585771D01*
X197148628Y-195657200D01*
X198434342Y-196585771D02*
X198434342Y-195800057D01*
X198362914Y-195657200D01*
X198220057Y-195585771D01*
X197934342Y-195585771D01*
X197791485Y-195657200D01*
X198434342Y-196514342D02*
X198291485Y-196585771D01*
X197934342Y-196585771D01*
X197791485Y-196514342D01*
X197720057Y-196371485D01*
X197720057Y-196228628D01*
X197791485Y-196085771D01*
X197934342Y-196014342D01*
X198291485Y-196014342D01*
X198434342Y-195942914D01*
X199791485Y-196585771D02*
X199791485Y-195085771D01*
X199791485Y-196514342D02*
X199648628Y-196585771D01*
X199362914Y-196585771D01*
X199220057Y-196514342D01*
X199148628Y-196442914D01*
X199077200Y-196300057D01*
X199077200Y-195871485D01*
X199148628Y-195728628D01*
X199220057Y-195657200D01*
X199362914Y-195585771D01*
X199648628Y-195585771D01*
X199791485Y-195657200D01*
X202077200Y-197157200D02*
X202005771Y-197085771D01*
X201862914Y-196871485D01*
X201791485Y-196728628D01*
X201720057Y-196514342D01*
X201648628Y-196157200D01*
X201648628Y-195871485D01*
X201720057Y-195514342D01*
X201791485Y-195300057D01*
X201862914Y-195157200D01*
X202005771Y-194942914D01*
X202077200Y-194871485D01*
X203291485Y-195085771D02*
X203005771Y-195085771D01*
X202862914Y-195157200D01*
X202791485Y-195228628D01*
X202648628Y-195442914D01*
X202577200Y-195728628D01*
X202577200Y-196300057D01*
X202648628Y-196442914D01*
X202720057Y-196514342D01*
X202862914Y-196585771D01*
X203148628Y-196585771D01*
X203291485Y-196514342D01*
X203362914Y-196442914D01*
X203434342Y-196300057D01*
X203434342Y-195942914D01*
X203362914Y-195800057D01*
X203291485Y-195728628D01*
X203148628Y-195657200D01*
X202862914Y-195657200D01*
X202720057Y-195728628D01*
X202648628Y-195800057D01*
X202577200Y-195942914D01*
X204077200Y-196442914D02*
X204148628Y-196514342D01*
X204077200Y-196585771D01*
X204005771Y-196514342D01*
X204077200Y-196442914D01*
X204077200Y-196585771D01*
X205077200Y-195085771D02*
X205220057Y-195085771D01*
X205362914Y-195157200D01*
X205434342Y-195228628D01*
X205505771Y-195371485D01*
X205577200Y-195657200D01*
X205577200Y-196014342D01*
X205505771Y-196300057D01*
X205434342Y-196442914D01*
X205362914Y-196514342D01*
X205220057Y-196585771D01*
X205077200Y-196585771D01*
X204934342Y-196514342D01*
X204862914Y-196442914D01*
X204791485Y-196300057D01*
X204720057Y-196014342D01*
X204720057Y-195657200D01*
X204791485Y-195371485D01*
X204862914Y-195228628D01*
X204934342Y-195157200D01*
X205077200Y-195085771D01*
X206220057Y-196442914D02*
X206291485Y-196514342D01*
X206220057Y-196585771D01*
X206148628Y-196514342D01*
X206220057Y-196442914D01*
X206220057Y-196585771D01*
X207005771Y-196585771D02*
X207291485Y-196585771D01*
X207434342Y-196514342D01*
X207505771Y-196442914D01*
X207648628Y-196228628D01*
X207720057Y-195942914D01*
X207720057Y-195371485D01*
X207648628Y-195228628D01*
X207577200Y-195157200D01*
X207434342Y-195085771D01*
X207148628Y-195085771D01*
X207005771Y-195157200D01*
X206934342Y-195228628D01*
X206862914Y-195371485D01*
X206862914Y-195728628D01*
X206934342Y-195871485D01*
X207005771Y-195942914D01*
X207148628Y-196014342D01*
X207434342Y-196014342D01*
X207577200Y-195942914D01*
X207648628Y-195871485D01*
X207720057Y-195728628D01*
X208220057Y-197157200D02*
X208291485Y-197085771D01*
X208434342Y-196871485D01*
X208505771Y-196728628D01*
X208577200Y-196514342D01*
X208648628Y-196157200D01*
X208648628Y-195871485D01*
X208577200Y-195514342D01*
X208505771Y-195300057D01*
X208434342Y-195157200D01*
X208291485Y-194942914D01*
X208220057Y-194871485D01*
D10*
D11*
X177002200Y-191507200D02*
X285002200Y-191507200D01*
D10*
D12*
X264411485Y-193785771D02*
X263911485Y-193071485D01*
X263554342Y-193785771D02*
X263554342Y-192285771D01*
X264125771Y-192285771D01*
X264268628Y-192357200D01*
X264340057Y-192428628D01*
X264411485Y-192571485D01*
X264411485Y-192785771D01*
X264340057Y-192928628D01*
X264268628Y-193000057D01*
X264125771Y-193071485D01*
X263554342Y-193071485D01*
X265625771Y-193714342D02*
X265482914Y-193785771D01*
X265197200Y-193785771D01*
X265054342Y-193714342D01*
X264982914Y-193571485D01*
X264982914Y-193000057D01*
X265054342Y-192857200D01*
X265197200Y-192785771D01*
X265482914Y-192785771D01*
X265625771Y-192857200D01*
X265697200Y-193000057D01*
X265697200Y-193142914D01*
X264982914Y-193285771D01*
X266197200Y-192785771D02*
X266554342Y-193785771D01*
X266911485Y-192785771D01*
X267482914Y-193642914D02*
X267554342Y-193714342D01*
X267482914Y-193785771D01*
X267411485Y-193714342D01*
X267482914Y-193642914D01*
X267482914Y-193785771D01*
X267482914Y-192857200D02*
X267554342Y-192928628D01*
X267482914Y-193000057D01*
X267411485Y-192928628D01*
X267482914Y-192857200D01*
X267482914Y-193000057D01*
X270054342Y-192285771D02*
X269340057Y-192285771D01*
X269268628Y-193000057D01*
X269340057Y-192928628D01*
X269482914Y-192857200D01*
X269840057Y-192857200D01*
X269982914Y-192928628D01*
X270054342Y-193000057D01*
X270125771Y-193142914D01*
X270125771Y-193500057D01*
X270054342Y-193642914D01*
X269982914Y-193714342D01*
X269840057Y-193785771D01*
X269482914Y-193785771D01*
X269340057Y-193714342D01*
X269268628Y-193642914D01*
X270768628Y-193642914D02*
X270840057Y-193714342D01*
X270768628Y-193785771D01*
X270697200Y-193714342D01*
X270768628Y-193642914D01*
X270768628Y-193785771D01*
X271340057Y-192285771D02*
X272268628Y-192285771D01*
X271768628Y-192857200D01*
X271982914Y-192857200D01*
X272125771Y-192928628D01*
X272197200Y-193000057D01*
X272268628Y-193142914D01*
X272268628Y-193500057D01*
X272197200Y-193642914D01*
X272125771Y-193714342D01*
X271982914Y-193785771D01*
X271554342Y-193785771D01*
X271411485Y-193714342D01*
X271340057Y-193642914D01*
D10*
D11*
X178362914Y-193714342D02*
X178577200Y-193785771D01*
X178934342Y-193785771D01*
X179077200Y-193714342D01*
X179148628Y-193642914D01*
X179220057Y-193500057D01*
X179220057Y-193357200D01*
X179148628Y-193214342D01*
X179077200Y-193142914D01*
X178934342Y-193071485D01*
X178648628Y-193000057D01*
X178505771Y-192928628D01*
X178434342Y-192857200D01*
X178362914Y-192714342D01*
X178362914Y-192571485D01*
X178434342Y-192428628D01*
X178505771Y-192357200D01*
X178648628Y-192285771D01*
X179005771Y-192285771D01*
X179220057Y-192357200D01*
X179862914Y-193785771D02*
X179862914Y-192785771D01*
X179862914Y-192285771D02*
X179791485Y-192357200D01*
X179862914Y-192428628D01*
X179934342Y-192357200D01*
X179862914Y-192285771D01*
X179862914Y-192428628D01*
X180434342Y-192785771D02*
X181220057Y-192785771D01*
X180434342Y-193785771D01*
X181220057Y-193785771D01*
X182362914Y-193714342D02*
X182220057Y-193785771D01*
X181934342Y-193785771D01*
X181791485Y-193714342D01*
X181720057Y-193571485D01*
X181720057Y-193000057D01*
X181791485Y-192857200D01*
X181934342Y-192785771D01*
X182220057Y-192785771D01*
X182362914Y-192857200D01*
X182434342Y-193000057D01*
X182434342Y-193142914D01*
X181720057Y-193285771D01*
X183077200Y-193642914D02*
X183148628Y-193714342D01*
X183077200Y-193785771D01*
X183005771Y-193714342D01*
X183077200Y-193642914D01*
X183077200Y-193785771D01*
X183077200Y-192857200D02*
X183148628Y-192928628D01*
X183077200Y-193000057D01*
X183005771Y-192928628D01*
X183077200Y-192857200D01*
X183077200Y-193000057D01*
X184862914Y-193357200D02*
X185577200Y-193357200D01*
X184720057Y-193785771D02*
X185220057Y-192285771D01*
X185720057Y-193785771D01*
X186862914Y-192785771D02*
X186862914Y-193785771D01*
X186505771Y-192214342D02*
X186148628Y-193285771D01*
X187077200Y-193285771D01*
D10*
D11*
X263434342Y-196585771D02*
X263434342Y-195085771D01*
X264791485Y-196585771D02*
X264791485Y-195085771D01*
X264791485Y-196514342D02*
X264648628Y-196585771D01*
X264362914Y-196585771D01*
X264220057Y-196514342D01*
X264148628Y-196442914D01*
X264077200Y-196300057D01*
X264077200Y-195871485D01*
X264148628Y-195728628D01*
X264220057Y-195657200D01*
X264362914Y-195585771D01*
X264648628Y-195585771D01*
X264791485Y-195657200D01*
X265505771Y-196442914D02*
X265577200Y-196514342D01*
X265505771Y-196585771D01*
X265434342Y-196514342D01*
X265505771Y-196442914D01*
X265505771Y-196585771D01*
X265505771Y-195657200D02*
X265577200Y-195728628D01*
X265505771Y-195800057D01*
X265434342Y-195728628D01*
X265505771Y-195657200D01*
X265505771Y-195800057D01*
X268148628Y-196585771D02*
X267291485Y-196585771D01*
X267720057Y-196585771D02*
X267720057Y-195085771D01*
X267577200Y-195300057D01*
X267434342Y-195442914D01*
X267291485Y-195514342D01*
X269862914Y-195014342D02*
X268577200Y-196942914D01*
X271148628Y-196585771D02*
X270291485Y-196585771D01*
X270720057Y-196585771D02*
X270720057Y-195085771D01*
X270577200Y-195300057D01*
X270434342Y-195442914D01*
X270291485Y-195514342D01*
D10*
D11*
X177002200Y-187507200D02*
X285002200Y-187507200D01*
D10*
D13*
X178714580Y-188211961D02*
X179857438Y-188211961D01*
X179036009Y-190211961D02*
X179286009Y-188211961D01*
X180274104Y-190211961D02*
X180440771Y-188878628D01*
X180524104Y-188211961D02*
X180416961Y-188307200D01*
X180500295Y-188402438D01*
X180607438Y-188307200D01*
X180524104Y-188211961D01*
X180500295Y-188402438D01*
X181107438Y-188878628D02*
X181869342Y-188878628D01*
X181476485Y-188211961D02*
X181262200Y-189926247D01*
X181333628Y-190116723D01*
X181512200Y-190211961D01*
X181702676Y-190211961D01*
X182655057Y-190211961D02*
X182476485Y-190116723D01*
X182405057Y-189926247D01*
X182619342Y-188211961D01*
X184190771Y-190116723D02*
X183988390Y-190211961D01*
X183607438Y-190211961D01*
X183428866Y-190116723D01*
X183357438Y-189926247D01*
X183452676Y-189164342D01*
X183571723Y-188973866D01*
X183774104Y-188878628D01*
X184155057Y-188878628D01*
X184333628Y-188973866D01*
X184405057Y-189164342D01*
X184381247Y-189354819D01*
X183405057Y-189545295D01*
X185155057Y-190021485D02*
X185238390Y-190116723D01*
X185131247Y-190211961D01*
X185047914Y-190116723D01*
X185155057Y-190021485D01*
X185131247Y-190211961D01*
X185286009Y-188973866D02*
X185369342Y-189069104D01*
X185262200Y-189164342D01*
X185178866Y-189069104D01*
X185286009Y-188973866D01*
X185262200Y-189164342D01*
D10*
D11*
X178934342Y-185600057D02*
X178434342Y-185600057D01*
X178434342Y-186385771D02*
X178434342Y-184885771D01*
X179148628Y-184885771D01*
X179720057Y-186385771D02*
X179720057Y-185385771D01*
X179720057Y-184885771D02*
X179648628Y-184957200D01*
X179720057Y-185028628D01*
X179791485Y-184957200D01*
X179720057Y-184885771D01*
X179720057Y-185028628D01*
X180648628Y-186385771D02*
X180505771Y-186314342D01*
X180434342Y-186171485D01*
X180434342Y-184885771D01*
X181791485Y-186314342D02*
X181648628Y-186385771D01*
X181362914Y-186385771D01*
X181220057Y-186314342D01*
X181148628Y-186171485D01*
X181148628Y-185600057D01*
X181220057Y-185457200D01*
X181362914Y-185385771D01*
X181648628Y-185385771D01*
X181791485Y-185457200D01*
X181862914Y-185600057D01*
X181862914Y-185742914D01*
X181148628Y-185885771D01*
X182505771Y-186242914D02*
X182577200Y-186314342D01*
X182505771Y-186385771D01*
X182434342Y-186314342D01*
X182505771Y-186242914D01*
X182505771Y-186385771D01*
X182505771Y-185457200D02*
X182577200Y-185528628D01*
X182505771Y-185600057D01*
X182434342Y-185528628D01*
X182505771Y-185457200D01*
X182505771Y-185600057D01*
X185077200Y-186385771D02*
X184362914Y-186385771D01*
X184362914Y-184885771D01*
X185577200Y-186385771D02*
X185577200Y-184885771D01*
X185934342Y-184885771D01*
X186148628Y-184957200D01*
X186291485Y-185100057D01*
X186362914Y-185242914D01*
X186434342Y-185528628D01*
X186434342Y-185742914D01*
X186362914Y-186028628D01*
X186291485Y-186171485D01*
X186148628Y-186314342D01*
X185934342Y-186385771D01*
X185577200Y-186385771D01*
X187005771Y-185957200D02*
X187720057Y-185957200D01*
X186862914Y-186385771D02*
X187362914Y-184885771D01*
X187862914Y-186385771D01*
X188362914Y-186385771D02*
X188362914Y-184885771D01*
X188720057Y-184885771D01*
X188934342Y-184957200D01*
X189077200Y-185100057D01*
X189148628Y-185242914D01*
X189220057Y-185528628D01*
X189220057Y-185742914D01*
X189148628Y-186028628D01*
X189077200Y-186171485D01*
X188934342Y-186314342D01*
X188720057Y-186385771D01*
X188362914Y-186385771D01*
X189505771Y-186528628D02*
X190648628Y-186528628D01*
X191434342Y-184885771D02*
X191434342Y-185957200D01*
X191362914Y-186171485D01*
X191220057Y-186314342D01*
X191005771Y-186385771D01*
X190862914Y-186385771D01*
X192791485Y-185385771D02*
X192791485Y-186385771D01*
X192148628Y-185385771D02*
X192148628Y-186171485D01*
X192220057Y-186314342D01*
X192362914Y-186385771D01*
X192577200Y-186385771D01*
X192720057Y-186314342D01*
X192791485Y-186242914D01*
X193505771Y-185385771D02*
X193505771Y-186385771D01*
X193505771Y-185528628D02*
X193577200Y-185457200D01*
X193720057Y-185385771D01*
X193934342Y-185385771D01*
X194077200Y-185457200D01*
X194148628Y-185600057D01*
X194148628Y-186385771D01*
X195505771Y-186314342D02*
X195362914Y-186385771D01*
X195077200Y-186385771D01*
X194934342Y-186314342D01*
X194862914Y-186242914D01*
X194791485Y-186100057D01*
X194791485Y-185671485D01*
X194862914Y-185528628D01*
X194934342Y-185457200D01*
X195077200Y-185385771D01*
X195362914Y-185385771D01*
X195505771Y-185457200D01*
X195934342Y-185385771D02*
X196505771Y-185385771D01*
X196148628Y-184885771D02*
X196148628Y-186171485D01*
X196220057Y-186314342D01*
X196362914Y-186385771D01*
X196505771Y-186385771D01*
X197005771Y-186385771D02*
X197005771Y-185385771D01*
X197005771Y-184885771D02*
X196934342Y-184957200D01*
X197005771Y-185028628D01*
X197077200Y-184957200D01*
X197005771Y-184885771D01*
X197005771Y-185028628D01*
X197934342Y-186385771D02*
X197791485Y-186314342D01*
X197720057Y-186242914D01*
X197648628Y-186100057D01*
X197648628Y-185671485D01*
X197720057Y-185528628D01*
X197791485Y-185457200D01*
X197934342Y-185385771D01*
X198148628Y-185385771D01*
X198291485Y-185457200D01*
X198362914Y-185528628D01*
X198434342Y-185671485D01*
X198434342Y-186100057D01*
X198362914Y-186242914D01*
X198291485Y-186314342D01*
X198148628Y-186385771D01*
X197934342Y-186385771D01*
X199077200Y-185385771D02*
X199077200Y-186385771D01*
X199077200Y-185528628D02*
X199148628Y-185457200D01*
X199291485Y-185385771D01*
X199505771Y-185385771D01*
X199648628Y-185457200D01*
X199720057Y-185600057D01*
X199720057Y-186385771D01*
X200077200Y-186528628D02*
X201220057Y-186528628D01*
X202077200Y-185600057D02*
X202291485Y-185671485D01*
X202362914Y-185742914D01*
X202434342Y-185885771D01*
X202434342Y-186100057D01*
X202362914Y-186242914D01*
X202291485Y-186314342D01*
X202148628Y-186385771D01*
X201577200Y-186385771D01*
X201577200Y-184885771D01*
X202077200Y-184885771D01*
X202220057Y-184957200D01*
X202291485Y-185028628D01*
X202362914Y-185171485D01*
X202362914Y-185314342D01*
X202291485Y-185457200D01*
X202220057Y-185528628D01*
X202077200Y-185600057D01*
X201577200Y-185600057D01*
X203291485Y-186385771D02*
X203148628Y-186314342D01*
X203077200Y-186242914D01*
X203005771Y-186100057D01*
X203005771Y-185671485D01*
X203077200Y-185528628D01*
X203148628Y-185457200D01*
X203291485Y-185385771D01*
X203505771Y-185385771D01*
X203648628Y-185457200D01*
X203720057Y-185528628D01*
X203791485Y-185671485D01*
X203791485Y-186100057D01*
X203720057Y-186242914D01*
X203648628Y-186314342D01*
X203505771Y-186385771D01*
X203291485Y-186385771D01*
X204291485Y-186385771D02*
X205077200Y-185385771D01*
X204291485Y-185385771D02*
X205077200Y-186385771D01*
X205291485Y-186528628D02*
X206434342Y-186528628D01*
X206648628Y-184885771D02*
X207648628Y-184885771D01*
X207005771Y-186385771D01*
X208291485Y-186385771D02*
X208577200Y-186385771D01*
X208720057Y-186314342D01*
X208791485Y-186242914D01*
X208934342Y-186028628D01*
X209005771Y-185742914D01*
X209005771Y-185171485D01*
X208934342Y-185028628D01*
X208862914Y-184957200D01*
X208720057Y-184885771D01*
X208434342Y-184885771D01*
X208291485Y-184957200D01*
X208220057Y-185028628D01*
X208148628Y-185171485D01*
X208148628Y-185528628D01*
X208220057Y-185671485D01*
X208291485Y-185742914D01*
X208434342Y-185814342D01*
X208720057Y-185814342D01*
X208862914Y-185742914D01*
X208934342Y-185671485D01*
X209005771Y-185528628D01*
X209505771Y-186385771D02*
X210291485Y-185385771D01*
X209505771Y-185385771D02*
X210291485Y-186385771D01*
X210720057Y-184885771D02*
X211648628Y-184885771D01*
X211148628Y-185457200D01*
X211362914Y-185457200D01*
X211505771Y-185528628D01*
X211577200Y-185600057D01*
X211648628Y-185742914D01*
X211648628Y-186100057D01*
X211577200Y-186242914D01*
X211505771Y-186314342D01*
X211362914Y-186385771D01*
X210934342Y-186385771D01*
X210791485Y-186314342D01*
X210720057Y-186242914D01*
X213077200Y-186385771D02*
X212220057Y-186385771D01*
X212648628Y-186385771D02*
X212648628Y-184885771D01*
X212505771Y-185100057D01*
X212362914Y-185242914D01*
X212220057Y-185314342D01*
X213720057Y-186385771D02*
X213720057Y-185385771D01*
X213720057Y-185528628D02*
X213791485Y-185457200D01*
X213934342Y-185385771D01*
X214148628Y-185385771D01*
X214291485Y-185457200D01*
X214362914Y-185600057D01*
X214362914Y-186385771D01*
X214362914Y-185600057D02*
X214434342Y-185457200D01*
X214577200Y-185385771D01*
X214791485Y-185385771D01*
X214934342Y-185457200D01*
X215005771Y-185600057D01*
X215005771Y-186385771D01*
X215720057Y-186385771D02*
X215720057Y-185385771D01*
X215720057Y-185528628D02*
X215791485Y-185457200D01*
X215934342Y-185385771D01*
X216148628Y-185385771D01*
X216291485Y-185457200D01*
X216362914Y-185600057D01*
X216362914Y-186385771D01*
X216362914Y-185600057D02*
X216434342Y-185457200D01*
X216577200Y-185385771D01*
X216791485Y-185385771D01*
X216934342Y-185457200D01*
X217005771Y-185600057D01*
X217005771Y-186385771D01*
X217362914Y-186528628D02*
X218505771Y-186528628D01*
X218791485Y-185957200D02*
X219505771Y-185957200D01*
X218648628Y-186385771D02*
X219148628Y-184885771D01*
X219648628Y-186385771D01*
X221005771Y-186242914D02*
X220934342Y-186314342D01*
X220720057Y-186385771D01*
X220577200Y-186385771D01*
X220362914Y-186314342D01*
X220220057Y-186171485D01*
X220148628Y-186028628D01*
X220077200Y-185742914D01*
X220077200Y-185528628D01*
X220148628Y-185242914D01*
X220220057Y-185100057D01*
X220362914Y-184957200D01*
X220577200Y-184885771D01*
X220720057Y-184885771D01*
X220934342Y-184957200D01*
X221005771Y-185028628D01*
X221577200Y-185028628D02*
X221648628Y-184957200D01*
X221791485Y-184885771D01*
X222148628Y-184885771D01*
X222291485Y-184957200D01*
X222362914Y-185028628D01*
X222434342Y-185171485D01*
X222434342Y-185314342D01*
X222362914Y-185528628D01*
X221505771Y-186385771D01*
X222434342Y-186385771D01*
X223005771Y-185028628D02*
X223077200Y-184957200D01*
X223220057Y-184885771D01*
X223577200Y-184885771D01*
X223720057Y-184957200D01*
X223791485Y-185028628D01*
X223862914Y-185171485D01*
X223862914Y-185314342D01*
X223791485Y-185528628D01*
X222934342Y-186385771D01*
X223862914Y-186385771D01*
X224791485Y-184885771D02*
X224934342Y-184885771D01*
X225077199Y-184957200D01*
X225148628Y-185028628D01*
X225220057Y-185171485D01*
X225291485Y-185457200D01*
X225291485Y-185814342D01*
X225220057Y-186100057D01*
X225148628Y-186242914D01*
X225077199Y-186314342D01*
X224934342Y-186385771D01*
X224791485Y-186385771D01*
X224648628Y-186314342D01*
X224577199Y-186242914D01*
X224505771Y-186100057D01*
X224434342Y-185814342D01*
X224434342Y-185457200D01*
X224505771Y-185171485D01*
X224577199Y-185028628D01*
X224648628Y-184957200D01*
X224791485Y-184885771D01*
X225720057Y-184885771D02*
X226220057Y-186385771D01*
X226720057Y-184885771D01*
X227220057Y-186242914D02*
X227291485Y-186314342D01*
X227220057Y-186385771D01*
X227148628Y-186314342D01*
X227220057Y-186242914D01*
X227220057Y-186385771D01*
X227934342Y-186385771D02*
X227934342Y-184885771D01*
X228077199Y-185814342D02*
X228505771Y-186385771D01*
X228505771Y-185385771D02*
X227934342Y-185957200D01*
X229148628Y-186385771D02*
X229148628Y-185385771D01*
X229148628Y-184885771D02*
X229077199Y-184957200D01*
X229148628Y-185028628D01*
X229220057Y-184957200D01*
X229148628Y-184885771D01*
X229148628Y-185028628D01*
X230505771Y-186314342D02*
X230362914Y-186385771D01*
X230077200Y-186385771D01*
X229934342Y-186314342D01*
X229862914Y-186242914D01*
X229791485Y-186100057D01*
X229791485Y-185671485D01*
X229862914Y-185528628D01*
X229934342Y-185457200D01*
X230077200Y-185385771D01*
X230362914Y-185385771D01*
X230505771Y-185457200D01*
X231791485Y-186385771D02*
X231791485Y-185600057D01*
X231720057Y-185457200D01*
X231577199Y-185385771D01*
X231291485Y-185385771D01*
X231148628Y-185457200D01*
X231791485Y-186314342D02*
X231648628Y-186385771D01*
X231291485Y-186385771D01*
X231148628Y-186314342D01*
X231077199Y-186171485D01*
X231077199Y-186028628D01*
X231148628Y-185885771D01*
X231291485Y-185814342D01*
X231648628Y-185814342D01*
X231791485Y-185742914D01*
X233148628Y-186385771D02*
X233148628Y-184885771D01*
X233148628Y-186314342D02*
X233005771Y-186385771D01*
X232720057Y-186385771D01*
X232577199Y-186314342D01*
X232505771Y-186242914D01*
X232434342Y-186100057D01*
X232434342Y-185671485D01*
X232505771Y-185528628D01*
X232577199Y-185457200D01*
X232720057Y-185385771D01*
X233005771Y-185385771D01*
X233148628Y-185457200D01*
X233505771Y-186528628D02*
X234648628Y-186528628D01*
X235005771Y-185385771D02*
X235005771Y-186885771D01*
X235005771Y-185457200D02*
X235148628Y-185385771D01*
X235434342Y-185385771D01*
X235577199Y-185457200D01*
X235648628Y-185528628D01*
X235720057Y-185671485D01*
X235720057Y-186100057D01*
X235648628Y-186242914D01*
X235577199Y-186314342D01*
X235434342Y-186385771D01*
X235148628Y-186385771D01*
X235005771Y-186314342D01*
X237005771Y-186314342D02*
X236862914Y-186385771D01*
X236577200Y-186385771D01*
X236434342Y-186314342D01*
X236362914Y-186242914D01*
X236291485Y-186100057D01*
X236291485Y-185671485D01*
X236362914Y-185528628D01*
X236434342Y-185457200D01*
X236577200Y-185385771D01*
X236862914Y-185385771D01*
X237005771Y-185457200D01*
X237648628Y-186385771D02*
X237648628Y-184885771D01*
X237648628Y-185457200D02*
X237791485Y-185385771D01*
X238077199Y-185385771D01*
X238220057Y-185457200D01*
X238291485Y-185528628D01*
X238362914Y-185671485D01*
X238362914Y-186100057D01*
X238291485Y-186242914D01*
X238220057Y-186314342D01*
X238077199Y-186385771D01*
X237791485Y-186385771D01*
X237648628Y-186314342D01*
D10*
D11*
X177002200Y-181507200D02*
X285002200Y-181507200D01*
D10*
D11*
X178362914Y-183614342D02*
X178577200Y-183685771D01*
X178934342Y-183685771D01*
X179077200Y-183614342D01*
X179148628Y-183542914D01*
X179220057Y-183400057D01*
X179220057Y-183257200D01*
X179148628Y-183114342D01*
X179077200Y-183042914D01*
X178934342Y-182971485D01*
X178648628Y-182900057D01*
X178505771Y-182828628D01*
X178434342Y-182757200D01*
X178362914Y-182614342D01*
X178362914Y-182471485D01*
X178434342Y-182328628D01*
X178505771Y-182257200D01*
X178648628Y-182185771D01*
X179005771Y-182185771D01*
X179220057Y-182257200D01*
X179862914Y-183685771D02*
X179862914Y-182185771D01*
X180505771Y-183685771D02*
X180505771Y-182900057D01*
X180434342Y-182757200D01*
X180291485Y-182685771D01*
X180077200Y-182685771D01*
X179934342Y-182757200D01*
X179862914Y-182828628D01*
X181791485Y-183614342D02*
X181648628Y-183685771D01*
X181362914Y-183685771D01*
X181220057Y-183614342D01*
X181148628Y-183471485D01*
X181148628Y-182900057D01*
X181220057Y-182757200D01*
X181362914Y-182685771D01*
X181648628Y-182685771D01*
X181791485Y-182757200D01*
X181862914Y-182900057D01*
X181862914Y-183042914D01*
X181148628Y-183185771D01*
X183077200Y-183614342D02*
X182934342Y-183685771D01*
X182648628Y-183685771D01*
X182505771Y-183614342D01*
X182434342Y-183471485D01*
X182434342Y-182900057D01*
X182505771Y-182757200D01*
X182648628Y-182685771D01*
X182934342Y-182685771D01*
X183077200Y-182757200D01*
X183148628Y-182900057D01*
X183148628Y-183042914D01*
X182434342Y-183185771D01*
X183577200Y-182685771D02*
X184148628Y-182685771D01*
X183791485Y-182185771D02*
X183791485Y-183471485D01*
X183862914Y-183614342D01*
X184005771Y-183685771D01*
X184148628Y-183685771D01*
X184648628Y-183542914D02*
X184720057Y-183614342D01*
X184648628Y-183685771D01*
X184577200Y-183614342D01*
X184648628Y-183542914D01*
X184648628Y-183685771D01*
X184648628Y-182757200D02*
X184720057Y-182828628D01*
X184648628Y-182900057D01*
X184577200Y-182828628D01*
X184648628Y-182757200D01*
X184648628Y-182900057D01*
D10*
D12*
X178482914Y-180257200D02*
X179197200Y-180257200D01*
X178340057Y-180685771D02*
X178840057Y-179185771D01*
X179340057Y-180685771D01*
X180411485Y-180614342D02*
X180268628Y-180685771D01*
X179982914Y-180685771D01*
X179840057Y-180614342D01*
X179768628Y-180471485D01*
X179768628Y-179900057D01*
X179840057Y-179757200D01*
X179982914Y-179685771D01*
X180268628Y-179685771D01*
X180411485Y-179757200D01*
X180482914Y-179900057D01*
X180482914Y-180042914D01*
X179768628Y-180185771D01*
X181340057Y-180685771D02*
X181197200Y-180614342D01*
X181125771Y-180542914D01*
X181054342Y-180400057D01*
X181054342Y-179971485D01*
X181125771Y-179828628D01*
X181197200Y-179757200D01*
X181340057Y-179685771D01*
X181554342Y-179685771D01*
X181697200Y-179757200D01*
X181768628Y-179828628D01*
X181840057Y-179971485D01*
X181840057Y-180400057D01*
X181768628Y-180542914D01*
X181697200Y-180614342D01*
X181554342Y-180685771D01*
X181340057Y-180685771D01*
X182482914Y-179685771D02*
X182482914Y-180685771D01*
X182482914Y-179828628D02*
X182554342Y-179757200D01*
X182697200Y-179685771D01*
X182911485Y-179685771D01*
X183054342Y-179757200D01*
X183125771Y-179900057D01*
X183125771Y-180685771D01*
X184554342Y-180685771D02*
X183840057Y-180685771D01*
X183840057Y-179185771D01*
X185697200Y-180685771D02*
X185697200Y-179900057D01*
X185625771Y-179757200D01*
X185482914Y-179685771D01*
X185197200Y-179685771D01*
X185054342Y-179757200D01*
X185697200Y-180614342D02*
X185554342Y-180685771D01*
X185197200Y-180685771D01*
X185054342Y-180614342D01*
X184982914Y-180471485D01*
X184982914Y-180328628D01*
X185054342Y-180185771D01*
X185197200Y-180114342D01*
X185554342Y-180114342D01*
X185697200Y-180042914D01*
X186411485Y-180685771D02*
X186411485Y-179185771D01*
X186411485Y-179757200D02*
X186554342Y-179685771D01*
X186840057Y-179685771D01*
X186982914Y-179757200D01*
X187054342Y-179828628D01*
X187125771Y-179971485D01*
X187125771Y-180400057D01*
X187054342Y-180542914D01*
X186982914Y-180614342D01*
X186840057Y-180685771D01*
X186554342Y-180685771D01*
X186411485Y-180614342D01*
X187697200Y-180614342D02*
X187840057Y-180685771D01*
X188125771Y-180685771D01*
X188268628Y-180614342D01*
X188340057Y-180471485D01*
X188340057Y-180400057D01*
X188268628Y-180257200D01*
X188125771Y-180185771D01*
X187911485Y-180185771D01*
X187768628Y-180114342D01*
X187697200Y-179971485D01*
X187697200Y-179900057D01*
X187768628Y-179757200D01*
X187911485Y-179685771D01*
X188125771Y-179685771D01*
X188268628Y-179757200D01*
D10*
D11*
D10*
D11*
D10*
D11*
D10*
D11*
D10*
D11*
X197002200Y-191507200D02*
X197002200Y-194507200D01*
D10*
D11*
X261002200Y-191507200D02*
X261002200Y-198007200D01*
G04 #@! TO.C,HiLink1*
X185237142Y-148822380D02*
X185237142Y-147822380D01*
X185237142Y-148298571D02*
X184665714Y-148298571D01*
X184665714Y-148822380D02*
X184665714Y-147822380D01*
X184189523Y-148822380D02*
X184189523Y-148155714D01*
X184189523Y-147822380D02*
X184237142Y-147870000D01*
X184189523Y-147917619D01*
X184141904Y-147870000D01*
X184189523Y-147822380D01*
X184189523Y-147917619D01*
X183237142Y-148822380D02*
X183713333Y-148822380D01*
X183713333Y-147822380D01*
X182903809Y-148822380D02*
X182903809Y-148155714D01*
X182903809Y-147822380D02*
X182951428Y-147870000D01*
X182903809Y-147917619D01*
X182856190Y-147870000D01*
X182903809Y-147822380D01*
X182903809Y-147917619D01*
X182427619Y-148155714D02*
X182427619Y-148822380D01*
X182427619Y-148250952D02*
X182380000Y-148203333D01*
X182284761Y-148155714D01*
X182141904Y-148155714D01*
X182046666Y-148203333D01*
X181999047Y-148298571D01*
X181999047Y-148822380D01*
X181522857Y-148822380D02*
X181522857Y-147822380D01*
X181427619Y-148441428D02*
X181141904Y-148822380D01*
X181141904Y-148155714D02*
X181522857Y-148536666D01*
X180951428Y-148917619D02*
X180189523Y-148917619D01*
X180094285Y-147822380D02*
X179522857Y-147822380D01*
X179808571Y-148822380D02*
X179808571Y-147822380D01*
X179189523Y-148822380D02*
X179189523Y-148155714D01*
X179189523Y-148346190D02*
X179141904Y-148250952D01*
X179094285Y-148203333D01*
X178999047Y-148155714D01*
X178903809Y-148155714D01*
X178141904Y-148822380D02*
X178141904Y-148298571D01*
X178189523Y-148203333D01*
X178284761Y-148155714D01*
X178475238Y-148155714D01*
X178570476Y-148203333D01*
X178141904Y-148774761D02*
X178237142Y-148822380D01*
X178475238Y-148822380D01*
X178570476Y-148774761D01*
X178618095Y-148679523D01*
X178618095Y-148584285D01*
X178570476Y-148489047D01*
X178475238Y-148441428D01*
X178237142Y-148441428D01*
X178141904Y-148393809D01*
X177665714Y-148155714D02*
X177665714Y-148822380D01*
X177665714Y-148250952D02*
X177618095Y-148203333D01*
X177522857Y-148155714D01*
X177380000Y-148155714D01*
X177284761Y-148203333D01*
X177237142Y-148298571D01*
X177237142Y-148822380D01*
X176808571Y-148774761D02*
X176713333Y-148822380D01*
X176522857Y-148822380D01*
X176427619Y-148774761D01*
X176380000Y-148679523D01*
X176380000Y-148631904D01*
X176427619Y-148536666D01*
X176522857Y-148489047D01*
X176665714Y-148489047D01*
X176760952Y-148441428D01*
X176808571Y-148346190D01*
X176808571Y-148298571D01*
X176760952Y-148203333D01*
X176665714Y-148155714D01*
X176522857Y-148155714D01*
X176427619Y-148203333D01*
X176094285Y-148155714D02*
X175713333Y-148155714D01*
X175951428Y-148822380D02*
X175951428Y-147965238D01*
X175903809Y-147870000D01*
X175808571Y-147822380D01*
X175713333Y-147822380D01*
X175237142Y-148822380D02*
X175332380Y-148774761D01*
X175380000Y-148727142D01*
X175427619Y-148631904D01*
X175427619Y-148346190D01*
X175380000Y-148250952D01*
X175332380Y-148203333D01*
X175237142Y-148155714D01*
X175094285Y-148155714D01*
X174999047Y-148203333D01*
X174951428Y-148250952D01*
X174903809Y-148346190D01*
X174903809Y-148631904D01*
X174951428Y-148727142D01*
X174999047Y-148774761D01*
X175094285Y-148822380D01*
X175237142Y-148822380D01*
X174475238Y-148822380D02*
X174475238Y-148155714D01*
X174475238Y-148346190D02*
X174427619Y-148250952D01*
X174380000Y-148203333D01*
X174284761Y-148155714D01*
X174189523Y-148155714D01*
X173856190Y-148822380D02*
X173856190Y-148155714D01*
X173856190Y-148250952D02*
X173808571Y-148203333D01*
X173713333Y-148155714D01*
X173570476Y-148155714D01*
X173475238Y-148203333D01*
X173427619Y-148298571D01*
X173427619Y-148822380D01*
X173427619Y-148298571D02*
X173380000Y-148203333D01*
X173284761Y-148155714D01*
X173141904Y-148155714D01*
X173046666Y-148203333D01*
X172999047Y-148298571D01*
X172999047Y-148822380D01*
X172141904Y-148774761D02*
X172237142Y-148822380D01*
X172427619Y-148822380D01*
X172522857Y-148774761D01*
X172570476Y-148679523D01*
X172570476Y-148298571D01*
X172522857Y-148203333D01*
X172427619Y-148155714D01*
X172237142Y-148155714D01*
X172141904Y-148203333D01*
X172094285Y-148298571D01*
X172094285Y-148393809D01*
X172570476Y-148489047D01*
X171665714Y-148822380D02*
X171665714Y-148155714D01*
X171665714Y-148346190D02*
X171618095Y-148250952D01*
X171570476Y-148203333D01*
X171475238Y-148155714D01*
X171380000Y-148155714D01*
X181990000Y-136142380D02*
X181990000Y-135142380D01*
X181990000Y-135618571D02*
X181418571Y-135618571D01*
X181418571Y-136142380D02*
X181418571Y-135142380D01*
X180942380Y-136142380D02*
X180942380Y-135475714D01*
X180942380Y-135142380D02*
X180990000Y-135190000D01*
X180942380Y-135237619D01*
X180894761Y-135190000D01*
X180942380Y-135142380D01*
X180942380Y-135237619D01*
X179990000Y-136142380D02*
X180466190Y-136142380D01*
X180466190Y-135142380D01*
X179656666Y-136142380D02*
X179656666Y-135475714D01*
X179656666Y-135142380D02*
X179704285Y-135190000D01*
X179656666Y-135237619D01*
X179609047Y-135190000D01*
X179656666Y-135142380D01*
X179656666Y-135237619D01*
X179180476Y-135475714D02*
X179180476Y-136142380D01*
X179180476Y-135570952D02*
X179132857Y-135523333D01*
X179037619Y-135475714D01*
X178894761Y-135475714D01*
X178799523Y-135523333D01*
X178751904Y-135618571D01*
X178751904Y-136142380D01*
X178275714Y-136142380D02*
X178275714Y-135142380D01*
X178180476Y-135761428D02*
X177894761Y-136142380D01*
X177894761Y-135475714D02*
X178275714Y-135856666D01*
X176942380Y-136142380D02*
X177513809Y-136142380D01*
X177228095Y-136142380D02*
X177228095Y-135142380D01*
X177323333Y-135285238D01*
X177418571Y-135380476D01*
X177513809Y-135428095D01*
G04 #@! TO.C,BAT3*
X203718571Y-148805714D02*
X203766190Y-148948571D01*
X203813809Y-148996190D01*
X203909047Y-149043809D01*
X204051904Y-149043809D01*
X204147142Y-148996190D01*
X204194761Y-148948571D01*
X204242380Y-148853333D01*
X204242380Y-148472380D01*
X203242380Y-148472380D01*
X203242380Y-148805714D01*
X203290000Y-148900952D01*
X203337619Y-148948571D01*
X203432857Y-148996190D01*
X203528095Y-148996190D01*
X203623333Y-148948571D01*
X203670952Y-148900952D01*
X203718571Y-148805714D01*
X203718571Y-148472380D01*
X203956666Y-149424761D02*
X203956666Y-149900952D01*
X204242380Y-149329523D02*
X203242380Y-149662857D01*
X204242380Y-149996190D01*
X203242380Y-150186666D02*
X203242380Y-150758095D01*
X204242380Y-150472380D02*
X203242380Y-150472380D01*
X204242380Y-151615238D02*
X204242380Y-151043809D01*
X204242380Y-151329523D02*
X203242380Y-151329523D01*
X203385238Y-151234285D01*
X203480476Y-151139047D01*
X203528095Y-151043809D01*
X200168571Y-148805714D02*
X200216190Y-148948571D01*
X200263809Y-148996190D01*
X200359047Y-149043809D01*
X200501904Y-149043809D01*
X200597142Y-148996190D01*
X200644761Y-148948571D01*
X200692380Y-148853333D01*
X200692380Y-148472380D01*
X199692380Y-148472380D01*
X199692380Y-148805714D01*
X199740000Y-148900952D01*
X199787619Y-148948571D01*
X199882857Y-148996190D01*
X199978095Y-148996190D01*
X200073333Y-148948571D01*
X200120952Y-148900952D01*
X200168571Y-148805714D01*
X200168571Y-148472380D01*
X200406666Y-149424761D02*
X200406666Y-149900952D01*
X200692380Y-149329523D02*
X199692380Y-149662857D01*
X200692380Y-149996190D01*
X199692380Y-150186666D02*
X199692380Y-150758095D01*
X200692380Y-150472380D02*
X199692380Y-150472380D01*
X199692380Y-150996190D02*
X199692380Y-151615238D01*
X200073333Y-151281904D01*
X200073333Y-151424761D01*
X200120952Y-151520000D01*
X200168571Y-151567619D01*
X200263809Y-151615238D01*
X200501904Y-151615238D01*
X200597142Y-151567619D01*
X200644761Y-151520000D01*
X200692380Y-151424761D01*
X200692380Y-151139047D01*
X200644761Y-151043809D01*
X200597142Y-150996190D01*
G04 #@! TO.C,PF1*
X215907619Y-144987619D02*
X215860000Y-145035238D01*
X215812380Y-145130476D01*
X215812380Y-145368571D01*
X215860000Y-145463809D01*
X215907619Y-145511428D01*
X216002857Y-145559047D01*
X216098095Y-145559047D01*
X216240952Y-145511428D01*
X216812380Y-144940000D01*
X216812380Y-145559047D01*
X215907619Y-145940000D02*
X215860000Y-145987619D01*
X215812380Y-146082857D01*
X215812380Y-146320952D01*
X215860000Y-146416190D01*
X215907619Y-146463809D01*
X216002857Y-146511428D01*
X216098095Y-146511428D01*
X216240952Y-146463809D01*
X216812380Y-145892380D01*
X216812380Y-146511428D01*
X215812380Y-147130476D02*
X215812380Y-147225714D01*
X215860000Y-147320952D01*
X215907619Y-147368571D01*
X216002857Y-147416190D01*
X216193333Y-147463809D01*
X216431428Y-147463809D01*
X216621904Y-147416190D01*
X216717142Y-147368571D01*
X216764761Y-147320952D01*
X216812380Y-147225714D01*
X216812380Y-147130476D01*
X216764761Y-147035238D01*
X216717142Y-146987619D01*
X216621904Y-146940000D01*
X216431428Y-146892380D01*
X216193333Y-146892380D01*
X216002857Y-146940000D01*
X215907619Y-146987619D01*
X215860000Y-147035238D01*
X215812380Y-147130476D01*
X215812380Y-147749523D02*
X216812380Y-148082857D01*
X215812380Y-148416190D01*
X216812380Y-150035238D02*
X216812380Y-149463809D01*
X216812380Y-149749523D02*
X215812380Y-149749523D01*
X215955238Y-149654285D01*
X216050476Y-149559047D01*
X216098095Y-149463809D01*
X216526666Y-150416190D02*
X216526666Y-150892380D01*
X216812380Y-150320952D02*
X215812380Y-150654285D01*
X216812380Y-150987619D01*
X229902380Y-143643333D02*
X228902380Y-143643333D01*
X228902380Y-144024285D01*
X228950000Y-144119523D01*
X228997619Y-144167142D01*
X229092857Y-144214761D01*
X229235714Y-144214761D01*
X229330952Y-144167142D01*
X229378571Y-144119523D01*
X229426190Y-144024285D01*
X229426190Y-143643333D01*
X229378571Y-144976666D02*
X229378571Y-144643333D01*
X229902380Y-144643333D02*
X228902380Y-144643333D01*
X228902380Y-145119523D01*
X229902380Y-146024285D02*
X229902380Y-145452857D01*
X229902380Y-145738571D02*
X228902380Y-145738571D01*
X229045238Y-145643333D01*
X229140476Y-145548095D01*
X229188095Y-145452857D01*
D14*
G04 #@! TO.C,MCY1*
X149916666Y-124546666D02*
X149916666Y-123846666D01*
X149683333Y-124346666D01*
X149450000Y-123846666D01*
X149450000Y-124546666D01*
X148716666Y-124480000D02*
X148750000Y-124513333D01*
X148850000Y-124546666D01*
X148916666Y-124546666D01*
X149016666Y-124513333D01*
X149083333Y-124446666D01*
X149116666Y-124380000D01*
X149150000Y-124246666D01*
X149150000Y-124146666D01*
X149116666Y-124013333D01*
X149083333Y-123946666D01*
X149016666Y-123880000D01*
X148916666Y-123846666D01*
X148850000Y-123846666D01*
X148750000Y-123880000D01*
X148716666Y-123913333D01*
X148283333Y-124213333D02*
X148283333Y-124546666D01*
X148516666Y-123846666D02*
X148283333Y-124213333D01*
X148050000Y-123846666D01*
X147450000Y-124546666D02*
X147850000Y-124546666D01*
X147650000Y-124546666D02*
X147650000Y-123846666D01*
X147716666Y-123946666D01*
X147783333Y-124013333D01*
X147850000Y-124046666D01*
D11*
G04 #@! TO.C,TXR1*
X158130000Y-139307142D02*
X158082380Y-139354761D01*
X158130000Y-139402380D01*
X158177619Y-139354761D01*
X158130000Y-139307142D01*
X158130000Y-139402380D01*
X158320476Y-138450000D02*
X158225238Y-138402380D01*
X157987142Y-138402380D01*
X157891904Y-138450000D01*
X157844285Y-138545238D01*
X157844285Y-138640476D01*
X157891904Y-138735714D01*
X157939523Y-138783333D01*
X158034761Y-138830952D01*
X158082380Y-138878571D01*
X158130000Y-138973809D01*
X158130000Y-139021428D01*
X156891904Y-139402380D02*
X157463333Y-139402380D01*
X157177619Y-139402380D02*
X157177619Y-138402380D01*
X157272857Y-138545238D01*
X157368095Y-138640476D01*
X157463333Y-138688095D01*
X156272857Y-138402380D02*
X156177619Y-138402380D01*
X156082380Y-138450000D01*
X156034761Y-138497619D01*
X155987142Y-138592857D01*
X155939523Y-138783333D01*
X155939523Y-139021428D01*
X155987142Y-139211904D01*
X156034761Y-139307142D01*
X156082380Y-139354761D01*
X156177619Y-139402380D01*
X156272857Y-139402380D01*
X156368095Y-139354761D01*
X156415714Y-139307142D01*
X156463333Y-139211904D01*
X156510952Y-139021428D01*
X156510952Y-138783333D01*
X156463333Y-138592857D01*
X156415714Y-138497619D01*
X156368095Y-138450000D01*
X156272857Y-138402380D01*
X155510952Y-139402380D02*
X155510952Y-138402380D01*
X154939523Y-139402380D02*
X155368095Y-138830952D01*
X154939523Y-138402380D02*
X155510952Y-138973809D01*
D15*
X157499047Y-137026190D02*
X157213333Y-137026190D01*
X157356190Y-137526190D02*
X157356190Y-137026190D01*
X157094285Y-137026190D02*
X156760952Y-137526190D01*
X156760952Y-137026190D02*
X157094285Y-137526190D01*
X156284761Y-137526190D02*
X156451428Y-137288095D01*
X156570476Y-137526190D02*
X156570476Y-137026190D01*
X156380000Y-137026190D01*
X156332380Y-137050000D01*
X156308571Y-137073809D01*
X156284761Y-137121428D01*
X156284761Y-137192857D01*
X156308571Y-137240476D01*
X156332380Y-137264285D01*
X156380000Y-137288095D01*
X156570476Y-137288095D01*
X155808571Y-137526190D02*
X156094285Y-137526190D01*
X155951428Y-137526190D02*
X155951428Y-137026190D01*
X155999047Y-137097619D01*
X156046666Y-137145238D01*
X156094285Y-137169047D01*
D11*
G04 #@! TO.C,PJ2*
X221449047Y-125017380D02*
X221449047Y-124017380D01*
X221068095Y-124017380D01*
X220972857Y-124065000D01*
X220925238Y-124112619D01*
X220877619Y-124207857D01*
X220877619Y-124350714D01*
X220925238Y-124445952D01*
X220972857Y-124493571D01*
X221068095Y-124541190D01*
X221449047Y-124541190D01*
X220163333Y-124017380D02*
X220163333Y-124731666D01*
X220210952Y-124874523D01*
X220306190Y-124969761D01*
X220449047Y-125017380D01*
X220544285Y-125017380D01*
X219163333Y-125017380D02*
X219734761Y-125017380D01*
X219449047Y-125017380D02*
X219449047Y-124017380D01*
X219544285Y-124160238D01*
X219639523Y-124255476D01*
X219734761Y-124303095D01*
X220782380Y-126410952D02*
X219782380Y-126410952D01*
X219782380Y-126791904D01*
X219830000Y-126887142D01*
X219877619Y-126934761D01*
X219972857Y-126982380D01*
X220115714Y-126982380D01*
X220210952Y-126934761D01*
X220258571Y-126887142D01*
X220306190Y-126791904D01*
X220306190Y-126410952D01*
X219782380Y-127696666D02*
X220496666Y-127696666D01*
X220639523Y-127649047D01*
X220734761Y-127553809D01*
X220782380Y-127410952D01*
X220782380Y-127315714D01*
X219877619Y-128125238D02*
X219830000Y-128172857D01*
X219782380Y-128268095D01*
X219782380Y-128506190D01*
X219830000Y-128601428D01*
X219877619Y-128649047D01*
X219972857Y-128696666D01*
X220068095Y-128696666D01*
X220210952Y-128649047D01*
X220782380Y-128077619D01*
X220782380Y-128696666D01*
G04 #@! TO.C,I2C1*
X155912380Y-152197380D02*
X155912380Y-151197380D01*
X155483809Y-151292619D02*
X155436190Y-151245000D01*
X155340952Y-151197380D01*
X155102857Y-151197380D01*
X155007619Y-151245000D01*
X154960000Y-151292619D01*
X154912380Y-151387857D01*
X154912380Y-151483095D01*
X154960000Y-151625952D01*
X155531428Y-152197380D01*
X154912380Y-152197380D01*
X153912380Y-152102142D02*
X153960000Y-152149761D01*
X154102857Y-152197380D01*
X154198095Y-152197380D01*
X154340952Y-152149761D01*
X154436190Y-152054523D01*
X154483809Y-151959285D01*
X154531428Y-151768809D01*
X154531428Y-151625952D01*
X154483809Y-151435476D01*
X154436190Y-151340238D01*
X154340952Y-151245000D01*
X154198095Y-151197380D01*
X154102857Y-151197380D01*
X153960000Y-151245000D01*
X153912380Y-151292619D01*
X152960000Y-152197380D02*
X153531428Y-152197380D01*
X153245714Y-152197380D02*
X153245714Y-151197380D01*
X153340952Y-151340238D01*
X153436190Y-151435476D01*
X153531428Y-151483095D01*
G04 #@! TO.C,CJ1*
X167756428Y-125138095D02*
X167708809Y-125185714D01*
X167661190Y-125280952D01*
X167756428Y-125471428D01*
X167708809Y-125566666D01*
X167661190Y-125614285D01*
X165902619Y-125757142D02*
X165950238Y-125804761D01*
X166093095Y-125852380D01*
X166188333Y-125852380D01*
X166331190Y-125804761D01*
X166426428Y-125709523D01*
X166474047Y-125614285D01*
X166521666Y-125423809D01*
X166521666Y-125280952D01*
X166474047Y-125090476D01*
X166426428Y-124995238D01*
X166331190Y-124900000D01*
X166188333Y-124852380D01*
X166093095Y-124852380D01*
X165950238Y-124900000D01*
X165902619Y-124947619D01*
X165188333Y-124852380D02*
X165188333Y-125566666D01*
X165235952Y-125709523D01*
X165331190Y-125804761D01*
X165474047Y-125852380D01*
X165569285Y-125852380D01*
X164188333Y-125852380D02*
X164759761Y-125852380D01*
X164474047Y-125852380D02*
X164474047Y-124852380D01*
X164569285Y-124995238D01*
X164664523Y-125090476D01*
X164759761Y-125138095D01*
G04 #@! TO.C,CC3*
X146607619Y-123097142D02*
X146560000Y-123144761D01*
X146512380Y-123240000D01*
X146512380Y-123478095D01*
X146560000Y-123573333D01*
X146607619Y-123620952D01*
X146702857Y-123668571D01*
X146798095Y-123668571D01*
X146940952Y-123620952D01*
X147512380Y-123049523D01*
X147512380Y-123668571D01*
X146607619Y-124049523D02*
X146560000Y-124097142D01*
X146512380Y-124192380D01*
X146512380Y-124430476D01*
X146560000Y-124525714D01*
X146607619Y-124573333D01*
X146702857Y-124620952D01*
X146798095Y-124620952D01*
X146940952Y-124573333D01*
X147512380Y-124001904D01*
X147512380Y-124620952D01*
X146845714Y-125049523D02*
X147845714Y-125049523D01*
X146893333Y-125049523D02*
X146845714Y-125144761D01*
X146845714Y-125335238D01*
X146893333Y-125430476D01*
X146940952Y-125478095D01*
X147036190Y-125525714D01*
X147321904Y-125525714D01*
X147417142Y-125478095D01*
X147464761Y-125430476D01*
X147512380Y-125335238D01*
X147512380Y-125144761D01*
X147464761Y-125049523D01*
X146988571Y-126287619D02*
X146988571Y-125954285D01*
X147512380Y-125954285D02*
X146512380Y-125954285D01*
X146512380Y-126430476D01*
D16*
X145772857Y-124473333D02*
X145791904Y-124454285D01*
X145810952Y-124397142D01*
X145810952Y-124359047D01*
X145791904Y-124301904D01*
X145753809Y-124263809D01*
X145715714Y-124244761D01*
X145639523Y-124225714D01*
X145582380Y-124225714D01*
X145506190Y-124244761D01*
X145468095Y-124263809D01*
X145430000Y-124301904D01*
X145410952Y-124359047D01*
X145410952Y-124397142D01*
X145430000Y-124454285D01*
X145449047Y-124473333D01*
X145772857Y-124873333D02*
X145791904Y-124854285D01*
X145810952Y-124797142D01*
X145810952Y-124759047D01*
X145791904Y-124701904D01*
X145753809Y-124663809D01*
X145715714Y-124644761D01*
X145639523Y-124625714D01*
X145582380Y-124625714D01*
X145506190Y-124644761D01*
X145468095Y-124663809D01*
X145430000Y-124701904D01*
X145410952Y-124759047D01*
X145410952Y-124797142D01*
X145430000Y-124854285D01*
X145449047Y-124873333D01*
X145410952Y-125006666D02*
X145410952Y-125254285D01*
X145563333Y-125120952D01*
X145563333Y-125178095D01*
X145582380Y-125216190D01*
X145601428Y-125235238D01*
X145639523Y-125254285D01*
X145734761Y-125254285D01*
X145772857Y-125235238D01*
X145791904Y-125216190D01*
X145810952Y-125178095D01*
X145810952Y-125063809D01*
X145791904Y-125025714D01*
X145772857Y-125006666D01*
D11*
G04 #@! TO.C,HLL1*
X204980952Y-127112380D02*
X205552380Y-127112380D01*
X205266666Y-127112380D02*
X205266666Y-126112380D01*
X205361904Y-126255238D01*
X205457142Y-126350476D01*
X205552380Y-126398095D01*
X204361904Y-126112380D02*
X204266666Y-126112380D01*
X204171428Y-126160000D01*
X204123809Y-126207619D01*
X204076190Y-126302857D01*
X204028571Y-126493333D01*
X204028571Y-126731428D01*
X204076190Y-126921904D01*
X204123809Y-127017142D01*
X204171428Y-127064761D01*
X204266666Y-127112380D01*
X204361904Y-127112380D01*
X204457142Y-127064761D01*
X204504761Y-127017142D01*
X204552380Y-126921904D01*
X204600000Y-126731428D01*
X204600000Y-126493333D01*
X204552380Y-126302857D01*
X204504761Y-126207619D01*
X204457142Y-126160000D01*
X204361904Y-126112380D01*
X203600000Y-127112380D02*
X203600000Y-126445714D01*
X203600000Y-126540952D02*
X203552380Y-126493333D01*
X203457142Y-126445714D01*
X203314285Y-126445714D01*
X203219047Y-126493333D01*
X203171428Y-126588571D01*
X203171428Y-127112380D01*
X203171428Y-126588571D02*
X203123809Y-126493333D01*
X203028571Y-126445714D01*
X202885714Y-126445714D01*
X202790476Y-126493333D01*
X202742857Y-126588571D01*
X202742857Y-127112380D01*
X202266666Y-127112380D02*
X202266666Y-126112380D01*
X202266666Y-126588571D02*
X201695238Y-126588571D01*
X201695238Y-127112380D02*
X201695238Y-126112380D01*
X206268928Y-129399880D02*
X206268928Y-128399880D01*
X206268928Y-128876071D02*
X205697500Y-128876071D01*
X205697500Y-129399880D02*
X205697500Y-128399880D01*
X204745119Y-129399880D02*
X205221309Y-129399880D01*
X205221309Y-128399880D01*
X203935595Y-129399880D02*
X204411785Y-129399880D01*
X204411785Y-128399880D01*
X203078452Y-129399880D02*
X203649880Y-129399880D01*
X203364166Y-129399880D02*
X203364166Y-128399880D01*
X203459404Y-128542738D01*
X203554642Y-128637976D01*
X203649880Y-128685595D01*
G04 #@! TO.C,ER5*
X192265238Y-150132380D02*
X192836666Y-150132380D01*
X192550952Y-150132380D02*
X192550952Y-149132380D01*
X192646190Y-149275238D01*
X192741428Y-149370476D01*
X192836666Y-149418095D01*
X191646190Y-149132380D02*
X191550952Y-149132380D01*
X191455714Y-149180000D01*
X191408095Y-149227619D01*
X191360476Y-149322857D01*
X191312857Y-149513333D01*
X191312857Y-149751428D01*
X191360476Y-149941904D01*
X191408095Y-150037142D01*
X191455714Y-150084761D01*
X191550952Y-150132380D01*
X191646190Y-150132380D01*
X191741428Y-150084761D01*
X191789047Y-150037142D01*
X191836666Y-149941904D01*
X191884285Y-149751428D01*
X191884285Y-149513333D01*
X191836666Y-149322857D01*
X191789047Y-149227619D01*
X191741428Y-149180000D01*
X191646190Y-149132380D01*
X190884285Y-150132380D02*
X190884285Y-149132380D01*
X190789047Y-149751428D02*
X190503333Y-150132380D01*
X190503333Y-149465714D02*
X190884285Y-149846666D01*
D16*
X192146190Y-148221428D02*
X192012857Y-148221428D01*
X191955714Y-148430952D02*
X192146190Y-148430952D01*
X192146190Y-148030952D01*
X191955714Y-148030952D01*
X191555714Y-148430952D02*
X191689047Y-148240476D01*
X191784285Y-148430952D02*
X191784285Y-148030952D01*
X191631904Y-148030952D01*
X191593809Y-148050000D01*
X191574761Y-148069047D01*
X191555714Y-148107142D01*
X191555714Y-148164285D01*
X191574761Y-148202380D01*
X191593809Y-148221428D01*
X191631904Y-148240476D01*
X191784285Y-148240476D01*
X191193809Y-148030952D02*
X191384285Y-148030952D01*
X191403333Y-148221428D01*
X191384285Y-148202380D01*
X191346190Y-148183333D01*
X191250952Y-148183333D01*
X191212857Y-148202380D01*
X191193809Y-148221428D01*
X191174761Y-148259523D01*
X191174761Y-148354761D01*
X191193809Y-148392857D01*
X191212857Y-148411904D01*
X191250952Y-148430952D01*
X191346190Y-148430952D01*
X191384285Y-148411904D01*
X191403333Y-148392857D01*
D17*
G04 #@! TO.C,F1*
X202852857Y-145393333D02*
X202852857Y-145126666D01*
X203271904Y-145126666D02*
X202471904Y-145126666D01*
X202471904Y-145507619D01*
X203271904Y-146231428D02*
X203271904Y-145774285D01*
X203271904Y-146002857D02*
X202471904Y-146002857D01*
X202586190Y-145926666D01*
X202662380Y-145850476D01*
X202700476Y-145774285D01*
D11*
G04 #@! TO.C,HLV1*
X222572380Y-135144285D02*
X223572380Y-135477619D01*
X222572380Y-135810952D01*
X223572380Y-136572857D02*
X223048571Y-136572857D01*
X222953333Y-136525238D01*
X222905714Y-136430000D01*
X222905714Y-136239523D01*
X222953333Y-136144285D01*
X223524761Y-136572857D02*
X223572380Y-136477619D01*
X223572380Y-136239523D01*
X223524761Y-136144285D01*
X223429523Y-136096666D01*
X223334285Y-136096666D01*
X223239047Y-136144285D01*
X223191428Y-136239523D01*
X223191428Y-136477619D01*
X223143809Y-136572857D01*
X223572380Y-137049047D02*
X222905714Y-137049047D01*
X223096190Y-137049047D02*
X223000952Y-137096666D01*
X222953333Y-137144285D01*
X222905714Y-137239523D01*
X222905714Y-137334761D01*
X223572380Y-137668095D02*
X222905714Y-137668095D01*
X222572380Y-137668095D02*
X222620000Y-137620476D01*
X222667619Y-137668095D01*
X222620000Y-137715714D01*
X222572380Y-137668095D01*
X222667619Y-137668095D01*
X223524761Y-138096666D02*
X223572380Y-138191904D01*
X223572380Y-138382380D01*
X223524761Y-138477619D01*
X223429523Y-138525238D01*
X223381904Y-138525238D01*
X223286666Y-138477619D01*
X223239047Y-138382380D01*
X223239047Y-138239523D01*
X223191428Y-138144285D01*
X223096190Y-138096666D01*
X223048571Y-138096666D01*
X222953333Y-138144285D01*
X222905714Y-138239523D01*
X222905714Y-138382380D01*
X222953333Y-138477619D01*
X222905714Y-138810952D02*
X222905714Y-139191904D01*
X222572380Y-138953809D02*
X223429523Y-138953809D01*
X223524761Y-139001428D01*
X223572380Y-139096666D01*
X223572380Y-139191904D01*
X223572380Y-139668095D02*
X223524761Y-139572857D01*
X223477142Y-139525238D01*
X223381904Y-139477619D01*
X223096190Y-139477619D01*
X223000952Y-139525238D01*
X222953333Y-139572857D01*
X222905714Y-139668095D01*
X222905714Y-139810952D01*
X222953333Y-139906190D01*
X223000952Y-139953809D01*
X223096190Y-140001428D01*
X223381904Y-140001428D01*
X223477142Y-139953809D01*
X223524761Y-139906190D01*
X223572380Y-139810952D01*
X223572380Y-139668095D01*
X223572380Y-140430000D02*
X222905714Y-140430000D01*
X223096190Y-140430000D02*
X223000952Y-140477619D01*
X222953333Y-140525238D01*
X222905714Y-140620476D01*
X222905714Y-140715714D01*
X220622380Y-136334761D02*
X219622380Y-136334761D01*
X220098571Y-136334761D02*
X220098571Y-136906190D01*
X220622380Y-136906190D02*
X219622380Y-136906190D01*
X220622380Y-137858571D02*
X220622380Y-137382380D01*
X219622380Y-137382380D01*
X219622380Y-138049047D02*
X220622380Y-138382380D01*
X219622380Y-138715714D01*
X220622380Y-139572857D02*
X220622380Y-139001428D01*
X220622380Y-139287142D02*
X219622380Y-139287142D01*
X219765238Y-139191904D01*
X219860476Y-139096666D01*
X219908095Y-139001428D01*
G04 #@! TO.C,ICR2*
X146155238Y-134162380D02*
X146726666Y-134162380D01*
X146440952Y-134162380D02*
X146440952Y-133162380D01*
X146536190Y-133305238D01*
X146631428Y-133400476D01*
X146726666Y-133448095D01*
X145536190Y-133162380D02*
X145440952Y-133162380D01*
X145345714Y-133210000D01*
X145298095Y-133257619D01*
X145250476Y-133352857D01*
X145202857Y-133543333D01*
X145202857Y-133781428D01*
X145250476Y-133971904D01*
X145298095Y-134067142D01*
X145345714Y-134114761D01*
X145440952Y-134162380D01*
X145536190Y-134162380D01*
X145631428Y-134114761D01*
X145679047Y-134067142D01*
X145726666Y-133971904D01*
X145774285Y-133781428D01*
X145774285Y-133543333D01*
X145726666Y-133352857D01*
X145679047Y-133257619D01*
X145631428Y-133210000D01*
X145536190Y-133162380D01*
X144774285Y-134162380D02*
X144774285Y-133162380D01*
X144679047Y-133781428D02*
X144393333Y-134162380D01*
X144393333Y-133495714D02*
X144774285Y-133876666D01*
D16*
X146150476Y-135320952D02*
X146150476Y-134920952D01*
X145731428Y-135282857D02*
X145750476Y-135301904D01*
X145807619Y-135320952D01*
X145845714Y-135320952D01*
X145902857Y-135301904D01*
X145940952Y-135263809D01*
X145960000Y-135225714D01*
X145979047Y-135149523D01*
X145979047Y-135092380D01*
X145960000Y-135016190D01*
X145940952Y-134978095D01*
X145902857Y-134940000D01*
X145845714Y-134920952D01*
X145807619Y-134920952D01*
X145750476Y-134940000D01*
X145731428Y-134959047D01*
X145331428Y-135320952D02*
X145464761Y-135130476D01*
X145560000Y-135320952D02*
X145560000Y-134920952D01*
X145407619Y-134920952D01*
X145369523Y-134940000D01*
X145350476Y-134959047D01*
X145331428Y-134997142D01*
X145331428Y-135054285D01*
X145350476Y-135092380D01*
X145369523Y-135111428D01*
X145407619Y-135130476D01*
X145560000Y-135130476D01*
X145179047Y-134959047D02*
X145160000Y-134940000D01*
X145121904Y-134920952D01*
X145026666Y-134920952D01*
X144988571Y-134940000D01*
X144969523Y-134959047D01*
X144950476Y-134997142D01*
X144950476Y-135035238D01*
X144969523Y-135092380D01*
X145198095Y-135320952D01*
X144950476Y-135320952D01*
D11*
G04 #@! TO.C,CBU3*
X142811428Y-131448095D02*
X142763809Y-131495714D01*
X142716190Y-131590952D01*
X142811428Y-131781428D01*
X142763809Y-131876666D01*
X142716190Y-131924285D01*
G04 #@! TO.C,PJ3*
X146469047Y-147642380D02*
X146469047Y-146642380D01*
X146088095Y-146642380D01*
X145992857Y-146690000D01*
X145945238Y-146737619D01*
X145897619Y-146832857D01*
X145897619Y-146975714D01*
X145945238Y-147070952D01*
X145992857Y-147118571D01*
X146088095Y-147166190D01*
X146469047Y-147166190D01*
X145183333Y-146642380D02*
X145183333Y-147356666D01*
X145230952Y-147499523D01*
X145326190Y-147594761D01*
X145469047Y-147642380D01*
X145564285Y-147642380D01*
X144183333Y-147642380D02*
X144754761Y-147642380D01*
X144469047Y-147642380D02*
X144469047Y-146642380D01*
X144564285Y-146785238D01*
X144659523Y-146880476D01*
X144754761Y-146928095D01*
X145802380Y-143105952D02*
X144802380Y-143105952D01*
X144802380Y-143486904D01*
X144850000Y-143582142D01*
X144897619Y-143629761D01*
X144992857Y-143677380D01*
X145135714Y-143677380D01*
X145230952Y-143629761D01*
X145278571Y-143582142D01*
X145326190Y-143486904D01*
X145326190Y-143105952D01*
X144802380Y-144391666D02*
X145516666Y-144391666D01*
X145659523Y-144344047D01*
X145754761Y-144248809D01*
X145802380Y-144105952D01*
X145802380Y-144010714D01*
X144802380Y-144772619D02*
X144802380Y-145391666D01*
X145183333Y-145058333D01*
X145183333Y-145201190D01*
X145230952Y-145296428D01*
X145278571Y-145344047D01*
X145373809Y-145391666D01*
X145611904Y-145391666D01*
X145707142Y-145344047D01*
X145754761Y-145296428D01*
X145802380Y-145201190D01*
X145802380Y-144915476D01*
X145754761Y-144820238D01*
X145707142Y-144772619D01*
G04 #@! TO.C,TXS1*
X159079047Y-128739404D02*
X158621904Y-128739404D01*
X158850476Y-129539404D02*
X158850476Y-128739404D01*
X158431428Y-128739404D02*
X157898095Y-129539404D01*
X157898095Y-128739404D02*
X158431428Y-129539404D01*
X157631428Y-129501309D02*
X157517142Y-129539404D01*
X157326666Y-129539404D01*
X157250476Y-129501309D01*
X157212380Y-129463214D01*
X157174285Y-129387023D01*
X157174285Y-129310833D01*
X157212380Y-129234642D01*
X157250476Y-129196547D01*
X157326666Y-129158452D01*
X157479047Y-129120357D01*
X157555238Y-129082261D01*
X157593333Y-129044166D01*
X157631428Y-128967976D01*
X157631428Y-128891785D01*
X157593333Y-128815595D01*
X157555238Y-128777500D01*
X157479047Y-128739404D01*
X157288571Y-128739404D01*
X157174285Y-128777500D01*
X156679047Y-128739404D02*
X156602857Y-128739404D01*
X156526666Y-128777500D01*
X156488571Y-128815595D01*
X156450476Y-128891785D01*
X156412380Y-129044166D01*
X156412380Y-129234642D01*
X156450476Y-129387023D01*
X156488571Y-129463214D01*
X156526666Y-129501309D01*
X156602857Y-129539404D01*
X156679047Y-129539404D01*
X156755238Y-129501309D01*
X156793333Y-129463214D01*
X156831428Y-129387023D01*
X156869523Y-129234642D01*
X156869523Y-129044166D01*
X156831428Y-128891785D01*
X156793333Y-128815595D01*
X156755238Y-128777500D01*
X156679047Y-128739404D01*
X155650476Y-129539404D02*
X156107619Y-129539404D01*
X155879047Y-129539404D02*
X155879047Y-128739404D01*
X155955238Y-128853690D01*
X156031428Y-128929880D01*
X156107619Y-128967976D01*
X155155238Y-128739404D02*
X155079047Y-128739404D01*
X155002857Y-128777500D01*
X154964761Y-128815595D01*
X154926666Y-128891785D01*
X154888571Y-129044166D01*
X154888571Y-129234642D01*
X154926666Y-129387023D01*
X154964761Y-129463214D01*
X155002857Y-129501309D01*
X155079047Y-129539404D01*
X155155238Y-129539404D01*
X155231428Y-129501309D01*
X155269523Y-129463214D01*
X155307619Y-129387023D01*
X155345714Y-129234642D01*
X155345714Y-129044166D01*
X155307619Y-128891785D01*
X155269523Y-128815595D01*
X155231428Y-128777500D01*
X155155238Y-128739404D01*
X154202857Y-129006071D02*
X154202857Y-129539404D01*
X154393333Y-128701309D02*
X154583809Y-129272738D01*
X154088571Y-129272738D01*
X153783809Y-129120357D02*
X153517142Y-129120357D01*
X153402857Y-129539404D02*
X153783809Y-129539404D01*
X153783809Y-128739404D01*
X153402857Y-128739404D01*
X152602857Y-129539404D02*
X152869523Y-129158452D01*
X153060000Y-129539404D02*
X153060000Y-128739404D01*
X152755238Y-128739404D01*
X152679047Y-128777500D01*
X152640952Y-128815595D01*
X152602857Y-128891785D01*
X152602857Y-129006071D01*
X152640952Y-129082261D01*
X152679047Y-129120357D01*
X152755238Y-129158452D01*
X153060000Y-129158452D01*
X151840952Y-128777500D02*
X151917142Y-128739404D01*
X152031428Y-128739404D01*
X152145714Y-128777500D01*
X152221904Y-128853690D01*
X152260000Y-128929880D01*
X152298095Y-129082261D01*
X152298095Y-129196547D01*
X152260000Y-129348928D01*
X152221904Y-129425119D01*
X152145714Y-129501309D01*
X152031428Y-129539404D01*
X151955238Y-129539404D01*
X151840952Y-129501309D01*
X151802857Y-129463214D01*
X151802857Y-129196547D01*
X151955238Y-129196547D01*
X151307619Y-129158452D02*
X151307619Y-129539404D01*
X151574285Y-128739404D02*
X151307619Y-129158452D01*
X151040952Y-128739404D01*
X150317142Y-129539404D02*
X150583809Y-129158452D01*
X150774285Y-129539404D02*
X150774285Y-128739404D01*
X150469523Y-128739404D01*
X150393333Y-128777500D01*
X150355238Y-128815595D01*
X150317142Y-128891785D01*
X150317142Y-129006071D01*
X150355238Y-129082261D01*
X150393333Y-129120357D01*
X150469523Y-129158452D01*
X150774285Y-129158452D01*
G04 #@! TO.C,HLC1*
X227932380Y-133960476D02*
X227932380Y-134055714D01*
X227980000Y-134150952D01*
X228027619Y-134198571D01*
X228122857Y-134246190D01*
X228313333Y-134293809D01*
X228551428Y-134293809D01*
X228741904Y-134246190D01*
X228837142Y-134198571D01*
X228884761Y-134150952D01*
X228932380Y-134055714D01*
X228932380Y-133960476D01*
X228884761Y-133865238D01*
X228837142Y-133817619D01*
X228741904Y-133770000D01*
X228551428Y-133722380D01*
X228313333Y-133722380D01*
X228122857Y-133770000D01*
X228027619Y-133817619D01*
X227980000Y-133865238D01*
X227932380Y-133960476D01*
X228837142Y-134722380D02*
X228884761Y-134770000D01*
X228932380Y-134722380D01*
X228884761Y-134674761D01*
X228837142Y-134722380D01*
X228932380Y-134722380D01*
X228932380Y-135722380D02*
X228932380Y-135150952D01*
X228932380Y-135436666D02*
X227932380Y-135436666D01*
X228075238Y-135341428D01*
X228170476Y-135246190D01*
X228218095Y-135150952D01*
X228265714Y-136579523D02*
X228932380Y-136579523D01*
X228265714Y-136150952D02*
X228789523Y-136150952D01*
X228884761Y-136198571D01*
X228932380Y-136293809D01*
X228932380Y-136436666D01*
X228884761Y-136531904D01*
X228837142Y-136579523D01*
X228408571Y-137389047D02*
X228408571Y-137055714D01*
X228932380Y-137055714D02*
X227932380Y-137055714D01*
X227932380Y-137531904D01*
X228027619Y-138627142D02*
X227980000Y-138674761D01*
X227932380Y-138770000D01*
X227932380Y-139008095D01*
X227980000Y-139103333D01*
X228027619Y-139150952D01*
X228122857Y-139198571D01*
X228218095Y-139198571D01*
X228360952Y-139150952D01*
X228932380Y-138579523D01*
X228932380Y-139198571D01*
X227932380Y-139531904D02*
X227932380Y-140198571D01*
X228932380Y-139770000D01*
X227932380Y-141055714D02*
X227932380Y-140579523D01*
X228408571Y-140531904D01*
X228360952Y-140579523D01*
X228313333Y-140674761D01*
X228313333Y-140912857D01*
X228360952Y-141008095D01*
X228408571Y-141055714D01*
X228503809Y-141103333D01*
X228741904Y-141103333D01*
X228837142Y-141055714D01*
X228884761Y-141008095D01*
X228932380Y-140912857D01*
X228932380Y-140674761D01*
X228884761Y-140579523D01*
X228837142Y-140531904D01*
X227932380Y-141389047D02*
X228932380Y-141722380D01*
X227932380Y-142055714D01*
X228646666Y-142341428D02*
X228646666Y-142817619D01*
X228932380Y-142246190D02*
X227932380Y-142579523D01*
X228932380Y-142912857D01*
X228837142Y-143817619D02*
X228884761Y-143770000D01*
X228932380Y-143627142D01*
X228932380Y-143531904D01*
X228884761Y-143389047D01*
X228789523Y-143293809D01*
X228694285Y-143246190D01*
X228503809Y-143198571D01*
X228360952Y-143198571D01*
X228170476Y-143246190D01*
X228075238Y-143293809D01*
X227980000Y-143389047D01*
X227932380Y-143531904D01*
X227932380Y-143627142D01*
X227980000Y-143770000D01*
X228027619Y-143817619D01*
X229702380Y-136583333D02*
X228702380Y-136583333D01*
X229178571Y-136583333D02*
X229178571Y-137154761D01*
X229702380Y-137154761D02*
X228702380Y-137154761D01*
X229702380Y-138107142D02*
X229702380Y-137630952D01*
X228702380Y-137630952D01*
X229607142Y-139011904D02*
X229654761Y-138964285D01*
X229702380Y-138821428D01*
X229702380Y-138726190D01*
X229654761Y-138583333D01*
X229559523Y-138488095D01*
X229464285Y-138440476D01*
X229273809Y-138392857D01*
X229130952Y-138392857D01*
X228940476Y-138440476D01*
X228845238Y-138488095D01*
X228750000Y-138583333D01*
X228702380Y-138726190D01*
X228702380Y-138821428D01*
X228750000Y-138964285D01*
X228797619Y-139011904D01*
X229702380Y-139964285D02*
X229702380Y-139392857D01*
X229702380Y-139678571D02*
X228702380Y-139678571D01*
X228845238Y-139583333D01*
X228940476Y-139488095D01*
X228988095Y-139392857D01*
G04 #@! TO.C,CANBUS1*
X156681904Y-121626428D02*
X156634285Y-121578809D01*
X156539047Y-121531190D01*
X156348571Y-121626428D01*
X156253333Y-121578809D01*
X156205714Y-121531190D01*
X159149047Y-114997142D02*
X159196666Y-115044761D01*
X159339523Y-115092380D01*
X159434761Y-115092380D01*
X159577619Y-115044761D01*
X159672857Y-114949523D01*
X159720476Y-114854285D01*
X159768095Y-114663809D01*
X159768095Y-114520952D01*
X159720476Y-114330476D01*
X159672857Y-114235238D01*
X159577619Y-114140000D01*
X159434761Y-114092380D01*
X159339523Y-114092380D01*
X159196666Y-114140000D01*
X159149047Y-114187619D01*
X158768095Y-114806666D02*
X158291904Y-114806666D01*
X158863333Y-115092380D02*
X158530000Y-114092380D01*
X158196666Y-115092380D01*
X157863333Y-115092380D02*
X157863333Y-114092380D01*
X157291904Y-115092380D01*
X157291904Y-114092380D01*
X156482380Y-114568571D02*
X156339523Y-114616190D01*
X156291904Y-114663809D01*
X156244285Y-114759047D01*
X156244285Y-114901904D01*
X156291904Y-114997142D01*
X156339523Y-115044761D01*
X156434761Y-115092380D01*
X156815714Y-115092380D01*
X156815714Y-114092380D01*
X156482380Y-114092380D01*
X156387142Y-114140000D01*
X156339523Y-114187619D01*
X156291904Y-114282857D01*
X156291904Y-114378095D01*
X156339523Y-114473333D01*
X156387142Y-114520952D01*
X156482380Y-114568571D01*
X156815714Y-114568571D01*
X155815714Y-114092380D02*
X155815714Y-114901904D01*
X155768095Y-114997142D01*
X155720476Y-115044761D01*
X155625238Y-115092380D01*
X155434761Y-115092380D01*
X155339523Y-115044761D01*
X155291904Y-114997142D01*
X155244285Y-114901904D01*
X155244285Y-114092380D01*
X154815714Y-115044761D02*
X154672857Y-115092380D01*
X154434761Y-115092380D01*
X154339523Y-115044761D01*
X154291904Y-114997142D01*
X154244285Y-114901904D01*
X154244285Y-114806666D01*
X154291904Y-114711428D01*
X154339523Y-114663809D01*
X154434761Y-114616190D01*
X154625238Y-114568571D01*
X154720476Y-114520952D01*
X154768095Y-114473333D01*
X154815714Y-114378095D01*
X154815714Y-114282857D01*
X154768095Y-114187619D01*
X154720476Y-114140000D01*
X154625238Y-114092380D01*
X154387142Y-114092380D01*
X154244285Y-114140000D01*
X153291904Y-115092380D02*
X153863333Y-115092380D01*
X153577619Y-115092380D02*
X153577619Y-114092380D01*
X153672857Y-114235238D01*
X153768095Y-114330476D01*
X153863333Y-114378095D01*
D18*
G04 #@! TO.C,J1*
X172680000Y-149700000D02*
X172690000Y-149700000D01*
D19*
G04 #@! TO.C,G\u002A\u002A\u002A*
X169930000Y-122315000D02*
X169925000Y-125235000D01*
X222945000Y-137820000D02*
X222955000Y-150965000D01*
X143720000Y-150965000D02*
X143710000Y-137915000D01*
X169775000Y-153355000D02*
X169755000Y-151115000D01*
X168540000Y-122325000D02*
X146590000Y-122305000D01*
X197425000Y-153375000D02*
X220155000Y-153395000D01*
X169755000Y-151115000D02*
X168745000Y-151115000D01*
X195485000Y-125164700D02*
X195480000Y-122314700D01*
X143700000Y-136915000D02*
X143700000Y-125495000D01*
X169775000Y-153355000D02*
X195035000Y-153365000D01*
X221165000Y-137815000D02*
X221165000Y-136817500D01*
X169925000Y-125235000D02*
X168545000Y-125235000D01*
X168545000Y-125235000D02*
X168540000Y-122325000D01*
X196870000Y-122314700D02*
X219700000Y-122324700D01*
X196875000Y-125164700D02*
X195485000Y-125164700D01*
X196870000Y-122314700D02*
X196875000Y-125164700D01*
X197425000Y-150105000D02*
X195035000Y-150100000D01*
X168745000Y-151115000D02*
X168745000Y-153355000D01*
X143700000Y-136915000D02*
X144815000Y-136925000D01*
X144815000Y-136925000D02*
X144815000Y-137925000D01*
X144815000Y-137925000D02*
X143710000Y-137915000D01*
X221165000Y-136817500D02*
X222945000Y-136820000D01*
X222945000Y-136820000D02*
X222940000Y-125294700D01*
X195480000Y-122314700D02*
X169930000Y-122315000D01*
X168745000Y-153355000D02*
X146780000Y-153345000D01*
X197425000Y-153375000D02*
X197425000Y-150105000D01*
X195035000Y-150100000D02*
X195035000Y-153365000D01*
X222945000Y-137820000D02*
X221165000Y-137815000D01*
X146590000Y-122305000D02*
G75*
G03*
X143700000Y-125495000I375481J-3244276D01*
G01*
X143720000Y-150965000D02*
G75*
G03*
X146780000Y-153345000I3113656J846129D01*
G01*
X220154997Y-153394985D02*
G75*
G03*
X222955000Y-150965000I-855797J3814285D01*
G01*
X222940000Y-125294700D02*
G75*
G03*
X219700000Y-122324700I-3295300J-342600D01*
G01*
D10*
G04 #@! TO.C,HiLink1*
X196470000Y-147020000D02*
X196470000Y-135510000D01*
X162470000Y-147020000D02*
X162470000Y-127020000D01*
X196470000Y-133520000D02*
X196470000Y-127020000D01*
X196470000Y-147020000D02*
X162470000Y-147020000D01*
X196460000Y-133520000D02*
X195460000Y-134520000D01*
X195460000Y-134520000D02*
X196460000Y-135520000D01*
X196470000Y-127020000D02*
X162470000Y-127020000D01*
G04 #@! TO.C,BAT3*
X198940000Y-151170000D02*
X198940000Y-150870000D01*
X199540000Y-151170000D02*
X198940000Y-151170000D01*
X201490000Y-147520000D02*
X201490000Y-152520000D01*
X201490000Y-152520000D02*
X198590000Y-152520000D01*
X201490000Y-148520000D02*
X200782893Y-149020000D01*
X198940000Y-150170000D02*
X198940000Y-149870000D01*
X198940000Y-149870000D02*
X199540000Y-149870000D01*
X199540000Y-148870000D02*
X199540000Y-149170000D01*
X198940000Y-148870000D02*
X199540000Y-148870000D01*
X199540000Y-149170000D02*
X198940000Y-149170000D01*
X201490000Y-147520000D02*
X198590000Y-147520000D01*
X200782893Y-149020000D02*
X201490000Y-149520000D01*
X198940000Y-149170000D02*
X198940000Y-148870000D01*
X198590000Y-147520000D02*
X198590000Y-152520000D01*
X198940000Y-150870000D02*
X199540000Y-150870000D01*
X199540000Y-150870000D02*
X199540000Y-151170000D01*
X199540000Y-150170000D02*
X198940000Y-150170000D01*
X199540000Y-149870000D02*
X199540000Y-150170000D01*
G04 #@! TO.C,PF1*
X220950000Y-151560000D02*
X217950000Y-151560000D01*
X220950000Y-144460000D02*
X220950000Y-151560000D01*
X217950000Y-151560000D02*
X217950000Y-144460000D01*
X217950000Y-144460000D02*
X220950000Y-144460000D01*
G04 #@! TO.C,MCY1*
X150200000Y-122980000D02*
X147200000Y-122980000D01*
X147100000Y-123080000D02*
X147100000Y-125380000D01*
X147100000Y-125380000D02*
X147200000Y-125480000D01*
X150300000Y-123080000D02*
X150200000Y-122980000D01*
X150200000Y-125480000D02*
X150300000Y-125380000D01*
X147100000Y-123980000D02*
X148100000Y-122980000D01*
X147200000Y-125480000D02*
X150200000Y-125480000D01*
X147200000Y-122980000D02*
X147100000Y-123080000D01*
X150300000Y-125380000D02*
X150300000Y-123080000D01*
G04 #@! TO.C,TXR1*
X155630000Y-136675000D02*
X155630000Y-137925000D01*
X157630000Y-136675000D02*
X155630000Y-136675000D01*
X155630000Y-137925000D02*
X157630000Y-137925000D01*
X157630000Y-137925000D02*
X157630000Y-136675000D01*
G04 #@! TO.C,PJ2*
X221380000Y-129435000D02*
X221380000Y-125625000D01*
X221380000Y-125625000D02*
X219280000Y-125625000D01*
X219280000Y-128910000D02*
X219805000Y-129435000D01*
X219280000Y-125625000D02*
X219280000Y-128910000D01*
X219805000Y-129435000D02*
X221380000Y-129435000D01*
G04 #@! TO.C,I2C1*
X161960000Y-149395000D02*
X146960000Y-149395000D01*
X147810000Y-149045000D02*
X147810000Y-145295000D01*
X147810000Y-145295000D02*
X150610000Y-145295000D01*
X158310000Y-145295000D02*
X161110000Y-145295000D01*
X150610000Y-149045000D02*
X147810000Y-149045000D01*
X151310000Y-145295000D02*
X154110000Y-145295000D01*
X154110000Y-149045000D02*
X151310000Y-149045000D01*
X157610000Y-149045000D02*
X154810000Y-149045000D01*
X146960000Y-152895000D02*
X159960000Y-152895000D01*
X154110000Y-145295000D02*
X154110000Y-149045000D01*
X158310000Y-149045000D02*
X158310000Y-145295000D01*
X154810000Y-149045000D02*
X154810000Y-145295000D01*
X157610000Y-145295000D02*
X157610000Y-149045000D01*
X161960000Y-144595000D02*
X146960000Y-144595000D01*
X150610000Y-145295000D02*
X150610000Y-149045000D01*
X154810000Y-145295000D02*
X157610000Y-145295000D01*
X159960000Y-152895000D02*
X161960000Y-150895000D01*
X146960000Y-144595000D02*
X146960000Y-152895000D01*
X161960000Y-150895000D02*
X161960000Y-144595000D01*
X161110000Y-149045000D02*
X158310000Y-149045000D01*
X151310000Y-149045000D02*
X151310000Y-145295000D01*
X161110000Y-145295000D02*
X161110000Y-149045000D01*
X160710000Y-146695000D02*
G75*
G03*
X160710000Y-146695000I-1000000J0D01*
G01*
X157210000Y-146695000D02*
G75*
G03*
X157210000Y-146695000I-1000000J0D01*
G01*
X153710000Y-146695000D02*
G75*
G03*
X153710000Y-146695000I-1000000J0D01*
G01*
X150210000Y-146695000D02*
G75*
G03*
X150210000Y-146695000I-1000000J0D01*
G01*
G04 #@! TO.C,CJ1*
X166625000Y-124350000D02*
X164610000Y-124350000D01*
X164085000Y-126450000D02*
X166625000Y-126450000D01*
X164610000Y-124350000D02*
X164085000Y-124875000D01*
X166625000Y-126450000D02*
X166625000Y-124350000D01*
X164085000Y-124875000D02*
X164085000Y-126450000D01*
G04 #@! TO.C,CC3*
X146030000Y-123940000D02*
X145230000Y-123940000D01*
X145230000Y-123940000D02*
X145230000Y-125540000D01*
X145230000Y-125540000D02*
X146030000Y-125540000D01*
X146030000Y-125540000D02*
X146030000Y-123940000D01*
G04 #@! TO.C,HLL1*
X196950000Y-134230000D02*
X196953750Y-140696250D01*
X198953750Y-142696250D02*
X208471250Y-142703750D01*
X210476250Y-140703750D02*
X210467500Y-136237500D01*
X208467500Y-132237500D02*
X198950000Y-132230000D01*
X209467500Y-135237500D02*
X210467500Y-134237500D01*
X210467500Y-136237500D02*
X209467500Y-135237500D01*
X210467500Y-134237500D02*
G75*
G03*
X208467500Y-132237500I-1999999J1D01*
G01*
X198950000Y-132230000D02*
G75*
G03*
X196950000Y-134230000I0J-2000000D01*
G01*
X196953750Y-140696250D02*
G75*
G03*
X198953750Y-142696250I2000000J0D01*
G01*
X208476250Y-142703750D02*
G75*
G03*
X210476250Y-140703750I1J1999999D01*
G01*
G04 #@! TO.C,ICSP1*
X188105000Y-150155000D02*
X194455000Y-150155000D01*
X188105000Y-153076000D02*
X188105000Y-150155000D01*
X194455000Y-150155000D02*
X194455000Y-153076000D01*
X195090000Y-153076000D02*
X187470000Y-153076000D01*
G04 #@! TO.C,ER5*
X190870000Y-147837500D02*
X190870000Y-148662500D01*
X190870000Y-148662500D02*
X192470000Y-148662500D01*
X192470000Y-148662500D02*
X192470000Y-147837500D01*
X192470000Y-147837500D02*
X190870000Y-147837500D01*
G04 #@! TO.C,F1*
X202110000Y-144060000D02*
X202110000Y-147260000D01*
X203710000Y-147260000D02*
X203710000Y-144060000D01*
X203710000Y-144060000D02*
X202110000Y-144060000D01*
X202110000Y-147260000D02*
X203710000Y-147260000D01*
G04 #@! TO.C,HLV1*
X222120000Y-143930000D02*
X218220000Y-143930000D01*
X222120000Y-143930000D02*
X222120000Y-131930000D01*
X222120000Y-131930000D02*
X218220000Y-131930000D01*
X218220000Y-143930000D02*
X218220000Y-131930000D01*
G04 #@! TO.C,ICR2*
X144760000Y-135552500D02*
X146360000Y-135552500D01*
X144760000Y-134727500D02*
X144760000Y-135552500D01*
X146360000Y-135552500D02*
X146360000Y-134727500D01*
X146360000Y-134727500D02*
X144760000Y-134727500D01*
D18*
G04 #@! TO.C,CBU3*
X143940000Y-127997500D02*
X143940000Y-132497500D01*
X143940000Y-132497500D02*
X150540000Y-132497500D01*
X150540000Y-127997500D02*
X150540000Y-132497500D01*
X143940000Y-127997500D02*
X150540000Y-127997500D01*
D20*
X144005000Y-125862500D02*
G75*
G03*
X144005000Y-125862500I-100000J0D01*
G01*
D10*
G04 #@! TO.C,PJ3*
X145875000Y-142320000D02*
X144300000Y-142320000D01*
X144300000Y-142320000D02*
X144300000Y-146130000D01*
X146400000Y-146130000D02*
X146400000Y-142845000D01*
X144300000Y-146130000D02*
X146400000Y-146130000D01*
X146400000Y-142845000D02*
X145875000Y-142320000D01*
D18*
G04 #@! TO.C,TXS1*
X153950000Y-135882500D02*
X157610000Y-135882500D01*
X153950000Y-132222500D02*
X153950000Y-135882500D01*
X157610000Y-135882500D02*
X157610000Y-132222500D01*
X157610000Y-132222500D02*
X153950000Y-132222500D01*
D20*
X156630000Y-131352500D02*
G75*
G03*
X156630000Y-131352500I-100000J0D01*
G01*
D10*
G04 #@! TO.C,HLC1*
X217850000Y-144100000D02*
X211850000Y-144100000D01*
X217850000Y-131100000D02*
X217850000Y-144100000D01*
X211850000Y-144100000D02*
X211850000Y-131100000D01*
X211850000Y-131100000D02*
X217850000Y-131100000D01*
G04 #@! TO.C,CANBUS1*
X158520000Y-130215000D02*
X158520000Y-126465000D01*
X152670000Y-122615000D02*
X150670000Y-124615000D01*
X154320000Y-130215000D02*
X151520000Y-130215000D01*
X155020000Y-126465000D02*
X157820000Y-126465000D01*
X162170000Y-122615000D02*
X152670000Y-122615000D01*
X154320000Y-126465000D02*
X154320000Y-130215000D01*
X150670000Y-124615000D02*
X150670000Y-130915000D01*
X157820000Y-130215000D02*
X155020000Y-130215000D01*
X151520000Y-130215000D02*
X151520000Y-126465000D01*
X157820000Y-126465000D02*
X157820000Y-130215000D01*
X150670000Y-126115000D02*
X162170000Y-126115000D01*
X162170000Y-130915000D02*
X162170000Y-122615000D01*
X150670000Y-130915000D02*
X162170000Y-130915000D01*
X161320000Y-126465000D02*
X161320000Y-130215000D01*
X161320000Y-130215000D02*
X158520000Y-130215000D01*
X151520000Y-126465000D02*
X154320000Y-126465000D01*
X155020000Y-130215000D02*
X155020000Y-126465000D01*
X158520000Y-126465000D02*
X161320000Y-126465000D01*
X153920000Y-128815000D02*
G75*
G03*
X153920000Y-128815000I-1000000J0D01*
G01*
X160920000Y-128815000D02*
G75*
G03*
X160920000Y-128815000I-1000000J0D01*
G01*
X157420000Y-128815000D02*
G75*
G03*
X157420000Y-128815000I-1000000J0D01*
G01*
G04 #@! TO.C,PWR220*
X204440000Y-144430000D02*
X214440000Y-144430000D01*
X214390000Y-150730000D02*
X204490000Y-150730000D01*
X204440000Y-151930000D02*
X204440000Y-144430000D01*
X214440000Y-151930000D02*
X204440000Y-151930000D01*
X214440000Y-144430000D02*
X214440000Y-151930000D01*
G04 #@! TO.C,I2C2*
X207190000Y-126305000D02*
X209990000Y-126305000D01*
X210690000Y-126305000D02*
X213490000Y-126305000D01*
X204840000Y-122455000D02*
X202840000Y-124455000D01*
X217840000Y-130755000D02*
X217840000Y-122455000D01*
X216990000Y-126305000D02*
X216990000Y-130055000D01*
X214190000Y-130055000D02*
X214190000Y-126305000D01*
X216990000Y-130055000D02*
X214190000Y-130055000D01*
X203690000Y-130055000D02*
X203690000Y-126305000D01*
X209990000Y-130055000D02*
X207190000Y-130055000D01*
X203690000Y-126305000D02*
X206490000Y-126305000D01*
X202840000Y-125955000D02*
X217840000Y-125955000D01*
X213490000Y-126305000D02*
X213490000Y-130055000D01*
X217840000Y-122455000D02*
X204840000Y-122455000D01*
X202840000Y-130755000D02*
X217840000Y-130755000D01*
X202840000Y-124455000D02*
X202840000Y-130755000D01*
X213490000Y-130055000D02*
X210690000Y-130055000D01*
X207190000Y-130055000D02*
X207190000Y-126305000D01*
X214190000Y-126305000D02*
X216990000Y-126305000D01*
X206490000Y-126305000D02*
X206490000Y-130055000D01*
X206490000Y-130055000D02*
X203690000Y-130055000D01*
X210690000Y-130055000D02*
X210690000Y-126305000D01*
X209990000Y-126305000D02*
X209990000Y-130055000D01*
X209590000Y-128655000D02*
G75*
G03*
X209590000Y-128655000I-1000000J0D01*
G01*
X216590000Y-128655000D02*
G75*
G03*
X216590000Y-128655000I-1000000J0D01*
G01*
X206090000Y-128655000D02*
G75*
G03*
X206090000Y-128655000I-1000000J0D01*
G01*
X213090000Y-128655000D02*
G75*
G03*
X213090000Y-128655000I-1000000J0D01*
G01*
G04 #@! TD*
M02*
