G04 #@! TF.GenerationSoftware,KiCad,Pcbnew,(6.0.9)*
G04 #@! TF.CreationDate,2022-11-26T17:41:20+01:00*
G04 #@! TF.ProjectId,LDAD_Junction_Box_79x31mm_AC220V,4c444144-5f4a-4756-9e63-74696f6e5f42,5.3*
G04 #@! TF.SameCoordinates,Original*
G04 #@! TF.FileFunction,Legend,Top*
G04 #@! TF.FilePolarity,Positive*
%FSLAX46Y46*%
G04 Gerber Fmt 4.6, Leading zero omitted, Abs format (unit mm)*
G04 Created by KiCad (PCBNEW (6.0.9)) date 2022-11-26 17:41:20*
%MOMM*%
%LPD*%
G01*
G04 APERTURE LIST*
G04 Aperture macros list*
%AMRoundRect*
0 Rectangle with rounded corners*
0 $1 Rounding radius*
0 $2 $3 $4 $5 $6 $7 $8 $9 X,Y pos of 4 corners*
0 Add a 4 corners polygon primitive as box body*
4,1,4,$2,$3,$4,$5,$6,$7,$8,$9,$2,$3,0*
0 Add four circle primitives for the rounded corners*
1,1,$1+$1,$2,$3*
1,1,$1+$1,$4,$5*
1,1,$1+$1,$6,$7*
1,1,$1+$1,$8,$9*
0 Add four rect primitives between the rounded corners*
20,1,$1+$1,$2,$3,$4,$5,0*
20,1,$1+$1,$4,$5,$6,$7,0*
20,1,$1+$1,$6,$7,$8,$9,0*
20,1,$1+$1,$8,$9,$2,$3,0*%
%AMRotRect*
0 Rectangle, with rotation*
0 The origin of the aperture is its center*
0 $1 length*
0 $2 width*
0 $3 Rotation angle, in degrees counterclockwise*
0 Add horizontal line*
21,1,$1,$2,0,0,$3*%
%AMFreePoly0*
4,1,6,0.500000,-0.850000,-0.500000,-0.850000,-0.500000,0.550000,-0.200000,0.850000,0.500000,0.850000,0.500000,-0.850000,0.500000,-0.850000,$1*%
G04 Aperture macros list end*
%ADD10C,0.100000*%
%ADD11C,0.150000*%
%ADD12C,0.300000*%
%ADD13C,0.400000*%
%ADD14C,0.280000*%
%ADD15C,0.350000*%
%ADD16C,0.700000*%
%ADD17C,0.200000*%
%ADD18C,0.120000*%
%ADD19C,0.127000*%
%ADD20C,0.381000*%
G04 #@! TA.AperFunction,Profile*
%ADD21C,0.120000*%
G04 #@! TD*
%ADD22C,1.270000*%
%ADD23RoundRect,0.225000X-0.225000X-0.250000X0.225000X-0.250000X0.225000X0.250000X-0.225000X0.250000X0*%
%ADD24RoundRect,0.250000X-0.262500X-0.450000X0.262500X-0.450000X0.262500X0.450000X-0.262500X0.450000X0*%
%ADD25RoundRect,0.250000X0.250000X0.475000X-0.250000X0.475000X-0.250000X-0.475000X0.250000X-0.475000X0*%
%ADD26RoundRect,0.225000X0.250000X-0.225000X0.250000X0.225000X-0.250000X0.225000X-0.250000X-0.225000X0*%
%ADD27C,1.000000*%
%ADD28RoundRect,0.225000X-0.250000X0.225000X-0.250000X-0.225000X0.250000X-0.225000X0.250000X0.225000X0*%
%ADD29RoundRect,0.250000X0.475000X-0.250000X0.475000X0.250000X-0.475000X0.250000X-0.475000X-0.250000X0*%
%ADD30R,1.000000X1.300000*%
%ADD31RoundRect,0.042000X-0.258000X0.943000X-0.258000X-0.943000X0.258000X-0.943000X0.258000X0.943000X0*%
%ADD32R,3.302000X2.413000*%
%ADD33RoundRect,0.250000X-0.337500X-0.475000X0.337500X-0.475000X0.337500X0.475000X-0.337500X0.475000X0*%
%ADD34RoundRect,0.250000X-0.450000X0.350000X-0.450000X-0.350000X0.450000X-0.350000X0.450000X0.350000X0*%
%ADD35RoundRect,0.150000X0.150000X-0.825000X0.150000X0.825000X-0.150000X0.825000X-0.150000X-0.825000X0*%
%ADD36R,0.550000X0.250000*%
%ADD37R,0.001000X0.001000*%
%ADD38FreePoly0,180.000000*%
%ADD39RoundRect,0.150000X0.587500X0.150000X-0.587500X0.150000X-0.587500X-0.150000X0.587500X-0.150000X0*%
%ADD40RoundRect,0.124800X-0.475200X-0.275200X0.475200X-0.275200X0.475200X0.275200X-0.475200X0.275200X0*%
%ADD41RoundRect,0.200000X-0.275000X0.200000X-0.275000X-0.200000X0.275000X-0.200000X0.275000X0.200000X0*%
%ADD42RoundRect,0.041300X-0.253700X0.948700X-0.253700X-0.948700X0.253700X-0.948700X0.253700X0.948700X0*%
%ADD43RoundRect,0.200000X0.200000X0.275000X-0.200000X0.275000X-0.200000X-0.275000X0.200000X-0.275000X0*%
%ADD44RoundRect,0.250000X-0.450000X0.262500X-0.450000X-0.262500X0.450000X-0.262500X0.450000X0.262500X0*%
%ADD45R,0.400000X25.500000*%
%ADD46RoundRect,0.243750X-0.243750X-0.456250X0.243750X-0.456250X0.243750X0.456250X-0.243750X0.456250X0*%
%ADD47RoundRect,0.250000X1.075000X-0.375000X1.075000X0.375000X-1.075000X0.375000X-1.075000X-0.375000X0*%
%ADD48R,2.250000X1.100000*%
%ADD49R,1.100000X1.050000*%
%ADD50RoundRect,0.250000X-0.475000X0.250000X-0.475000X-0.250000X0.475000X-0.250000X0.475000X0.250000X0*%
%ADD51RoundRect,0.150000X0.150000X-0.675000X0.150000X0.675000X-0.150000X0.675000X-0.150000X-0.675000X0*%
%ADD52RoundRect,0.000250X0.000250X-0.000250X0.000250X0.000250X-0.000250X0.000250X-0.000250X-0.000250X0*%
%ADD53RoundRect,0.250000X0.262500X0.450000X-0.262500X0.450000X-0.262500X-0.450000X0.262500X-0.450000X0*%
%ADD54RoundRect,0.218750X0.218750X0.381250X-0.218750X0.381250X-0.218750X-0.381250X0.218750X-0.381250X0*%
%ADD55RoundRect,0.200000X0.275000X-0.200000X0.275000X0.200000X-0.275000X0.200000X-0.275000X-0.200000X0*%
%ADD56RoundRect,0.225000X0.225000X0.250000X-0.225000X0.250000X-0.225000X-0.250000X0.225000X-0.250000X0*%
%ADD57RoundRect,0.088500X-0.206500X0.746500X-0.206500X-0.746500X0.206500X-0.746500X0.206500X0.746500X0*%
%ADD58RoundRect,0.088500X0.206500X-0.746500X0.206500X0.746500X-0.206500X0.746500X-0.206500X-0.746500X0*%
%ADD59RoundRect,0.250000X-0.250000X-0.475000X0.250000X-0.475000X0.250000X0.475000X-0.250000X0.475000X0*%
%ADD60RoundRect,0.150000X0.150000X-0.587500X0.150000X0.587500X-0.150000X0.587500X-0.150000X-0.587500X0*%
%ADD61R,0.400000X25.400000*%
%ADD62RoundRect,0.250001X-1.074999X0.462499X-1.074999X-0.462499X1.074999X-0.462499X1.074999X0.462499X0*%
%ADD63R,5.000000X0.400000*%
%ADD64R,1.400000X2.100000*%
%ADD65RoundRect,0.250000X0.350000X0.450000X-0.350000X0.450000X-0.350000X-0.450000X0.350000X-0.450000X0*%
%ADD66RoundRect,0.150000X-0.150000X0.587500X-0.150000X-0.587500X0.150000X-0.587500X0.150000X0.587500X0*%
%ADD67RoundRect,0.150000X-0.587500X-0.150000X0.587500X-0.150000X0.587500X0.150000X-0.587500X0.150000X0*%
%ADD68RoundRect,0.200000X-0.200000X-0.275000X0.200000X-0.275000X0.200000X0.275000X-0.200000X0.275000X0*%
%ADD69RoundRect,0.066000X0.154000X-0.404000X0.154000X0.404000X-0.154000X0.404000X-0.154000X-0.404000X0*%
%ADD70RoundRect,0.250000X0.450000X-0.350000X0.450000X0.350000X-0.450000X0.350000X-0.450000X-0.350000X0*%
%ADD71RoundRect,0.200000X-0.200000X-0.600000X0.200000X-0.600000X0.200000X0.600000X-0.200000X0.600000X0*%
%ADD72RoundRect,0.250001X-0.624999X0.462499X-0.624999X-0.462499X0.624999X-0.462499X0.624999X0.462499X0*%
%ADD73R,2.195000X2.195000*%
%ADD74RoundRect,0.050000X0.309359X-0.238649X-0.238649X0.309359X-0.309359X0.238649X0.238649X-0.309359X0*%
%ADD75RoundRect,0.050000X0.309359X0.238649X0.238649X0.309359X-0.309359X-0.238649X-0.238649X-0.309359X0*%
%ADD76RotRect,5.600000X5.600000X135.000000*%
%ADD77R,13.000000X0.400000*%
%ADD78R,20.500000X0.400000*%
%ADD79RoundRect,0.100000X-0.100000X-0.550000X0.100000X-0.550000X0.100000X0.550000X-0.100000X0.550000X0*%
%ADD80RoundRect,0.262500X0.737500X0.262500X-0.737500X0.262500X-0.737500X-0.262500X0.737500X-0.262500X0*%
%ADD81RoundRect,0.100000X0.100000X0.550000X-0.100000X0.550000X-0.100000X-0.550000X0.100000X-0.550000X0*%
%ADD82R,0.580000X0.350000*%
%ADD83R,0.350000X0.580000*%
%ADD84RoundRect,0.218750X-0.218750X-0.381250X0.218750X-0.381250X0.218750X0.381250X-0.218750X0.381250X0*%
%ADD85RoundRect,0.250000X0.375000X1.075000X-0.375000X1.075000X-0.375000X-1.075000X0.375000X-1.075000X0*%
%ADD86R,1.300000X1.000000*%
%ADD87R,2.300000X2.000000*%
%ADD88C,2.300000*%
%ADD89R,0.500000X0.500000*%
%ADD90C,2.010000*%
%ADD91R,1.000000X1.000000*%
%ADD92O,1.000000X1.000000*%
%ADD93R,2.600000X2.600000*%
%ADD94C,2.600000*%
%ADD95R,2.000000X2.000000*%
%ADD96C,2.000000*%
%ADD97C,0.700000*%
%ADD98O,0.800000X1.500000*%
%ADD99C,1.800000*%
%ADD100C,0.400000*%
%ADD101R,3.000000X3.000000*%
%ADD102C,3.000000*%
G04 APERTURE END LIST*
D10*
D11*
X177002200Y-166007200D02*
X177002200Y-198007200D01*
X285002200Y-198007200D01*
X285002200Y-166007200D01*
X177002200Y-166007200D01*
D10*
D11*
X10000000Y-10000000D02*
X10000000Y-200007200D01*
X287002200Y-200007200D01*
X287002200Y-10000000D01*
X10000000Y-10000000D01*
D10*
D11*
X12000000Y-12000000D02*
X12000000Y-198007200D01*
X285002200Y-198007200D01*
X285002200Y-12000000D01*
X12000000Y-12000000D01*
D10*
D11*
X60000000Y-12000000D02*
X60000000Y-10000000D01*
D10*
D11*
X110000000Y-12000000D02*
X110000000Y-10000000D01*
D10*
D11*
X160000000Y-12000000D02*
X160000000Y-10000000D01*
D10*
D11*
X210000000Y-12000000D02*
X210000000Y-10000000D01*
D10*
D11*
X260000000Y-12000000D02*
X260000000Y-10000000D01*
D10*
D11*
X36065476Y-11588095D02*
X35322619Y-11588095D01*
X35694047Y-11588095D02*
X35694047Y-10288095D01*
X35570238Y-10473809D01*
X35446428Y-10597619D01*
X35322619Y-10659523D01*
D10*
D11*
X85322619Y-10411904D02*
X85384523Y-10350000D01*
X85508333Y-10288095D01*
X85817857Y-10288095D01*
X85941666Y-10350000D01*
X86003571Y-10411904D01*
X86065476Y-10535714D01*
X86065476Y-10659523D01*
X86003571Y-10845238D01*
X85260714Y-11588095D01*
X86065476Y-11588095D01*
D10*
D11*
X135260714Y-10288095D02*
X136065476Y-10288095D01*
X135632142Y-10783333D01*
X135817857Y-10783333D01*
X135941666Y-10845238D01*
X136003571Y-10907142D01*
X136065476Y-11030952D01*
X136065476Y-11340476D01*
X136003571Y-11464285D01*
X135941666Y-11526190D01*
X135817857Y-11588095D01*
X135446428Y-11588095D01*
X135322619Y-11526190D01*
X135260714Y-11464285D01*
D10*
D11*
X185941666Y-10721428D02*
X185941666Y-11588095D01*
X185632142Y-10226190D02*
X185322619Y-11154761D01*
X186127380Y-11154761D01*
D10*
D11*
X236003571Y-10288095D02*
X235384523Y-10288095D01*
X235322619Y-10907142D01*
X235384523Y-10845238D01*
X235508333Y-10783333D01*
X235817857Y-10783333D01*
X235941666Y-10845238D01*
X236003571Y-10907142D01*
X236065476Y-11030952D01*
X236065476Y-11340476D01*
X236003571Y-11464285D01*
X235941666Y-11526190D01*
X235817857Y-11588095D01*
X235508333Y-11588095D01*
X235384523Y-11526190D01*
X235322619Y-11464285D01*
D10*
D11*
X285941666Y-10288095D02*
X285694047Y-10288095D01*
X285570238Y-10350000D01*
X285508333Y-10411904D01*
X285384523Y-10597619D01*
X285322619Y-10845238D01*
X285322619Y-11340476D01*
X285384523Y-11464285D01*
X285446428Y-11526190D01*
X285570238Y-11588095D01*
X285817857Y-11588095D01*
X285941666Y-11526190D01*
X286003571Y-11464285D01*
X286065476Y-11340476D01*
X286065476Y-11030952D01*
X286003571Y-10907142D01*
X285941666Y-10845238D01*
X285817857Y-10783333D01*
X285570238Y-10783333D01*
X285446428Y-10845238D01*
X285384523Y-10907142D01*
X285322619Y-11030952D01*
D10*
D11*
X60000000Y-198007200D02*
X60000000Y-200007200D01*
D10*
D11*
X110000000Y-198007200D02*
X110000000Y-200007200D01*
D10*
D11*
X160000000Y-198007200D02*
X160000000Y-200007200D01*
D10*
D11*
X210000000Y-198007200D02*
X210000000Y-200007200D01*
D10*
D11*
X260000000Y-198007200D02*
X260000000Y-200007200D01*
D10*
D11*
X36065476Y-199595295D02*
X35322619Y-199595295D01*
X35694047Y-199595295D02*
X35694047Y-198295295D01*
X35570238Y-198481009D01*
X35446428Y-198604819D01*
X35322619Y-198666723D01*
D10*
D11*
X85322619Y-198419104D02*
X85384523Y-198357200D01*
X85508333Y-198295295D01*
X85817857Y-198295295D01*
X85941666Y-198357200D01*
X86003571Y-198419104D01*
X86065476Y-198542914D01*
X86065476Y-198666723D01*
X86003571Y-198852438D01*
X85260714Y-199595295D01*
X86065476Y-199595295D01*
D10*
D11*
X135260714Y-198295295D02*
X136065476Y-198295295D01*
X135632142Y-198790533D01*
X135817857Y-198790533D01*
X135941666Y-198852438D01*
X136003571Y-198914342D01*
X136065476Y-199038152D01*
X136065476Y-199347676D01*
X136003571Y-199471485D01*
X135941666Y-199533390D01*
X135817857Y-199595295D01*
X135446428Y-199595295D01*
X135322619Y-199533390D01*
X135260714Y-199471485D01*
D10*
D11*
X185941666Y-198728628D02*
X185941666Y-199595295D01*
X185632142Y-198233390D02*
X185322619Y-199161961D01*
X186127380Y-199161961D01*
D10*
D11*
X236003571Y-198295295D02*
X235384523Y-198295295D01*
X235322619Y-198914342D01*
X235384523Y-198852438D01*
X235508333Y-198790533D01*
X235817857Y-198790533D01*
X235941666Y-198852438D01*
X236003571Y-198914342D01*
X236065476Y-199038152D01*
X236065476Y-199347676D01*
X236003571Y-199471485D01*
X235941666Y-199533390D01*
X235817857Y-199595295D01*
X235508333Y-199595295D01*
X235384523Y-199533390D01*
X235322619Y-199471485D01*
D10*
D11*
X285941666Y-198295295D02*
X285694047Y-198295295D01*
X285570238Y-198357200D01*
X285508333Y-198419104D01*
X285384523Y-198604819D01*
X285322619Y-198852438D01*
X285322619Y-199347676D01*
X285384523Y-199471485D01*
X285446428Y-199533390D01*
X285570238Y-199595295D01*
X285817857Y-199595295D01*
X285941666Y-199533390D01*
X286003571Y-199471485D01*
X286065476Y-199347676D01*
X286065476Y-199038152D01*
X286003571Y-198914342D01*
X285941666Y-198852438D01*
X285817857Y-198790533D01*
X285570238Y-198790533D01*
X285446428Y-198852438D01*
X285384523Y-198914342D01*
X285322619Y-199038152D01*
D10*
D11*
X10000000Y-60000000D02*
X12000000Y-60000000D01*
D10*
D11*
X10000000Y-110000000D02*
X12000000Y-110000000D01*
D10*
D11*
X10000000Y-160000000D02*
X12000000Y-160000000D01*
D10*
D11*
X10690476Y-35216666D02*
X11309523Y-35216666D01*
X10566666Y-35588095D02*
X11000000Y-34288095D01*
X11433333Y-35588095D01*
D10*
D11*
X11092857Y-84907142D02*
X11278571Y-84969047D01*
X11340476Y-85030952D01*
X11402380Y-85154761D01*
X11402380Y-85340476D01*
X11340476Y-85464285D01*
X11278571Y-85526190D01*
X11154761Y-85588095D01*
X10659523Y-85588095D01*
X10659523Y-84288095D01*
X11092857Y-84288095D01*
X11216666Y-84350000D01*
X11278571Y-84411904D01*
X11340476Y-84535714D01*
X11340476Y-84659523D01*
X11278571Y-84783333D01*
X11216666Y-84845238D01*
X11092857Y-84907142D01*
X10659523Y-84907142D01*
D10*
D11*
X11402380Y-135464285D02*
X11340476Y-135526190D01*
X11154761Y-135588095D01*
X11030952Y-135588095D01*
X10845238Y-135526190D01*
X10721428Y-135402380D01*
X10659523Y-135278571D01*
X10597619Y-135030952D01*
X10597619Y-134845238D01*
X10659523Y-134597619D01*
X10721428Y-134473809D01*
X10845238Y-134350000D01*
X11030952Y-134288095D01*
X11154761Y-134288095D01*
X11340476Y-134350000D01*
X11402380Y-134411904D01*
D10*
D11*
X10659523Y-185588095D02*
X10659523Y-184288095D01*
X10969047Y-184288095D01*
X11154761Y-184350000D01*
X11278571Y-184473809D01*
X11340476Y-184597619D01*
X11402380Y-184845238D01*
X11402380Y-185030952D01*
X11340476Y-185278571D01*
X11278571Y-185402380D01*
X11154761Y-185526190D01*
X10969047Y-185588095D01*
X10659523Y-185588095D01*
D10*
D11*
X287002200Y-60000000D02*
X285002200Y-60000000D01*
D10*
D11*
X287002200Y-110000000D02*
X285002200Y-110000000D01*
D10*
D11*
X287002200Y-160000000D02*
X285002200Y-160000000D01*
D10*
D11*
X285692676Y-35216666D02*
X286311723Y-35216666D01*
X285568866Y-35588095D02*
X286002200Y-34288095D01*
X286435533Y-35588095D01*
D10*
D11*
X286095057Y-84907142D02*
X286280771Y-84969047D01*
X286342676Y-85030952D01*
X286404580Y-85154761D01*
X286404580Y-85340476D01*
X286342676Y-85464285D01*
X286280771Y-85526190D01*
X286156961Y-85588095D01*
X285661723Y-85588095D01*
X285661723Y-84288095D01*
X286095057Y-84288095D01*
X286218866Y-84350000D01*
X286280771Y-84411904D01*
X286342676Y-84535714D01*
X286342676Y-84659523D01*
X286280771Y-84783333D01*
X286218866Y-84845238D01*
X286095057Y-84907142D01*
X285661723Y-84907142D01*
D10*
D11*
X286404580Y-135464285D02*
X286342676Y-135526190D01*
X286156961Y-135588095D01*
X286033152Y-135588095D01*
X285847438Y-135526190D01*
X285723628Y-135402380D01*
X285661723Y-135278571D01*
X285599819Y-135030952D01*
X285599819Y-134845238D01*
X285661723Y-134597619D01*
X285723628Y-134473809D01*
X285847438Y-134350000D01*
X286033152Y-134288095D01*
X286156961Y-134288095D01*
X286342676Y-134350000D01*
X286404580Y-134411904D01*
D10*
D11*
X285661723Y-185588095D02*
X285661723Y-184288095D01*
X285971247Y-184288095D01*
X286156961Y-184350000D01*
X286280771Y-184473809D01*
X286342676Y-184597619D01*
X286404580Y-184845238D01*
X286404580Y-185030952D01*
X286342676Y-185278571D01*
X286280771Y-185402380D01*
X286156961Y-185526190D01*
X285971247Y-185588095D01*
X285661723Y-185588095D01*
D10*
D11*
X200434342Y-193785771D02*
X200434342Y-192285771D01*
X200791485Y-192285771D01*
X201005771Y-192357200D01*
X201148628Y-192500057D01*
X201220057Y-192642914D01*
X201291485Y-192928628D01*
X201291485Y-193142914D01*
X201220057Y-193428628D01*
X201148628Y-193571485D01*
X201005771Y-193714342D01*
X200791485Y-193785771D01*
X200434342Y-193785771D01*
X202577200Y-193785771D02*
X202577200Y-193000057D01*
X202505771Y-192857200D01*
X202362914Y-192785771D01*
X202077200Y-192785771D01*
X201934342Y-192857200D01*
X202577200Y-193714342D02*
X202434342Y-193785771D01*
X202077200Y-193785771D01*
X201934342Y-193714342D01*
X201862914Y-193571485D01*
X201862914Y-193428628D01*
X201934342Y-193285771D01*
X202077200Y-193214342D01*
X202434342Y-193214342D01*
X202577200Y-193142914D01*
X203077200Y-192785771D02*
X203648628Y-192785771D01*
X203291485Y-192285771D02*
X203291485Y-193571485D01*
X203362914Y-193714342D01*
X203505771Y-193785771D01*
X203648628Y-193785771D01*
X204720057Y-193714342D02*
X204577200Y-193785771D01*
X204291485Y-193785771D01*
X204148628Y-193714342D01*
X204077200Y-193571485D01*
X204077200Y-193000057D01*
X204148628Y-192857200D01*
X204291485Y-192785771D01*
X204577200Y-192785771D01*
X204720057Y-192857200D01*
X204791485Y-193000057D01*
X204791485Y-193142914D01*
X204077200Y-193285771D01*
X205434342Y-193642914D02*
X205505771Y-193714342D01*
X205434342Y-193785771D01*
X205362914Y-193714342D01*
X205434342Y-193642914D01*
X205434342Y-193785771D01*
X205434342Y-192857200D02*
X205505771Y-192928628D01*
X205434342Y-193000057D01*
X205362914Y-192928628D01*
X205434342Y-192857200D01*
X205434342Y-193000057D01*
X207220057Y-192428628D02*
X207291485Y-192357200D01*
X207434342Y-192285771D01*
X207791485Y-192285771D01*
X207934342Y-192357200D01*
X208005771Y-192428628D01*
X208077200Y-192571485D01*
X208077200Y-192714342D01*
X208005771Y-192928628D01*
X207148628Y-193785771D01*
X208077200Y-193785771D01*
X209005771Y-192285771D02*
X209148628Y-192285771D01*
X209291485Y-192357200D01*
X209362914Y-192428628D01*
X209434342Y-192571485D01*
X209505771Y-192857200D01*
X209505771Y-193214342D01*
X209434342Y-193500057D01*
X209362914Y-193642914D01*
X209291485Y-193714342D01*
X209148628Y-193785771D01*
X209005771Y-193785771D01*
X208862914Y-193714342D01*
X208791485Y-193642914D01*
X208720057Y-193500057D01*
X208648628Y-193214342D01*
X208648628Y-192857200D01*
X208720057Y-192571485D01*
X208791485Y-192428628D01*
X208862914Y-192357200D01*
X209005771Y-192285771D01*
X210077200Y-192428628D02*
X210148628Y-192357200D01*
X210291485Y-192285771D01*
X210648628Y-192285771D01*
X210791485Y-192357200D01*
X210862914Y-192428628D01*
X210934342Y-192571485D01*
X210934342Y-192714342D01*
X210862914Y-192928628D01*
X210005771Y-193785771D01*
X210934342Y-193785771D01*
X212362914Y-193785771D02*
X211505771Y-193785771D01*
X211934342Y-193785771D02*
X211934342Y-192285771D01*
X211791485Y-192500057D01*
X211648628Y-192642914D01*
X211505771Y-192714342D01*
X213005771Y-193214342D02*
X214148628Y-193214342D01*
X215648628Y-193785771D02*
X214791485Y-193785771D01*
X215220057Y-193785771D02*
X215220057Y-192285771D01*
X215077200Y-192500057D01*
X214934342Y-192642914D01*
X214791485Y-192714342D01*
X216220057Y-192428628D02*
X216291485Y-192357200D01*
X216434342Y-192285771D01*
X216791485Y-192285771D01*
X216934342Y-192357200D01*
X217005771Y-192428628D01*
X217077200Y-192571485D01*
X217077200Y-192714342D01*
X217005771Y-192928628D01*
X216148628Y-193785771D01*
X217077200Y-193785771D01*
X217720057Y-193214342D02*
X218862914Y-193214342D01*
X219505771Y-192428628D02*
X219577200Y-192357200D01*
X219720057Y-192285771D01*
X220077200Y-192285771D01*
X220220057Y-192357200D01*
X220291485Y-192428628D01*
X220362914Y-192571485D01*
X220362914Y-192714342D01*
X220291485Y-192928628D01*
X219434342Y-193785771D01*
X220362914Y-193785771D01*
X221220057Y-192928628D02*
X221077200Y-192857200D01*
X221005771Y-192785771D01*
X220934342Y-192642914D01*
X220934342Y-192571485D01*
X221005771Y-192428628D01*
X221077200Y-192357200D01*
X221220057Y-192285771D01*
X221505771Y-192285771D01*
X221648628Y-192357200D01*
X221720057Y-192428628D01*
X221791485Y-192571485D01*
X221791485Y-192642914D01*
X221720057Y-192785771D01*
X221648628Y-192857200D01*
X221505771Y-192928628D01*
X221220057Y-192928628D01*
X221077200Y-193000057D01*
X221005771Y-193071485D01*
X220934342Y-193214342D01*
X220934342Y-193500057D01*
X221005771Y-193642914D01*
X221077200Y-193714342D01*
X221220057Y-193785771D01*
X221505771Y-193785771D01*
X221648628Y-193714342D01*
X221720057Y-193642914D01*
X221791485Y-193500057D01*
X221791485Y-193214342D01*
X221720057Y-193071485D01*
X221648628Y-193000057D01*
X221505771Y-192928628D01*
D10*
D11*
X177002200Y-194507200D02*
X285002200Y-194507200D01*
D10*
D11*
X178434342Y-196585771D02*
X178434342Y-195085771D01*
X179291485Y-196585771D02*
X178648628Y-195728628D01*
X179291485Y-195085771D02*
X178434342Y-195942914D01*
X179934342Y-196585771D02*
X179934342Y-195585771D01*
X179934342Y-195085771D02*
X179862914Y-195157200D01*
X179934342Y-195228628D01*
X180005771Y-195157200D01*
X179934342Y-195085771D01*
X179934342Y-195228628D01*
X181505771Y-196442914D02*
X181434342Y-196514342D01*
X181220057Y-196585771D01*
X181077200Y-196585771D01*
X180862914Y-196514342D01*
X180720057Y-196371485D01*
X180648628Y-196228628D01*
X180577200Y-195942914D01*
X180577200Y-195728628D01*
X180648628Y-195442914D01*
X180720057Y-195300057D01*
X180862914Y-195157200D01*
X181077200Y-195085771D01*
X181220057Y-195085771D01*
X181434342Y-195157200D01*
X181505771Y-195228628D01*
X182791485Y-196585771D02*
X182791485Y-195800057D01*
X182720057Y-195657200D01*
X182577200Y-195585771D01*
X182291485Y-195585771D01*
X182148628Y-195657200D01*
X182791485Y-196514342D02*
X182648628Y-196585771D01*
X182291485Y-196585771D01*
X182148628Y-196514342D01*
X182077200Y-196371485D01*
X182077200Y-196228628D01*
X182148628Y-196085771D01*
X182291485Y-196014342D01*
X182648628Y-196014342D01*
X182791485Y-195942914D01*
X184148628Y-196585771D02*
X184148628Y-195085771D01*
X184148628Y-196514342D02*
X184005771Y-196585771D01*
X183720057Y-196585771D01*
X183577200Y-196514342D01*
X183505771Y-196442914D01*
X183434342Y-196300057D01*
X183434342Y-195871485D01*
X183505771Y-195728628D01*
X183577200Y-195657200D01*
X183720057Y-195585771D01*
X184005771Y-195585771D01*
X184148628Y-195657200D01*
X186005771Y-195800057D02*
X186505771Y-195800057D01*
X186720057Y-196585771D02*
X186005771Y-196585771D01*
X186005771Y-195085771D01*
X186720057Y-195085771D01*
X187362914Y-196442914D02*
X187434342Y-196514342D01*
X187362914Y-196585771D01*
X187291485Y-196514342D01*
X187362914Y-196442914D01*
X187362914Y-196585771D01*
X188077200Y-196585771D02*
X188077200Y-195085771D01*
X188434342Y-195085771D01*
X188648628Y-195157200D01*
X188791485Y-195300057D01*
X188862914Y-195442914D01*
X188934342Y-195728628D01*
X188934342Y-195942914D01*
X188862914Y-196228628D01*
X188791485Y-196371485D01*
X188648628Y-196514342D01*
X188434342Y-196585771D01*
X188077200Y-196585771D01*
X189577200Y-196442914D02*
X189648628Y-196514342D01*
X189577200Y-196585771D01*
X189505771Y-196514342D01*
X189577200Y-196442914D01*
X189577200Y-196585771D01*
X190220057Y-196157200D02*
X190934342Y-196157200D01*
X190077200Y-196585771D02*
X190577200Y-195085771D01*
X191077200Y-196585771D01*
X191577200Y-196442914D02*
X191648628Y-196514342D01*
X191577200Y-196585771D01*
X191505771Y-196514342D01*
X191577200Y-196442914D01*
X191577200Y-196585771D01*
X194577200Y-196585771D02*
X194577200Y-195085771D01*
X194720057Y-196014342D02*
X195148628Y-196585771D01*
X195148628Y-195585771D02*
X194577200Y-196157200D01*
X195791485Y-196585771D02*
X195791485Y-195585771D01*
X195791485Y-195085771D02*
X195720057Y-195157200D01*
X195791485Y-195228628D01*
X195862914Y-195157200D01*
X195791485Y-195085771D01*
X195791485Y-195228628D01*
X197148628Y-196514342D02*
X197005771Y-196585771D01*
X196720057Y-196585771D01*
X196577200Y-196514342D01*
X196505771Y-196442914D01*
X196434342Y-196300057D01*
X196434342Y-195871485D01*
X196505771Y-195728628D01*
X196577200Y-195657200D01*
X196720057Y-195585771D01*
X197005771Y-195585771D01*
X197148628Y-195657200D01*
X198434342Y-196585771D02*
X198434342Y-195800057D01*
X198362914Y-195657200D01*
X198220057Y-195585771D01*
X197934342Y-195585771D01*
X197791485Y-195657200D01*
X198434342Y-196514342D02*
X198291485Y-196585771D01*
X197934342Y-196585771D01*
X197791485Y-196514342D01*
X197720057Y-196371485D01*
X197720057Y-196228628D01*
X197791485Y-196085771D01*
X197934342Y-196014342D01*
X198291485Y-196014342D01*
X198434342Y-195942914D01*
X199791485Y-196585771D02*
X199791485Y-195085771D01*
X199791485Y-196514342D02*
X199648628Y-196585771D01*
X199362914Y-196585771D01*
X199220057Y-196514342D01*
X199148628Y-196442914D01*
X199077200Y-196300057D01*
X199077200Y-195871485D01*
X199148628Y-195728628D01*
X199220057Y-195657200D01*
X199362914Y-195585771D01*
X199648628Y-195585771D01*
X199791485Y-195657200D01*
X202077200Y-197157200D02*
X202005771Y-197085771D01*
X201862914Y-196871485D01*
X201791485Y-196728628D01*
X201720057Y-196514342D01*
X201648628Y-196157200D01*
X201648628Y-195871485D01*
X201720057Y-195514342D01*
X201791485Y-195300057D01*
X201862914Y-195157200D01*
X202005771Y-194942914D01*
X202077200Y-194871485D01*
X203291485Y-195085771D02*
X203005771Y-195085771D01*
X202862914Y-195157200D01*
X202791485Y-195228628D01*
X202648628Y-195442914D01*
X202577200Y-195728628D01*
X202577200Y-196300057D01*
X202648628Y-196442914D01*
X202720057Y-196514342D01*
X202862914Y-196585771D01*
X203148628Y-196585771D01*
X203291485Y-196514342D01*
X203362914Y-196442914D01*
X203434342Y-196300057D01*
X203434342Y-195942914D01*
X203362914Y-195800057D01*
X203291485Y-195728628D01*
X203148628Y-195657200D01*
X202862914Y-195657200D01*
X202720057Y-195728628D01*
X202648628Y-195800057D01*
X202577200Y-195942914D01*
X204077200Y-196442914D02*
X204148628Y-196514342D01*
X204077200Y-196585771D01*
X204005771Y-196514342D01*
X204077200Y-196442914D01*
X204077200Y-196585771D01*
X205077200Y-195085771D02*
X205220057Y-195085771D01*
X205362914Y-195157200D01*
X205434342Y-195228628D01*
X205505771Y-195371485D01*
X205577200Y-195657200D01*
X205577200Y-196014342D01*
X205505771Y-196300057D01*
X205434342Y-196442914D01*
X205362914Y-196514342D01*
X205220057Y-196585771D01*
X205077200Y-196585771D01*
X204934342Y-196514342D01*
X204862914Y-196442914D01*
X204791485Y-196300057D01*
X204720057Y-196014342D01*
X204720057Y-195657200D01*
X204791485Y-195371485D01*
X204862914Y-195228628D01*
X204934342Y-195157200D01*
X205077200Y-195085771D01*
X206220057Y-196442914D02*
X206291485Y-196514342D01*
X206220057Y-196585771D01*
X206148628Y-196514342D01*
X206220057Y-196442914D01*
X206220057Y-196585771D01*
X207005771Y-196585771D02*
X207291485Y-196585771D01*
X207434342Y-196514342D01*
X207505771Y-196442914D01*
X207648628Y-196228628D01*
X207720057Y-195942914D01*
X207720057Y-195371485D01*
X207648628Y-195228628D01*
X207577200Y-195157200D01*
X207434342Y-195085771D01*
X207148628Y-195085771D01*
X207005771Y-195157200D01*
X206934342Y-195228628D01*
X206862914Y-195371485D01*
X206862914Y-195728628D01*
X206934342Y-195871485D01*
X207005771Y-195942914D01*
X207148628Y-196014342D01*
X207434342Y-196014342D01*
X207577200Y-195942914D01*
X207648628Y-195871485D01*
X207720057Y-195728628D01*
X208220057Y-197157200D02*
X208291485Y-197085771D01*
X208434342Y-196871485D01*
X208505771Y-196728628D01*
X208577200Y-196514342D01*
X208648628Y-196157200D01*
X208648628Y-195871485D01*
X208577200Y-195514342D01*
X208505771Y-195300057D01*
X208434342Y-195157200D01*
X208291485Y-194942914D01*
X208220057Y-194871485D01*
D10*
D11*
X177002200Y-191507200D02*
X285002200Y-191507200D01*
D10*
D12*
X264411485Y-193785771D02*
X263911485Y-193071485D01*
X263554342Y-193785771D02*
X263554342Y-192285771D01*
X264125771Y-192285771D01*
X264268628Y-192357200D01*
X264340057Y-192428628D01*
X264411485Y-192571485D01*
X264411485Y-192785771D01*
X264340057Y-192928628D01*
X264268628Y-193000057D01*
X264125771Y-193071485D01*
X263554342Y-193071485D01*
X265625771Y-193714342D02*
X265482914Y-193785771D01*
X265197200Y-193785771D01*
X265054342Y-193714342D01*
X264982914Y-193571485D01*
X264982914Y-193000057D01*
X265054342Y-192857200D01*
X265197200Y-192785771D01*
X265482914Y-192785771D01*
X265625771Y-192857200D01*
X265697200Y-193000057D01*
X265697200Y-193142914D01*
X264982914Y-193285771D01*
X266197200Y-192785771D02*
X266554342Y-193785771D01*
X266911485Y-192785771D01*
X267482914Y-193642914D02*
X267554342Y-193714342D01*
X267482914Y-193785771D01*
X267411485Y-193714342D01*
X267482914Y-193642914D01*
X267482914Y-193785771D01*
X267482914Y-192857200D02*
X267554342Y-192928628D01*
X267482914Y-193000057D01*
X267411485Y-192928628D01*
X267482914Y-192857200D01*
X267482914Y-193000057D01*
X270054342Y-192285771D02*
X269340057Y-192285771D01*
X269268628Y-193000057D01*
X269340057Y-192928628D01*
X269482914Y-192857200D01*
X269840057Y-192857200D01*
X269982914Y-192928628D01*
X270054342Y-193000057D01*
X270125771Y-193142914D01*
X270125771Y-193500057D01*
X270054342Y-193642914D01*
X269982914Y-193714342D01*
X269840057Y-193785771D01*
X269482914Y-193785771D01*
X269340057Y-193714342D01*
X269268628Y-193642914D01*
X270768628Y-193642914D02*
X270840057Y-193714342D01*
X270768628Y-193785771D01*
X270697200Y-193714342D01*
X270768628Y-193642914D01*
X270768628Y-193785771D01*
X271340057Y-192285771D02*
X272268628Y-192285771D01*
X271768628Y-192857200D01*
X271982914Y-192857200D01*
X272125771Y-192928628D01*
X272197200Y-193000057D01*
X272268628Y-193142914D01*
X272268628Y-193500057D01*
X272197200Y-193642914D01*
X272125771Y-193714342D01*
X271982914Y-193785771D01*
X271554342Y-193785771D01*
X271411485Y-193714342D01*
X271340057Y-193642914D01*
D10*
D11*
X178362914Y-193714342D02*
X178577200Y-193785771D01*
X178934342Y-193785771D01*
X179077200Y-193714342D01*
X179148628Y-193642914D01*
X179220057Y-193500057D01*
X179220057Y-193357200D01*
X179148628Y-193214342D01*
X179077200Y-193142914D01*
X178934342Y-193071485D01*
X178648628Y-193000057D01*
X178505771Y-192928628D01*
X178434342Y-192857200D01*
X178362914Y-192714342D01*
X178362914Y-192571485D01*
X178434342Y-192428628D01*
X178505771Y-192357200D01*
X178648628Y-192285771D01*
X179005771Y-192285771D01*
X179220057Y-192357200D01*
X179862914Y-193785771D02*
X179862914Y-192785771D01*
X179862914Y-192285771D02*
X179791485Y-192357200D01*
X179862914Y-192428628D01*
X179934342Y-192357200D01*
X179862914Y-192285771D01*
X179862914Y-192428628D01*
X180434342Y-192785771D02*
X181220057Y-192785771D01*
X180434342Y-193785771D01*
X181220057Y-193785771D01*
X182362914Y-193714342D02*
X182220057Y-193785771D01*
X181934342Y-193785771D01*
X181791485Y-193714342D01*
X181720057Y-193571485D01*
X181720057Y-193000057D01*
X181791485Y-192857200D01*
X181934342Y-192785771D01*
X182220057Y-192785771D01*
X182362914Y-192857200D01*
X182434342Y-193000057D01*
X182434342Y-193142914D01*
X181720057Y-193285771D01*
X183077200Y-193642914D02*
X183148628Y-193714342D01*
X183077200Y-193785771D01*
X183005771Y-193714342D01*
X183077200Y-193642914D01*
X183077200Y-193785771D01*
X183077200Y-192857200D02*
X183148628Y-192928628D01*
X183077200Y-193000057D01*
X183005771Y-192928628D01*
X183077200Y-192857200D01*
X183077200Y-193000057D01*
X184862914Y-193357200D02*
X185577200Y-193357200D01*
X184720057Y-193785771D02*
X185220057Y-192285771D01*
X185720057Y-193785771D01*
X186862914Y-192785771D02*
X186862914Y-193785771D01*
X186505771Y-192214342D02*
X186148628Y-193285771D01*
X187077200Y-193285771D01*
D10*
D11*
X263434342Y-196585771D02*
X263434342Y-195085771D01*
X264791485Y-196585771D02*
X264791485Y-195085771D01*
X264791485Y-196514342D02*
X264648628Y-196585771D01*
X264362914Y-196585771D01*
X264220057Y-196514342D01*
X264148628Y-196442914D01*
X264077200Y-196300057D01*
X264077200Y-195871485D01*
X264148628Y-195728628D01*
X264220057Y-195657200D01*
X264362914Y-195585771D01*
X264648628Y-195585771D01*
X264791485Y-195657200D01*
X265505771Y-196442914D02*
X265577200Y-196514342D01*
X265505771Y-196585771D01*
X265434342Y-196514342D01*
X265505771Y-196442914D01*
X265505771Y-196585771D01*
X265505771Y-195657200D02*
X265577200Y-195728628D01*
X265505771Y-195800057D01*
X265434342Y-195728628D01*
X265505771Y-195657200D01*
X265505771Y-195800057D01*
X268148628Y-196585771D02*
X267291485Y-196585771D01*
X267720057Y-196585771D02*
X267720057Y-195085771D01*
X267577200Y-195300057D01*
X267434342Y-195442914D01*
X267291485Y-195514342D01*
X269862914Y-195014342D02*
X268577200Y-196942914D01*
X271148628Y-196585771D02*
X270291485Y-196585771D01*
X270720057Y-196585771D02*
X270720057Y-195085771D01*
X270577200Y-195300057D01*
X270434342Y-195442914D01*
X270291485Y-195514342D01*
D10*
D11*
X177002200Y-187507200D02*
X285002200Y-187507200D01*
D10*
D13*
X178714580Y-188211961D02*
X179857438Y-188211961D01*
X179036009Y-190211961D02*
X179286009Y-188211961D01*
X180274104Y-190211961D02*
X180440771Y-188878628D01*
X180524104Y-188211961D02*
X180416961Y-188307200D01*
X180500295Y-188402438D01*
X180607438Y-188307200D01*
X180524104Y-188211961D01*
X180500295Y-188402438D01*
X181107438Y-188878628D02*
X181869342Y-188878628D01*
X181476485Y-188211961D02*
X181262200Y-189926247D01*
X181333628Y-190116723D01*
X181512200Y-190211961D01*
X181702676Y-190211961D01*
X182655057Y-190211961D02*
X182476485Y-190116723D01*
X182405057Y-189926247D01*
X182619342Y-188211961D01*
X184190771Y-190116723D02*
X183988390Y-190211961D01*
X183607438Y-190211961D01*
X183428866Y-190116723D01*
X183357438Y-189926247D01*
X183452676Y-189164342D01*
X183571723Y-188973866D01*
X183774104Y-188878628D01*
X184155057Y-188878628D01*
X184333628Y-188973866D01*
X184405057Y-189164342D01*
X184381247Y-189354819D01*
X183405057Y-189545295D01*
X185155057Y-190021485D02*
X185238390Y-190116723D01*
X185131247Y-190211961D01*
X185047914Y-190116723D01*
X185155057Y-190021485D01*
X185131247Y-190211961D01*
X185286009Y-188973866D02*
X185369342Y-189069104D01*
X185262200Y-189164342D01*
X185178866Y-189069104D01*
X185286009Y-188973866D01*
X185262200Y-189164342D01*
D10*
D11*
X178934342Y-185600057D02*
X178434342Y-185600057D01*
X178434342Y-186385771D02*
X178434342Y-184885771D01*
X179148628Y-184885771D01*
X179720057Y-186385771D02*
X179720057Y-185385771D01*
X179720057Y-184885771D02*
X179648628Y-184957200D01*
X179720057Y-185028628D01*
X179791485Y-184957200D01*
X179720057Y-184885771D01*
X179720057Y-185028628D01*
X180648628Y-186385771D02*
X180505771Y-186314342D01*
X180434342Y-186171485D01*
X180434342Y-184885771D01*
X181791485Y-186314342D02*
X181648628Y-186385771D01*
X181362914Y-186385771D01*
X181220057Y-186314342D01*
X181148628Y-186171485D01*
X181148628Y-185600057D01*
X181220057Y-185457200D01*
X181362914Y-185385771D01*
X181648628Y-185385771D01*
X181791485Y-185457200D01*
X181862914Y-185600057D01*
X181862914Y-185742914D01*
X181148628Y-185885771D01*
X182505771Y-186242914D02*
X182577200Y-186314342D01*
X182505771Y-186385771D01*
X182434342Y-186314342D01*
X182505771Y-186242914D01*
X182505771Y-186385771D01*
X182505771Y-185457200D02*
X182577200Y-185528628D01*
X182505771Y-185600057D01*
X182434342Y-185528628D01*
X182505771Y-185457200D01*
X182505771Y-185600057D01*
X185077200Y-186385771D02*
X184362914Y-186385771D01*
X184362914Y-184885771D01*
X185577200Y-186385771D02*
X185577200Y-184885771D01*
X185934342Y-184885771D01*
X186148628Y-184957200D01*
X186291485Y-185100057D01*
X186362914Y-185242914D01*
X186434342Y-185528628D01*
X186434342Y-185742914D01*
X186362914Y-186028628D01*
X186291485Y-186171485D01*
X186148628Y-186314342D01*
X185934342Y-186385771D01*
X185577200Y-186385771D01*
X187005771Y-185957200D02*
X187720057Y-185957200D01*
X186862914Y-186385771D02*
X187362914Y-184885771D01*
X187862914Y-186385771D01*
X188362914Y-186385771D02*
X188362914Y-184885771D01*
X188720057Y-184885771D01*
X188934342Y-184957200D01*
X189077200Y-185100057D01*
X189148628Y-185242914D01*
X189220057Y-185528628D01*
X189220057Y-185742914D01*
X189148628Y-186028628D01*
X189077200Y-186171485D01*
X188934342Y-186314342D01*
X188720057Y-186385771D01*
X188362914Y-186385771D01*
X189505771Y-186528628D02*
X190648628Y-186528628D01*
X191434342Y-184885771D02*
X191434342Y-185957200D01*
X191362914Y-186171485D01*
X191220057Y-186314342D01*
X191005771Y-186385771D01*
X190862914Y-186385771D01*
X192791485Y-185385771D02*
X192791485Y-186385771D01*
X192148628Y-185385771D02*
X192148628Y-186171485D01*
X192220057Y-186314342D01*
X192362914Y-186385771D01*
X192577200Y-186385771D01*
X192720057Y-186314342D01*
X192791485Y-186242914D01*
X193505771Y-185385771D02*
X193505771Y-186385771D01*
X193505771Y-185528628D02*
X193577200Y-185457200D01*
X193720057Y-185385771D01*
X193934342Y-185385771D01*
X194077200Y-185457200D01*
X194148628Y-185600057D01*
X194148628Y-186385771D01*
X195505771Y-186314342D02*
X195362914Y-186385771D01*
X195077200Y-186385771D01*
X194934342Y-186314342D01*
X194862914Y-186242914D01*
X194791485Y-186100057D01*
X194791485Y-185671485D01*
X194862914Y-185528628D01*
X194934342Y-185457200D01*
X195077200Y-185385771D01*
X195362914Y-185385771D01*
X195505771Y-185457200D01*
X195934342Y-185385771D02*
X196505771Y-185385771D01*
X196148628Y-184885771D02*
X196148628Y-186171485D01*
X196220057Y-186314342D01*
X196362914Y-186385771D01*
X196505771Y-186385771D01*
X197005771Y-186385771D02*
X197005771Y-185385771D01*
X197005771Y-184885771D02*
X196934342Y-184957200D01*
X197005771Y-185028628D01*
X197077200Y-184957200D01*
X197005771Y-184885771D01*
X197005771Y-185028628D01*
X197934342Y-186385771D02*
X197791485Y-186314342D01*
X197720057Y-186242914D01*
X197648628Y-186100057D01*
X197648628Y-185671485D01*
X197720057Y-185528628D01*
X197791485Y-185457200D01*
X197934342Y-185385771D01*
X198148628Y-185385771D01*
X198291485Y-185457200D01*
X198362914Y-185528628D01*
X198434342Y-185671485D01*
X198434342Y-186100057D01*
X198362914Y-186242914D01*
X198291485Y-186314342D01*
X198148628Y-186385771D01*
X197934342Y-186385771D01*
X199077200Y-185385771D02*
X199077200Y-186385771D01*
X199077200Y-185528628D02*
X199148628Y-185457200D01*
X199291485Y-185385771D01*
X199505771Y-185385771D01*
X199648628Y-185457200D01*
X199720057Y-185600057D01*
X199720057Y-186385771D01*
X200077200Y-186528628D02*
X201220057Y-186528628D01*
X202077200Y-185600057D02*
X202291485Y-185671485D01*
X202362914Y-185742914D01*
X202434342Y-185885771D01*
X202434342Y-186100057D01*
X202362914Y-186242914D01*
X202291485Y-186314342D01*
X202148628Y-186385771D01*
X201577200Y-186385771D01*
X201577200Y-184885771D01*
X202077200Y-184885771D01*
X202220057Y-184957200D01*
X202291485Y-185028628D01*
X202362914Y-185171485D01*
X202362914Y-185314342D01*
X202291485Y-185457200D01*
X202220057Y-185528628D01*
X202077200Y-185600057D01*
X201577200Y-185600057D01*
X203291485Y-186385771D02*
X203148628Y-186314342D01*
X203077200Y-186242914D01*
X203005771Y-186100057D01*
X203005771Y-185671485D01*
X203077200Y-185528628D01*
X203148628Y-185457200D01*
X203291485Y-185385771D01*
X203505771Y-185385771D01*
X203648628Y-185457200D01*
X203720057Y-185528628D01*
X203791485Y-185671485D01*
X203791485Y-186100057D01*
X203720057Y-186242914D01*
X203648628Y-186314342D01*
X203505771Y-186385771D01*
X203291485Y-186385771D01*
X204291485Y-186385771D02*
X205077200Y-185385771D01*
X204291485Y-185385771D02*
X205077200Y-186385771D01*
X205291485Y-186528628D02*
X206434342Y-186528628D01*
X206648628Y-184885771D02*
X207648628Y-184885771D01*
X207005771Y-186385771D01*
X208291485Y-186385771D02*
X208577200Y-186385771D01*
X208720057Y-186314342D01*
X208791485Y-186242914D01*
X208934342Y-186028628D01*
X209005771Y-185742914D01*
X209005771Y-185171485D01*
X208934342Y-185028628D01*
X208862914Y-184957200D01*
X208720057Y-184885771D01*
X208434342Y-184885771D01*
X208291485Y-184957200D01*
X208220057Y-185028628D01*
X208148628Y-185171485D01*
X208148628Y-185528628D01*
X208220057Y-185671485D01*
X208291485Y-185742914D01*
X208434342Y-185814342D01*
X208720057Y-185814342D01*
X208862914Y-185742914D01*
X208934342Y-185671485D01*
X209005771Y-185528628D01*
X209505771Y-186385771D02*
X210291485Y-185385771D01*
X209505771Y-185385771D02*
X210291485Y-186385771D01*
X210720057Y-184885771D02*
X211648628Y-184885771D01*
X211148628Y-185457200D01*
X211362914Y-185457200D01*
X211505771Y-185528628D01*
X211577200Y-185600057D01*
X211648628Y-185742914D01*
X211648628Y-186100057D01*
X211577200Y-186242914D01*
X211505771Y-186314342D01*
X211362914Y-186385771D01*
X210934342Y-186385771D01*
X210791485Y-186314342D01*
X210720057Y-186242914D01*
X213077200Y-186385771D02*
X212220057Y-186385771D01*
X212648628Y-186385771D02*
X212648628Y-184885771D01*
X212505771Y-185100057D01*
X212362914Y-185242914D01*
X212220057Y-185314342D01*
X213720057Y-186385771D02*
X213720057Y-185385771D01*
X213720057Y-185528628D02*
X213791485Y-185457200D01*
X213934342Y-185385771D01*
X214148628Y-185385771D01*
X214291485Y-185457200D01*
X214362914Y-185600057D01*
X214362914Y-186385771D01*
X214362914Y-185600057D02*
X214434342Y-185457200D01*
X214577200Y-185385771D01*
X214791485Y-185385771D01*
X214934342Y-185457200D01*
X215005771Y-185600057D01*
X215005771Y-186385771D01*
X215720057Y-186385771D02*
X215720057Y-185385771D01*
X215720057Y-185528628D02*
X215791485Y-185457200D01*
X215934342Y-185385771D01*
X216148628Y-185385771D01*
X216291485Y-185457200D01*
X216362914Y-185600057D01*
X216362914Y-186385771D01*
X216362914Y-185600057D02*
X216434342Y-185457200D01*
X216577200Y-185385771D01*
X216791485Y-185385771D01*
X216934342Y-185457200D01*
X217005771Y-185600057D01*
X217005771Y-186385771D01*
X217362914Y-186528628D02*
X218505771Y-186528628D01*
X218791485Y-185957200D02*
X219505771Y-185957200D01*
X218648628Y-186385771D02*
X219148628Y-184885771D01*
X219648628Y-186385771D01*
X221005771Y-186242914D02*
X220934342Y-186314342D01*
X220720057Y-186385771D01*
X220577200Y-186385771D01*
X220362914Y-186314342D01*
X220220057Y-186171485D01*
X220148628Y-186028628D01*
X220077200Y-185742914D01*
X220077200Y-185528628D01*
X220148628Y-185242914D01*
X220220057Y-185100057D01*
X220362914Y-184957200D01*
X220577200Y-184885771D01*
X220720057Y-184885771D01*
X220934342Y-184957200D01*
X221005771Y-185028628D01*
X221577200Y-185028628D02*
X221648628Y-184957200D01*
X221791485Y-184885771D01*
X222148628Y-184885771D01*
X222291485Y-184957200D01*
X222362914Y-185028628D01*
X222434342Y-185171485D01*
X222434342Y-185314342D01*
X222362914Y-185528628D01*
X221505771Y-186385771D01*
X222434342Y-186385771D01*
X223005771Y-185028628D02*
X223077200Y-184957200D01*
X223220057Y-184885771D01*
X223577200Y-184885771D01*
X223720057Y-184957200D01*
X223791485Y-185028628D01*
X223862914Y-185171485D01*
X223862914Y-185314342D01*
X223791485Y-185528628D01*
X222934342Y-186385771D01*
X223862914Y-186385771D01*
X224791485Y-184885771D02*
X224934342Y-184885771D01*
X225077199Y-184957200D01*
X225148628Y-185028628D01*
X225220057Y-185171485D01*
X225291485Y-185457200D01*
X225291485Y-185814342D01*
X225220057Y-186100057D01*
X225148628Y-186242914D01*
X225077199Y-186314342D01*
X224934342Y-186385771D01*
X224791485Y-186385771D01*
X224648628Y-186314342D01*
X224577199Y-186242914D01*
X224505771Y-186100057D01*
X224434342Y-185814342D01*
X224434342Y-185457200D01*
X224505771Y-185171485D01*
X224577199Y-185028628D01*
X224648628Y-184957200D01*
X224791485Y-184885771D01*
X225720057Y-184885771D02*
X226220057Y-186385771D01*
X226720057Y-184885771D01*
X227220057Y-186242914D02*
X227291485Y-186314342D01*
X227220057Y-186385771D01*
X227148628Y-186314342D01*
X227220057Y-186242914D01*
X227220057Y-186385771D01*
X227934342Y-186385771D02*
X227934342Y-184885771D01*
X228077199Y-185814342D02*
X228505771Y-186385771D01*
X228505771Y-185385771D02*
X227934342Y-185957200D01*
X229148628Y-186385771D02*
X229148628Y-185385771D01*
X229148628Y-184885771D02*
X229077199Y-184957200D01*
X229148628Y-185028628D01*
X229220057Y-184957200D01*
X229148628Y-184885771D01*
X229148628Y-185028628D01*
X230505771Y-186314342D02*
X230362914Y-186385771D01*
X230077200Y-186385771D01*
X229934342Y-186314342D01*
X229862914Y-186242914D01*
X229791485Y-186100057D01*
X229791485Y-185671485D01*
X229862914Y-185528628D01*
X229934342Y-185457200D01*
X230077200Y-185385771D01*
X230362914Y-185385771D01*
X230505771Y-185457200D01*
X231791485Y-186385771D02*
X231791485Y-185600057D01*
X231720057Y-185457200D01*
X231577199Y-185385771D01*
X231291485Y-185385771D01*
X231148628Y-185457200D01*
X231791485Y-186314342D02*
X231648628Y-186385771D01*
X231291485Y-186385771D01*
X231148628Y-186314342D01*
X231077199Y-186171485D01*
X231077199Y-186028628D01*
X231148628Y-185885771D01*
X231291485Y-185814342D01*
X231648628Y-185814342D01*
X231791485Y-185742914D01*
X233148628Y-186385771D02*
X233148628Y-184885771D01*
X233148628Y-186314342D02*
X233005771Y-186385771D01*
X232720057Y-186385771D01*
X232577199Y-186314342D01*
X232505771Y-186242914D01*
X232434342Y-186100057D01*
X232434342Y-185671485D01*
X232505771Y-185528628D01*
X232577199Y-185457200D01*
X232720057Y-185385771D01*
X233005771Y-185385771D01*
X233148628Y-185457200D01*
X233505771Y-186528628D02*
X234648628Y-186528628D01*
X235005771Y-185385771D02*
X235005771Y-186885771D01*
X235005771Y-185457200D02*
X235148628Y-185385771D01*
X235434342Y-185385771D01*
X235577199Y-185457200D01*
X235648628Y-185528628D01*
X235720057Y-185671485D01*
X235720057Y-186100057D01*
X235648628Y-186242914D01*
X235577199Y-186314342D01*
X235434342Y-186385771D01*
X235148628Y-186385771D01*
X235005771Y-186314342D01*
X237005771Y-186314342D02*
X236862914Y-186385771D01*
X236577200Y-186385771D01*
X236434342Y-186314342D01*
X236362914Y-186242914D01*
X236291485Y-186100057D01*
X236291485Y-185671485D01*
X236362914Y-185528628D01*
X236434342Y-185457200D01*
X236577200Y-185385771D01*
X236862914Y-185385771D01*
X237005771Y-185457200D01*
X237648628Y-186385771D02*
X237648628Y-184885771D01*
X237648628Y-185457200D02*
X237791485Y-185385771D01*
X238077199Y-185385771D01*
X238220057Y-185457200D01*
X238291485Y-185528628D01*
X238362914Y-185671485D01*
X238362914Y-186100057D01*
X238291485Y-186242914D01*
X238220057Y-186314342D01*
X238077199Y-186385771D01*
X237791485Y-186385771D01*
X237648628Y-186314342D01*
D10*
D11*
X177002200Y-181507200D02*
X285002200Y-181507200D01*
D10*
D11*
X178362914Y-183614342D02*
X178577200Y-183685771D01*
X178934342Y-183685771D01*
X179077200Y-183614342D01*
X179148628Y-183542914D01*
X179220057Y-183400057D01*
X179220057Y-183257200D01*
X179148628Y-183114342D01*
X179077200Y-183042914D01*
X178934342Y-182971485D01*
X178648628Y-182900057D01*
X178505771Y-182828628D01*
X178434342Y-182757200D01*
X178362914Y-182614342D01*
X178362914Y-182471485D01*
X178434342Y-182328628D01*
X178505771Y-182257200D01*
X178648628Y-182185771D01*
X179005771Y-182185771D01*
X179220057Y-182257200D01*
X179862914Y-183685771D02*
X179862914Y-182185771D01*
X180505771Y-183685771D02*
X180505771Y-182900057D01*
X180434342Y-182757200D01*
X180291485Y-182685771D01*
X180077200Y-182685771D01*
X179934342Y-182757200D01*
X179862914Y-182828628D01*
X181791485Y-183614342D02*
X181648628Y-183685771D01*
X181362914Y-183685771D01*
X181220057Y-183614342D01*
X181148628Y-183471485D01*
X181148628Y-182900057D01*
X181220057Y-182757200D01*
X181362914Y-182685771D01*
X181648628Y-182685771D01*
X181791485Y-182757200D01*
X181862914Y-182900057D01*
X181862914Y-183042914D01*
X181148628Y-183185771D01*
X183077200Y-183614342D02*
X182934342Y-183685771D01*
X182648628Y-183685771D01*
X182505771Y-183614342D01*
X182434342Y-183471485D01*
X182434342Y-182900057D01*
X182505771Y-182757200D01*
X182648628Y-182685771D01*
X182934342Y-182685771D01*
X183077200Y-182757200D01*
X183148628Y-182900057D01*
X183148628Y-183042914D01*
X182434342Y-183185771D01*
X183577200Y-182685771D02*
X184148628Y-182685771D01*
X183791485Y-182185771D02*
X183791485Y-183471485D01*
X183862914Y-183614342D01*
X184005771Y-183685771D01*
X184148628Y-183685771D01*
X184648628Y-183542914D02*
X184720057Y-183614342D01*
X184648628Y-183685771D01*
X184577200Y-183614342D01*
X184648628Y-183542914D01*
X184648628Y-183685771D01*
X184648628Y-182757200D02*
X184720057Y-182828628D01*
X184648628Y-182900057D01*
X184577200Y-182828628D01*
X184648628Y-182757200D01*
X184648628Y-182900057D01*
D10*
D12*
X178482914Y-180257200D02*
X179197200Y-180257200D01*
X178340057Y-180685771D02*
X178840057Y-179185771D01*
X179340057Y-180685771D01*
X180411485Y-180614342D02*
X180268628Y-180685771D01*
X179982914Y-180685771D01*
X179840057Y-180614342D01*
X179768628Y-180471485D01*
X179768628Y-179900057D01*
X179840057Y-179757200D01*
X179982914Y-179685771D01*
X180268628Y-179685771D01*
X180411485Y-179757200D01*
X180482914Y-179900057D01*
X180482914Y-180042914D01*
X179768628Y-180185771D01*
X181340057Y-180685771D02*
X181197200Y-180614342D01*
X181125771Y-180542914D01*
X181054342Y-180400057D01*
X181054342Y-179971485D01*
X181125771Y-179828628D01*
X181197200Y-179757200D01*
X181340057Y-179685771D01*
X181554342Y-179685771D01*
X181697200Y-179757200D01*
X181768628Y-179828628D01*
X181840057Y-179971485D01*
X181840057Y-180400057D01*
X181768628Y-180542914D01*
X181697200Y-180614342D01*
X181554342Y-180685771D01*
X181340057Y-180685771D01*
X182482914Y-179685771D02*
X182482914Y-180685771D01*
X182482914Y-179828628D02*
X182554342Y-179757200D01*
X182697200Y-179685771D01*
X182911485Y-179685771D01*
X183054342Y-179757200D01*
X183125771Y-179900057D01*
X183125771Y-180685771D01*
X184554342Y-180685771D02*
X183840057Y-180685771D01*
X183840057Y-179185771D01*
X185697200Y-180685771D02*
X185697200Y-179900057D01*
X185625771Y-179757200D01*
X185482914Y-179685771D01*
X185197200Y-179685771D01*
X185054342Y-179757200D01*
X185697200Y-180614342D02*
X185554342Y-180685771D01*
X185197200Y-180685771D01*
X185054342Y-180614342D01*
X184982914Y-180471485D01*
X184982914Y-180328628D01*
X185054342Y-180185771D01*
X185197200Y-180114342D01*
X185554342Y-180114342D01*
X185697200Y-180042914D01*
X186411485Y-180685771D02*
X186411485Y-179185771D01*
X186411485Y-179757200D02*
X186554342Y-179685771D01*
X186840057Y-179685771D01*
X186982914Y-179757200D01*
X187054342Y-179828628D01*
X187125771Y-179971485D01*
X187125771Y-180400057D01*
X187054342Y-180542914D01*
X186982914Y-180614342D01*
X186840057Y-180685771D01*
X186554342Y-180685771D01*
X186411485Y-180614342D01*
X187697200Y-180614342D02*
X187840057Y-180685771D01*
X188125771Y-180685771D01*
X188268628Y-180614342D01*
X188340057Y-180471485D01*
X188340057Y-180400057D01*
X188268628Y-180257200D01*
X188125771Y-180185771D01*
X187911485Y-180185771D01*
X187768628Y-180114342D01*
X187697200Y-179971485D01*
X187697200Y-179900057D01*
X187768628Y-179757200D01*
X187911485Y-179685771D01*
X188125771Y-179685771D01*
X188268628Y-179757200D01*
D10*
D11*
D10*
D11*
D10*
D11*
D10*
D11*
D10*
D11*
X197002200Y-191507200D02*
X197002200Y-194507200D01*
D10*
D11*
X261002200Y-191507200D02*
X261002200Y-198007200D01*
X198430000Y-132870000D02*
X200690000Y-132870000D01*
X200690000Y-132870000D02*
X200690000Y-135220000D01*
X200690000Y-135220000D02*
X198430000Y-135220000D01*
X198430000Y-135220000D02*
X198430000Y-132870000D01*
G36*
X198430000Y-132870000D02*
G01*
X200690000Y-132870000D01*
X200690000Y-135220000D01*
X198430000Y-135220000D01*
X198430000Y-132870000D01*
G37*
D14*
X193191050Y-131600000D02*
G75*
G03*
X193191050Y-131600000I-191050J0D01*
G01*
D15*
X197340001Y-127590000D02*
G75*
G03*
X197340001Y-127590000I-230451J0D01*
G01*
D14*
X202471050Y-129030000D02*
G75*
G03*
X202471050Y-129030000I-191050J0D01*
G01*
X182321050Y-143050000D02*
G75*
G03*
X182321050Y-143050000I-191050J0D01*
G01*
X177061050Y-132490000D02*
G75*
G03*
X177061050Y-132490000I-191050J0D01*
G01*
X163671050Y-138620000D02*
G75*
G03*
X163671050Y-138620000I-191050J0D01*
G01*
X191471050Y-123290000D02*
G75*
G03*
X191471050Y-123290000I-191050J0D01*
G01*
X171481050Y-140050000D02*
G75*
G03*
X171481050Y-140050000I-191050J0D01*
G01*
X145101050Y-131330000D02*
G75*
G03*
X145101050Y-131330000I-191050J0D01*
G01*
D11*
X192560000Y-133290000D02*
X195550000Y-133290000D01*
X195550000Y-133290000D02*
X195550000Y-141100000D01*
X195550000Y-141100000D02*
X192560000Y-141100000D01*
X192560000Y-141100000D02*
X192560000Y-133290000D01*
G36*
X192560000Y-133290000D02*
G01*
X195550000Y-133290000D01*
X195550000Y-141100000D01*
X192560000Y-141100000D01*
X192560000Y-133290000D01*
G37*
D15*
X175130001Y-140680000D02*
G75*
G03*
X175130001Y-140680000I-230451J0D01*
G01*
D11*
X198250000Y-139870000D02*
X200650000Y-139870000D01*
X200650000Y-139870000D02*
X200650000Y-142170000D01*
X200650000Y-142170000D02*
X198250000Y-142170000D01*
X198250000Y-142170000D02*
X198250000Y-139870000D01*
G36*
X198250000Y-139870000D02*
G01*
X200650000Y-139870000D01*
X200650000Y-142170000D01*
X198250000Y-142170000D01*
X198250000Y-139870000D01*
G37*
D14*
X172051050Y-128740000D02*
G75*
G03*
X172051050Y-128740000I-191050J0D01*
G01*
D11*
X219720000Y-140530000D02*
X222260000Y-140530000D01*
X222260000Y-140530000D02*
X222260000Y-142930000D01*
X222260000Y-142930000D02*
X219720000Y-142930000D01*
X219720000Y-142930000D02*
X219720000Y-140530000D01*
G36*
X219720000Y-140530000D02*
G01*
X222260000Y-140530000D01*
X222260000Y-142930000D01*
X219720000Y-142930000D01*
X219720000Y-140530000D01*
G37*
D14*
X152181050Y-137520000D02*
G75*
G03*
X152181050Y-137520000I-191050J0D01*
G01*
D11*
X205260000Y-149840000D02*
X213820000Y-149840000D01*
X213820000Y-149840000D02*
X213820000Y-146420000D01*
X213820000Y-146420000D02*
X205260000Y-146420000D01*
X205260000Y-146420000D02*
X205260000Y-149840000D01*
G36*
X205260000Y-149840000D02*
G01*
X213820000Y-149840000D01*
X213820000Y-146420000D01*
X205260000Y-146420000D01*
X205260000Y-149840000D01*
G37*
X206900000Y-132710000D02*
X209410000Y-132710000D01*
X209410000Y-132710000D02*
X209410000Y-135290000D01*
X209410000Y-135290000D02*
X206900000Y-135290000D01*
X206900000Y-135290000D02*
X206900000Y-132710000D01*
G36*
X206900000Y-132710000D02*
G01*
X209410000Y-132710000D01*
X209410000Y-135290000D01*
X206900000Y-135290000D01*
X206900000Y-132710000D01*
G37*
X218760000Y-149320000D02*
X221300000Y-149320000D01*
X221300000Y-149320000D02*
X221300000Y-151720000D01*
X221300000Y-151720000D02*
X218760000Y-151720000D01*
X218760000Y-151720000D02*
X218760000Y-149320000D01*
G36*
X218760000Y-149320000D02*
G01*
X221300000Y-149320000D01*
X221300000Y-151720000D01*
X218760000Y-151720000D01*
X218760000Y-149320000D01*
G37*
D16*
X214431321Y-129580000D02*
G75*
G03*
X214431321Y-129580000I-341321J0D01*
G01*
D11*
X207040000Y-139810000D02*
X209580000Y-139810000D01*
X209580000Y-139810000D02*
X209580000Y-142210000D01*
X209580000Y-142210000D02*
X207040000Y-142210000D01*
X207040000Y-142210000D02*
X207040000Y-139810000D01*
G36*
X207040000Y-139810000D02*
G01*
X209580000Y-139810000D01*
X209580000Y-142210000D01*
X207040000Y-142210000D01*
X207040000Y-139810000D01*
G37*
X213570000Y-131320000D02*
X216110000Y-131320000D01*
X216110000Y-131320000D02*
X216110000Y-133720000D01*
X216110000Y-133720000D02*
X213570000Y-133720000D01*
X213570000Y-133720000D02*
X213570000Y-131320000D01*
G36*
X213570000Y-131320000D02*
G01*
X216110000Y-131320000D01*
X216110000Y-133720000D01*
X213570000Y-133720000D01*
X213570000Y-131320000D01*
G37*
D17*
X155480000Y-151392857D02*
X155480000Y-150192857D01*
X155765714Y-150192857D01*
X155937142Y-150250000D01*
X156051428Y-150364285D01*
X156108571Y-150478571D01*
X156165714Y-150707142D01*
X156165714Y-150878571D01*
X156108571Y-151107142D01*
X156051428Y-151221428D01*
X155937142Y-151335714D01*
X155765714Y-151392857D01*
X155480000Y-151392857D01*
X156680000Y-151392857D02*
X156680000Y-150592857D01*
X156680000Y-150192857D02*
X156622857Y-150250000D01*
X156680000Y-150307142D01*
X156737142Y-150250000D01*
X156680000Y-150192857D01*
X156680000Y-150307142D01*
X216071428Y-125318571D02*
X216014285Y-125375714D01*
X215842857Y-125432857D01*
X215728571Y-125432857D01*
X215557142Y-125375714D01*
X215442857Y-125261428D01*
X215385714Y-125147142D01*
X215328571Y-124918571D01*
X215328571Y-124747142D01*
X215385714Y-124518571D01*
X215442857Y-124404285D01*
X215557142Y-124290000D01*
X215728571Y-124232857D01*
X215842857Y-124232857D01*
X216014285Y-124290000D01*
X216071428Y-124347142D01*
X216585714Y-125432857D02*
X216585714Y-124232857D01*
X217271428Y-125432857D02*
X216757142Y-124747142D01*
X217271428Y-124232857D02*
X216585714Y-124918571D01*
D11*
X191397619Y-140116190D02*
X191350000Y-140068571D01*
X191302380Y-139973333D01*
X191302380Y-139735238D01*
X191350000Y-139640000D01*
X191397619Y-139592380D01*
X191492857Y-139544761D01*
X191588095Y-139544761D01*
X191730952Y-139592380D01*
X192302380Y-140163809D01*
X192302380Y-139544761D01*
X191397619Y-139163809D02*
X191350000Y-139116190D01*
X191302380Y-139020952D01*
X191302380Y-138782857D01*
X191350000Y-138687619D01*
X191397619Y-138640000D01*
X191492857Y-138592380D01*
X191588095Y-138592380D01*
X191730952Y-138640000D01*
X192302380Y-139211428D01*
X192302380Y-138592380D01*
X191302380Y-137973333D02*
X191302380Y-137878095D01*
X191350000Y-137782857D01*
X191397619Y-137735238D01*
X191492857Y-137687619D01*
X191683333Y-137640000D01*
X191921428Y-137640000D01*
X192111904Y-137687619D01*
X192207142Y-137735238D01*
X192254761Y-137782857D01*
X192302380Y-137878095D01*
X192302380Y-137973333D01*
X192254761Y-138068571D01*
X192207142Y-138116190D01*
X192111904Y-138163809D01*
X191921428Y-138211428D01*
X191683333Y-138211428D01*
X191492857Y-138163809D01*
X191397619Y-138116190D01*
X191350000Y-138068571D01*
X191302380Y-137973333D01*
X191302380Y-137354285D02*
X192302380Y-137020952D01*
X191302380Y-136687619D01*
X192016666Y-135640000D02*
X192016666Y-135163809D01*
X192302380Y-135735238D02*
X191302380Y-135401904D01*
X192302380Y-135068571D01*
X192207142Y-134163809D02*
X192254761Y-134211428D01*
X192302380Y-134354285D01*
X192302380Y-134449523D01*
X192254761Y-134592380D01*
X192159523Y-134687619D01*
X192064285Y-134735238D01*
X191873809Y-134782857D01*
X191730952Y-134782857D01*
X191540476Y-134735238D01*
X191445238Y-134687619D01*
X191350000Y-134592380D01*
X191302380Y-134449523D01*
X191302380Y-134354285D01*
X191350000Y-134211428D01*
X191397619Y-134163809D01*
D17*
X159591428Y-151378571D02*
X159534285Y-151435714D01*
X159362857Y-151492857D01*
X159248571Y-151492857D01*
X159077142Y-151435714D01*
X158962857Y-151321428D01*
X158905714Y-151207142D01*
X158848571Y-150978571D01*
X158848571Y-150807142D01*
X158905714Y-150578571D01*
X158962857Y-150464285D01*
X159077142Y-150350000D01*
X159248571Y-150292857D01*
X159362857Y-150292857D01*
X159534285Y-150350000D01*
X159591428Y-150407142D01*
X160105714Y-151492857D02*
X160105714Y-150292857D01*
X160791428Y-151492857D02*
X160277142Y-150807142D01*
X160791428Y-150292857D02*
X160105714Y-150978571D01*
D11*
X192242380Y-142160476D02*
X192242380Y-142636666D01*
X191242380Y-142636666D01*
X164774285Y-126420000D02*
X164688571Y-126377142D01*
X164560000Y-126377142D01*
X164431428Y-126420000D01*
X164345714Y-126505714D01*
X164302857Y-126591428D01*
X164260000Y-126762857D01*
X164260000Y-126891428D01*
X164302857Y-127062857D01*
X164345714Y-127148571D01*
X164431428Y-127234285D01*
X164560000Y-127277142D01*
X164645714Y-127277142D01*
X164774285Y-127234285D01*
X164817142Y-127191428D01*
X164817142Y-126891428D01*
X164645714Y-126891428D01*
X165202857Y-127277142D02*
X165202857Y-126377142D01*
X165717142Y-127277142D01*
X165717142Y-126377142D01*
X166145714Y-127277142D02*
X166145714Y-126377142D01*
X166360000Y-126377142D01*
X166488571Y-126420000D01*
X166574285Y-126505714D01*
X166617142Y-126591428D01*
X166660000Y-126762857D01*
X166660000Y-126891428D01*
X166617142Y-127062857D01*
X166574285Y-127148571D01*
X166488571Y-127234285D01*
X166360000Y-127277142D01*
X166145714Y-127277142D01*
D17*
X145122380Y-141480000D02*
X145122380Y-140813333D01*
X146122380Y-141241904D01*
X146122380Y-140384761D02*
X146122380Y-140194285D01*
X146074761Y-140099047D01*
X146027142Y-140051428D01*
X145884285Y-139956190D01*
X145693809Y-139908571D01*
X145312857Y-139908571D01*
X145217619Y-139956190D01*
X145170000Y-140003809D01*
X145122380Y-140099047D01*
X145122380Y-140289523D01*
X145170000Y-140384761D01*
X145217619Y-140432380D01*
X145312857Y-140480000D01*
X145550952Y-140480000D01*
X145646190Y-140432380D01*
X145693809Y-140384761D01*
X145741428Y-140289523D01*
X145741428Y-140099047D01*
X145693809Y-140003809D01*
X145646190Y-139956190D01*
X145550952Y-139908571D01*
X146122380Y-139575238D02*
X145455714Y-139051428D01*
X145455714Y-139575238D02*
X146122380Y-139051428D01*
X145122380Y-138765714D02*
X145122380Y-138146666D01*
X145503333Y-138480000D01*
X145503333Y-138337142D01*
X145550952Y-138241904D01*
X145598571Y-138194285D01*
X145693809Y-138146666D01*
X145931904Y-138146666D01*
X146027142Y-138194285D01*
X146074761Y-138241904D01*
X146122380Y-138337142D01*
X146122380Y-138622857D01*
X146074761Y-138718095D01*
X146027142Y-138765714D01*
X146122380Y-137194285D02*
X146122380Y-137765714D01*
X146122380Y-137480000D02*
X145122380Y-137480000D01*
X145265238Y-137575238D01*
X145360476Y-137670476D01*
X145408095Y-137765714D01*
X146122380Y-136765714D02*
X145455714Y-136765714D01*
X145550952Y-136765714D02*
X145503333Y-136718095D01*
X145455714Y-136622857D01*
X145455714Y-136480000D01*
X145503333Y-136384761D01*
X145598571Y-136337142D01*
X146122380Y-136337142D01*
X145598571Y-136337142D02*
X145503333Y-136289523D01*
X145455714Y-136194285D01*
X145455714Y-136051428D01*
X145503333Y-135956190D01*
X145598571Y-135908571D01*
X146122380Y-135908571D01*
X146122380Y-135432380D02*
X145455714Y-135432380D01*
X145550952Y-135432380D02*
X145503333Y-135384761D01*
X145455714Y-135289523D01*
X145455714Y-135146666D01*
X145503333Y-135051428D01*
X145598571Y-135003809D01*
X146122380Y-135003809D01*
X145598571Y-135003809D02*
X145503333Y-134956190D01*
X145455714Y-134860952D01*
X145455714Y-134718095D01*
X145503333Y-134622857D01*
X145598571Y-134575238D01*
X146122380Y-134575238D01*
D11*
X178340000Y-152136666D02*
X178673333Y-152136666D01*
X178273333Y-152336666D02*
X178506666Y-151636666D01*
X178740000Y-152336666D01*
X178973333Y-152336666D02*
X178973333Y-151636666D01*
X179373333Y-152336666D01*
X179373333Y-151636666D01*
X179606666Y-151636666D02*
X180006666Y-151636666D01*
X179806666Y-152336666D02*
X179806666Y-151636666D01*
X180240000Y-151970000D02*
X180473333Y-151970000D01*
X180573333Y-152336666D02*
X180240000Y-152336666D01*
X180240000Y-151636666D01*
X180573333Y-151636666D01*
X180873333Y-152336666D02*
X180873333Y-151636666D01*
X181273333Y-152336666D01*
X181273333Y-151636666D01*
X181606666Y-152336666D02*
X181606666Y-151636666D01*
X182006666Y-152336666D01*
X182006666Y-151636666D01*
X182306666Y-152136666D02*
X182640000Y-152136666D01*
X182240000Y-152336666D02*
X182473333Y-151636666D01*
X182706666Y-152336666D01*
D17*
X152262857Y-150695714D02*
X153177142Y-150695714D01*
X152720000Y-151152857D02*
X152720000Y-150238571D01*
D11*
X161437142Y-126125714D02*
X161608571Y-126182857D01*
X161894285Y-126182857D01*
X162008571Y-126125714D01*
X162065714Y-126068571D01*
X162122857Y-125954285D01*
X162122857Y-125840000D01*
X162065714Y-125725714D01*
X162008571Y-125668571D01*
X161894285Y-125611428D01*
X161665714Y-125554285D01*
X161551428Y-125497142D01*
X161494285Y-125440000D01*
X161437142Y-125325714D01*
X161437142Y-125211428D01*
X161494285Y-125097142D01*
X161551428Y-125040000D01*
X161665714Y-124982857D01*
X161951428Y-124982857D01*
X162122857Y-125040000D01*
D17*
X148692857Y-150415714D02*
X149607142Y-150415714D01*
D11*
X162087142Y-132107142D02*
X162087142Y-132707142D01*
X161872857Y-131764285D02*
X161658571Y-132407142D01*
X162215714Y-132407142D01*
X162430000Y-131807142D02*
X162730000Y-132707142D01*
X163030000Y-131807142D01*
X163287142Y-131892857D02*
X163330000Y-131850000D01*
X163415714Y-131807142D01*
X163630000Y-131807142D01*
X163715714Y-131850000D01*
X163758571Y-131892857D01*
X163801428Y-131978571D01*
X163801428Y-132064285D01*
X163758571Y-132192857D01*
X163244285Y-132707142D01*
X163801428Y-132707142D01*
X202255714Y-139524285D02*
X202298571Y-139395714D01*
X202341428Y-139352857D01*
X202427142Y-139310000D01*
X202555714Y-139310000D01*
X202641428Y-139352857D01*
X202684285Y-139395714D01*
X202727142Y-139481428D01*
X202727142Y-139824285D01*
X201827142Y-139824285D01*
X201827142Y-139524285D01*
X201870000Y-139438571D01*
X201912857Y-139395714D01*
X201998571Y-139352857D01*
X202084285Y-139352857D01*
X202170000Y-139395714D01*
X202212857Y-139438571D01*
X202255714Y-139524285D01*
X202255714Y-139824285D01*
X202470000Y-138967142D02*
X202470000Y-138538571D01*
X202727142Y-139052857D02*
X201827142Y-138752857D01*
X202727142Y-138452857D01*
X201827142Y-138281428D02*
X201827142Y-137767142D01*
X202727142Y-138024285D02*
X201827142Y-138024285D01*
D17*
X204182857Y-124695714D02*
X205097142Y-124695714D01*
X209860000Y-125702857D02*
X209860000Y-124502857D01*
X210145714Y-124502857D01*
X210317142Y-124560000D01*
X210431428Y-124674285D01*
X210488571Y-124788571D01*
X210545714Y-125017142D01*
X210545714Y-125188571D01*
X210488571Y-125417142D01*
X210431428Y-125531428D01*
X210317142Y-125645714D01*
X210145714Y-125702857D01*
X209860000Y-125702857D01*
X211060000Y-125702857D02*
X211060000Y-124902857D01*
X211060000Y-124502857D02*
X211002857Y-124560000D01*
X211060000Y-124617142D01*
X211117142Y-124560000D01*
X211060000Y-124502857D01*
X211060000Y-124617142D01*
D11*
X155231428Y-126032857D02*
X154660000Y-126032857D01*
X154660000Y-124832857D01*
X157827142Y-126152857D02*
X157827142Y-124952857D01*
X157827142Y-125524285D02*
X158512857Y-125524285D01*
X158512857Y-126152857D02*
X158512857Y-124952857D01*
X206573809Y-145247619D02*
X206621428Y-145200000D01*
X206716666Y-145152380D01*
X206954761Y-145152380D01*
X207050000Y-145200000D01*
X207097619Y-145247619D01*
X207145238Y-145342857D01*
X207145238Y-145438095D01*
X207097619Y-145580952D01*
X206526190Y-146152380D01*
X207145238Y-146152380D01*
X207526190Y-145247619D02*
X207573809Y-145200000D01*
X207669047Y-145152380D01*
X207907142Y-145152380D01*
X208002380Y-145200000D01*
X208050000Y-145247619D01*
X208097619Y-145342857D01*
X208097619Y-145438095D01*
X208050000Y-145580952D01*
X207478571Y-146152380D01*
X208097619Y-146152380D01*
X208716666Y-145152380D02*
X208811904Y-145152380D01*
X208907142Y-145200000D01*
X208954761Y-145247619D01*
X209002380Y-145342857D01*
X209050000Y-145533333D01*
X209050000Y-145771428D01*
X209002380Y-145961904D01*
X208954761Y-146057142D01*
X208907142Y-146104761D01*
X208811904Y-146152380D01*
X208716666Y-146152380D01*
X208621428Y-146104761D01*
X208573809Y-146057142D01*
X208526190Y-145961904D01*
X208478571Y-145771428D01*
X208478571Y-145533333D01*
X208526190Y-145342857D01*
X208573809Y-145247619D01*
X208621428Y-145200000D01*
X208716666Y-145152380D01*
X209335714Y-145152380D02*
X209669047Y-146152380D01*
X210002380Y-145152380D01*
X211050000Y-145866666D02*
X211526190Y-145866666D01*
X210954761Y-146152380D02*
X211288095Y-145152380D01*
X211621428Y-146152380D01*
X212526190Y-146057142D02*
X212478571Y-146104761D01*
X212335714Y-146152380D01*
X212240476Y-146152380D01*
X212097619Y-146104761D01*
X212002380Y-146009523D01*
X211954761Y-145914285D01*
X211907142Y-145723809D01*
X211907142Y-145580952D01*
X211954761Y-145390476D01*
X212002380Y-145295238D01*
X212097619Y-145200000D01*
X212240476Y-145152380D01*
X212335714Y-145152380D01*
X212478571Y-145200000D01*
X212526190Y-145247619D01*
D17*
X205155714Y-152552857D02*
X205155714Y-151752857D01*
X205155714Y-151981428D02*
X205212857Y-151867142D01*
X205270000Y-151810000D01*
X205384285Y-151752857D01*
X205498571Y-151752857D01*
X206355714Y-152495714D02*
X206241428Y-152552857D01*
X206012857Y-152552857D01*
X205898571Y-152495714D01*
X205841428Y-152381428D01*
X205841428Y-151924285D01*
X205898571Y-151810000D01*
X206012857Y-151752857D01*
X206241428Y-151752857D01*
X206355714Y-151810000D01*
X206412857Y-151924285D01*
X206412857Y-152038571D01*
X205841428Y-152152857D01*
X206812857Y-151752857D02*
X207098571Y-152552857D01*
X207384285Y-151752857D01*
X207841428Y-152438571D02*
X207898571Y-152495714D01*
X207841428Y-152552857D01*
X207784285Y-152495714D01*
X207841428Y-152438571D01*
X207841428Y-152552857D01*
X209041428Y-152552857D02*
X208355714Y-152552857D01*
X208698571Y-152552857D02*
X208698571Y-151352857D01*
X208584285Y-151524285D01*
X208470000Y-151638571D01*
X208355714Y-151695714D01*
X210184285Y-152552857D02*
X209498571Y-152552857D01*
X209841428Y-152552857D02*
X209841428Y-151352857D01*
X209727142Y-151524285D01*
X209612857Y-151638571D01*
X209498571Y-151695714D01*
X210698571Y-152095714D02*
X211612857Y-152095714D01*
X212127142Y-151467142D02*
X212184285Y-151410000D01*
X212298571Y-151352857D01*
X212584285Y-151352857D01*
X212698571Y-151410000D01*
X212755714Y-151467142D01*
X212812857Y-151581428D01*
X212812857Y-151695714D01*
X212755714Y-151867142D01*
X212070000Y-152552857D01*
X212812857Y-152552857D01*
X213555714Y-151352857D02*
X213670000Y-151352857D01*
X213784285Y-151410000D01*
X213841428Y-151467142D01*
X213898571Y-151581428D01*
X213955714Y-151810000D01*
X213955714Y-152095714D01*
X213898571Y-152324285D01*
X213841428Y-152438571D01*
X213784285Y-152495714D01*
X213670000Y-152552857D01*
X213555714Y-152552857D01*
X213441428Y-152495714D01*
X213384285Y-152438571D01*
X213327142Y-152324285D01*
X213270000Y-152095714D01*
X213270000Y-151810000D01*
X213327142Y-151581428D01*
X213384285Y-151467142D01*
X213441428Y-151410000D01*
X213555714Y-151352857D01*
X214412857Y-151467142D02*
X214470000Y-151410000D01*
X214584285Y-151352857D01*
X214870000Y-151352857D01*
X214984285Y-151410000D01*
X215041428Y-151467142D01*
X215098571Y-151581428D01*
X215098571Y-151695714D01*
X215041428Y-151867142D01*
X214355714Y-152552857D01*
X215098571Y-152552857D01*
X215555714Y-151467142D02*
X215612857Y-151410000D01*
X215727142Y-151352857D01*
X216012857Y-151352857D01*
X216127142Y-151410000D01*
X216184285Y-151467142D01*
X216241428Y-151581428D01*
X216241428Y-151695714D01*
X216184285Y-151867142D01*
X215498571Y-152552857D01*
X216241428Y-152552857D01*
D11*
X150725714Y-131357142D02*
X151282857Y-131357142D01*
X150982857Y-131700000D01*
X151111428Y-131700000D01*
X151197142Y-131742857D01*
X151240000Y-131785714D01*
X151282857Y-131871428D01*
X151282857Y-132085714D01*
X151240000Y-132171428D01*
X151197142Y-132214285D01*
X151111428Y-132257142D01*
X150854285Y-132257142D01*
X150768571Y-132214285D01*
X150725714Y-132171428D01*
X151540000Y-131357142D02*
X151840000Y-132257142D01*
X152140000Y-131357142D01*
X152354285Y-131357142D02*
X152911428Y-131357142D01*
X152611428Y-131700000D01*
X152740000Y-131700000D01*
X152825714Y-131742857D01*
X152868571Y-131785714D01*
X152911428Y-131871428D01*
X152911428Y-132085714D01*
X152868571Y-132171428D01*
X152825714Y-132214285D01*
X152740000Y-132257142D01*
X152482857Y-132257142D01*
X152397142Y-132214285D01*
X152354285Y-132171428D01*
X162377142Y-130150000D02*
X162377142Y-130578571D01*
X162805714Y-130621428D01*
X162762857Y-130578571D01*
X162720000Y-130492857D01*
X162720000Y-130278571D01*
X162762857Y-130192857D01*
X162805714Y-130150000D01*
X162891428Y-130107142D01*
X163105714Y-130107142D01*
X163191428Y-130150000D01*
X163234285Y-130192857D01*
X163277142Y-130278571D01*
X163277142Y-130492857D01*
X163234285Y-130578571D01*
X163191428Y-130621428D01*
X162377142Y-129850000D02*
X163277142Y-129550000D01*
X162377142Y-129250000D01*
X162377142Y-128778571D02*
X162377142Y-128692857D01*
X162420000Y-128607142D01*
X162462857Y-128564285D01*
X162548571Y-128521428D01*
X162720000Y-128478571D01*
X162934285Y-128478571D01*
X163105714Y-128521428D01*
X163191428Y-128564285D01*
X163234285Y-128607142D01*
X163277142Y-128692857D01*
X163277142Y-128778571D01*
X163234285Y-128864285D01*
X163191428Y-128907142D01*
X163105714Y-128950000D01*
X162934285Y-128992857D01*
X162720000Y-128992857D01*
X162548571Y-128950000D01*
X162462857Y-128907142D01*
X162420000Y-128864285D01*
X162377142Y-128778571D01*
X156250000Y-129927142D02*
X155821428Y-129927142D01*
X155778571Y-130355714D01*
X155821428Y-130312857D01*
X155907142Y-130270000D01*
X156121428Y-130270000D01*
X156207142Y-130312857D01*
X156250000Y-130355714D01*
X156292857Y-130441428D01*
X156292857Y-130655714D01*
X156250000Y-130741428D01*
X156207142Y-130784285D01*
X156121428Y-130827142D01*
X155907142Y-130827142D01*
X155821428Y-130784285D01*
X155778571Y-130741428D01*
X156550000Y-129927142D02*
X156850000Y-130827142D01*
X157150000Y-129927142D01*
X157621428Y-129927142D02*
X157707142Y-129927142D01*
X157792857Y-129970000D01*
X157835714Y-130012857D01*
X157878571Y-130098571D01*
X157921428Y-130270000D01*
X157921428Y-130484285D01*
X157878571Y-130655714D01*
X157835714Y-130741428D01*
X157792857Y-130784285D01*
X157707142Y-130827142D01*
X157621428Y-130827142D01*
X157535714Y-130784285D01*
X157492857Y-130741428D01*
X157450000Y-130655714D01*
X157407142Y-130484285D01*
X157407142Y-130270000D01*
X157450000Y-130098571D01*
X157492857Y-130012857D01*
X157535714Y-129970000D01*
X157621428Y-129927142D01*
X162590000Y-146025714D02*
X162547142Y-146111428D01*
X162547142Y-146240000D01*
X162590000Y-146368571D01*
X162675714Y-146454285D01*
X162761428Y-146497142D01*
X162932857Y-146540000D01*
X163061428Y-146540000D01*
X163232857Y-146497142D01*
X163318571Y-146454285D01*
X163404285Y-146368571D01*
X163447142Y-146240000D01*
X163447142Y-146154285D01*
X163404285Y-146025714D01*
X163361428Y-145982857D01*
X163061428Y-145982857D01*
X163061428Y-146154285D01*
X163447142Y-145597142D02*
X162547142Y-145597142D01*
X163447142Y-145082857D01*
X162547142Y-145082857D01*
X163447142Y-144654285D02*
X162547142Y-144654285D01*
X162547142Y-144440000D01*
X162590000Y-144311428D01*
X162675714Y-144225714D01*
X162761428Y-144182857D01*
X162932857Y-144140000D01*
X163061428Y-144140000D01*
X163232857Y-144182857D01*
X163318571Y-144225714D01*
X163404285Y-144311428D01*
X163447142Y-144440000D01*
X163447142Y-144654285D01*
X170190000Y-148490000D02*
X170423333Y-148490000D01*
X170523333Y-148856666D02*
X170190000Y-148856666D01*
X170190000Y-148156666D01*
X170523333Y-148156666D01*
X170756666Y-148156666D02*
X171223333Y-148856666D01*
X171223333Y-148156666D02*
X170756666Y-148856666D01*
X171390000Y-148156666D02*
X171790000Y-148156666D01*
X171590000Y-148856666D02*
X171590000Y-148156666D01*
X172523333Y-148656666D02*
X172856666Y-148656666D01*
X172456666Y-148856666D02*
X172690000Y-148156666D01*
X172923333Y-148856666D01*
X173156666Y-148856666D02*
X173156666Y-148156666D01*
X173556666Y-148856666D01*
X173556666Y-148156666D01*
X173790000Y-148156666D02*
X174190000Y-148156666D01*
X173990000Y-148856666D02*
X173990000Y-148156666D01*
X152685714Y-145883333D02*
X153209523Y-145883333D01*
X152580952Y-146197619D02*
X152947619Y-145097619D01*
X153314285Y-146197619D01*
X154309523Y-146092857D02*
X154257142Y-146145238D01*
X154100000Y-146197619D01*
X153995238Y-146197619D01*
X153838095Y-146145238D01*
X153733333Y-146040476D01*
X153680952Y-145935714D01*
X153628571Y-145726190D01*
X153628571Y-145569047D01*
X153680952Y-145359523D01*
X153733333Y-145254761D01*
X153838095Y-145150000D01*
X153995238Y-145097619D01*
X154100000Y-145097619D01*
X154257142Y-145150000D01*
X154309523Y-145202380D01*
X155566666Y-146145238D02*
X155723809Y-146197619D01*
X155985714Y-146197619D01*
X156090476Y-146145238D01*
X156142857Y-146092857D01*
X156195238Y-145988095D01*
X156195238Y-145883333D01*
X156142857Y-145778571D01*
X156090476Y-145726190D01*
X155985714Y-145673809D01*
X155776190Y-145621428D01*
X155671428Y-145569047D01*
X155619047Y-145516666D01*
X155566666Y-145411904D01*
X155566666Y-145307142D01*
X155619047Y-145202380D01*
X155671428Y-145150000D01*
X155776190Y-145097619D01*
X156038095Y-145097619D01*
X156195238Y-145150000D01*
X156509523Y-145097619D02*
X157138095Y-145097619D01*
X156823809Y-146197619D02*
X156823809Y-145097619D01*
X157452380Y-145883333D02*
X157976190Y-145883333D01*
X157347619Y-146197619D02*
X157714285Y-145097619D01*
X158080952Y-146197619D01*
X158290476Y-145097619D02*
X158919047Y-145097619D01*
X158604761Y-146197619D02*
X158604761Y-145097619D01*
D17*
X145167142Y-152132857D02*
X144595714Y-152132857D01*
X144595714Y-150932857D01*
X145567142Y-152132857D02*
X145567142Y-150932857D01*
X145852857Y-150932857D01*
X146024285Y-150990000D01*
X146138571Y-151104285D01*
X146195714Y-151218571D01*
X146252857Y-151447142D01*
X146252857Y-151618571D01*
X146195714Y-151847142D01*
X146138571Y-151961428D01*
X146024285Y-152075714D01*
X145852857Y-152132857D01*
X145567142Y-152132857D01*
X146710000Y-151790000D02*
X147281428Y-151790000D01*
X146595714Y-152132857D02*
X146995714Y-150932857D01*
X147395714Y-152132857D01*
X147795714Y-152132857D02*
X147795714Y-150932857D01*
X148081428Y-150932857D01*
X148252857Y-150990000D01*
X148367142Y-151104285D01*
X148424285Y-151218571D01*
X148481428Y-151447142D01*
X148481428Y-151618571D01*
X148424285Y-151847142D01*
X148367142Y-151961428D01*
X148252857Y-152075714D01*
X148081428Y-152132857D01*
X147795714Y-152132857D01*
D11*
X200421428Y-125764285D02*
X200550000Y-125807142D01*
X200764285Y-125807142D01*
X200850000Y-125764285D01*
X200892857Y-125721428D01*
X200935714Y-125635714D01*
X200935714Y-125550000D01*
X200892857Y-125464285D01*
X200850000Y-125421428D01*
X200764285Y-125378571D01*
X200592857Y-125335714D01*
X200507142Y-125292857D01*
X200464285Y-125250000D01*
X200421428Y-125164285D01*
X200421428Y-125078571D01*
X200464285Y-124992857D01*
X200507142Y-124950000D01*
X200592857Y-124907142D01*
X200807142Y-124907142D01*
X200935714Y-124950000D01*
X201321428Y-125807142D02*
X201321428Y-124907142D01*
X201321428Y-125335714D02*
X201835714Y-125335714D01*
X201835714Y-125807142D02*
X201835714Y-124907142D01*
D17*
X207052857Y-124725714D02*
X207967142Y-124725714D01*
X207510000Y-125182857D02*
X207510000Y-124268571D01*
D11*
X192912380Y-132775714D02*
X191912380Y-132775714D01*
X192912380Y-132204285D01*
X191912380Y-132204285D01*
G04 #@! TO.C,*
D18*
G04 #@! TO.C,EC50*
X195019420Y-132600000D02*
X195300580Y-132600000D01*
X195019420Y-131580000D02*
X195300580Y-131580000D01*
G04 #@! TO.C,MR2*
X161602936Y-136225000D02*
X162057064Y-136225000D01*
X161602936Y-137695000D02*
X162057064Y-137695000D01*
G04 #@! TO.C,EC15*
X182301252Y-145285000D02*
X181778748Y-145285000D01*
X182301252Y-143815000D02*
X181778748Y-143815000D01*
G04 #@! TO.C,IMUC2*
X197790000Y-128220580D02*
X197790000Y-127939420D01*
X198810000Y-128220580D02*
X198810000Y-127939420D01*
G04 #@! TO.C,TPR2*
X199812936Y-146275000D02*
X200267064Y-146275000D01*
X199812936Y-144805000D02*
X200267064Y-144805000D01*
G04 #@! TO.C,MT_VIN1*
X165625000Y-132200000D02*
G75*
G03*
X165625000Y-132200000I-700000J0D01*
G01*
G04 #@! TO.C,EC12*
X178890000Y-145269420D02*
X178890000Y-145550580D01*
X179910000Y-145269420D02*
X179910000Y-145550580D01*
G04 #@! TO.C,EC25*
X184725000Y-128311252D02*
X184725000Y-127788748D01*
X183255000Y-128311252D02*
X183255000Y-127788748D01*
G04 #@! TO.C,ECY1*
X174822500Y-146030000D02*
X178022500Y-146030000D01*
X178022500Y-146030000D02*
X178022500Y-142130000D01*
D19*
G04 #@! TO.C,TPU1*
X197740000Y-143260000D02*
X197740000Y-147260000D01*
X192640000Y-143260000D02*
X192640000Y-147260000D01*
D12*
X198340351Y-142335000D02*
G75*
G03*
X198340351Y-142335000I-320351J0D01*
G01*
D18*
G04 #@! TO.C,AC1*
X154598748Y-136595000D02*
X155121252Y-136595000D01*
X154598748Y-135125000D02*
X155121252Y-135125000D01*
G04 #@! TO.C,AR2*
X153745000Y-140582936D02*
X153745000Y-141037064D01*
X152275000Y-140582936D02*
X152275000Y-141037064D01*
G04 #@! TO.C,EPS1*
X176270000Y-127950000D02*
X176270000Y-126000000D01*
X171150000Y-127950000D02*
X171150000Y-126000000D01*
X176270000Y-127950000D02*
X176270000Y-129900000D01*
X171150000Y-127950000D02*
X171150000Y-131400000D01*
G04 #@! TO.C,SH1*
X202250000Y-128960000D02*
X200510000Y-128960000D01*
X201810000Y-126140000D02*
X200510000Y-126140000D01*
G04 #@! TO.C,Q2*
X213210000Y-125610000D02*
X214885000Y-125610000D01*
X213210000Y-122490000D02*
X213860000Y-122490000D01*
X213210000Y-122490000D02*
X212560000Y-122490000D01*
X213210000Y-125610000D02*
X212560000Y-125610000D01*
G04 #@! TO.C,LED2*
X206130000Y-140135000D02*
X202045000Y-140135000D01*
X202045000Y-142305000D02*
X206130000Y-142305000D01*
X202045000Y-140135000D02*
X202045000Y-142305000D01*
D12*
X206316496Y-139613504D02*
G75*
G03*
X206316496Y-139613504I-161496J0D01*
G01*
D18*
G04 #@! TO.C,ICR1*
X174242500Y-137952742D02*
X174242500Y-138427258D01*
X173197500Y-137952742D02*
X173197500Y-138427258D01*
G04 #@! TO.C,TP1*
X159850000Y-130420000D02*
G75*
G03*
X159850000Y-130420000I-700000J0D01*
G01*
D19*
G04 #@! TO.C,U2*
X185140000Y-124745000D02*
X185140000Y-128735000D01*
X190180000Y-124745000D02*
X190180000Y-128735000D01*
D17*
X190255000Y-122290000D02*
G75*
G03*
X190255000Y-122290000I-100000J0D01*
G01*
D18*
G04 #@! TO.C,PWSWR1*
X199917258Y-152352500D02*
X199442742Y-152352500D01*
X199917258Y-151307500D02*
X199442742Y-151307500D01*
G04 #@! TO.C,EC24*
X183450000Y-124599420D02*
X183450000Y-124880580D01*
X184470000Y-124599420D02*
X184470000Y-124880580D01*
G04 #@! TO.C,MR1*
X158105000Y-135832936D02*
X158105000Y-136287064D01*
X159575000Y-135832936D02*
X159575000Y-136287064D01*
G04 #@! TO.C,LED1*
X201840000Y-130465000D02*
X197755000Y-130465000D01*
X197755000Y-130465000D02*
X197755000Y-132635000D01*
X197755000Y-132635000D02*
X201840000Y-132635000D01*
D12*
X202026496Y-129943504D02*
G75*
G03*
X202026496Y-129943504I-161496J0D01*
G01*
D18*
G04 #@! TO.C,HLR1*
X160122936Y-144455000D02*
X160577064Y-144455000D01*
X160122936Y-145925000D02*
X160577064Y-145925000D01*
G04 #@! TO.C,TPR1*
X197805000Y-139452936D02*
X197805000Y-139907064D01*
X196335000Y-139452936D02*
X196335000Y-139907064D01*
G04 #@! TO.C,HLD1*
X155145000Y-144750000D02*
X157830000Y-144750000D01*
X157830000Y-142830000D02*
X155145000Y-142830000D01*
X155145000Y-142830000D02*
X155145000Y-144750000D01*
G04 #@! TO.C,HLL2*
X165950000Y-149112064D02*
X165950000Y-147907936D01*
X163230000Y-149112064D02*
X163230000Y-147907936D01*
D19*
G04 #@! TO.C,J1*
X170480000Y-149740000D02*
X170480000Y-152340000D01*
D18*
G04 #@! TO.C,MC1*
X167285000Y-140798748D02*
X167285000Y-141321252D01*
X168755000Y-140798748D02*
X168755000Y-141321252D01*
G04 #@! TO.C,EC14*
X182281252Y-145680000D02*
X181758748Y-145680000D01*
X182281252Y-147150000D02*
X181758748Y-147150000D01*
G04 #@! TO.C,CBU1*
X149870000Y-127120000D02*
X149870000Y-125170000D01*
X144750000Y-127120000D02*
X144750000Y-130570000D01*
X149870000Y-127120000D02*
X149870000Y-129070000D01*
X144750000Y-127120000D02*
X144750000Y-125170000D01*
G04 #@! TO.C,MR3*
X200157064Y-136045000D02*
X199702936Y-136045000D01*
X200157064Y-137515000D02*
X199702936Y-137515000D01*
G04 #@! TO.C,CC1*
X146919420Y-131580000D02*
X147200580Y-131580000D01*
X146919420Y-132600000D02*
X147200580Y-132600000D01*
G04 #@! TO.C,EC20*
X188179420Y-146210000D02*
X188460580Y-146210000D01*
X188179420Y-145190000D02*
X188460580Y-145190000D01*
G04 #@! TO.C,EC38*
X183839420Y-150070000D02*
X184120580Y-150070000D01*
X183839420Y-149050000D02*
X184120580Y-149050000D01*
G04 #@! TO.C,EC19*
X189770000Y-142659420D02*
X189770000Y-142940580D01*
X188750000Y-142659420D02*
X188750000Y-142940580D01*
G04 #@! TO.C,L2*
X186789622Y-143110000D02*
X185990378Y-143110000D01*
X186789622Y-144230000D02*
X185990378Y-144230000D01*
G04 #@! TO.C,LR1*
X196487500Y-135057258D02*
X196487500Y-134582742D01*
X197532500Y-135057258D02*
X197532500Y-134582742D01*
G04 #@! TO.C,EC37*
X176230580Y-149040000D02*
X175949420Y-149040000D01*
X176230580Y-150060000D02*
X175949420Y-150060000D01*
D19*
G04 #@! TO.C,U1*
X160175000Y-141470000D02*
X160175000Y-139770000D01*
X163305000Y-139770000D02*
X163305000Y-141470000D01*
D17*
X163650250Y-138624751D02*
G75*
G03*
X163650250Y-138624751I-200250J0D01*
G01*
D18*
G04 #@! TO.C,AUC1*
X188178748Y-130615000D02*
X188701252Y-130615000D01*
X188178748Y-132085000D02*
X188701252Y-132085000D01*
G04 #@! TO.C,IDR1*
X172422500Y-138417258D02*
X172422500Y-137942742D01*
X171377500Y-138417258D02*
X171377500Y-137942742D01*
G04 #@! TO.C,MT_GND1*
X163550000Y-126830000D02*
G75*
G03*
X163550000Y-126830000I-700000J0D01*
G01*
G04 #@! TO.C,EC13*
X173120000Y-145199420D02*
X173120000Y-145480580D01*
X174140000Y-145199420D02*
X174140000Y-145480580D01*
G04 #@! TO.C,ER1*
X188777258Y-140552500D02*
X188302742Y-140552500D01*
X188777258Y-139507500D02*
X188302742Y-139507500D01*
G04 #@! TO.C,PWDSWT1*
X200440000Y-148740000D02*
X200440000Y-150415000D01*
X200440000Y-148740000D02*
X200440000Y-148090000D01*
X203560000Y-148740000D02*
X203560000Y-149390000D01*
X203560000Y-148740000D02*
X203560000Y-148090000D01*
G04 #@! TO.C,CR1*
X157222936Y-123055000D02*
X157677064Y-123055000D01*
X157222936Y-124525000D02*
X157677064Y-124525000D01*
G04 #@! TO.C,MD1*
X166955000Y-133385000D02*
X163785000Y-133385000D01*
X163785000Y-133385000D02*
X163785000Y-137445000D01*
X166955000Y-137445000D02*
X166955000Y-133385000D01*
G04 #@! TO.C,TP2*
X153000000Y-132840000D02*
G75*
G03*
X153000000Y-132840000I-700000J0D01*
G01*
G04 #@! TO.C,TPR3*
X199907064Y-142995000D02*
X199452936Y-142995000D01*
X199907064Y-144465000D02*
X199452936Y-144465000D01*
D19*
G04 #@! TO.C,ANT1*
X184750000Y-153270000D02*
X176750000Y-153270000D01*
X176750000Y-151170000D02*
X184750000Y-151170000D01*
D20*
X174590500Y-152220000D02*
G75*
G03*
X174590500Y-152220000I-190500J0D01*
G01*
D18*
G04 #@! TO.C,AR1*
X155057064Y-137145000D02*
X154602936Y-137145000D01*
X155057064Y-138615000D02*
X154602936Y-138615000D01*
G04 #@! TO.C,IMUC1*
X171280000Y-145470580D02*
X171280000Y-145189420D01*
X172300000Y-145470580D02*
X172300000Y-145189420D01*
G04 #@! TO.C,CC2*
X152269420Y-122990000D02*
X152550580Y-122990000D01*
X152269420Y-124010000D02*
X152550580Y-124010000D01*
G04 #@! TO.C,EC16*
X176060000Y-138530580D02*
X176060000Y-138249420D01*
X175040000Y-138530580D02*
X175040000Y-138249420D01*
G04 #@! TO.C,MR4*
X200127064Y-139345000D02*
X199672936Y-139345000D01*
X200127064Y-137875000D02*
X199672936Y-137875000D01*
G04 #@! TO.C,Q1*
X147180000Y-148840000D02*
X147180000Y-149490000D01*
X144060000Y-148840000D02*
X144060000Y-148190000D01*
X147180000Y-148840000D02*
X147180000Y-147165000D01*
X144060000Y-148840000D02*
X144060000Y-149490000D01*
G04 #@! TO.C,LEDSS85*
X215240000Y-140120000D02*
X215890000Y-140120000D01*
X215240000Y-140120000D02*
X214590000Y-140120000D01*
X215240000Y-137000000D02*
X213565000Y-137000000D01*
X215240000Y-137000000D02*
X215890000Y-137000000D01*
D21*
G04 #@! TO.C,G\u002A\u002A\u002A*
X169930000Y-122315000D02*
X169925000Y-125235000D01*
X222945000Y-137820000D02*
X222955000Y-150965000D01*
X143720000Y-150965000D02*
X143710000Y-137915000D01*
X169775000Y-153355000D02*
X169755000Y-151115000D01*
X168540000Y-122325000D02*
X146590000Y-122305000D01*
X197425000Y-153375000D02*
X220155000Y-153395000D01*
X169755000Y-151115000D02*
X168745000Y-151115000D01*
X195485000Y-125164700D02*
X195480000Y-122314700D01*
X143700000Y-136915000D02*
X143700000Y-125495000D01*
X169775000Y-153355000D02*
X195035000Y-153365000D01*
X221165000Y-137815000D02*
X221165000Y-136817500D01*
X169925000Y-125235000D02*
X168545000Y-125235000D01*
X168545000Y-125235000D02*
X168540000Y-122325000D01*
X196870000Y-122314700D02*
X219700000Y-122324700D01*
X196875000Y-125164700D02*
X195485000Y-125164700D01*
X196870000Y-122314700D02*
X196875000Y-125164700D01*
X197425000Y-150105000D02*
X195035000Y-150100000D01*
X168745000Y-151115000D02*
X168745000Y-153355000D01*
X143700000Y-136915000D02*
X144815000Y-136925000D01*
X144815000Y-136925000D02*
X144815000Y-137925000D01*
X144815000Y-137925000D02*
X143710000Y-137915000D01*
X221165000Y-136817500D02*
X222945000Y-136820000D01*
X222945000Y-136820000D02*
X222940000Y-125294700D01*
X195480000Y-122314700D02*
X169930000Y-122315000D01*
X168745000Y-153355000D02*
X146780000Y-153345000D01*
X197425000Y-153375000D02*
X197425000Y-150105000D01*
X195035000Y-150100000D02*
X195035000Y-153365000D01*
X222945000Y-137820000D02*
X221165000Y-137815000D01*
X146590000Y-122305000D02*
G75*
G03*
X143700000Y-125495000I375481J-3244276D01*
G01*
X143720000Y-150965000D02*
G75*
G03*
X146780000Y-153345000I3113656J846129D01*
G01*
X220154997Y-153394985D02*
G75*
G03*
X222955000Y-150965000I-855797J3814285D01*
G01*
X222940000Y-125294700D02*
G75*
G03*
X219700000Y-122324700I-3295300J-342600D01*
G01*
D18*
G04 #@! TO.C,L2R1*
X205632742Y-143367500D02*
X206107258Y-143367500D01*
X205632742Y-144412500D02*
X206107258Y-144412500D01*
D17*
G04 #@! TO.C,ESP_FLASH1*
X177140000Y-131850000D02*
X176640000Y-131850000D01*
X176640000Y-123850000D02*
X177140000Y-123850000D01*
X182640000Y-131850000D02*
X182640000Y-123850000D01*
X182140000Y-131850000D02*
X182640000Y-131850000D01*
X182640000Y-123850000D02*
X182140000Y-123850000D01*
X176640000Y-131850000D02*
X176640000Y-123850000D01*
X176990000Y-132350000D02*
G75*
G03*
X176990000Y-132350000I-100000J0D01*
G01*
D18*
G04 #@! TO.C,L2R2*
X203265000Y-135107064D02*
X203265000Y-134652936D01*
X201795000Y-135107064D02*
X201795000Y-134652936D01*
G04 #@! TO.C,QR1*
X149657064Y-144895000D02*
X149202936Y-144895000D01*
X149657064Y-146365000D02*
X149202936Y-146365000D01*
G04 #@! TO.C,HLC3*
X168358748Y-150265000D02*
X168881252Y-150265000D01*
X168358748Y-148795000D02*
X168881252Y-148795000D01*
G04 #@! TO.C,EC26*
X185240000Y-132630580D02*
X185240000Y-132349420D01*
X186260000Y-132630580D02*
X186260000Y-132349420D01*
D20*
G04 #@! TO.C,REF\u002A\u002A*
X218247000Y-142083000D02*
X217739000Y-142210000D01*
X213536000Y-139797000D02*
X214044000Y-140559000D01*
X215834000Y-141956000D02*
X215834000Y-140686000D01*
X213675000Y-140813000D02*
X215961000Y-142337000D01*
D22*
X209230000Y-140940000D02*
X220660000Y-132050000D01*
D20*
X215580000Y-141575000D02*
X213548000Y-139797000D01*
X218755000Y-142337000D02*
X218120000Y-141575000D01*
X215961000Y-142337000D02*
X215961000Y-140940000D01*
X218374000Y-142083000D02*
X215580000Y-140305000D01*
X213929000Y-140559000D02*
X215834000Y-141956000D01*
X215580000Y-140305000D02*
X215580000Y-141575000D01*
D22*
X220660000Y-149830000D02*
X209230000Y-140940000D01*
D20*
X217739000Y-142210000D02*
X218755000Y-142337000D01*
X218120000Y-141575000D02*
X218374000Y-142083000D01*
X214056000Y-140559000D02*
X213548000Y-140686000D01*
D22*
X220660000Y-132050000D02*
X220660000Y-149830000D01*
D20*
X215961000Y-140940000D02*
X218247000Y-142083000D01*
D18*
G04 #@! TO.C,RST1*
X159595000Y-140265000D02*
X159595000Y-140565000D01*
X156245000Y-140265000D02*
X159595000Y-140265000D01*
X159610000Y-142245000D02*
X159610000Y-142545000D01*
X159610000Y-142545000D02*
X156260000Y-142545000D01*
X156245000Y-140565000D02*
X156245000Y-140265000D01*
X156260000Y-142545000D02*
X156260000Y-142245000D01*
G04 #@! TO.C,HLD6*
X168805000Y-147682500D02*
X168805000Y-143622500D01*
X168805000Y-143622500D02*
X166535000Y-143622500D01*
X166535000Y-143622500D02*
X166535000Y-147682500D01*
G04 #@! TO.C,AC2*
X149798748Y-144295000D02*
X150321252Y-144295000D01*
X149798748Y-142825000D02*
X150321252Y-142825000D01*
G04 #@! TO.C,MC2*
X162061252Y-135525000D02*
X161538748Y-135525000D01*
X162061252Y-134055000D02*
X161538748Y-134055000D01*
G04 #@! TO.C,QR2*
X217887500Y-124647258D02*
X217887500Y-124172742D01*
X218932500Y-124647258D02*
X218932500Y-124172742D01*
G04 #@! TO.C,BZ1*
X203910000Y-132660000D02*
X203910000Y-136660000D01*
X212650000Y-137410000D02*
X211030000Y-139030000D01*
X206280000Y-139030000D02*
X211030000Y-139030000D01*
X212650000Y-137410000D02*
X212650000Y-132660000D01*
X210280000Y-130290000D02*
X206280000Y-130290000D01*
G04 #@! TO.C,ESP32S3*
X186095692Y-137230330D02*
X186555311Y-137689949D01*
X180990381Y-142335641D02*
X181450000Y-142795260D01*
X181909619Y-133044257D02*
X181450000Y-132584638D01*
X181450000Y-132584638D02*
X180990381Y-133044257D01*
X176804308Y-138149568D02*
X176344689Y-137689949D01*
X176344689Y-137689949D02*
X176804308Y-137230330D01*
X186555311Y-137689949D02*
X186095692Y-138149568D01*
G04 #@! TO.C,EC17*
X188761252Y-134045000D02*
X188238748Y-134045000D01*
X188761252Y-132575000D02*
X188238748Y-132575000D01*
G04 #@! TO.C,MR6*
X162817064Y-152635000D02*
X162362936Y-152635000D01*
X162817064Y-151165000D02*
X162362936Y-151165000D01*
G04 #@! TO.C,EC51*
X195390580Y-127330000D02*
X195109420Y-127330000D01*
X195390580Y-126310000D02*
X195109420Y-126310000D01*
G04 #@! TO.C,ML1*
X166600000Y-141422064D02*
X166600000Y-140217936D01*
X163880000Y-141422064D02*
X163880000Y-140217936D01*
G04 #@! TO.C,ER2*
X189197258Y-149802500D02*
X188722742Y-149802500D01*
X189197258Y-148757500D02*
X188722742Y-148757500D01*
G04 #@! TO.C,EC18*
X188781252Y-135915000D02*
X188258748Y-135915000D01*
X188781252Y-134445000D02*
X188258748Y-134445000D01*
G04 #@! TO.C,AU1*
X151700000Y-140860000D02*
X148700000Y-140860000D01*
X148700000Y-140860000D02*
X148700000Y-137860000D01*
X148700000Y-137860000D02*
X151700000Y-137860000D01*
X151700000Y-137860000D02*
X151700000Y-140860000D01*
D17*
X152170011Y-137510000D02*
G75*
G03*
X152170011Y-137510000I-200006J0D01*
G01*
D18*
G04 #@! TO.C,TPC2*
X198325000Y-148371252D02*
X198325000Y-147848748D01*
X199795000Y-148371252D02*
X199795000Y-147848748D01*
D19*
G04 #@! TO.C,IMU1*
X174260000Y-140500000D02*
X174260000Y-140650000D01*
X173610000Y-140500000D02*
X174260000Y-140500000D01*
X171160000Y-142950000D02*
X171160000Y-143100000D01*
X171160000Y-143100000D02*
X171810000Y-143100000D01*
X174260000Y-142950000D02*
X174260000Y-143100000D01*
X174260000Y-143100000D02*
X173610000Y-143100000D01*
X171160000Y-140500000D02*
X171160000Y-140650000D01*
X171810000Y-140500000D02*
X171160000Y-140500000D01*
D17*
X170860000Y-141050000D02*
G75*
G03*
X170860000Y-141050000I-100000J0D01*
G01*
D18*
G04 #@! TO.C,EL4*
X179890378Y-150150000D02*
X180689622Y-150150000D01*
X179890378Y-149030000D02*
X180689622Y-149030000D01*
G04 #@! TO.C,EC40*
X186690580Y-142370000D02*
X186409420Y-142370000D01*
X186690580Y-141350000D02*
X186409420Y-141350000D01*
G04 #@! TO.C,AL1*
X151262064Y-133740000D02*
X150057936Y-133740000D01*
X151262064Y-136460000D02*
X150057936Y-136460000D01*
G04 #@! TO.C,ECY2*
X193230000Y-130970000D02*
X197130000Y-130970000D01*
X193230000Y-127770000D02*
X193230000Y-130970000D01*
G04 #@! TO.C,MR5*
X166617064Y-151165000D02*
X166162936Y-151165000D01*
X166617064Y-152635000D02*
X166162936Y-152635000D01*
G04 #@! TO.C,PSR1*
X172827258Y-133362500D02*
X172352742Y-133362500D01*
X172827258Y-132317500D02*
X172352742Y-132317500D01*
G04 #@! TD*
%LPC*%
D23*
G04 #@! TO.C,EC50*
X194385000Y-132090000D03*
X195935000Y-132090000D03*
G04 #@! TD*
D24*
G04 #@! TO.C,MR2*
X160917500Y-136960000D03*
X162742500Y-136960000D03*
G04 #@! TD*
D25*
G04 #@! TO.C,EC15*
X182990000Y-144550000D03*
X181090000Y-144550000D03*
G04 #@! TD*
D26*
G04 #@! TO.C,IMUC2*
X198300000Y-128855000D03*
X198300000Y-127305000D03*
G04 #@! TD*
D24*
G04 #@! TO.C,TPR2*
X199127500Y-145540000D03*
X200952500Y-145540000D03*
G04 #@! TD*
D27*
G04 #@! TO.C,MT_VIN1*
X164925000Y-132200000D03*
G04 #@! TD*
D28*
G04 #@! TO.C,EC12*
X179400000Y-144635000D03*
X179400000Y-146185000D03*
G04 #@! TD*
D29*
G04 #@! TO.C,EC25*
X183990000Y-129000000D03*
X183990000Y-127100000D03*
G04 #@! TD*
D30*
G04 #@! TO.C,ECY1*
X177322500Y-145180000D03*
X177322500Y-142980000D03*
X175522500Y-142980000D03*
X175522500Y-145180000D03*
G04 #@! TD*
D31*
G04 #@! TO.C,TPU1*
X197095000Y-142785000D03*
X195825000Y-142785000D03*
X194555000Y-142785000D03*
X193285000Y-142785000D03*
X193285000Y-147735000D03*
X194555000Y-147735000D03*
X195825000Y-147735000D03*
X197095000Y-147735000D03*
D32*
X195190000Y-145260000D03*
G04 #@! TD*
D33*
G04 #@! TO.C,AC1*
X153822500Y-135860000D03*
X155897500Y-135860000D03*
G04 #@! TD*
D34*
G04 #@! TO.C,AR2*
X153010000Y-139810000D03*
X153010000Y-141810000D03*
G04 #@! TD*
D35*
G04 #@! TO.C,EPS1*
X171805000Y-130425000D03*
X173075000Y-130425000D03*
X174345000Y-130425000D03*
X175615000Y-130425000D03*
X175615000Y-125475000D03*
X174345000Y-125475000D03*
X173075000Y-125475000D03*
X171805000Y-125475000D03*
G04 #@! TD*
D36*
G04 #@! TO.C,SH1*
X202335000Y-128300000D03*
X202335000Y-127800000D03*
X202335000Y-127300000D03*
X202335000Y-126800000D03*
X199985000Y-126800000D03*
D37*
X199985000Y-127300000D03*
D36*
X199985000Y-127800000D03*
X199985000Y-128300000D03*
D38*
X201160000Y-127550000D03*
G04 #@! TD*
D39*
G04 #@! TO.C,Q2*
X214147500Y-125000000D03*
X214147500Y-123100000D03*
X212272500Y-124050000D03*
G04 #@! TD*
D40*
G04 #@! TO.C,LED2*
X202950000Y-141770000D03*
X206130000Y-141780000D03*
X202950000Y-140630000D03*
X206140000Y-140660000D03*
G04 #@! TD*
D41*
G04 #@! TO.C,ICR1*
X173720000Y-137365000D03*
X173720000Y-139015000D03*
G04 #@! TD*
D27*
G04 #@! TO.C,TP1*
X159150000Y-130420000D03*
G04 #@! TD*
D42*
G04 #@! TO.C,U2*
X189565000Y-124270000D03*
X188295000Y-124270000D03*
X187025000Y-124270000D03*
X185755000Y-124270000D03*
X185755000Y-129210000D03*
X187025000Y-129210000D03*
X188295000Y-129210000D03*
X189565000Y-129210000D03*
G04 #@! TD*
D43*
G04 #@! TO.C,PWSWR1*
X200505000Y-151830000D03*
X198855000Y-151830000D03*
G04 #@! TD*
D28*
G04 #@! TO.C,EC24*
X183960000Y-123965000D03*
X183960000Y-125515000D03*
G04 #@! TD*
D44*
G04 #@! TO.C,MR1*
X158840000Y-135147500D03*
X158840000Y-136972500D03*
G04 #@! TD*
D40*
G04 #@! TO.C,LED1*
X198660000Y-132100000D03*
X201840000Y-132110000D03*
X198660000Y-130960000D03*
X201850000Y-130990000D03*
G04 #@! TD*
D24*
G04 #@! TO.C,HLR1*
X159437500Y-145190000D03*
X161262500Y-145190000D03*
G04 #@! TD*
D45*
G04 #@! TO.C,*
X190675000Y-135270000D03*
G04 #@! TD*
D44*
G04 #@! TO.C,TPR1*
X197070000Y-138767500D03*
X197070000Y-140592500D03*
G04 #@! TD*
D46*
G04 #@! TO.C,HLD1*
X155892500Y-143790000D03*
X157767500Y-143790000D03*
G04 #@! TD*
D47*
G04 #@! TO.C,HLL2*
X164590000Y-149910000D03*
X164590000Y-147110000D03*
G04 #@! TD*
D48*
G04 #@! TO.C,J1*
X171780000Y-152515000D03*
X171780000Y-149565000D03*
D49*
X173330000Y-151040000D03*
G04 #@! TD*
D50*
G04 #@! TO.C,MC1*
X168020000Y-140110000D03*
X168020000Y-142010000D03*
G04 #@! TD*
D25*
G04 #@! TO.C,EC14*
X182970000Y-146415000D03*
X181070000Y-146415000D03*
G04 #@! TD*
D51*
G04 #@! TO.C,CBU1*
X145405000Y-129745000D03*
X146675000Y-129745000D03*
X147945000Y-129745000D03*
X149215000Y-129745000D03*
D52*
X149215000Y-124495000D03*
D51*
X147945000Y-124495000D03*
X146675000Y-124495000D03*
X145405000Y-124495000D03*
G04 #@! TD*
D53*
G04 #@! TO.C,MR3*
X200842500Y-136780000D03*
X199017500Y-136780000D03*
G04 #@! TD*
D23*
G04 #@! TO.C,CC1*
X146285000Y-132090000D03*
X147835000Y-132090000D03*
G04 #@! TD*
G04 #@! TO.C,EC20*
X187545000Y-145700000D03*
X189095000Y-145700000D03*
G04 #@! TD*
G04 #@! TO.C,EC38*
X183205000Y-149560000D03*
X184755000Y-149560000D03*
G04 #@! TD*
D28*
G04 #@! TO.C,EC19*
X189260000Y-142025000D03*
X189260000Y-143575000D03*
G04 #@! TD*
D54*
G04 #@! TO.C,L2*
X187452500Y-143670000D03*
X185327500Y-143670000D03*
G04 #@! TD*
D55*
G04 #@! TO.C,LR1*
X197010000Y-135645000D03*
X197010000Y-133995000D03*
G04 #@! TD*
D56*
G04 #@! TO.C,EC37*
X176865000Y-149550000D03*
X175315000Y-149550000D03*
G04 #@! TD*
D57*
G04 #@! TO.C,U1*
X162685000Y-139295000D03*
X161755000Y-139290000D03*
X160805000Y-139290000D03*
D58*
X160790000Y-141970000D03*
X161740000Y-141965000D03*
X162690000Y-141965000D03*
G04 #@! TD*
D59*
G04 #@! TO.C,AUC1*
X187490000Y-131350000D03*
X189390000Y-131350000D03*
G04 #@! TD*
D55*
G04 #@! TO.C,IDR1*
X171900000Y-139005000D03*
X171900000Y-137355000D03*
G04 #@! TD*
D27*
G04 #@! TO.C,MT_GND1*
X162850000Y-126830000D03*
G04 #@! TD*
D28*
G04 #@! TO.C,EC13*
X173630000Y-144565000D03*
X173630000Y-146115000D03*
G04 #@! TD*
D43*
G04 #@! TO.C,ER1*
X189365000Y-140030000D03*
X187715000Y-140030000D03*
G04 #@! TD*
D60*
G04 #@! TO.C,PWDSWT1*
X201050000Y-149677500D03*
X202950000Y-149677500D03*
X202000000Y-147802500D03*
G04 #@! TD*
D24*
G04 #@! TO.C,CR1*
X156537500Y-123790000D03*
X158362500Y-123790000D03*
G04 #@! TD*
D61*
G04 #@! TO.C,*
X170575000Y-135230000D03*
G04 #@! TD*
D62*
G04 #@! TO.C,MD1*
X165370000Y-134357500D03*
X165370000Y-137332500D03*
G04 #@! TD*
D27*
G04 #@! TO.C,TP2*
X152300000Y-132840000D03*
G04 #@! TD*
D63*
G04 #@! TO.C,*
X187980000Y-147820000D03*
G04 #@! TD*
D53*
G04 #@! TO.C,TPR3*
X200592500Y-143730000D03*
X198767500Y-143730000D03*
G04 #@! TD*
D64*
G04 #@! TO.C,ANT1*
X176000000Y-152220000D03*
X185500000Y-152220000D03*
G04 #@! TD*
D65*
G04 #@! TO.C,AR1*
X155830000Y-137880000D03*
X153830000Y-137880000D03*
G04 #@! TD*
D26*
G04 #@! TO.C,IMUC1*
X171790000Y-146105000D03*
X171790000Y-144555000D03*
G04 #@! TD*
D23*
G04 #@! TO.C,CC2*
X151635000Y-123500000D03*
X153185000Y-123500000D03*
G04 #@! TD*
D26*
G04 #@! TO.C,EC16*
X175550000Y-139165000D03*
X175550000Y-137615000D03*
G04 #@! TD*
D53*
G04 #@! TO.C,MR4*
X200812500Y-138610000D03*
X198987500Y-138610000D03*
G04 #@! TD*
D66*
G04 #@! TO.C,Q1*
X146570000Y-147902500D03*
X144670000Y-147902500D03*
X145620000Y-149777500D03*
G04 #@! TD*
D67*
G04 #@! TO.C,LEDSS85*
X214302500Y-137610000D03*
X214302500Y-139510000D03*
X216177500Y-138560000D03*
G04 #@! TD*
D68*
G04 #@! TO.C,L2R1*
X205045000Y-143890000D03*
X206695000Y-143890000D03*
G04 #@! TD*
D69*
G04 #@! TO.C,ESP_FLASH1*
X177735000Y-131745000D03*
X179005000Y-131745000D03*
X180275000Y-131745000D03*
X181545000Y-131745000D03*
X181545000Y-123955000D03*
X180275000Y-123955000D03*
X179005000Y-123955000D03*
X177735000Y-123955000D03*
G04 #@! TD*
D70*
G04 #@! TO.C,L2R2*
X202530000Y-135880000D03*
X202530000Y-133880000D03*
G04 #@! TD*
D65*
G04 #@! TO.C,QR1*
X150430000Y-145630000D03*
X148430000Y-145630000D03*
G04 #@! TD*
D59*
G04 #@! TO.C,HLC3*
X167670000Y-149530000D03*
X169570000Y-149530000D03*
G04 #@! TD*
D26*
G04 #@! TO.C,EC26*
X185750000Y-133265000D03*
X185750000Y-131715000D03*
G04 #@! TD*
D71*
G04 #@! TO.C,RST1*
X156255000Y-141405000D03*
X159595000Y-141405000D03*
G04 #@! TD*
D72*
G04 #@! TO.C,HLD6*
X167670000Y-144595000D03*
X167670000Y-147570000D03*
G04 #@! TD*
D33*
G04 #@! TO.C,AC2*
X149022500Y-143560000D03*
X151097500Y-143560000D03*
G04 #@! TD*
D25*
G04 #@! TO.C,MC2*
X162750000Y-134790000D03*
X160850000Y-134790000D03*
G04 #@! TD*
D55*
G04 #@! TO.C,QR2*
X218410000Y-125235000D03*
X218410000Y-123585000D03*
G04 #@! TD*
D73*
G04 #@! TO.C,BZ1*
X211980000Y-130960000D03*
X204580000Y-130960000D03*
X204580000Y-138360000D03*
G04 #@! TD*
D74*
G04 #@! TO.C,ESP32S3*
X182042202Y-141959106D03*
X182325045Y-141676263D03*
X182607887Y-141393421D03*
X182890730Y-141110578D03*
X183173573Y-140827735D03*
X183456415Y-140544893D03*
X183739258Y-140262050D03*
X184022101Y-139979207D03*
X184304944Y-139696364D03*
X184587786Y-139413522D03*
X184870629Y-139130679D03*
X185153472Y-138847836D03*
X185436314Y-138564994D03*
X185719157Y-138282151D03*
D75*
X185719157Y-137097747D03*
X185436314Y-136814904D03*
X185153472Y-136532062D03*
X184870629Y-136249219D03*
X184587786Y-135966376D03*
X184304944Y-135683534D03*
X184022101Y-135400691D03*
X183739258Y-135117848D03*
X183456415Y-134835005D03*
X183173573Y-134552163D03*
X182890730Y-134269320D03*
X182607887Y-133986477D03*
X182325045Y-133703635D03*
X182042202Y-133420792D03*
D74*
X180857798Y-133420792D03*
X180574955Y-133703635D03*
X180292113Y-133986477D03*
X180009270Y-134269320D03*
X179726427Y-134552163D03*
X179443585Y-134835005D03*
X179160742Y-135117848D03*
X178877899Y-135400691D03*
X178595056Y-135683534D03*
X178312214Y-135966376D03*
X178029371Y-136249219D03*
X177746528Y-136532062D03*
X177463686Y-136814904D03*
X177180843Y-137097747D03*
D75*
X177180843Y-138282151D03*
X177463686Y-138564994D03*
X177746528Y-138847836D03*
X178029371Y-139130679D03*
X178312214Y-139413522D03*
X178595056Y-139696364D03*
X178877899Y-139979207D03*
X179160742Y-140262050D03*
X179443585Y-140544893D03*
X179726427Y-140827735D03*
X180009270Y-141110578D03*
X180292113Y-141393421D03*
X180574955Y-141676263D03*
X180857798Y-141959106D03*
D76*
X181450000Y-137689949D03*
G04 #@! TD*
D25*
G04 #@! TO.C,EC17*
X189450000Y-133310000D03*
X187550000Y-133310000D03*
G04 #@! TD*
D77*
G04 #@! TO.C,*
X176870000Y-147730000D03*
G04 #@! TD*
D53*
G04 #@! TO.C,MR6*
X163502500Y-151900000D03*
X161677500Y-151900000D03*
G04 #@! TD*
D78*
G04 #@! TO.C,*
X180620000Y-122650000D03*
G04 #@! TD*
D56*
G04 #@! TO.C,EC51*
X196025000Y-126820000D03*
X194475000Y-126820000D03*
G04 #@! TD*
D47*
G04 #@! TO.C,ML1*
X165240000Y-142220000D03*
X165240000Y-139420000D03*
G04 #@! TD*
D43*
G04 #@! TO.C,ER2*
X189785000Y-149280000D03*
X188135000Y-149280000D03*
G04 #@! TD*
D25*
G04 #@! TO.C,EC18*
X189470000Y-135180000D03*
X187570000Y-135180000D03*
G04 #@! TD*
D79*
G04 #@! TO.C,AU1*
X151165000Y-137665000D03*
X150225000Y-137670000D03*
D80*
X150200000Y-139385000D03*
D79*
X149240000Y-137670000D03*
D81*
X149270000Y-141060000D03*
X150185000Y-141055000D03*
X151145000Y-141055000D03*
G04 #@! TD*
D29*
G04 #@! TO.C,TPC2*
X199060000Y-149060000D03*
X199060000Y-147160000D03*
G04 #@! TD*
D82*
G04 #@! TO.C,IMU1*
X171535000Y-141050000D03*
X171535000Y-141550000D03*
X171535000Y-142050000D03*
X171535000Y-142550000D03*
D83*
X172210000Y-142725000D03*
X172710000Y-142725000D03*
X173210000Y-142725000D03*
D82*
X173885000Y-142550000D03*
X173885000Y-142050000D03*
X173885000Y-141550000D03*
X173885000Y-141050000D03*
D83*
X173210000Y-140875000D03*
X172710000Y-140875000D03*
X172210000Y-140875000D03*
G04 #@! TD*
D84*
G04 #@! TO.C,EL4*
X179227500Y-149590000D03*
X181352500Y-149590000D03*
G04 #@! TD*
D56*
G04 #@! TO.C,EC40*
X187325000Y-141860000D03*
X185775000Y-141860000D03*
G04 #@! TD*
D85*
G04 #@! TO.C,AL1*
X152060000Y-135100000D03*
X149260000Y-135100000D03*
G04 #@! TD*
D86*
G04 #@! TO.C,ECY2*
X194080000Y-130270000D03*
X196280000Y-130270000D03*
X196280000Y-128470000D03*
X194080000Y-128470000D03*
G04 #@! TD*
D53*
G04 #@! TO.C,MR5*
X167302500Y-151900000D03*
X165477500Y-151900000D03*
G04 #@! TD*
D43*
G04 #@! TO.C,PSR1*
X173415000Y-132840000D03*
X171765000Y-132840000D03*
G04 #@! TD*
D87*
G04 #@! TO.C,HiLink1*
X194170000Y-134520000D03*
D88*
X194170000Y-139520000D03*
X164770000Y-129320000D03*
X164770000Y-144720000D03*
G04 #@! TD*
D89*
G04 #@! TO.C,*
X174095000Y-151135000D03*
G04 #@! TD*
D90*
G04 #@! TO.C,PF1*
X220050000Y-150560000D03*
X218850000Y-145460000D03*
G04 #@! TD*
D91*
G04 #@! TO.C,PJ2*
X220330000Y-128800000D03*
D92*
X220330000Y-127530000D03*
X220330000Y-126260000D03*
G04 #@! TD*
D93*
G04 #@! TO.C,I2C1*
X159710000Y-148295000D03*
D94*
X156210000Y-148295000D03*
X152710000Y-148295000D03*
X149210000Y-148295000D03*
G04 #@! TD*
D91*
G04 #@! TO.C,CJ1*
X164720000Y-125400000D03*
D92*
X165990000Y-125400000D03*
G04 #@! TD*
D95*
G04 #@! TO.C,HLL1*
X208262500Y-133962500D03*
D96*
X208190000Y-141030000D03*
X199512500Y-134032500D03*
X199435000Y-141080000D03*
G04 #@! TD*
D97*
G04 #@! TO.C,ICSP1*
X193820000Y-150790000D03*
X190010000Y-150790000D03*
X192550000Y-150790000D03*
X188740000Y-150790000D03*
X191280000Y-150790000D03*
D98*
X193185000Y-151945000D03*
X191915000Y-151945000D03*
X190645000Y-151945000D03*
X189375000Y-151945000D03*
G04 #@! TD*
D99*
G04 #@! TO.C,HLV1*
X220870000Y-141680000D03*
X219470000Y-134180000D03*
G04 #@! TD*
D89*
G04 #@! TO.C,*
X174720000Y-151140000D03*
G04 #@! TD*
D91*
G04 #@! TO.C,PJ3*
X145350000Y-142955000D03*
D92*
X145350000Y-144225000D03*
X145350000Y-145495000D03*
G04 #@! TD*
D100*
G04 #@! TO.C,TXS1*
X155280000Y-133552500D03*
X156280000Y-133552500D03*
X156280000Y-134552500D03*
X155280000Y-134552500D03*
G04 #@! TD*
D96*
G04 #@! TO.C,HLC1*
X214850000Y-142600000D03*
X214850000Y-132600000D03*
G04 #@! TD*
D93*
G04 #@! TO.C,CANBUS1*
X152920000Y-127215000D03*
D94*
X156420000Y-127215000D03*
X159920000Y-127215000D03*
G04 #@! TD*
D101*
G04 #@! TO.C,PWR220*
X211980000Y-148180000D03*
D102*
X206900000Y-148180000D03*
G04 #@! TD*
D93*
G04 #@! TO.C,I2C2*
X205090000Y-127055000D03*
D94*
X208590000Y-127055000D03*
X212090000Y-127055000D03*
X215590000Y-127055000D03*
G04 #@! TD*
M02*
