%TF.GenerationSoftware,KiCad,Pcbnew,(6.0.9)*%
%TF.CreationDate,2022-11-26T17:41:11+01:00*%
%TF.ProjectId,LDAD_Junction_Box_79x31mm_AC220V,4c444144-5f4a-4756-9e63-74696f6e5f42,5.3*%
%TF.SameCoordinates,Original*%
%TF.FileFunction,Drillmap*%
%TF.FilePolarity,Positive*%
%FSLAX45Y45*%
G04 Gerber Fmt 4.5, Leading zero omitted, Abs format (unit mm)*
G04 Created by KiCad (PCBNEW (6.0.9)) date 2022-11-26 17:41:11*
%MOMM*%
%LPD*%
G01*
G04 APERTURE LIST*
%ADD10C,0.200000*%
%ADD11C,0.030000*%
%ADD12C,0.040000*%
%ADD13C,0.065000*%
%ADD14C,0.080000*%
%ADD15C,0.100000*%
%ADD16C,0.101000*%
%ADD17C,0.130000*%
%ADD18C,0.152000*%
G04 APERTURE END LIST*
D10*
D11*
X15513000Y-13340250D02*
X15543000Y-13370250D01*
X15543000Y-13340250D02*
X15513000Y-13370250D01*
X15513000Y-13440250D02*
X15543000Y-13470250D01*
X15543000Y-13440250D02*
X15513000Y-13470250D01*
X15613000Y-13340250D02*
X15643000Y-13370250D01*
X15643000Y-13340250D02*
X15613000Y-13370250D01*
X15613000Y-13440250D02*
X15643000Y-13470250D01*
X15643000Y-13440250D02*
X15613000Y-13470250D01*
D12*
X14457000Y-12507000D02*
G75*
G03*
X14457000Y-12507000I-20000J0D01*
G01*
X14466000Y-12962000D02*
G75*
G03*
X14466000Y-12962000I-20000J0D01*
G01*
X14486000Y-13634000D02*
G75*
G03*
X14486000Y-13634000I-20000J0D01*
G01*
X14487000Y-14663000D02*
G75*
G03*
X14487000Y-14663000I-20000J0D01*
G01*
X14724000Y-14510000D02*
G75*
G03*
X14724000Y-14510000I-20000J0D01*
G01*
X14766000Y-12614000D02*
G75*
G03*
X14766000Y-12614000I-20000J0D01*
G01*
X14859000Y-13958000D02*
G75*
G03*
X14859000Y-13958000I-20000J0D01*
G01*
X14900000Y-15251000D02*
G75*
G03*
X14900000Y-15251000I-20000J0D01*
G01*
X15041000Y-12977000D02*
G75*
G03*
X15041000Y-12977000I-20000J0D01*
G01*
X15054000Y-12739000D02*
G75*
G03*
X15054000Y-12739000I-20000J0D01*
G01*
X15084000Y-15077000D02*
G75*
G03*
X15084000Y-15077000I-20000J0D01*
G01*
X15119000Y-12459000D02*
G75*
G03*
X15119000Y-12459000I-20000J0D01*
G01*
X15175000Y-13943000D02*
G75*
G03*
X15175000Y-13943000I-20000J0D01*
G01*
X15224000Y-14639000D02*
G75*
G03*
X15224000Y-14639000I-20000J0D01*
G01*
X15234000Y-14111000D02*
G75*
G03*
X15234000Y-14111000I-20000J0D01*
G01*
X15253000Y-14282000D02*
G75*
G03*
X15253000Y-14282000I-20000J0D01*
G01*
X15329000Y-13013000D02*
G75*
G03*
X15329000Y-13013000I-20000J0D01*
G01*
X15363000Y-14297000D02*
G75*
G03*
X15363000Y-14297000I-20000J0D01*
G01*
X15402000Y-13229000D02*
G75*
G03*
X15402000Y-13229000I-20000J0D01*
G01*
X15433000Y-13012000D02*
G75*
G03*
X15433000Y-13012000I-20000J0D01*
G01*
X15447000Y-13147000D02*
G75*
G03*
X15447000Y-13147000I-20000J0D01*
G01*
X15475000Y-12333000D02*
G75*
G03*
X15475000Y-12333000I-20000J0D01*
G01*
X15529000Y-14536000D02*
G75*
G03*
X15529000Y-14536000I-20000J0D01*
G01*
X15537000Y-13914000D02*
G75*
G03*
X15537000Y-13914000I-20000J0D01*
G01*
X15540000Y-12431000D02*
G75*
G03*
X15540000Y-12431000I-20000J0D01*
G01*
X15554000Y-14242000D02*
G75*
G03*
X15554000Y-14242000I-20000J0D01*
G01*
X15744000Y-13238000D02*
G75*
G03*
X15744000Y-13238000I-20000J0D01*
G01*
X15783000Y-14212000D02*
G75*
G03*
X15783000Y-14212000I-20000J0D01*
G01*
X15856000Y-13220000D02*
G75*
G03*
X15856000Y-13220000I-20000J0D01*
G01*
X15909000Y-13837000D02*
G75*
G03*
X15909000Y-13837000I-20000J0D01*
G01*
X15939000Y-14353000D02*
G75*
G03*
X15939000Y-14353000I-20000J0D01*
G01*
X15951000Y-13267000D02*
G75*
G03*
X15951000Y-13267000I-20000J0D01*
G01*
X16003000Y-15197000D02*
G75*
G03*
X16003000Y-15197000I-20000J0D01*
G01*
X16023000Y-13591000D02*
G75*
G03*
X16023000Y-13591000I-20000J0D01*
G01*
X16077000Y-14644000D02*
G75*
G03*
X16077000Y-14644000I-20000J0D01*
G01*
X16117000Y-13048000D02*
G75*
G03*
X16117000Y-13048000I-20000J0D01*
G01*
X16207000Y-14794000D02*
G75*
G03*
X16207000Y-14794000I-20000J0D01*
G01*
X16210000Y-13790000D02*
G75*
G03*
X16210000Y-13790000I-20000J0D01*
G01*
X16237000Y-14986000D02*
G75*
G03*
X16237000Y-14986000I-20000J0D01*
G01*
X16247000Y-14584000D02*
G75*
G03*
X16247000Y-14584000I-20000J0D01*
G01*
X16391000Y-13515000D02*
G75*
G03*
X16391000Y-13515000I-20000J0D01*
G01*
X16674000Y-14991000D02*
G75*
G03*
X16674000Y-14991000I-20000J0D01*
G01*
X16715000Y-14328000D02*
G75*
G03*
X16715000Y-14328000I-20000J0D01*
G01*
X16728000Y-12776000D02*
G75*
G03*
X16728000Y-12776000I-20000J0D01*
G01*
X16734000Y-12662000D02*
G75*
G03*
X16734000Y-12662000I-20000J0D01*
G01*
X16823000Y-14312000D02*
G75*
G03*
X16823000Y-14312000I-20000J0D01*
G01*
X16827000Y-13515000D02*
G75*
G03*
X16827000Y-13515000I-20000J0D01*
G01*
X16835000Y-12836000D02*
G75*
G03*
X16835000Y-12836000I-20000J0D01*
G01*
X16861000Y-13041000D02*
G75*
G03*
X16861000Y-13041000I-20000J0D01*
G01*
X16862000Y-12729000D02*
G75*
G03*
X16862000Y-12729000I-20000J0D01*
G01*
X16935000Y-12947000D02*
G75*
G03*
X16935000Y-12947000I-20000J0D01*
G01*
X16945000Y-13122000D02*
G75*
G03*
X16945000Y-13122000I-20000J0D01*
G01*
X16992000Y-13773000D02*
G75*
G03*
X16992000Y-13773000I-20000J0D01*
G01*
X17069000Y-13271000D02*
G75*
G03*
X17069000Y-13271000I-20000J0D01*
G01*
X17074000Y-14175000D02*
G75*
G03*
X17074000Y-14175000I-20000J0D01*
G01*
X17086000Y-14762000D02*
G75*
G03*
X17086000Y-14762000I-20000J0D01*
G01*
X17089000Y-13511000D02*
G75*
G03*
X17089000Y-13511000I-20000J0D01*
G01*
X17099000Y-12290000D02*
G75*
G03*
X17099000Y-12290000I-20000J0D01*
G01*
X17176000Y-14011000D02*
G75*
G03*
X17176000Y-14011000I-20000J0D01*
G01*
X17187000Y-14342000D02*
G75*
G03*
X17187000Y-14342000I-20000J0D01*
G01*
X17290000Y-13989000D02*
G75*
G03*
X17290000Y-13989000I-20000J0D01*
G01*
X17295000Y-14192000D02*
G75*
G03*
X17295000Y-14192000I-20000J0D01*
G01*
X17301000Y-13785000D02*
G75*
G03*
X17301000Y-13785000I-20000J0D01*
G01*
X17367000Y-12841000D02*
G75*
G03*
X17367000Y-12841000I-20000J0D01*
G01*
X17372000Y-13460000D02*
G75*
G03*
X17372000Y-13460000I-20000J0D01*
G01*
X17380500Y-13989500D02*
G75*
G03*
X17380500Y-13989500I-20000J0D01*
G01*
X17468000Y-15026000D02*
G75*
G03*
X17468000Y-15026000I-20000J0D01*
G01*
X17488000Y-13560000D02*
G75*
G03*
X17488000Y-13560000I-20000J0D01*
G01*
X17574000Y-14083000D02*
G75*
G03*
X17574000Y-14083000I-20000J0D01*
G01*
X17581000Y-12783000D02*
G75*
G03*
X17581000Y-12783000I-20000J0D01*
G01*
X17601000Y-13628000D02*
G75*
G03*
X17601000Y-13628000I-20000J0D01*
G01*
X17602000Y-13507000D02*
G75*
G03*
X17602000Y-13507000I-20000J0D01*
G01*
X17650000Y-14181000D02*
G75*
G03*
X17650000Y-14181000I-20000J0D01*
G01*
X17660000Y-13880000D02*
G75*
G03*
X17660000Y-13880000I-20000J0D01*
G01*
X17667000Y-12782000D02*
G75*
G03*
X17667000Y-12782000I-20000J0D01*
G01*
X17671000Y-13203000D02*
G75*
G03*
X17671000Y-13203000I-20000J0D01*
G01*
X17689000Y-14086000D02*
G75*
G03*
X17689000Y-14086000I-20000J0D01*
G01*
X17701000Y-14763000D02*
G75*
G03*
X17701000Y-14763000I-20000J0D01*
G01*
X17769000Y-14083000D02*
G75*
G03*
X17769000Y-14083000I-20000J0D01*
G01*
X17823000Y-13270000D02*
G75*
G03*
X17823000Y-13270000I-20000J0D01*
G01*
X17857000Y-13768000D02*
G75*
G03*
X17857000Y-13768000I-20000J0D01*
G01*
X17863000Y-12997000D02*
G75*
G03*
X17863000Y-12997000I-20000J0D01*
G01*
X17899000Y-14215000D02*
G75*
G03*
X17899000Y-14215000I-20000J0D01*
G01*
X17993000Y-13628000D02*
G75*
G03*
X17993000Y-13628000I-20000J0D01*
G01*
X17997000Y-13893000D02*
G75*
G03*
X17997000Y-13893000I-20000J0D01*
G01*
X18113000Y-14003000D02*
G75*
G03*
X18113000Y-14003000I-20000J0D01*
G01*
X18124000Y-13751000D02*
G75*
G03*
X18124000Y-13751000I-20000J0D01*
G01*
X18141000Y-13486000D02*
G75*
G03*
X18141000Y-13486000I-20000J0D01*
G01*
X18146000Y-14246000D02*
G75*
G03*
X18146000Y-14246000I-20000J0D01*
G01*
X18159000Y-13042000D02*
G75*
G03*
X18159000Y-13042000I-20000J0D01*
G01*
X18259000Y-13871000D02*
G75*
G03*
X18259000Y-13871000I-20000J0D01*
G01*
X18268000Y-13611000D02*
G75*
G03*
X18268000Y-13611000I-20000J0D01*
G01*
X18298000Y-13015000D02*
G75*
G03*
X18298000Y-13015000I-20000J0D01*
G01*
X18311000Y-13301000D02*
G75*
G03*
X18311000Y-13301000I-20000J0D01*
G01*
X18385000Y-14490000D02*
G75*
G03*
X18385000Y-14490000I-20000J0D01*
G01*
X18405000Y-13733000D02*
G75*
G03*
X18405000Y-13733000I-20000J0D01*
G01*
X18436000Y-14137000D02*
G75*
G03*
X18436000Y-14137000I-20000J0D01*
G01*
X18468000Y-15076000D02*
G75*
G03*
X18468000Y-15076000I-20000J0D01*
G01*
X18473000Y-13175000D02*
G75*
G03*
X18473000Y-13175000I-20000J0D01*
G01*
X18482000Y-14197000D02*
G75*
G03*
X18482000Y-14197000I-20000J0D01*
G01*
X18488000Y-14085000D02*
G75*
G03*
X18488000Y-14085000I-20000J0D01*
G01*
X18500000Y-13251000D02*
G75*
G03*
X18500000Y-13251000I-20000J0D01*
G01*
X18514000Y-14261000D02*
G75*
G03*
X18514000Y-14261000I-20000J0D01*
G01*
X18529000Y-13056000D02*
G75*
G03*
X18529000Y-13056000I-20000J0D01*
G01*
X18544000Y-13443000D02*
G75*
G03*
X18544000Y-13443000I-20000J0D01*
G01*
X18575000Y-14061000D02*
G75*
G03*
X18575000Y-14061000I-20000J0D01*
G01*
X18588000Y-14791000D02*
G75*
G03*
X18588000Y-14791000I-20000J0D01*
G01*
X18610000Y-12757000D02*
G75*
G03*
X18610000Y-12757000I-20000J0D01*
G01*
X18617000Y-13440000D02*
G75*
G03*
X18617000Y-13440000I-20000J0D01*
G01*
X18619000Y-13780000D02*
G75*
G03*
X18619000Y-13780000I-20000J0D01*
G01*
X18647000Y-13627000D02*
G75*
G03*
X18647000Y-13627000I-20000J0D01*
G01*
X18655000Y-14023000D02*
G75*
G03*
X18655000Y-14023000I-20000J0D01*
G01*
X18666000Y-13546000D02*
G75*
G03*
X18666000Y-13546000I-20000J0D01*
G01*
X18681000Y-13474000D02*
G75*
G03*
X18681000Y-13474000I-20000J0D01*
G01*
X18690000Y-13774000D02*
G75*
G03*
X18690000Y-13774000I-20000J0D01*
G01*
X18701000Y-13228000D02*
G75*
G03*
X18701000Y-13228000I-20000J0D01*
G01*
X18714000Y-15195000D02*
G75*
G03*
X18714000Y-15195000I-20000J0D01*
G01*
X18724000Y-12762000D02*
G75*
G03*
X18724000Y-12762000I-20000J0D01*
G01*
X18725000Y-14914000D02*
G75*
G03*
X18725000Y-14914000I-20000J0D01*
G01*
X18725000Y-15018000D02*
G75*
G03*
X18725000Y-15018000I-20000J0D01*
G01*
X18759000Y-15292000D02*
G75*
G03*
X18759000Y-15292000I-20000J0D01*
G01*
X18769000Y-13796000D02*
G75*
G03*
X18769000Y-13796000I-20000J0D01*
G01*
X18796000Y-13646000D02*
G75*
G03*
X18796000Y-13646000I-20000J0D01*
G01*
X18801000Y-13877000D02*
G75*
G03*
X18801000Y-13877000I-20000J0D01*
G01*
X18814000Y-14123000D02*
G75*
G03*
X18814000Y-14123000I-20000J0D01*
G01*
X18819000Y-14462000D02*
G75*
G03*
X18819000Y-14462000I-20000J0D01*
G01*
X18828000Y-13732000D02*
G75*
G03*
X18828000Y-13732000I-20000J0D01*
G01*
X18841000Y-15161000D02*
G75*
G03*
X18841000Y-15161000I-20000J0D01*
G01*
X18848000Y-12693000D02*
G75*
G03*
X18848000Y-12693000I-20000J0D01*
G01*
X18873000Y-13647000D02*
G75*
G03*
X18873000Y-13647000I-20000J0D01*
G01*
X18959000Y-14089000D02*
G75*
G03*
X18959000Y-14089000I-20000J0D01*
G01*
X18964000Y-13257000D02*
G75*
G03*
X18964000Y-13257000I-20000J0D01*
G01*
X18964000Y-14769000D02*
G75*
G03*
X18964000Y-14769000I-20000J0D01*
G01*
X18966000Y-13189000D02*
G75*
G03*
X18966000Y-13189000I-20000J0D01*
G01*
X19092000Y-12280000D02*
G75*
G03*
X19092000Y-12280000I-20000J0D01*
G01*
X19093000Y-14197000D02*
G75*
G03*
X19093000Y-14197000I-20000J0D01*
G01*
X19110000Y-14961000D02*
G75*
G03*
X19110000Y-14961000I-20000J0D01*
G01*
X19168000Y-14646000D02*
G75*
G03*
X19168000Y-14646000I-20000J0D01*
G01*
X19173000Y-14498000D02*
G75*
G03*
X19173000Y-14498000I-20000J0D01*
G01*
X19174000Y-12493000D02*
G75*
G03*
X19174000Y-12493000I-20000J0D01*
G01*
X19174000Y-12604000D02*
G75*
G03*
X19174000Y-12604000I-20000J0D01*
G01*
X19203000Y-14933000D02*
G75*
G03*
X19203000Y-14933000I-20000J0D01*
G01*
X19255000Y-14383000D02*
G75*
G03*
X19255000Y-14383000I-20000J0D01*
G01*
X19256500Y-14186500D02*
G75*
G03*
X19256500Y-14186500I-20000J0D01*
G01*
X19258000Y-14050000D02*
G75*
G03*
X19258000Y-14050000I-20000J0D01*
G01*
X19312000Y-13038000D02*
G75*
G03*
X19312000Y-13038000I-20000J0D01*
G01*
X19313000Y-12492000D02*
G75*
G03*
X19313000Y-12492000I-20000J0D01*
G01*
X19313000Y-12596000D02*
G75*
G03*
X19313000Y-12596000I-20000J0D01*
G01*
X19346000Y-13108000D02*
G75*
G03*
X19346000Y-13108000I-20000J0D01*
G01*
X19348000Y-13765000D02*
G75*
G03*
X19348000Y-13765000I-20000J0D01*
G01*
X19372000Y-14931000D02*
G75*
G03*
X19372000Y-14931000I-20000J0D01*
G01*
X19432000Y-14459000D02*
G75*
G03*
X19432000Y-14459000I-20000J0D01*
G01*
X19438000Y-13704000D02*
G75*
G03*
X19438000Y-13704000I-20000J0D01*
G01*
X19498000Y-14883000D02*
G75*
G03*
X19498000Y-14883000I-20000J0D01*
G01*
X19615000Y-14885000D02*
G75*
G03*
X19615000Y-14885000I-20000J0D01*
G01*
X19776000Y-14464000D02*
G75*
G03*
X19776000Y-14464000I-20000J0D01*
G01*
X19792000Y-14383000D02*
G75*
G03*
X19792000Y-14383000I-20000J0D01*
G01*
X19829000Y-14549000D02*
G75*
G03*
X19829000Y-14549000I-20000J0D01*
G01*
X19891000Y-15008000D02*
G75*
G03*
X19891000Y-15008000I-20000J0D01*
G01*
X19892000Y-12609000D02*
G75*
G03*
X19892000Y-12609000I-20000J0D01*
G01*
X20013000Y-13118000D02*
G75*
G03*
X20013000Y-13118000I-20000J0D01*
G01*
X20016000Y-15092000D02*
G75*
G03*
X20016000Y-15092000I-20000J0D01*
G01*
X20041000Y-12936000D02*
G75*
G03*
X20041000Y-12936000I-20000J0D01*
G01*
X20091000Y-13179000D02*
G75*
G03*
X20091000Y-13179000I-20000J0D01*
G01*
X20107000Y-14782000D02*
G75*
G03*
X20107000Y-14782000I-20000J0D01*
G01*
X20115000Y-14668000D02*
G75*
G03*
X20115000Y-14668000I-20000J0D01*
G01*
X20132000Y-14234000D02*
G75*
G03*
X20132000Y-14234000I-20000J0D01*
G01*
X20181000Y-14080000D02*
G75*
G03*
X20181000Y-14080000I-20000J0D01*
G01*
X20284500Y-12596500D02*
G75*
G03*
X20284500Y-12596500I-20000J0D01*
G01*
X20315000Y-14305000D02*
G75*
G03*
X20315000Y-14305000I-20000J0D01*
G01*
X20319000Y-12893000D02*
G75*
G03*
X20319000Y-12893000I-20000J0D01*
G01*
X20427000Y-14257000D02*
G75*
G03*
X20427000Y-14257000I-20000J0D01*
G01*
X20429000Y-14084000D02*
G75*
G03*
X20429000Y-14084000I-20000J0D01*
G01*
X20509000Y-14507000D02*
G75*
G03*
X20509000Y-14507000I-20000J0D01*
G01*
X20717000Y-13094000D02*
G75*
G03*
X20717000Y-13094000I-20000J0D01*
G01*
X20866000Y-12358000D02*
G75*
G03*
X20866000Y-12358000I-20000J0D01*
G01*
X21835000Y-12659000D02*
G75*
G03*
X21835000Y-12659000I-20000J0D01*
G01*
X21852000Y-12921000D02*
G75*
G03*
X21852000Y-12921000I-20000J0D01*
G01*
D13*
X14535000Y-14263000D02*
X14535000Y-14328000D01*
X14502500Y-14295500D02*
X14567500Y-14295500D01*
X14535000Y-14390000D02*
X14535000Y-14455000D01*
X14502500Y-14422500D02*
X14567500Y-14422500D01*
X14535000Y-14517000D02*
X14535000Y-14582000D01*
X14502500Y-14549500D02*
X14567500Y-14549500D01*
X16472000Y-12507500D02*
X16472000Y-12572500D01*
X16439500Y-12540000D02*
X16504500Y-12540000D01*
X16599000Y-12507500D02*
X16599000Y-12572500D01*
X16566500Y-12540000D02*
X16631500Y-12540000D01*
X22033000Y-12593500D02*
X22033000Y-12658500D01*
X22000500Y-12626000D02*
X22065500Y-12626000D01*
X22033000Y-12720500D02*
X22033000Y-12785500D01*
X22000500Y-12753000D02*
X22065500Y-12753000D01*
X22033000Y-12847500D02*
X22033000Y-12912500D01*
X22000500Y-12880000D02*
X22065500Y-12880000D01*
D14*
X21975285Y-13446284D02*
X21975285Y-13389715D01*
X21918716Y-13389715D01*
X21918716Y-13446284D01*
X21975285Y-13446284D01*
X22115285Y-14196284D02*
X22115285Y-14139715D01*
X22058716Y-14139715D01*
X22058716Y-14196284D01*
X22115285Y-14196284D01*
D15*
X16477000Y-12982000D02*
X16527000Y-12932000D01*
X16477000Y-12882000D01*
X16427000Y-12932000D01*
X16477000Y-12982000D01*
X16477000Y-14522000D02*
X16527000Y-14472000D01*
X16477000Y-14422000D01*
X16427000Y-14472000D01*
X16477000Y-14522000D01*
X19417000Y-13502000D02*
X19467000Y-13452000D01*
X19417000Y-13402000D01*
X19367000Y-13452000D01*
X19417000Y-13502000D01*
X19417000Y-14002000D02*
X19467000Y-13952000D01*
X19417000Y-13902000D01*
X19367000Y-13952000D01*
X19417000Y-14002000D01*
X19943500Y-14158000D02*
X19993500Y-14108000D01*
X19943500Y-14058000D01*
X19893500Y-14108000D01*
X19943500Y-14158000D01*
X19951250Y-13453250D02*
X20001250Y-13403250D01*
X19951250Y-13353250D01*
X19901250Y-13403250D01*
X19951250Y-13453250D01*
X20819000Y-14153000D02*
X20869000Y-14103000D01*
X20819000Y-14053000D01*
X20769000Y-14103000D01*
X20819000Y-14153000D01*
X20826250Y-13446250D02*
X20876250Y-13396250D01*
X20826250Y-13346250D01*
X20776250Y-13396250D01*
X20826250Y-13446250D01*
X21485000Y-13310000D02*
X21535000Y-13260000D01*
X21485000Y-13210000D01*
X21435000Y-13260000D01*
X21485000Y-13310000D01*
X21485000Y-14310000D02*
X21535000Y-14260000D01*
X21485000Y-14210000D01*
X21435000Y-14260000D01*
X21485000Y-14310000D01*
D16*
X21834500Y-14495500D02*
X21935500Y-14596500D01*
X21935500Y-14495500D02*
X21834500Y-14596500D01*
X21935500Y-14546000D02*
G75*
G03*
X21935500Y-14546000I-50500J0D01*
G01*
X21954500Y-15005500D02*
X22055500Y-15106500D01*
X22055500Y-15005500D02*
X21954500Y-15106500D01*
X22055500Y-15056000D02*
G75*
G03*
X22055500Y-15056000I-50500J0D01*
G01*
D17*
X14856000Y-14764500D02*
X14986000Y-14894500D01*
X14986000Y-14764500D02*
X14856000Y-14894500D01*
X14921000Y-14764500D02*
X14921000Y-14894500D01*
X14856000Y-14829500D02*
X14986000Y-14829500D01*
X15206000Y-14764500D02*
X15336000Y-14894500D01*
X15336000Y-14764500D02*
X15206000Y-14894500D01*
X15271000Y-14764500D02*
X15271000Y-14894500D01*
X15206000Y-14829500D02*
X15336000Y-14829500D01*
X15227000Y-12656500D02*
X15357000Y-12786500D01*
X15357000Y-12656500D02*
X15227000Y-12786500D01*
X15292000Y-12656500D02*
X15292000Y-12786500D01*
X15227000Y-12721500D02*
X15357000Y-12721500D01*
X15556000Y-14764500D02*
X15686000Y-14894500D01*
X15686000Y-14764500D02*
X15556000Y-14894500D01*
X15621000Y-14764500D02*
X15621000Y-14894500D01*
X15556000Y-14829500D02*
X15686000Y-14829500D01*
X15577000Y-12656500D02*
X15707000Y-12786500D01*
X15707000Y-12656500D02*
X15577000Y-12786500D01*
X15642000Y-12656500D02*
X15642000Y-12786500D01*
X15577000Y-12721500D02*
X15707000Y-12721500D01*
X15906000Y-14764500D02*
X16036000Y-14894500D01*
X16036000Y-14764500D02*
X15906000Y-14894500D01*
X15971000Y-14764500D02*
X15971000Y-14894500D01*
X15906000Y-14829500D02*
X16036000Y-14829500D01*
X15927000Y-12656500D02*
X16057000Y-12786500D01*
X16057000Y-12656500D02*
X15927000Y-12786500D01*
X15992000Y-12656500D02*
X15992000Y-12786500D01*
X15927000Y-12721500D02*
X16057000Y-12721500D01*
X20444000Y-12640500D02*
X20574000Y-12770500D01*
X20574000Y-12640500D02*
X20444000Y-12770500D01*
X20509000Y-12640500D02*
X20509000Y-12770500D01*
X20444000Y-12705500D02*
X20574000Y-12705500D01*
X20794000Y-12640500D02*
X20924000Y-12770500D01*
X20924000Y-12640500D02*
X20794000Y-12770500D01*
X20859000Y-12640500D02*
X20859000Y-12770500D01*
X20794000Y-12705500D02*
X20924000Y-12705500D01*
X21144000Y-12640500D02*
X21274000Y-12770500D01*
X21274000Y-12640500D02*
X21144000Y-12770500D01*
X21209000Y-12640500D02*
X21209000Y-12770500D01*
X21144000Y-12705500D02*
X21274000Y-12705500D01*
X21494000Y-12640500D02*
X21624000Y-12770500D01*
X21624000Y-12640500D02*
X21494000Y-12770500D01*
X21559000Y-12640500D02*
X21559000Y-12770500D01*
X21494000Y-12705500D02*
X21624000Y-12705500D01*
D18*
X20614000Y-14742000D02*
X20766000Y-14894000D01*
X20766000Y-14742000D02*
X20614000Y-14894000D01*
X20743741Y-14871741D02*
X20743741Y-14764259D01*
X20636259Y-14764259D01*
X20636259Y-14871741D01*
X20743741Y-14871741D01*
X21122000Y-14742000D02*
X21274000Y-14894000D01*
X21274000Y-14742000D02*
X21122000Y-14894000D01*
X21251741Y-14871741D02*
X21251741Y-14764259D01*
X21144259Y-14764259D01*
X21144259Y-14871741D01*
X21251741Y-14871741D01*
D10*
X14621619Y-15655976D02*
X14621619Y-15455976D01*
X14669238Y-15455976D01*
X14697809Y-15465500D01*
X14716857Y-15484548D01*
X14726381Y-15503595D01*
X14735905Y-15541690D01*
X14735905Y-15570262D01*
X14726381Y-15608357D01*
X14716857Y-15627405D01*
X14697809Y-15646452D01*
X14669238Y-15655976D01*
X14621619Y-15655976D01*
X14821619Y-15655976D02*
X14821619Y-15522643D01*
X14821619Y-15560738D02*
X14831143Y-15541690D01*
X14840667Y-15532167D01*
X14859714Y-15522643D01*
X14878762Y-15522643D01*
X14945428Y-15655976D02*
X14945428Y-15522643D01*
X14945428Y-15455976D02*
X14935905Y-15465500D01*
X14945428Y-15475024D01*
X14954952Y-15465500D01*
X14945428Y-15455976D01*
X14945428Y-15475024D01*
X15069238Y-15655976D02*
X15050190Y-15646452D01*
X15040667Y-15627405D01*
X15040667Y-15455976D01*
X15174000Y-15655976D02*
X15154952Y-15646452D01*
X15145428Y-15627405D01*
X15145428Y-15455976D01*
X15402571Y-15655976D02*
X15402571Y-15455976D01*
X15469238Y-15598833D01*
X15535905Y-15455976D01*
X15535905Y-15655976D01*
X15716857Y-15655976D02*
X15716857Y-15551214D01*
X15707333Y-15532167D01*
X15688286Y-15522643D01*
X15650190Y-15522643D01*
X15631143Y-15532167D01*
X15716857Y-15646452D02*
X15697809Y-15655976D01*
X15650190Y-15655976D01*
X15631143Y-15646452D01*
X15621619Y-15627405D01*
X15621619Y-15608357D01*
X15631143Y-15589309D01*
X15650190Y-15579786D01*
X15697809Y-15579786D01*
X15716857Y-15570262D01*
X15812095Y-15522643D02*
X15812095Y-15722643D01*
X15812095Y-15532167D02*
X15831143Y-15522643D01*
X15869238Y-15522643D01*
X15888286Y-15532167D01*
X15897809Y-15541690D01*
X15907333Y-15560738D01*
X15907333Y-15617881D01*
X15897809Y-15636928D01*
X15888286Y-15646452D01*
X15869238Y-15655976D01*
X15831143Y-15655976D01*
X15812095Y-15646452D01*
X15993048Y-15636928D02*
X16002571Y-15646452D01*
X15993048Y-15655976D01*
X15983524Y-15646452D01*
X15993048Y-15636928D01*
X15993048Y-15655976D01*
X15993048Y-15532167D02*
X16002571Y-15541690D01*
X15993048Y-15551214D01*
X15983524Y-15541690D01*
X15993048Y-15532167D01*
X15993048Y-15551214D01*
D11*
X14334000Y-15970500D02*
X14364000Y-16000500D01*
X14364000Y-15970500D02*
X14334000Y-16000500D01*
D10*
X14659714Y-15875976D02*
X14678762Y-15875976D01*
X14697809Y-15885500D01*
X14707333Y-15895024D01*
X14716857Y-15914071D01*
X14726381Y-15952167D01*
X14726381Y-15999786D01*
X14716857Y-16037881D01*
X14707333Y-16056928D01*
X14697809Y-16066452D01*
X14678762Y-16075976D01*
X14659714Y-16075976D01*
X14640667Y-16066452D01*
X14631143Y-16056928D01*
X14621619Y-16037881D01*
X14612095Y-15999786D01*
X14612095Y-15952167D01*
X14621619Y-15914071D01*
X14631143Y-15895024D01*
X14640667Y-15885500D01*
X14659714Y-15875976D01*
X14812095Y-16056928D02*
X14821619Y-16066452D01*
X14812095Y-16075976D01*
X14802571Y-16066452D01*
X14812095Y-16056928D01*
X14812095Y-16075976D01*
X14888286Y-15875976D02*
X15012095Y-15875976D01*
X14945428Y-15952167D01*
X14974000Y-15952167D01*
X14993048Y-15961690D01*
X15002571Y-15971214D01*
X15012095Y-15990262D01*
X15012095Y-16037881D01*
X15002571Y-16056928D01*
X14993048Y-16066452D01*
X14974000Y-16075976D01*
X14916857Y-16075976D01*
X14897809Y-16066452D01*
X14888286Y-16056928D01*
X15135905Y-15875976D02*
X15154952Y-15875976D01*
X15174000Y-15885500D01*
X15183524Y-15895024D01*
X15193048Y-15914071D01*
X15202571Y-15952167D01*
X15202571Y-15999786D01*
X15193048Y-16037881D01*
X15183524Y-16056928D01*
X15174000Y-16066452D01*
X15154952Y-16075976D01*
X15135905Y-16075976D01*
X15116857Y-16066452D01*
X15107333Y-16056928D01*
X15097809Y-16037881D01*
X15088286Y-15999786D01*
X15088286Y-15952167D01*
X15097809Y-15914071D01*
X15107333Y-15895024D01*
X15116857Y-15885500D01*
X15135905Y-15875976D01*
X15326381Y-15875976D02*
X15345428Y-15875976D01*
X15364476Y-15885500D01*
X15374000Y-15895024D01*
X15383524Y-15914071D01*
X15393048Y-15952167D01*
X15393048Y-15999786D01*
X15383524Y-16037881D01*
X15374000Y-16056928D01*
X15364476Y-16066452D01*
X15345428Y-16075976D01*
X15326381Y-16075976D01*
X15307333Y-16066452D01*
X15297809Y-16056928D01*
X15288286Y-16037881D01*
X15278762Y-15999786D01*
X15278762Y-15952167D01*
X15288286Y-15914071D01*
X15297809Y-15895024D01*
X15307333Y-15885500D01*
X15326381Y-15875976D01*
X15478762Y-16075976D02*
X15478762Y-15942643D01*
X15478762Y-15961690D02*
X15488286Y-15952167D01*
X15507333Y-15942643D01*
X15535905Y-15942643D01*
X15554952Y-15952167D01*
X15564476Y-15971214D01*
X15564476Y-16075976D01*
X15564476Y-15971214D02*
X15574000Y-15952167D01*
X15593048Y-15942643D01*
X15621619Y-15942643D01*
X15640667Y-15952167D01*
X15650190Y-15971214D01*
X15650190Y-16075976D01*
X15745428Y-16075976D02*
X15745428Y-15942643D01*
X15745428Y-15961690D02*
X15754952Y-15952167D01*
X15774000Y-15942643D01*
X15802571Y-15942643D01*
X15821619Y-15952167D01*
X15831143Y-15971214D01*
X15831143Y-16075976D01*
X15831143Y-15971214D02*
X15840667Y-15952167D01*
X15859714Y-15942643D01*
X15888286Y-15942643D01*
X15907333Y-15952167D01*
X15916857Y-15971214D01*
X15916857Y-16075976D01*
X16307333Y-15866452D02*
X16135905Y-16123595D01*
X16564476Y-15875976D02*
X16583524Y-15875976D01*
X16602571Y-15885500D01*
X16612095Y-15895024D01*
X16621619Y-15914071D01*
X16631143Y-15952167D01*
X16631143Y-15999786D01*
X16621619Y-16037881D01*
X16612095Y-16056928D01*
X16602571Y-16066452D01*
X16583524Y-16075976D01*
X16564476Y-16075976D01*
X16545428Y-16066452D01*
X16535905Y-16056928D01*
X16526381Y-16037881D01*
X16516857Y-15999786D01*
X16516857Y-15952167D01*
X16526381Y-15914071D01*
X16535905Y-15895024D01*
X16545428Y-15885500D01*
X16564476Y-15875976D01*
X16716857Y-16056928D02*
X16726381Y-16066452D01*
X16716857Y-16075976D01*
X16707333Y-16066452D01*
X16716857Y-16056928D01*
X16716857Y-16075976D01*
X16850190Y-15875976D02*
X16869238Y-15875976D01*
X16888286Y-15885500D01*
X16897810Y-15895024D01*
X16907333Y-15914071D01*
X16916857Y-15952167D01*
X16916857Y-15999786D01*
X16907333Y-16037881D01*
X16897810Y-16056928D01*
X16888286Y-16066452D01*
X16869238Y-16075976D01*
X16850190Y-16075976D01*
X16831143Y-16066452D01*
X16821619Y-16056928D01*
X16812095Y-16037881D01*
X16802571Y-15999786D01*
X16802571Y-15952167D01*
X16812095Y-15914071D01*
X16821619Y-15895024D01*
X16831143Y-15885500D01*
X16850190Y-15875976D01*
X17107333Y-16075976D02*
X16993048Y-16075976D01*
X17050190Y-16075976D02*
X17050190Y-15875976D01*
X17031143Y-15904548D01*
X17012095Y-15923595D01*
X16993048Y-15933119D01*
X17297810Y-16075976D02*
X17183524Y-16075976D01*
X17240667Y-16075976D02*
X17240667Y-15875976D01*
X17221619Y-15904548D01*
X17202571Y-15923595D01*
X17183524Y-15933119D01*
X17412095Y-15961690D02*
X17393048Y-15952167D01*
X17383524Y-15942643D01*
X17374000Y-15923595D01*
X17374000Y-15914071D01*
X17383524Y-15895024D01*
X17393048Y-15885500D01*
X17412095Y-15875976D01*
X17450190Y-15875976D01*
X17469238Y-15885500D01*
X17478762Y-15895024D01*
X17488286Y-15914071D01*
X17488286Y-15923595D01*
X17478762Y-15942643D01*
X17469238Y-15952167D01*
X17450190Y-15961690D01*
X17412095Y-15961690D01*
X17393048Y-15971214D01*
X17383524Y-15980738D01*
X17374000Y-15999786D01*
X17374000Y-16037881D01*
X17383524Y-16056928D01*
X17393048Y-16066452D01*
X17412095Y-16075976D01*
X17450190Y-16075976D01*
X17469238Y-16066452D01*
X17478762Y-16056928D01*
X17488286Y-16037881D01*
X17488286Y-15999786D01*
X17478762Y-15980738D01*
X17469238Y-15971214D01*
X17450190Y-15961690D01*
X17564476Y-15875976D02*
X17564476Y-15914071D01*
X17640667Y-15875976D02*
X17640667Y-15914071D01*
X17935905Y-16152167D02*
X17926381Y-16142643D01*
X17907333Y-16114071D01*
X17897810Y-16095024D01*
X17888286Y-16066452D01*
X17878762Y-16018833D01*
X17878762Y-15980738D01*
X17888286Y-15933119D01*
X17897810Y-15904548D01*
X17907333Y-15885500D01*
X17926381Y-15856928D01*
X17935905Y-15847405D01*
X18097810Y-15942643D02*
X18097810Y-16075976D01*
X18050190Y-15866452D02*
X18002571Y-16009309D01*
X18126381Y-16009309D01*
X18354952Y-16075976D02*
X18354952Y-15875976D01*
X18440667Y-16075976D02*
X18440667Y-15971214D01*
X18431143Y-15952167D01*
X18412095Y-15942643D01*
X18383524Y-15942643D01*
X18364476Y-15952167D01*
X18354952Y-15961690D01*
X18564476Y-16075976D02*
X18545429Y-16066452D01*
X18535905Y-16056928D01*
X18526381Y-16037881D01*
X18526381Y-15980738D01*
X18535905Y-15961690D01*
X18545429Y-15952167D01*
X18564476Y-15942643D01*
X18593048Y-15942643D01*
X18612095Y-15952167D01*
X18621619Y-15961690D01*
X18631143Y-15980738D01*
X18631143Y-16037881D01*
X18621619Y-16056928D01*
X18612095Y-16066452D01*
X18593048Y-16075976D01*
X18564476Y-16075976D01*
X18745429Y-16075976D02*
X18726381Y-16066452D01*
X18716857Y-16047405D01*
X18716857Y-15875976D01*
X18897810Y-16066452D02*
X18878762Y-16075976D01*
X18840667Y-16075976D01*
X18821619Y-16066452D01*
X18812095Y-16047405D01*
X18812095Y-15971214D01*
X18821619Y-15952167D01*
X18840667Y-15942643D01*
X18878762Y-15942643D01*
X18897810Y-15952167D01*
X18907333Y-15971214D01*
X18907333Y-15990262D01*
X18812095Y-16009309D01*
X18983524Y-16066452D02*
X19002571Y-16075976D01*
X19040667Y-16075976D01*
X19059714Y-16066452D01*
X19069238Y-16047405D01*
X19069238Y-16037881D01*
X19059714Y-16018833D01*
X19040667Y-16009309D01*
X19012095Y-16009309D01*
X18993048Y-15999786D01*
X18983524Y-15980738D01*
X18983524Y-15971214D01*
X18993048Y-15952167D01*
X19012095Y-15942643D01*
X19040667Y-15942643D01*
X19059714Y-15952167D01*
X19135905Y-16152167D02*
X19145429Y-16142643D01*
X19164476Y-16114071D01*
X19174000Y-16095024D01*
X19183524Y-16066452D01*
X19193048Y-16018833D01*
X19193048Y-15980738D01*
X19183524Y-15933119D01*
X19174000Y-15904548D01*
X19164476Y-15885500D01*
X19145429Y-15856928D01*
X19135905Y-15847405D01*
D12*
X14364000Y-16249500D02*
G75*
G03*
X14364000Y-16249500I-20000J0D01*
G01*
D10*
X14659714Y-16139976D02*
X14678762Y-16139976D01*
X14697809Y-16149500D01*
X14707333Y-16159024D01*
X14716857Y-16178071D01*
X14726381Y-16216167D01*
X14726381Y-16263786D01*
X14716857Y-16301881D01*
X14707333Y-16320928D01*
X14697809Y-16330452D01*
X14678762Y-16339976D01*
X14659714Y-16339976D01*
X14640667Y-16330452D01*
X14631143Y-16320928D01*
X14621619Y-16301881D01*
X14612095Y-16263786D01*
X14612095Y-16216167D01*
X14621619Y-16178071D01*
X14631143Y-16159024D01*
X14640667Y-16149500D01*
X14659714Y-16139976D01*
X14812095Y-16320928D02*
X14821619Y-16330452D01*
X14812095Y-16339976D01*
X14802571Y-16330452D01*
X14812095Y-16320928D01*
X14812095Y-16339976D01*
X14993048Y-16206643D02*
X14993048Y-16339976D01*
X14945428Y-16130452D02*
X14897809Y-16273309D01*
X15021619Y-16273309D01*
X15135905Y-16139976D02*
X15154952Y-16139976D01*
X15174000Y-16149500D01*
X15183524Y-16159024D01*
X15193048Y-16178071D01*
X15202571Y-16216167D01*
X15202571Y-16263786D01*
X15193048Y-16301881D01*
X15183524Y-16320928D01*
X15174000Y-16330452D01*
X15154952Y-16339976D01*
X15135905Y-16339976D01*
X15116857Y-16330452D01*
X15107333Y-16320928D01*
X15097809Y-16301881D01*
X15088286Y-16263786D01*
X15088286Y-16216167D01*
X15097809Y-16178071D01*
X15107333Y-16159024D01*
X15116857Y-16149500D01*
X15135905Y-16139976D01*
X15326381Y-16139976D02*
X15345428Y-16139976D01*
X15364476Y-16149500D01*
X15374000Y-16159024D01*
X15383524Y-16178071D01*
X15393048Y-16216167D01*
X15393048Y-16263786D01*
X15383524Y-16301881D01*
X15374000Y-16320928D01*
X15364476Y-16330452D01*
X15345428Y-16339976D01*
X15326381Y-16339976D01*
X15307333Y-16330452D01*
X15297809Y-16320928D01*
X15288286Y-16301881D01*
X15278762Y-16263786D01*
X15278762Y-16216167D01*
X15288286Y-16178071D01*
X15297809Y-16159024D01*
X15307333Y-16149500D01*
X15326381Y-16139976D01*
X15478762Y-16339976D02*
X15478762Y-16206643D01*
X15478762Y-16225690D02*
X15488286Y-16216167D01*
X15507333Y-16206643D01*
X15535905Y-16206643D01*
X15554952Y-16216167D01*
X15564476Y-16235214D01*
X15564476Y-16339976D01*
X15564476Y-16235214D02*
X15574000Y-16216167D01*
X15593048Y-16206643D01*
X15621619Y-16206643D01*
X15640667Y-16216167D01*
X15650190Y-16235214D01*
X15650190Y-16339976D01*
X15745428Y-16339976D02*
X15745428Y-16206643D01*
X15745428Y-16225690D02*
X15754952Y-16216167D01*
X15774000Y-16206643D01*
X15802571Y-16206643D01*
X15821619Y-16216167D01*
X15831143Y-16235214D01*
X15831143Y-16339976D01*
X15831143Y-16235214D02*
X15840667Y-16216167D01*
X15859714Y-16206643D01*
X15888286Y-16206643D01*
X15907333Y-16216167D01*
X15916857Y-16235214D01*
X15916857Y-16339976D01*
X16307333Y-16130452D02*
X16135905Y-16387595D01*
X16564476Y-16139976D02*
X16583524Y-16139976D01*
X16602571Y-16149500D01*
X16612095Y-16159024D01*
X16621619Y-16178071D01*
X16631143Y-16216167D01*
X16631143Y-16263786D01*
X16621619Y-16301881D01*
X16612095Y-16320928D01*
X16602571Y-16330452D01*
X16583524Y-16339976D01*
X16564476Y-16339976D01*
X16545428Y-16330452D01*
X16535905Y-16320928D01*
X16526381Y-16301881D01*
X16516857Y-16263786D01*
X16516857Y-16216167D01*
X16526381Y-16178071D01*
X16535905Y-16159024D01*
X16545428Y-16149500D01*
X16564476Y-16139976D01*
X16716857Y-16320928D02*
X16726381Y-16330452D01*
X16716857Y-16339976D01*
X16707333Y-16330452D01*
X16716857Y-16320928D01*
X16716857Y-16339976D01*
X16850190Y-16139976D02*
X16869238Y-16139976D01*
X16888286Y-16149500D01*
X16897810Y-16159024D01*
X16907333Y-16178071D01*
X16916857Y-16216167D01*
X16916857Y-16263786D01*
X16907333Y-16301881D01*
X16897810Y-16320928D01*
X16888286Y-16330452D01*
X16869238Y-16339976D01*
X16850190Y-16339976D01*
X16831143Y-16330452D01*
X16821619Y-16320928D01*
X16812095Y-16301881D01*
X16802571Y-16263786D01*
X16802571Y-16216167D01*
X16812095Y-16178071D01*
X16821619Y-16159024D01*
X16831143Y-16149500D01*
X16850190Y-16139976D01*
X17107333Y-16339976D02*
X16993048Y-16339976D01*
X17050190Y-16339976D02*
X17050190Y-16139976D01*
X17031143Y-16168548D01*
X17012095Y-16187595D01*
X16993048Y-16197119D01*
X17288286Y-16139976D02*
X17193048Y-16139976D01*
X17183524Y-16235214D01*
X17193048Y-16225690D01*
X17212095Y-16216167D01*
X17259714Y-16216167D01*
X17278762Y-16225690D01*
X17288286Y-16235214D01*
X17297810Y-16254262D01*
X17297810Y-16301881D01*
X17288286Y-16320928D01*
X17278762Y-16330452D01*
X17259714Y-16339976D01*
X17212095Y-16339976D01*
X17193048Y-16330452D01*
X17183524Y-16320928D01*
X17364476Y-16139976D02*
X17497810Y-16139976D01*
X17412095Y-16339976D01*
X17564476Y-16139976D02*
X17564476Y-16178071D01*
X17640667Y-16139976D02*
X17640667Y-16178071D01*
X17935905Y-16416167D02*
X17926381Y-16406643D01*
X17907333Y-16378071D01*
X17897810Y-16359024D01*
X17888286Y-16330452D01*
X17878762Y-16282833D01*
X17878762Y-16244738D01*
X17888286Y-16197119D01*
X17897810Y-16168548D01*
X17907333Y-16149500D01*
X17926381Y-16120928D01*
X17935905Y-16111405D01*
X18116857Y-16339976D02*
X18002571Y-16339976D01*
X18059714Y-16339976D02*
X18059714Y-16139976D01*
X18040667Y-16168548D01*
X18021619Y-16187595D01*
X18002571Y-16197119D01*
X18183524Y-16139976D02*
X18316857Y-16139976D01*
X18231143Y-16339976D01*
X18421619Y-16225690D02*
X18402571Y-16216167D01*
X18393048Y-16206643D01*
X18383524Y-16187595D01*
X18383524Y-16178071D01*
X18393048Y-16159024D01*
X18402571Y-16149500D01*
X18421619Y-16139976D01*
X18459714Y-16139976D01*
X18478762Y-16149500D01*
X18488286Y-16159024D01*
X18497810Y-16178071D01*
X18497810Y-16187595D01*
X18488286Y-16206643D01*
X18478762Y-16216167D01*
X18459714Y-16225690D01*
X18421619Y-16225690D01*
X18402571Y-16235214D01*
X18393048Y-16244738D01*
X18383524Y-16263786D01*
X18383524Y-16301881D01*
X18393048Y-16320928D01*
X18402571Y-16330452D01*
X18421619Y-16339976D01*
X18459714Y-16339976D01*
X18478762Y-16330452D01*
X18488286Y-16320928D01*
X18497810Y-16301881D01*
X18497810Y-16263786D01*
X18488286Y-16244738D01*
X18478762Y-16235214D01*
X18459714Y-16225690D01*
X18735905Y-16339976D02*
X18735905Y-16139976D01*
X18821619Y-16339976D02*
X18821619Y-16235214D01*
X18812095Y-16216167D01*
X18793048Y-16206643D01*
X18764476Y-16206643D01*
X18745429Y-16216167D01*
X18735905Y-16225690D01*
X18945429Y-16339976D02*
X18926381Y-16330452D01*
X18916857Y-16320928D01*
X18907333Y-16301881D01*
X18907333Y-16244738D01*
X18916857Y-16225690D01*
X18926381Y-16216167D01*
X18945429Y-16206643D01*
X18974000Y-16206643D01*
X18993048Y-16216167D01*
X19002571Y-16225690D01*
X19012095Y-16244738D01*
X19012095Y-16301881D01*
X19002571Y-16320928D01*
X18993048Y-16330452D01*
X18974000Y-16339976D01*
X18945429Y-16339976D01*
X19126381Y-16339976D02*
X19107333Y-16330452D01*
X19097810Y-16311405D01*
X19097810Y-16139976D01*
X19278762Y-16330452D02*
X19259714Y-16339976D01*
X19221619Y-16339976D01*
X19202571Y-16330452D01*
X19193048Y-16311405D01*
X19193048Y-16235214D01*
X19202571Y-16216167D01*
X19221619Y-16206643D01*
X19259714Y-16206643D01*
X19278762Y-16216167D01*
X19288286Y-16235214D01*
X19288286Y-16254262D01*
X19193048Y-16273309D01*
X19364476Y-16330452D02*
X19383524Y-16339976D01*
X19421619Y-16339976D01*
X19440667Y-16330452D01*
X19450190Y-16311405D01*
X19450190Y-16301881D01*
X19440667Y-16282833D01*
X19421619Y-16273309D01*
X19393048Y-16273309D01*
X19374000Y-16263786D01*
X19364476Y-16244738D01*
X19364476Y-16235214D01*
X19374000Y-16216167D01*
X19393048Y-16206643D01*
X19421619Y-16206643D01*
X19440667Y-16216167D01*
X19516857Y-16416167D02*
X19526381Y-16406643D01*
X19545429Y-16378071D01*
X19554952Y-16359024D01*
X19564476Y-16330452D01*
X19574000Y-16282833D01*
X19574000Y-16244738D01*
X19564476Y-16197119D01*
X19554952Y-16168548D01*
X19545429Y-16149500D01*
X19526381Y-16120928D01*
X19516857Y-16111405D01*
D13*
X14331500Y-16481000D02*
X14331500Y-16546000D01*
X14299000Y-16513500D02*
X14364000Y-16513500D01*
D10*
X14659714Y-16403976D02*
X14678762Y-16403976D01*
X14697809Y-16413500D01*
X14707333Y-16423024D01*
X14716857Y-16442071D01*
X14726381Y-16480167D01*
X14726381Y-16527786D01*
X14716857Y-16565881D01*
X14707333Y-16584928D01*
X14697809Y-16594452D01*
X14678762Y-16603976D01*
X14659714Y-16603976D01*
X14640667Y-16594452D01*
X14631143Y-16584928D01*
X14621619Y-16565881D01*
X14612095Y-16527786D01*
X14612095Y-16480167D01*
X14621619Y-16442071D01*
X14631143Y-16423024D01*
X14640667Y-16413500D01*
X14659714Y-16403976D01*
X14812095Y-16584928D02*
X14821619Y-16594452D01*
X14812095Y-16603976D01*
X14802571Y-16594452D01*
X14812095Y-16584928D01*
X14812095Y-16603976D01*
X14993048Y-16403976D02*
X14954952Y-16403976D01*
X14935905Y-16413500D01*
X14926381Y-16423024D01*
X14907333Y-16451595D01*
X14897809Y-16489690D01*
X14897809Y-16565881D01*
X14907333Y-16584928D01*
X14916857Y-16594452D01*
X14935905Y-16603976D01*
X14974000Y-16603976D01*
X14993048Y-16594452D01*
X15002571Y-16584928D01*
X15012095Y-16565881D01*
X15012095Y-16518262D01*
X15002571Y-16499214D01*
X14993048Y-16489690D01*
X14974000Y-16480167D01*
X14935905Y-16480167D01*
X14916857Y-16489690D01*
X14907333Y-16499214D01*
X14897809Y-16518262D01*
X15193048Y-16403976D02*
X15097809Y-16403976D01*
X15088286Y-16499214D01*
X15097809Y-16489690D01*
X15116857Y-16480167D01*
X15164476Y-16480167D01*
X15183524Y-16489690D01*
X15193048Y-16499214D01*
X15202571Y-16518262D01*
X15202571Y-16565881D01*
X15193048Y-16584928D01*
X15183524Y-16594452D01*
X15164476Y-16603976D01*
X15116857Y-16603976D01*
X15097809Y-16594452D01*
X15088286Y-16584928D01*
X15326381Y-16403976D02*
X15345428Y-16403976D01*
X15364476Y-16413500D01*
X15374000Y-16423024D01*
X15383524Y-16442071D01*
X15393048Y-16480167D01*
X15393048Y-16527786D01*
X15383524Y-16565881D01*
X15374000Y-16584928D01*
X15364476Y-16594452D01*
X15345428Y-16603976D01*
X15326381Y-16603976D01*
X15307333Y-16594452D01*
X15297809Y-16584928D01*
X15288286Y-16565881D01*
X15278762Y-16527786D01*
X15278762Y-16480167D01*
X15288286Y-16442071D01*
X15297809Y-16423024D01*
X15307333Y-16413500D01*
X15326381Y-16403976D01*
X15478762Y-16603976D02*
X15478762Y-16470643D01*
X15478762Y-16489690D02*
X15488286Y-16480167D01*
X15507333Y-16470643D01*
X15535905Y-16470643D01*
X15554952Y-16480167D01*
X15564476Y-16499214D01*
X15564476Y-16603976D01*
X15564476Y-16499214D02*
X15574000Y-16480167D01*
X15593048Y-16470643D01*
X15621619Y-16470643D01*
X15640667Y-16480167D01*
X15650190Y-16499214D01*
X15650190Y-16603976D01*
X15745428Y-16603976D02*
X15745428Y-16470643D01*
X15745428Y-16489690D02*
X15754952Y-16480167D01*
X15774000Y-16470643D01*
X15802571Y-16470643D01*
X15821619Y-16480167D01*
X15831143Y-16499214D01*
X15831143Y-16603976D01*
X15831143Y-16499214D02*
X15840667Y-16480167D01*
X15859714Y-16470643D01*
X15888286Y-16470643D01*
X15907333Y-16480167D01*
X15916857Y-16499214D01*
X15916857Y-16603976D01*
X16307333Y-16394452D02*
X16135905Y-16651595D01*
X16564476Y-16403976D02*
X16583524Y-16403976D01*
X16602571Y-16413500D01*
X16612095Y-16423024D01*
X16621619Y-16442071D01*
X16631143Y-16480167D01*
X16631143Y-16527786D01*
X16621619Y-16565881D01*
X16612095Y-16584928D01*
X16602571Y-16594452D01*
X16583524Y-16603976D01*
X16564476Y-16603976D01*
X16545428Y-16594452D01*
X16535905Y-16584928D01*
X16526381Y-16565881D01*
X16516857Y-16527786D01*
X16516857Y-16480167D01*
X16526381Y-16442071D01*
X16535905Y-16423024D01*
X16545428Y-16413500D01*
X16564476Y-16403976D01*
X16716857Y-16584928D02*
X16726381Y-16594452D01*
X16716857Y-16603976D01*
X16707333Y-16594452D01*
X16716857Y-16584928D01*
X16716857Y-16603976D01*
X16850190Y-16403976D02*
X16869238Y-16403976D01*
X16888286Y-16413500D01*
X16897810Y-16423024D01*
X16907333Y-16442071D01*
X16916857Y-16480167D01*
X16916857Y-16527786D01*
X16907333Y-16565881D01*
X16897810Y-16584928D01*
X16888286Y-16594452D01*
X16869238Y-16603976D01*
X16850190Y-16603976D01*
X16831143Y-16594452D01*
X16821619Y-16584928D01*
X16812095Y-16565881D01*
X16802571Y-16527786D01*
X16802571Y-16480167D01*
X16812095Y-16442071D01*
X16821619Y-16423024D01*
X16831143Y-16413500D01*
X16850190Y-16403976D01*
X16993048Y-16423024D02*
X17002571Y-16413500D01*
X17021619Y-16403976D01*
X17069238Y-16403976D01*
X17088286Y-16413500D01*
X17097810Y-16423024D01*
X17107333Y-16442071D01*
X17107333Y-16461119D01*
X17097810Y-16489690D01*
X16983524Y-16603976D01*
X17107333Y-16603976D01*
X17288286Y-16403976D02*
X17193048Y-16403976D01*
X17183524Y-16499214D01*
X17193048Y-16489690D01*
X17212095Y-16480167D01*
X17259714Y-16480167D01*
X17278762Y-16489690D01*
X17288286Y-16499214D01*
X17297810Y-16518262D01*
X17297810Y-16565881D01*
X17288286Y-16584928D01*
X17278762Y-16594452D01*
X17259714Y-16603976D01*
X17212095Y-16603976D01*
X17193048Y-16594452D01*
X17183524Y-16584928D01*
X17469238Y-16403976D02*
X17431143Y-16403976D01*
X17412095Y-16413500D01*
X17402571Y-16423024D01*
X17383524Y-16451595D01*
X17374000Y-16489690D01*
X17374000Y-16565881D01*
X17383524Y-16584928D01*
X17393048Y-16594452D01*
X17412095Y-16603976D01*
X17450190Y-16603976D01*
X17469238Y-16594452D01*
X17478762Y-16584928D01*
X17488286Y-16565881D01*
X17488286Y-16518262D01*
X17478762Y-16499214D01*
X17469238Y-16489690D01*
X17450190Y-16480167D01*
X17412095Y-16480167D01*
X17393048Y-16489690D01*
X17383524Y-16499214D01*
X17374000Y-16518262D01*
X17564476Y-16403976D02*
X17564476Y-16442071D01*
X17640667Y-16403976D02*
X17640667Y-16442071D01*
X17935905Y-16680167D02*
X17926381Y-16670643D01*
X17907333Y-16642071D01*
X17897810Y-16623024D01*
X17888286Y-16594452D01*
X17878762Y-16546833D01*
X17878762Y-16508738D01*
X17888286Y-16461119D01*
X17897810Y-16432548D01*
X17907333Y-16413500D01*
X17926381Y-16384928D01*
X17935905Y-16375405D01*
X18040667Y-16489690D02*
X18021619Y-16480167D01*
X18012095Y-16470643D01*
X18002571Y-16451595D01*
X18002571Y-16442071D01*
X18012095Y-16423024D01*
X18021619Y-16413500D01*
X18040667Y-16403976D01*
X18078762Y-16403976D01*
X18097810Y-16413500D01*
X18107333Y-16423024D01*
X18116857Y-16442071D01*
X18116857Y-16451595D01*
X18107333Y-16470643D01*
X18097810Y-16480167D01*
X18078762Y-16489690D01*
X18040667Y-16489690D01*
X18021619Y-16499214D01*
X18012095Y-16508738D01*
X18002571Y-16527786D01*
X18002571Y-16565881D01*
X18012095Y-16584928D01*
X18021619Y-16594452D01*
X18040667Y-16603976D01*
X18078762Y-16603976D01*
X18097810Y-16594452D01*
X18107333Y-16584928D01*
X18116857Y-16565881D01*
X18116857Y-16527786D01*
X18107333Y-16508738D01*
X18097810Y-16499214D01*
X18078762Y-16489690D01*
X18354952Y-16603976D02*
X18354952Y-16403976D01*
X18440667Y-16603976D02*
X18440667Y-16499214D01*
X18431143Y-16480167D01*
X18412095Y-16470643D01*
X18383524Y-16470643D01*
X18364476Y-16480167D01*
X18354952Y-16489690D01*
X18564476Y-16603976D02*
X18545429Y-16594452D01*
X18535905Y-16584928D01*
X18526381Y-16565881D01*
X18526381Y-16508738D01*
X18535905Y-16489690D01*
X18545429Y-16480167D01*
X18564476Y-16470643D01*
X18593048Y-16470643D01*
X18612095Y-16480167D01*
X18621619Y-16489690D01*
X18631143Y-16508738D01*
X18631143Y-16565881D01*
X18621619Y-16584928D01*
X18612095Y-16594452D01*
X18593048Y-16603976D01*
X18564476Y-16603976D01*
X18745429Y-16603976D02*
X18726381Y-16594452D01*
X18716857Y-16575405D01*
X18716857Y-16403976D01*
X18897810Y-16594452D02*
X18878762Y-16603976D01*
X18840667Y-16603976D01*
X18821619Y-16594452D01*
X18812095Y-16575405D01*
X18812095Y-16499214D01*
X18821619Y-16480167D01*
X18840667Y-16470643D01*
X18878762Y-16470643D01*
X18897810Y-16480167D01*
X18907333Y-16499214D01*
X18907333Y-16518262D01*
X18812095Y-16537309D01*
X18983524Y-16594452D02*
X19002571Y-16603976D01*
X19040667Y-16603976D01*
X19059714Y-16594452D01*
X19069238Y-16575405D01*
X19069238Y-16565881D01*
X19059714Y-16546833D01*
X19040667Y-16537309D01*
X19012095Y-16537309D01*
X18993048Y-16527786D01*
X18983524Y-16508738D01*
X18983524Y-16499214D01*
X18993048Y-16480167D01*
X19012095Y-16470643D01*
X19040667Y-16470643D01*
X19059714Y-16480167D01*
X19135905Y-16680167D02*
X19145429Y-16670643D01*
X19164476Y-16642071D01*
X19174000Y-16623024D01*
X19183524Y-16594452D01*
X19193048Y-16546833D01*
X19193048Y-16508738D01*
X19183524Y-16461119D01*
X19174000Y-16432548D01*
X19164476Y-16413500D01*
X19145429Y-16384928D01*
X19135905Y-16375405D01*
D14*
X14352284Y-16805785D02*
X14352284Y-16749215D01*
X14295715Y-16749215D01*
X14295715Y-16805785D01*
X14352284Y-16805785D01*
D10*
X14659714Y-16667976D02*
X14678762Y-16667976D01*
X14697809Y-16677500D01*
X14707333Y-16687024D01*
X14716857Y-16706071D01*
X14726381Y-16744167D01*
X14726381Y-16791786D01*
X14716857Y-16829881D01*
X14707333Y-16848929D01*
X14697809Y-16858452D01*
X14678762Y-16867976D01*
X14659714Y-16867976D01*
X14640667Y-16858452D01*
X14631143Y-16848929D01*
X14621619Y-16829881D01*
X14612095Y-16791786D01*
X14612095Y-16744167D01*
X14621619Y-16706071D01*
X14631143Y-16687024D01*
X14640667Y-16677500D01*
X14659714Y-16667976D01*
X14812095Y-16848929D02*
X14821619Y-16858452D01*
X14812095Y-16867976D01*
X14802571Y-16858452D01*
X14812095Y-16848929D01*
X14812095Y-16867976D01*
X14935905Y-16753690D02*
X14916857Y-16744167D01*
X14907333Y-16734643D01*
X14897809Y-16715595D01*
X14897809Y-16706071D01*
X14907333Y-16687024D01*
X14916857Y-16677500D01*
X14935905Y-16667976D01*
X14974000Y-16667976D01*
X14993048Y-16677500D01*
X15002571Y-16687024D01*
X15012095Y-16706071D01*
X15012095Y-16715595D01*
X15002571Y-16734643D01*
X14993048Y-16744167D01*
X14974000Y-16753690D01*
X14935905Y-16753690D01*
X14916857Y-16763214D01*
X14907333Y-16772738D01*
X14897809Y-16791786D01*
X14897809Y-16829881D01*
X14907333Y-16848929D01*
X14916857Y-16858452D01*
X14935905Y-16867976D01*
X14974000Y-16867976D01*
X14993048Y-16858452D01*
X15002571Y-16848929D01*
X15012095Y-16829881D01*
X15012095Y-16791786D01*
X15002571Y-16772738D01*
X14993048Y-16763214D01*
X14974000Y-16753690D01*
X15135905Y-16667976D02*
X15154952Y-16667976D01*
X15174000Y-16677500D01*
X15183524Y-16687024D01*
X15193048Y-16706071D01*
X15202571Y-16744167D01*
X15202571Y-16791786D01*
X15193048Y-16829881D01*
X15183524Y-16848929D01*
X15174000Y-16858452D01*
X15154952Y-16867976D01*
X15135905Y-16867976D01*
X15116857Y-16858452D01*
X15107333Y-16848929D01*
X15097809Y-16829881D01*
X15088286Y-16791786D01*
X15088286Y-16744167D01*
X15097809Y-16706071D01*
X15107333Y-16687024D01*
X15116857Y-16677500D01*
X15135905Y-16667976D01*
X15326381Y-16667976D02*
X15345428Y-16667976D01*
X15364476Y-16677500D01*
X15374000Y-16687024D01*
X15383524Y-16706071D01*
X15393048Y-16744167D01*
X15393048Y-16791786D01*
X15383524Y-16829881D01*
X15374000Y-16848929D01*
X15364476Y-16858452D01*
X15345428Y-16867976D01*
X15326381Y-16867976D01*
X15307333Y-16858452D01*
X15297809Y-16848929D01*
X15288286Y-16829881D01*
X15278762Y-16791786D01*
X15278762Y-16744167D01*
X15288286Y-16706071D01*
X15297809Y-16687024D01*
X15307333Y-16677500D01*
X15326381Y-16667976D01*
X15478762Y-16867976D02*
X15478762Y-16734643D01*
X15478762Y-16753690D02*
X15488286Y-16744167D01*
X15507333Y-16734643D01*
X15535905Y-16734643D01*
X15554952Y-16744167D01*
X15564476Y-16763214D01*
X15564476Y-16867976D01*
X15564476Y-16763214D02*
X15574000Y-16744167D01*
X15593048Y-16734643D01*
X15621619Y-16734643D01*
X15640667Y-16744167D01*
X15650190Y-16763214D01*
X15650190Y-16867976D01*
X15745428Y-16867976D02*
X15745428Y-16734643D01*
X15745428Y-16753690D02*
X15754952Y-16744167D01*
X15774000Y-16734643D01*
X15802571Y-16734643D01*
X15821619Y-16744167D01*
X15831143Y-16763214D01*
X15831143Y-16867976D01*
X15831143Y-16763214D02*
X15840667Y-16744167D01*
X15859714Y-16734643D01*
X15888286Y-16734643D01*
X15907333Y-16744167D01*
X15916857Y-16763214D01*
X15916857Y-16867976D01*
X16307333Y-16658452D02*
X16135905Y-16915595D01*
X16564476Y-16667976D02*
X16583524Y-16667976D01*
X16602571Y-16677500D01*
X16612095Y-16687024D01*
X16621619Y-16706071D01*
X16631143Y-16744167D01*
X16631143Y-16791786D01*
X16621619Y-16829881D01*
X16612095Y-16848929D01*
X16602571Y-16858452D01*
X16583524Y-16867976D01*
X16564476Y-16867976D01*
X16545428Y-16858452D01*
X16535905Y-16848929D01*
X16526381Y-16829881D01*
X16516857Y-16791786D01*
X16516857Y-16744167D01*
X16526381Y-16706071D01*
X16535905Y-16687024D01*
X16545428Y-16677500D01*
X16564476Y-16667976D01*
X16716857Y-16848929D02*
X16726381Y-16858452D01*
X16716857Y-16867976D01*
X16707333Y-16858452D01*
X16716857Y-16848929D01*
X16716857Y-16867976D01*
X16850190Y-16667976D02*
X16869238Y-16667976D01*
X16888286Y-16677500D01*
X16897810Y-16687024D01*
X16907333Y-16706071D01*
X16916857Y-16744167D01*
X16916857Y-16791786D01*
X16907333Y-16829881D01*
X16897810Y-16848929D01*
X16888286Y-16858452D01*
X16869238Y-16867976D01*
X16850190Y-16867976D01*
X16831143Y-16858452D01*
X16821619Y-16848929D01*
X16812095Y-16829881D01*
X16802571Y-16791786D01*
X16802571Y-16744167D01*
X16812095Y-16706071D01*
X16821619Y-16687024D01*
X16831143Y-16677500D01*
X16850190Y-16667976D01*
X16983524Y-16667976D02*
X17107333Y-16667976D01*
X17040667Y-16744167D01*
X17069238Y-16744167D01*
X17088286Y-16753690D01*
X17097810Y-16763214D01*
X17107333Y-16782262D01*
X17107333Y-16829881D01*
X17097810Y-16848929D01*
X17088286Y-16858452D01*
X17069238Y-16867976D01*
X17012095Y-16867976D01*
X16993048Y-16858452D01*
X16983524Y-16848929D01*
X17297810Y-16867976D02*
X17183524Y-16867976D01*
X17240667Y-16867976D02*
X17240667Y-16667976D01*
X17221619Y-16696548D01*
X17202571Y-16715595D01*
X17183524Y-16725119D01*
X17478762Y-16667976D02*
X17383524Y-16667976D01*
X17374000Y-16763214D01*
X17383524Y-16753690D01*
X17402571Y-16744167D01*
X17450190Y-16744167D01*
X17469238Y-16753690D01*
X17478762Y-16763214D01*
X17488286Y-16782262D01*
X17488286Y-16829881D01*
X17478762Y-16848929D01*
X17469238Y-16858452D01*
X17450190Y-16867976D01*
X17402571Y-16867976D01*
X17383524Y-16858452D01*
X17374000Y-16848929D01*
X17564476Y-16667976D02*
X17564476Y-16706071D01*
X17640667Y-16667976D02*
X17640667Y-16706071D01*
X17935905Y-16944167D02*
X17926381Y-16934643D01*
X17907333Y-16906071D01*
X17897810Y-16887024D01*
X17888286Y-16858452D01*
X17878762Y-16810833D01*
X17878762Y-16772738D01*
X17888286Y-16725119D01*
X17897810Y-16696548D01*
X17907333Y-16677500D01*
X17926381Y-16648928D01*
X17935905Y-16639405D01*
X18002571Y-16687024D02*
X18012095Y-16677500D01*
X18031143Y-16667976D01*
X18078762Y-16667976D01*
X18097810Y-16677500D01*
X18107333Y-16687024D01*
X18116857Y-16706071D01*
X18116857Y-16725119D01*
X18107333Y-16753690D01*
X17993048Y-16867976D01*
X18116857Y-16867976D01*
X18354952Y-16867976D02*
X18354952Y-16667976D01*
X18440667Y-16867976D02*
X18440667Y-16763214D01*
X18431143Y-16744167D01*
X18412095Y-16734643D01*
X18383524Y-16734643D01*
X18364476Y-16744167D01*
X18354952Y-16753690D01*
X18564476Y-16867976D02*
X18545429Y-16858452D01*
X18535905Y-16848929D01*
X18526381Y-16829881D01*
X18526381Y-16772738D01*
X18535905Y-16753690D01*
X18545429Y-16744167D01*
X18564476Y-16734643D01*
X18593048Y-16734643D01*
X18612095Y-16744167D01*
X18621619Y-16753690D01*
X18631143Y-16772738D01*
X18631143Y-16829881D01*
X18621619Y-16848929D01*
X18612095Y-16858452D01*
X18593048Y-16867976D01*
X18564476Y-16867976D01*
X18745429Y-16867976D02*
X18726381Y-16858452D01*
X18716857Y-16839405D01*
X18716857Y-16667976D01*
X18897810Y-16858452D02*
X18878762Y-16867976D01*
X18840667Y-16867976D01*
X18821619Y-16858452D01*
X18812095Y-16839405D01*
X18812095Y-16763214D01*
X18821619Y-16744167D01*
X18840667Y-16734643D01*
X18878762Y-16734643D01*
X18897810Y-16744167D01*
X18907333Y-16763214D01*
X18907333Y-16782262D01*
X18812095Y-16801310D01*
X18983524Y-16858452D02*
X19002571Y-16867976D01*
X19040667Y-16867976D01*
X19059714Y-16858452D01*
X19069238Y-16839405D01*
X19069238Y-16829881D01*
X19059714Y-16810833D01*
X19040667Y-16801310D01*
X19012095Y-16801310D01*
X18993048Y-16791786D01*
X18983524Y-16772738D01*
X18983524Y-16763214D01*
X18993048Y-16744167D01*
X19012095Y-16734643D01*
X19040667Y-16734643D01*
X19059714Y-16744167D01*
X19135905Y-16944167D02*
X19145429Y-16934643D01*
X19164476Y-16906071D01*
X19174000Y-16887024D01*
X19183524Y-16858452D01*
X19193048Y-16810833D01*
X19193048Y-16772738D01*
X19183524Y-16725119D01*
X19174000Y-16696548D01*
X19164476Y-16677500D01*
X19145429Y-16648928D01*
X19135905Y-16639405D01*
D15*
X14314000Y-17091500D02*
X14364000Y-17041500D01*
X14314000Y-16991500D01*
X14264000Y-17041500D01*
X14314000Y-17091500D01*
D10*
X14726381Y-17131976D02*
X14612095Y-17131976D01*
X14669238Y-17131976D02*
X14669238Y-16931976D01*
X14650190Y-16960548D01*
X14631143Y-16979595D01*
X14612095Y-16989119D01*
X14812095Y-17112929D02*
X14821619Y-17122452D01*
X14812095Y-17131976D01*
X14802571Y-17122452D01*
X14812095Y-17112929D01*
X14812095Y-17131976D01*
X14945428Y-16931976D02*
X14964476Y-16931976D01*
X14983524Y-16941500D01*
X14993048Y-16951024D01*
X15002571Y-16970071D01*
X15012095Y-17008167D01*
X15012095Y-17055786D01*
X15002571Y-17093881D01*
X14993048Y-17112929D01*
X14983524Y-17122452D01*
X14964476Y-17131976D01*
X14945428Y-17131976D01*
X14926381Y-17122452D01*
X14916857Y-17112929D01*
X14907333Y-17093881D01*
X14897809Y-17055786D01*
X14897809Y-17008167D01*
X14907333Y-16970071D01*
X14916857Y-16951024D01*
X14926381Y-16941500D01*
X14945428Y-16931976D01*
X15135905Y-16931976D02*
X15154952Y-16931976D01*
X15174000Y-16941500D01*
X15183524Y-16951024D01*
X15193048Y-16970071D01*
X15202571Y-17008167D01*
X15202571Y-17055786D01*
X15193048Y-17093881D01*
X15183524Y-17112929D01*
X15174000Y-17122452D01*
X15154952Y-17131976D01*
X15135905Y-17131976D01*
X15116857Y-17122452D01*
X15107333Y-17112929D01*
X15097809Y-17093881D01*
X15088286Y-17055786D01*
X15088286Y-17008167D01*
X15097809Y-16970071D01*
X15107333Y-16951024D01*
X15116857Y-16941500D01*
X15135905Y-16931976D01*
X15326381Y-16931976D02*
X15345428Y-16931976D01*
X15364476Y-16941500D01*
X15374000Y-16951024D01*
X15383524Y-16970071D01*
X15393048Y-17008167D01*
X15393048Y-17055786D01*
X15383524Y-17093881D01*
X15374000Y-17112929D01*
X15364476Y-17122452D01*
X15345428Y-17131976D01*
X15326381Y-17131976D01*
X15307333Y-17122452D01*
X15297809Y-17112929D01*
X15288286Y-17093881D01*
X15278762Y-17055786D01*
X15278762Y-17008167D01*
X15288286Y-16970071D01*
X15297809Y-16951024D01*
X15307333Y-16941500D01*
X15326381Y-16931976D01*
X15478762Y-17131976D02*
X15478762Y-16998643D01*
X15478762Y-17017690D02*
X15488286Y-17008167D01*
X15507333Y-16998643D01*
X15535905Y-16998643D01*
X15554952Y-17008167D01*
X15564476Y-17027214D01*
X15564476Y-17131976D01*
X15564476Y-17027214D02*
X15574000Y-17008167D01*
X15593048Y-16998643D01*
X15621619Y-16998643D01*
X15640667Y-17008167D01*
X15650190Y-17027214D01*
X15650190Y-17131976D01*
X15745428Y-17131976D02*
X15745428Y-16998643D01*
X15745428Y-17017690D02*
X15754952Y-17008167D01*
X15774000Y-16998643D01*
X15802571Y-16998643D01*
X15821619Y-17008167D01*
X15831143Y-17027214D01*
X15831143Y-17131976D01*
X15831143Y-17027214D02*
X15840667Y-17008167D01*
X15859714Y-16998643D01*
X15888286Y-16998643D01*
X15907333Y-17008167D01*
X15916857Y-17027214D01*
X15916857Y-17131976D01*
X16307333Y-16922452D02*
X16135905Y-17179595D01*
X16564476Y-16931976D02*
X16583524Y-16931976D01*
X16602571Y-16941500D01*
X16612095Y-16951024D01*
X16621619Y-16970071D01*
X16631143Y-17008167D01*
X16631143Y-17055786D01*
X16621619Y-17093881D01*
X16612095Y-17112929D01*
X16602571Y-17122452D01*
X16583524Y-17131976D01*
X16564476Y-17131976D01*
X16545428Y-17122452D01*
X16535905Y-17112929D01*
X16526381Y-17093881D01*
X16516857Y-17055786D01*
X16516857Y-17008167D01*
X16526381Y-16970071D01*
X16535905Y-16951024D01*
X16545428Y-16941500D01*
X16564476Y-16931976D01*
X16716857Y-17112929D02*
X16726381Y-17122452D01*
X16716857Y-17131976D01*
X16707333Y-17122452D01*
X16716857Y-17112929D01*
X16716857Y-17131976D01*
X16850190Y-16931976D02*
X16869238Y-16931976D01*
X16888286Y-16941500D01*
X16897810Y-16951024D01*
X16907333Y-16970071D01*
X16916857Y-17008167D01*
X16916857Y-17055786D01*
X16907333Y-17093881D01*
X16897810Y-17112929D01*
X16888286Y-17122452D01*
X16869238Y-17131976D01*
X16850190Y-17131976D01*
X16831143Y-17122452D01*
X16821619Y-17112929D01*
X16812095Y-17093881D01*
X16802571Y-17055786D01*
X16802571Y-17008167D01*
X16812095Y-16970071D01*
X16821619Y-16951024D01*
X16831143Y-16941500D01*
X16850190Y-16931976D01*
X16983524Y-16931976D02*
X17107333Y-16931976D01*
X17040667Y-17008167D01*
X17069238Y-17008167D01*
X17088286Y-17017690D01*
X17097810Y-17027214D01*
X17107333Y-17046262D01*
X17107333Y-17093881D01*
X17097810Y-17112929D01*
X17088286Y-17122452D01*
X17069238Y-17131976D01*
X17012095Y-17131976D01*
X16993048Y-17122452D01*
X16983524Y-17112929D01*
X17202571Y-17131976D02*
X17240667Y-17131976D01*
X17259714Y-17122452D01*
X17269238Y-17112929D01*
X17288286Y-17084357D01*
X17297810Y-17046262D01*
X17297810Y-16970071D01*
X17288286Y-16951024D01*
X17278762Y-16941500D01*
X17259714Y-16931976D01*
X17221619Y-16931976D01*
X17202571Y-16941500D01*
X17193048Y-16951024D01*
X17183524Y-16970071D01*
X17183524Y-17017690D01*
X17193048Y-17036738D01*
X17202571Y-17046262D01*
X17221619Y-17055786D01*
X17259714Y-17055786D01*
X17278762Y-17046262D01*
X17288286Y-17036738D01*
X17297810Y-17017690D01*
X17469238Y-16998643D02*
X17469238Y-17131976D01*
X17421619Y-16922452D02*
X17374000Y-17065310D01*
X17497810Y-17065310D01*
X17564476Y-16931976D02*
X17564476Y-16970071D01*
X17640667Y-16931976D02*
X17640667Y-16970071D01*
X17935905Y-17208167D02*
X17926381Y-17198643D01*
X17907333Y-17170071D01*
X17897810Y-17151024D01*
X17888286Y-17122452D01*
X17878762Y-17074833D01*
X17878762Y-17036738D01*
X17888286Y-16989119D01*
X17897810Y-16960548D01*
X17907333Y-16941500D01*
X17926381Y-16912929D01*
X17935905Y-16903405D01*
X18116857Y-17131976D02*
X18002571Y-17131976D01*
X18059714Y-17131976D02*
X18059714Y-16931976D01*
X18040667Y-16960548D01*
X18021619Y-16979595D01*
X18002571Y-16989119D01*
X18240667Y-16931976D02*
X18259714Y-16931976D01*
X18278762Y-16941500D01*
X18288286Y-16951024D01*
X18297810Y-16970071D01*
X18307333Y-17008167D01*
X18307333Y-17055786D01*
X18297810Y-17093881D01*
X18288286Y-17112929D01*
X18278762Y-17122452D01*
X18259714Y-17131976D01*
X18240667Y-17131976D01*
X18221619Y-17122452D01*
X18212095Y-17112929D01*
X18202571Y-17093881D01*
X18193048Y-17055786D01*
X18193048Y-17008167D01*
X18202571Y-16970071D01*
X18212095Y-16951024D01*
X18221619Y-16941500D01*
X18240667Y-16931976D01*
X18545429Y-17131976D02*
X18545429Y-16931976D01*
X18631143Y-17131976D02*
X18631143Y-17027214D01*
X18621619Y-17008167D01*
X18602571Y-16998643D01*
X18574000Y-16998643D01*
X18554952Y-17008167D01*
X18545429Y-17017690D01*
X18754952Y-17131976D02*
X18735905Y-17122452D01*
X18726381Y-17112929D01*
X18716857Y-17093881D01*
X18716857Y-17036738D01*
X18726381Y-17017690D01*
X18735905Y-17008167D01*
X18754952Y-16998643D01*
X18783524Y-16998643D01*
X18802571Y-17008167D01*
X18812095Y-17017690D01*
X18821619Y-17036738D01*
X18821619Y-17093881D01*
X18812095Y-17112929D01*
X18802571Y-17122452D01*
X18783524Y-17131976D01*
X18754952Y-17131976D01*
X18935905Y-17131976D02*
X18916857Y-17122452D01*
X18907333Y-17103405D01*
X18907333Y-16931976D01*
X19088286Y-17122452D02*
X19069238Y-17131976D01*
X19031143Y-17131976D01*
X19012095Y-17122452D01*
X19002571Y-17103405D01*
X19002571Y-17027214D01*
X19012095Y-17008167D01*
X19031143Y-16998643D01*
X19069238Y-16998643D01*
X19088286Y-17008167D01*
X19097810Y-17027214D01*
X19097810Y-17046262D01*
X19002571Y-17065310D01*
X19174000Y-17122452D02*
X19193048Y-17131976D01*
X19231143Y-17131976D01*
X19250190Y-17122452D01*
X19259714Y-17103405D01*
X19259714Y-17093881D01*
X19250190Y-17074833D01*
X19231143Y-17065310D01*
X19202571Y-17065310D01*
X19183524Y-17055786D01*
X19174000Y-17036738D01*
X19174000Y-17027214D01*
X19183524Y-17008167D01*
X19202571Y-16998643D01*
X19231143Y-16998643D01*
X19250190Y-17008167D01*
X19326381Y-17208167D02*
X19335905Y-17198643D01*
X19354952Y-17170071D01*
X19364476Y-17151024D01*
X19374000Y-17122452D01*
X19383524Y-17074833D01*
X19383524Y-17036738D01*
X19374000Y-16989119D01*
X19364476Y-16960548D01*
X19354952Y-16941500D01*
X19335905Y-16912929D01*
X19326381Y-16903405D01*
D16*
X14263000Y-17255000D02*
X14364000Y-17356000D01*
X14364000Y-17255000D02*
X14263000Y-17356000D01*
X14364000Y-17305500D02*
G75*
G03*
X14364000Y-17305500I-50500J0D01*
G01*
D10*
X14726381Y-17395976D02*
X14612095Y-17395976D01*
X14669238Y-17395976D02*
X14669238Y-17195976D01*
X14650190Y-17224548D01*
X14631143Y-17243595D01*
X14612095Y-17253119D01*
X14812095Y-17376929D02*
X14821619Y-17386452D01*
X14812095Y-17395976D01*
X14802571Y-17386452D01*
X14812095Y-17376929D01*
X14812095Y-17395976D01*
X14945428Y-17195976D02*
X14964476Y-17195976D01*
X14983524Y-17205500D01*
X14993048Y-17215024D01*
X15002571Y-17234071D01*
X15012095Y-17272167D01*
X15012095Y-17319786D01*
X15002571Y-17357881D01*
X14993048Y-17376929D01*
X14983524Y-17386452D01*
X14964476Y-17395976D01*
X14945428Y-17395976D01*
X14926381Y-17386452D01*
X14916857Y-17376929D01*
X14907333Y-17357881D01*
X14897809Y-17319786D01*
X14897809Y-17272167D01*
X14907333Y-17234071D01*
X14916857Y-17215024D01*
X14926381Y-17205500D01*
X14945428Y-17195976D01*
X15202571Y-17395976D02*
X15088286Y-17395976D01*
X15145428Y-17395976D02*
X15145428Y-17195976D01*
X15126381Y-17224548D01*
X15107333Y-17243595D01*
X15088286Y-17253119D01*
X15326381Y-17195976D02*
X15345428Y-17195976D01*
X15364476Y-17205500D01*
X15374000Y-17215024D01*
X15383524Y-17234071D01*
X15393048Y-17272167D01*
X15393048Y-17319786D01*
X15383524Y-17357881D01*
X15374000Y-17376929D01*
X15364476Y-17386452D01*
X15345428Y-17395976D01*
X15326381Y-17395976D01*
X15307333Y-17386452D01*
X15297809Y-17376929D01*
X15288286Y-17357881D01*
X15278762Y-17319786D01*
X15278762Y-17272167D01*
X15288286Y-17234071D01*
X15297809Y-17215024D01*
X15307333Y-17205500D01*
X15326381Y-17195976D01*
X15478762Y-17395976D02*
X15478762Y-17262643D01*
X15478762Y-17281690D02*
X15488286Y-17272167D01*
X15507333Y-17262643D01*
X15535905Y-17262643D01*
X15554952Y-17272167D01*
X15564476Y-17291214D01*
X15564476Y-17395976D01*
X15564476Y-17291214D02*
X15574000Y-17272167D01*
X15593048Y-17262643D01*
X15621619Y-17262643D01*
X15640667Y-17272167D01*
X15650190Y-17291214D01*
X15650190Y-17395976D01*
X15745428Y-17395976D02*
X15745428Y-17262643D01*
X15745428Y-17281690D02*
X15754952Y-17272167D01*
X15774000Y-17262643D01*
X15802571Y-17262643D01*
X15821619Y-17272167D01*
X15831143Y-17291214D01*
X15831143Y-17395976D01*
X15831143Y-17291214D02*
X15840667Y-17272167D01*
X15859714Y-17262643D01*
X15888286Y-17262643D01*
X15907333Y-17272167D01*
X15916857Y-17291214D01*
X15916857Y-17395976D01*
X16307333Y-17186452D02*
X16135905Y-17443595D01*
X16564476Y-17195976D02*
X16583524Y-17195976D01*
X16602571Y-17205500D01*
X16612095Y-17215024D01*
X16621619Y-17234071D01*
X16631143Y-17272167D01*
X16631143Y-17319786D01*
X16621619Y-17357881D01*
X16612095Y-17376929D01*
X16602571Y-17386452D01*
X16583524Y-17395976D01*
X16564476Y-17395976D01*
X16545428Y-17386452D01*
X16535905Y-17376929D01*
X16526381Y-17357881D01*
X16516857Y-17319786D01*
X16516857Y-17272167D01*
X16526381Y-17234071D01*
X16535905Y-17215024D01*
X16545428Y-17205500D01*
X16564476Y-17195976D01*
X16716857Y-17376929D02*
X16726381Y-17386452D01*
X16716857Y-17395976D01*
X16707333Y-17386452D01*
X16716857Y-17376929D01*
X16716857Y-17395976D01*
X16850190Y-17195976D02*
X16869238Y-17195976D01*
X16888286Y-17205500D01*
X16897810Y-17215024D01*
X16907333Y-17234071D01*
X16916857Y-17272167D01*
X16916857Y-17319786D01*
X16907333Y-17357881D01*
X16897810Y-17376929D01*
X16888286Y-17386452D01*
X16869238Y-17395976D01*
X16850190Y-17395976D01*
X16831143Y-17386452D01*
X16821619Y-17376929D01*
X16812095Y-17357881D01*
X16802571Y-17319786D01*
X16802571Y-17272167D01*
X16812095Y-17234071D01*
X16821619Y-17215024D01*
X16831143Y-17205500D01*
X16850190Y-17195976D01*
X16983524Y-17195976D02*
X17107333Y-17195976D01*
X17040667Y-17272167D01*
X17069238Y-17272167D01*
X17088286Y-17281690D01*
X17097810Y-17291214D01*
X17107333Y-17310262D01*
X17107333Y-17357881D01*
X17097810Y-17376929D01*
X17088286Y-17386452D01*
X17069238Y-17395976D01*
X17012095Y-17395976D01*
X16993048Y-17386452D01*
X16983524Y-17376929D01*
X17202571Y-17395976D02*
X17240667Y-17395976D01*
X17259714Y-17386452D01*
X17269238Y-17376929D01*
X17288286Y-17348357D01*
X17297810Y-17310262D01*
X17297810Y-17234071D01*
X17288286Y-17215024D01*
X17278762Y-17205500D01*
X17259714Y-17195976D01*
X17221619Y-17195976D01*
X17202571Y-17205500D01*
X17193048Y-17215024D01*
X17183524Y-17234071D01*
X17183524Y-17281690D01*
X17193048Y-17300738D01*
X17202571Y-17310262D01*
X17221619Y-17319786D01*
X17259714Y-17319786D01*
X17278762Y-17310262D01*
X17288286Y-17300738D01*
X17297810Y-17281690D01*
X17412095Y-17281690D02*
X17393048Y-17272167D01*
X17383524Y-17262643D01*
X17374000Y-17243595D01*
X17374000Y-17234071D01*
X17383524Y-17215024D01*
X17393048Y-17205500D01*
X17412095Y-17195976D01*
X17450190Y-17195976D01*
X17469238Y-17205500D01*
X17478762Y-17215024D01*
X17488286Y-17234071D01*
X17488286Y-17243595D01*
X17478762Y-17262643D01*
X17469238Y-17272167D01*
X17450190Y-17281690D01*
X17412095Y-17281690D01*
X17393048Y-17291214D01*
X17383524Y-17300738D01*
X17374000Y-17319786D01*
X17374000Y-17357881D01*
X17383524Y-17376929D01*
X17393048Y-17386452D01*
X17412095Y-17395976D01*
X17450190Y-17395976D01*
X17469238Y-17386452D01*
X17478762Y-17376929D01*
X17488286Y-17357881D01*
X17488286Y-17319786D01*
X17478762Y-17300738D01*
X17469238Y-17291214D01*
X17450190Y-17281690D01*
X17564476Y-17195976D02*
X17564476Y-17234071D01*
X17640667Y-17195976D02*
X17640667Y-17234071D01*
X17935905Y-17472167D02*
X17926381Y-17462643D01*
X17907333Y-17434071D01*
X17897810Y-17415024D01*
X17888286Y-17386452D01*
X17878762Y-17338833D01*
X17878762Y-17300738D01*
X17888286Y-17253119D01*
X17897810Y-17224548D01*
X17907333Y-17205500D01*
X17926381Y-17176929D01*
X17935905Y-17167405D01*
X18002571Y-17215024D02*
X18012095Y-17205500D01*
X18031143Y-17195976D01*
X18078762Y-17195976D01*
X18097810Y-17205500D01*
X18107333Y-17215024D01*
X18116857Y-17234071D01*
X18116857Y-17253119D01*
X18107333Y-17281690D01*
X17993048Y-17395976D01*
X18116857Y-17395976D01*
X18354952Y-17395976D02*
X18354952Y-17195976D01*
X18440667Y-17395976D02*
X18440667Y-17291214D01*
X18431143Y-17272167D01*
X18412095Y-17262643D01*
X18383524Y-17262643D01*
X18364476Y-17272167D01*
X18354952Y-17281690D01*
X18564476Y-17395976D02*
X18545429Y-17386452D01*
X18535905Y-17376929D01*
X18526381Y-17357881D01*
X18526381Y-17300738D01*
X18535905Y-17281690D01*
X18545429Y-17272167D01*
X18564476Y-17262643D01*
X18593048Y-17262643D01*
X18612095Y-17272167D01*
X18621619Y-17281690D01*
X18631143Y-17300738D01*
X18631143Y-17357881D01*
X18621619Y-17376929D01*
X18612095Y-17386452D01*
X18593048Y-17395976D01*
X18564476Y-17395976D01*
X18745429Y-17395976D02*
X18726381Y-17386452D01*
X18716857Y-17367405D01*
X18716857Y-17195976D01*
X18897810Y-17386452D02*
X18878762Y-17395976D01*
X18840667Y-17395976D01*
X18821619Y-17386452D01*
X18812095Y-17367405D01*
X18812095Y-17291214D01*
X18821619Y-17272167D01*
X18840667Y-17262643D01*
X18878762Y-17262643D01*
X18897810Y-17272167D01*
X18907333Y-17291214D01*
X18907333Y-17310262D01*
X18812095Y-17329310D01*
X18983524Y-17386452D02*
X19002571Y-17395976D01*
X19040667Y-17395976D01*
X19059714Y-17386452D01*
X19069238Y-17367405D01*
X19069238Y-17357881D01*
X19059714Y-17338833D01*
X19040667Y-17329310D01*
X19012095Y-17329310D01*
X18993048Y-17319786D01*
X18983524Y-17300738D01*
X18983524Y-17291214D01*
X18993048Y-17272167D01*
X19012095Y-17262643D01*
X19040667Y-17262643D01*
X19059714Y-17272167D01*
X19135905Y-17472167D02*
X19145429Y-17462643D01*
X19164476Y-17434071D01*
X19174000Y-17415024D01*
X19183524Y-17386452D01*
X19193048Y-17338833D01*
X19193048Y-17300738D01*
X19183524Y-17253119D01*
X19174000Y-17224548D01*
X19164476Y-17205500D01*
X19145429Y-17176929D01*
X19135905Y-17167405D01*
D17*
X14234000Y-17504500D02*
X14364000Y-17634500D01*
X14364000Y-17504500D02*
X14234000Y-17634500D01*
X14299000Y-17504500D02*
X14299000Y-17634500D01*
X14234000Y-17569500D02*
X14364000Y-17569500D01*
D10*
X14726381Y-17659976D02*
X14612095Y-17659976D01*
X14669238Y-17659976D02*
X14669238Y-17459976D01*
X14650190Y-17488548D01*
X14631143Y-17507595D01*
X14612095Y-17517119D01*
X14812095Y-17640929D02*
X14821619Y-17650452D01*
X14812095Y-17659976D01*
X14802571Y-17650452D01*
X14812095Y-17640929D01*
X14812095Y-17659976D01*
X14888286Y-17459976D02*
X15012095Y-17459976D01*
X14945428Y-17536167D01*
X14974000Y-17536167D01*
X14993048Y-17545690D01*
X15002571Y-17555214D01*
X15012095Y-17574262D01*
X15012095Y-17621881D01*
X15002571Y-17640929D01*
X14993048Y-17650452D01*
X14974000Y-17659976D01*
X14916857Y-17659976D01*
X14897809Y-17650452D01*
X14888286Y-17640929D01*
X15135905Y-17459976D02*
X15154952Y-17459976D01*
X15174000Y-17469500D01*
X15183524Y-17479024D01*
X15193048Y-17498071D01*
X15202571Y-17536167D01*
X15202571Y-17583786D01*
X15193048Y-17621881D01*
X15183524Y-17640929D01*
X15174000Y-17650452D01*
X15154952Y-17659976D01*
X15135905Y-17659976D01*
X15116857Y-17650452D01*
X15107333Y-17640929D01*
X15097809Y-17621881D01*
X15088286Y-17583786D01*
X15088286Y-17536167D01*
X15097809Y-17498071D01*
X15107333Y-17479024D01*
X15116857Y-17469500D01*
X15135905Y-17459976D01*
X15326381Y-17459976D02*
X15345428Y-17459976D01*
X15364476Y-17469500D01*
X15374000Y-17479024D01*
X15383524Y-17498071D01*
X15393048Y-17536167D01*
X15393048Y-17583786D01*
X15383524Y-17621881D01*
X15374000Y-17640929D01*
X15364476Y-17650452D01*
X15345428Y-17659976D01*
X15326381Y-17659976D01*
X15307333Y-17650452D01*
X15297809Y-17640929D01*
X15288286Y-17621881D01*
X15278762Y-17583786D01*
X15278762Y-17536167D01*
X15288286Y-17498071D01*
X15297809Y-17479024D01*
X15307333Y-17469500D01*
X15326381Y-17459976D01*
X15478762Y-17659976D02*
X15478762Y-17526643D01*
X15478762Y-17545690D02*
X15488286Y-17536167D01*
X15507333Y-17526643D01*
X15535905Y-17526643D01*
X15554952Y-17536167D01*
X15564476Y-17555214D01*
X15564476Y-17659976D01*
X15564476Y-17555214D02*
X15574000Y-17536167D01*
X15593048Y-17526643D01*
X15621619Y-17526643D01*
X15640667Y-17536167D01*
X15650190Y-17555214D01*
X15650190Y-17659976D01*
X15745428Y-17659976D02*
X15745428Y-17526643D01*
X15745428Y-17545690D02*
X15754952Y-17536167D01*
X15774000Y-17526643D01*
X15802571Y-17526643D01*
X15821619Y-17536167D01*
X15831143Y-17555214D01*
X15831143Y-17659976D01*
X15831143Y-17555214D02*
X15840667Y-17536167D01*
X15859714Y-17526643D01*
X15888286Y-17526643D01*
X15907333Y-17536167D01*
X15916857Y-17555214D01*
X15916857Y-17659976D01*
X16307333Y-17450452D02*
X16135905Y-17707595D01*
X16564476Y-17459976D02*
X16583524Y-17459976D01*
X16602571Y-17469500D01*
X16612095Y-17479024D01*
X16621619Y-17498071D01*
X16631143Y-17536167D01*
X16631143Y-17583786D01*
X16621619Y-17621881D01*
X16612095Y-17640929D01*
X16602571Y-17650452D01*
X16583524Y-17659976D01*
X16564476Y-17659976D01*
X16545428Y-17650452D01*
X16535905Y-17640929D01*
X16526381Y-17621881D01*
X16516857Y-17583786D01*
X16516857Y-17536167D01*
X16526381Y-17498071D01*
X16535905Y-17479024D01*
X16545428Y-17469500D01*
X16564476Y-17459976D01*
X16716857Y-17640929D02*
X16726381Y-17650452D01*
X16716857Y-17659976D01*
X16707333Y-17650452D01*
X16716857Y-17640929D01*
X16716857Y-17659976D01*
X16850190Y-17459976D02*
X16869238Y-17459976D01*
X16888286Y-17469500D01*
X16897810Y-17479024D01*
X16907333Y-17498071D01*
X16916857Y-17536167D01*
X16916857Y-17583786D01*
X16907333Y-17621881D01*
X16897810Y-17640929D01*
X16888286Y-17650452D01*
X16869238Y-17659976D01*
X16850190Y-17659976D01*
X16831143Y-17650452D01*
X16821619Y-17640929D01*
X16812095Y-17621881D01*
X16802571Y-17583786D01*
X16802571Y-17536167D01*
X16812095Y-17498071D01*
X16821619Y-17479024D01*
X16831143Y-17469500D01*
X16850190Y-17459976D01*
X17097810Y-17459976D02*
X17002571Y-17459976D01*
X16993048Y-17555214D01*
X17002571Y-17545690D01*
X17021619Y-17536167D01*
X17069238Y-17536167D01*
X17088286Y-17545690D01*
X17097810Y-17555214D01*
X17107333Y-17574262D01*
X17107333Y-17621881D01*
X17097810Y-17640929D01*
X17088286Y-17650452D01*
X17069238Y-17659976D01*
X17021619Y-17659976D01*
X17002571Y-17650452D01*
X16993048Y-17640929D01*
X17297810Y-17659976D02*
X17183524Y-17659976D01*
X17240667Y-17659976D02*
X17240667Y-17459976D01*
X17221619Y-17488548D01*
X17202571Y-17507595D01*
X17183524Y-17517119D01*
X17374000Y-17479024D02*
X17383524Y-17469500D01*
X17402571Y-17459976D01*
X17450190Y-17459976D01*
X17469238Y-17469500D01*
X17478762Y-17479024D01*
X17488286Y-17498071D01*
X17488286Y-17517119D01*
X17478762Y-17545690D01*
X17364476Y-17659976D01*
X17488286Y-17659976D01*
X17564476Y-17459976D02*
X17564476Y-17498071D01*
X17640667Y-17459976D02*
X17640667Y-17498071D01*
X17935905Y-17736167D02*
X17926381Y-17726643D01*
X17907333Y-17698071D01*
X17897810Y-17679024D01*
X17888286Y-17650452D01*
X17878762Y-17602833D01*
X17878762Y-17564738D01*
X17888286Y-17517119D01*
X17897810Y-17488548D01*
X17907333Y-17469500D01*
X17926381Y-17440929D01*
X17935905Y-17431405D01*
X18116857Y-17659976D02*
X18002571Y-17659976D01*
X18059714Y-17659976D02*
X18059714Y-17459976D01*
X18040667Y-17488548D01*
X18021619Y-17507595D01*
X18002571Y-17517119D01*
X18307333Y-17659976D02*
X18193048Y-17659976D01*
X18250190Y-17659976D02*
X18250190Y-17459976D01*
X18231143Y-17488548D01*
X18212095Y-17507595D01*
X18193048Y-17517119D01*
X18545429Y-17659976D02*
X18545429Y-17459976D01*
X18631143Y-17659976D02*
X18631143Y-17555214D01*
X18621619Y-17536167D01*
X18602571Y-17526643D01*
X18574000Y-17526643D01*
X18554952Y-17536167D01*
X18545429Y-17545690D01*
X18754952Y-17659976D02*
X18735905Y-17650452D01*
X18726381Y-17640929D01*
X18716857Y-17621881D01*
X18716857Y-17564738D01*
X18726381Y-17545690D01*
X18735905Y-17536167D01*
X18754952Y-17526643D01*
X18783524Y-17526643D01*
X18802571Y-17536167D01*
X18812095Y-17545690D01*
X18821619Y-17564738D01*
X18821619Y-17621881D01*
X18812095Y-17640929D01*
X18802571Y-17650452D01*
X18783524Y-17659976D01*
X18754952Y-17659976D01*
X18935905Y-17659976D02*
X18916857Y-17650452D01*
X18907333Y-17631405D01*
X18907333Y-17459976D01*
X19088286Y-17650452D02*
X19069238Y-17659976D01*
X19031143Y-17659976D01*
X19012095Y-17650452D01*
X19002571Y-17631405D01*
X19002571Y-17555214D01*
X19012095Y-17536167D01*
X19031143Y-17526643D01*
X19069238Y-17526643D01*
X19088286Y-17536167D01*
X19097810Y-17555214D01*
X19097810Y-17574262D01*
X19002571Y-17593310D01*
X19174000Y-17650452D02*
X19193048Y-17659976D01*
X19231143Y-17659976D01*
X19250190Y-17650452D01*
X19259714Y-17631405D01*
X19259714Y-17621881D01*
X19250190Y-17602833D01*
X19231143Y-17593310D01*
X19202571Y-17593310D01*
X19183524Y-17583786D01*
X19174000Y-17564738D01*
X19174000Y-17555214D01*
X19183524Y-17536167D01*
X19202571Y-17526643D01*
X19231143Y-17526643D01*
X19250190Y-17536167D01*
X19326381Y-17736167D02*
X19335905Y-17726643D01*
X19354952Y-17698071D01*
X19364476Y-17679024D01*
X19374000Y-17650452D01*
X19383524Y-17602833D01*
X19383524Y-17564738D01*
X19374000Y-17517119D01*
X19364476Y-17488548D01*
X19354952Y-17469500D01*
X19335905Y-17440929D01*
X19326381Y-17431405D01*
D18*
X14212000Y-17757500D02*
X14364000Y-17909500D01*
X14364000Y-17757500D02*
X14212000Y-17909500D01*
X14341741Y-17887241D02*
X14341741Y-17779759D01*
X14234259Y-17779759D01*
X14234259Y-17887241D01*
X14341741Y-17887241D01*
D10*
X14726381Y-17923976D02*
X14612095Y-17923976D01*
X14669238Y-17923976D02*
X14669238Y-17723976D01*
X14650190Y-17752548D01*
X14631143Y-17771595D01*
X14612095Y-17781119D01*
X14812095Y-17904929D02*
X14821619Y-17914452D01*
X14812095Y-17923976D01*
X14802571Y-17914452D01*
X14812095Y-17904929D01*
X14812095Y-17923976D01*
X15002571Y-17723976D02*
X14907333Y-17723976D01*
X14897809Y-17819214D01*
X14907333Y-17809690D01*
X14926381Y-17800167D01*
X14974000Y-17800167D01*
X14993048Y-17809690D01*
X15002571Y-17819214D01*
X15012095Y-17838262D01*
X15012095Y-17885881D01*
X15002571Y-17904929D01*
X14993048Y-17914452D01*
X14974000Y-17923976D01*
X14926381Y-17923976D01*
X14907333Y-17914452D01*
X14897809Y-17904929D01*
X15088286Y-17743024D02*
X15097809Y-17733500D01*
X15116857Y-17723976D01*
X15164476Y-17723976D01*
X15183524Y-17733500D01*
X15193048Y-17743024D01*
X15202571Y-17762071D01*
X15202571Y-17781119D01*
X15193048Y-17809690D01*
X15078762Y-17923976D01*
X15202571Y-17923976D01*
X15326381Y-17723976D02*
X15345428Y-17723976D01*
X15364476Y-17733500D01*
X15374000Y-17743024D01*
X15383524Y-17762071D01*
X15393048Y-17800167D01*
X15393048Y-17847786D01*
X15383524Y-17885881D01*
X15374000Y-17904929D01*
X15364476Y-17914452D01*
X15345428Y-17923976D01*
X15326381Y-17923976D01*
X15307333Y-17914452D01*
X15297809Y-17904929D01*
X15288286Y-17885881D01*
X15278762Y-17847786D01*
X15278762Y-17800167D01*
X15288286Y-17762071D01*
X15297809Y-17743024D01*
X15307333Y-17733500D01*
X15326381Y-17723976D01*
X15478762Y-17923976D02*
X15478762Y-17790643D01*
X15478762Y-17809690D02*
X15488286Y-17800167D01*
X15507333Y-17790643D01*
X15535905Y-17790643D01*
X15554952Y-17800167D01*
X15564476Y-17819214D01*
X15564476Y-17923976D01*
X15564476Y-17819214D02*
X15574000Y-17800167D01*
X15593048Y-17790643D01*
X15621619Y-17790643D01*
X15640667Y-17800167D01*
X15650190Y-17819214D01*
X15650190Y-17923976D01*
X15745428Y-17923976D02*
X15745428Y-17790643D01*
X15745428Y-17809690D02*
X15754952Y-17800167D01*
X15774000Y-17790643D01*
X15802571Y-17790643D01*
X15821619Y-17800167D01*
X15831143Y-17819214D01*
X15831143Y-17923976D01*
X15831143Y-17819214D02*
X15840667Y-17800167D01*
X15859714Y-17790643D01*
X15888286Y-17790643D01*
X15907333Y-17800167D01*
X15916857Y-17819214D01*
X15916857Y-17923976D01*
X16307333Y-17714452D02*
X16135905Y-17971595D01*
X16564476Y-17723976D02*
X16583524Y-17723976D01*
X16602571Y-17733500D01*
X16612095Y-17743024D01*
X16621619Y-17762071D01*
X16631143Y-17800167D01*
X16631143Y-17847786D01*
X16621619Y-17885881D01*
X16612095Y-17904929D01*
X16602571Y-17914452D01*
X16583524Y-17923976D01*
X16564476Y-17923976D01*
X16545428Y-17914452D01*
X16535905Y-17904929D01*
X16526381Y-17885881D01*
X16516857Y-17847786D01*
X16516857Y-17800167D01*
X16526381Y-17762071D01*
X16535905Y-17743024D01*
X16545428Y-17733500D01*
X16564476Y-17723976D01*
X16716857Y-17904929D02*
X16726381Y-17914452D01*
X16716857Y-17923976D01*
X16707333Y-17914452D01*
X16716857Y-17904929D01*
X16716857Y-17923976D01*
X16850190Y-17723976D02*
X16869238Y-17723976D01*
X16888286Y-17733500D01*
X16897810Y-17743024D01*
X16907333Y-17762071D01*
X16916857Y-17800167D01*
X16916857Y-17847786D01*
X16907333Y-17885881D01*
X16897810Y-17904929D01*
X16888286Y-17914452D01*
X16869238Y-17923976D01*
X16850190Y-17923976D01*
X16831143Y-17914452D01*
X16821619Y-17904929D01*
X16812095Y-17885881D01*
X16802571Y-17847786D01*
X16802571Y-17800167D01*
X16812095Y-17762071D01*
X16821619Y-17743024D01*
X16831143Y-17733500D01*
X16850190Y-17723976D01*
X17097810Y-17723976D02*
X17002571Y-17723976D01*
X16993048Y-17819214D01*
X17002571Y-17809690D01*
X17021619Y-17800167D01*
X17069238Y-17800167D01*
X17088286Y-17809690D01*
X17097810Y-17819214D01*
X17107333Y-17838262D01*
X17107333Y-17885881D01*
X17097810Y-17904929D01*
X17088286Y-17914452D01*
X17069238Y-17923976D01*
X17021619Y-17923976D01*
X17002571Y-17914452D01*
X16993048Y-17904929D01*
X17202571Y-17923976D02*
X17240667Y-17923976D01*
X17259714Y-17914452D01*
X17269238Y-17904929D01*
X17288286Y-17876357D01*
X17297810Y-17838262D01*
X17297810Y-17762071D01*
X17288286Y-17743024D01*
X17278762Y-17733500D01*
X17259714Y-17723976D01*
X17221619Y-17723976D01*
X17202571Y-17733500D01*
X17193048Y-17743024D01*
X17183524Y-17762071D01*
X17183524Y-17809690D01*
X17193048Y-17828738D01*
X17202571Y-17838262D01*
X17221619Y-17847786D01*
X17259714Y-17847786D01*
X17278762Y-17838262D01*
X17288286Y-17828738D01*
X17297810Y-17809690D01*
X17412095Y-17809690D02*
X17393048Y-17800167D01*
X17383524Y-17790643D01*
X17374000Y-17771595D01*
X17374000Y-17762071D01*
X17383524Y-17743024D01*
X17393048Y-17733500D01*
X17412095Y-17723976D01*
X17450190Y-17723976D01*
X17469238Y-17733500D01*
X17478762Y-17743024D01*
X17488286Y-17762071D01*
X17488286Y-17771595D01*
X17478762Y-17790643D01*
X17469238Y-17800167D01*
X17450190Y-17809690D01*
X17412095Y-17809690D01*
X17393048Y-17819214D01*
X17383524Y-17828738D01*
X17374000Y-17847786D01*
X17374000Y-17885881D01*
X17383524Y-17904929D01*
X17393048Y-17914452D01*
X17412095Y-17923976D01*
X17450190Y-17923976D01*
X17469238Y-17914452D01*
X17478762Y-17904929D01*
X17488286Y-17885881D01*
X17488286Y-17847786D01*
X17478762Y-17828738D01*
X17469238Y-17819214D01*
X17450190Y-17809690D01*
X17564476Y-17723976D02*
X17564476Y-17762071D01*
X17640667Y-17723976D02*
X17640667Y-17762071D01*
X17935905Y-18000167D02*
X17926381Y-17990643D01*
X17907333Y-17962071D01*
X17897810Y-17943024D01*
X17888286Y-17914452D01*
X17878762Y-17866833D01*
X17878762Y-17828738D01*
X17888286Y-17781119D01*
X17897810Y-17752548D01*
X17907333Y-17733500D01*
X17926381Y-17704929D01*
X17935905Y-17695405D01*
X18002571Y-17743024D02*
X18012095Y-17733500D01*
X18031143Y-17723976D01*
X18078762Y-17723976D01*
X18097810Y-17733500D01*
X18107333Y-17743024D01*
X18116857Y-17762071D01*
X18116857Y-17781119D01*
X18107333Y-17809690D01*
X17993048Y-17923976D01*
X18116857Y-17923976D01*
X18354952Y-17923976D02*
X18354952Y-17723976D01*
X18440667Y-17923976D02*
X18440667Y-17819214D01*
X18431143Y-17800167D01*
X18412095Y-17790643D01*
X18383524Y-17790643D01*
X18364476Y-17800167D01*
X18354952Y-17809690D01*
X18564476Y-17923976D02*
X18545429Y-17914452D01*
X18535905Y-17904929D01*
X18526381Y-17885881D01*
X18526381Y-17828738D01*
X18535905Y-17809690D01*
X18545429Y-17800167D01*
X18564476Y-17790643D01*
X18593048Y-17790643D01*
X18612095Y-17800167D01*
X18621619Y-17809690D01*
X18631143Y-17828738D01*
X18631143Y-17885881D01*
X18621619Y-17904929D01*
X18612095Y-17914452D01*
X18593048Y-17923976D01*
X18564476Y-17923976D01*
X18745429Y-17923976D02*
X18726381Y-17914452D01*
X18716857Y-17895405D01*
X18716857Y-17723976D01*
X18897810Y-17914452D02*
X18878762Y-17923976D01*
X18840667Y-17923976D01*
X18821619Y-17914452D01*
X18812095Y-17895405D01*
X18812095Y-17819214D01*
X18821619Y-17800167D01*
X18840667Y-17790643D01*
X18878762Y-17790643D01*
X18897810Y-17800167D01*
X18907333Y-17819214D01*
X18907333Y-17838262D01*
X18812095Y-17857310D01*
X18983524Y-17914452D02*
X19002571Y-17923976D01*
X19040667Y-17923976D01*
X19059714Y-17914452D01*
X19069238Y-17895405D01*
X19069238Y-17885881D01*
X19059714Y-17866833D01*
X19040667Y-17857310D01*
X19012095Y-17857310D01*
X18993048Y-17847786D01*
X18983524Y-17828738D01*
X18983524Y-17819214D01*
X18993048Y-17800167D01*
X19012095Y-17790643D01*
X19040667Y-17790643D01*
X19059714Y-17800167D01*
X19135905Y-18000167D02*
X19145429Y-17990643D01*
X19164476Y-17962071D01*
X19174000Y-17943024D01*
X19183524Y-17914452D01*
X19193048Y-17866833D01*
X19193048Y-17828738D01*
X19183524Y-17781119D01*
X19174000Y-17752548D01*
X19164476Y-17733500D01*
X19145429Y-17704929D01*
X19135905Y-17695405D01*
M02*
