G04 #@! TF.GenerationSoftware,KiCad,Pcbnew,(6.0.9)*
G04 #@! TF.CreationDate,2022-11-26T17:41:20+01:00*
G04 #@! TF.ProjectId,LDAD_Junction_Box_79x31mm_AC220V,4c444144-5f4a-4756-9e63-74696f6e5f42,5.3*
G04 #@! TF.SameCoordinates,Original*
G04 #@! TF.FileFunction,Soldermask,Bot*
G04 #@! TF.FilePolarity,Negative*
%FSLAX46Y46*%
G04 Gerber Fmt 4.6, Leading zero omitted, Abs format (unit mm)*
G04 Created by KiCad (PCBNEW (6.0.9)) date 2022-11-26 17:41:20*
%MOMM*%
%LPD*%
G01*
G04 APERTURE LIST*
G04 Aperture macros list*
%AMRoundRect*
0 Rectangle with rounded corners*
0 $1 Rounding radius*
0 $2 $3 $4 $5 $6 $7 $8 $9 X,Y pos of 4 corners*
0 Add a 4 corners polygon primitive as box body*
4,1,4,$2,$3,$4,$5,$6,$7,$8,$9,$2,$3,0*
0 Add four circle primitives for the rounded corners*
1,1,$1+$1,$2,$3*
1,1,$1+$1,$4,$5*
1,1,$1+$1,$6,$7*
1,1,$1+$1,$8,$9*
0 Add four rect primitives between the rounded corners*
20,1,$1+$1,$2,$3,$4,$5,0*
20,1,$1+$1,$4,$5,$6,$7,0*
20,1,$1+$1,$6,$7,$8,$9,0*
20,1,$1+$1,$8,$9,$2,$3,0*%
G04 Aperture macros list end*
%ADD10C,0.100000*%
%ADD11C,0.150000*%
%ADD12C,0.300000*%
%ADD13C,0.400000*%
G04 #@! TA.AperFunction,Profile*
%ADD14C,0.120000*%
G04 #@! TD*
%ADD15R,2.300000X2.000000*%
%ADD16C,2.300000*%
%ADD17RoundRect,0.150000X-0.625000X0.150000X-0.625000X-0.150000X0.625000X-0.150000X0.625000X0.150000X0*%
%ADD18RoundRect,0.250000X-0.650000X0.350000X-0.650000X-0.350000X0.650000X-0.350000X0.650000X0.350000X0*%
%ADD19C,2.010000*%
%ADD20R,1.300000X1.000000*%
%ADD21RoundRect,0.250000X0.350000X0.450000X-0.350000X0.450000X-0.350000X-0.450000X0.350000X-0.450000X0*%
%ADD22R,1.000000X1.000000*%
%ADD23O,1.000000X1.000000*%
%ADD24R,2.600000X2.600000*%
%ADD25C,2.600000*%
%ADD26RoundRect,0.225000X-0.250000X0.225000X-0.250000X-0.225000X0.250000X-0.225000X0.250000X0.225000X0*%
%ADD27R,2.000000X2.000000*%
%ADD28C,2.000000*%
%ADD29C,0.700000*%
%ADD30O,0.800000X1.500000*%
%ADD31RoundRect,0.200000X0.200000X0.275000X-0.200000X0.275000X-0.200000X-0.275000X0.200000X-0.275000X0*%
%ADD32RoundRect,0.250001X-0.624999X0.462499X-0.624999X-0.462499X0.624999X-0.462499X0.624999X0.462499X0*%
%ADD33C,1.800000*%
%ADD34RoundRect,0.200000X-0.200000X-0.275000X0.200000X-0.275000X0.200000X0.275000X-0.200000X0.275000X0*%
%ADD35RoundRect,0.020500X-0.184500X0.729500X-0.184500X-0.729500X0.184500X-0.729500X0.184500X0.729500X0*%
%ADD36RoundRect,0.000050X-0.000450X0.000450X-0.000450X-0.000450X0.000450X-0.000450X0.000450X0.000450X0*%
%ADD37RoundRect,0.018200X-0.111800X0.421800X-0.111800X-0.421800X0.111800X-0.421800X0.111800X0.421800X0*%
%ADD38RoundRect,0.018200X0.421800X0.111800X-0.421800X0.111800X-0.421800X-0.111800X0.421800X-0.111800X0*%
%ADD39RoundRect,0.018200X-0.421800X-0.111800X0.421800X-0.111800X0.421800X0.111800X-0.421800X0.111800X0*%
%ADD40R,2.050000X2.050000*%
%ADD41C,0.400000*%
%ADD42R,3.000000X3.000000*%
%ADD43C,3.000000*%
G04 APERTURE END LIST*
D10*
D11*
X177002200Y-166007200D02*
X177002200Y-198007200D01*
X285002200Y-198007200D01*
X285002200Y-166007200D01*
X177002200Y-166007200D01*
D10*
D11*
X10000000Y-10000000D02*
X10000000Y-200007200D01*
X287002200Y-200007200D01*
X287002200Y-10000000D01*
X10000000Y-10000000D01*
D10*
D11*
X12000000Y-12000000D02*
X12000000Y-198007200D01*
X285002200Y-198007200D01*
X285002200Y-12000000D01*
X12000000Y-12000000D01*
D10*
D11*
X60000000Y-12000000D02*
X60000000Y-10000000D01*
D10*
D11*
X110000000Y-12000000D02*
X110000000Y-10000000D01*
D10*
D11*
X160000000Y-12000000D02*
X160000000Y-10000000D01*
D10*
D11*
X210000000Y-12000000D02*
X210000000Y-10000000D01*
D10*
D11*
X260000000Y-12000000D02*
X260000000Y-10000000D01*
D10*
D11*
X36065476Y-11588095D02*
X35322619Y-11588095D01*
X35694047Y-11588095D02*
X35694047Y-10288095D01*
X35570238Y-10473809D01*
X35446428Y-10597619D01*
X35322619Y-10659523D01*
D10*
D11*
X85322619Y-10411904D02*
X85384523Y-10350000D01*
X85508333Y-10288095D01*
X85817857Y-10288095D01*
X85941666Y-10350000D01*
X86003571Y-10411904D01*
X86065476Y-10535714D01*
X86065476Y-10659523D01*
X86003571Y-10845238D01*
X85260714Y-11588095D01*
X86065476Y-11588095D01*
D10*
D11*
X135260714Y-10288095D02*
X136065476Y-10288095D01*
X135632142Y-10783333D01*
X135817857Y-10783333D01*
X135941666Y-10845238D01*
X136003571Y-10907142D01*
X136065476Y-11030952D01*
X136065476Y-11340476D01*
X136003571Y-11464285D01*
X135941666Y-11526190D01*
X135817857Y-11588095D01*
X135446428Y-11588095D01*
X135322619Y-11526190D01*
X135260714Y-11464285D01*
D10*
D11*
X185941666Y-10721428D02*
X185941666Y-11588095D01*
X185632142Y-10226190D02*
X185322619Y-11154761D01*
X186127380Y-11154761D01*
D10*
D11*
X236003571Y-10288095D02*
X235384523Y-10288095D01*
X235322619Y-10907142D01*
X235384523Y-10845238D01*
X235508333Y-10783333D01*
X235817857Y-10783333D01*
X235941666Y-10845238D01*
X236003571Y-10907142D01*
X236065476Y-11030952D01*
X236065476Y-11340476D01*
X236003571Y-11464285D01*
X235941666Y-11526190D01*
X235817857Y-11588095D01*
X235508333Y-11588095D01*
X235384523Y-11526190D01*
X235322619Y-11464285D01*
D10*
D11*
X285941666Y-10288095D02*
X285694047Y-10288095D01*
X285570238Y-10350000D01*
X285508333Y-10411904D01*
X285384523Y-10597619D01*
X285322619Y-10845238D01*
X285322619Y-11340476D01*
X285384523Y-11464285D01*
X285446428Y-11526190D01*
X285570238Y-11588095D01*
X285817857Y-11588095D01*
X285941666Y-11526190D01*
X286003571Y-11464285D01*
X286065476Y-11340476D01*
X286065476Y-11030952D01*
X286003571Y-10907142D01*
X285941666Y-10845238D01*
X285817857Y-10783333D01*
X285570238Y-10783333D01*
X285446428Y-10845238D01*
X285384523Y-10907142D01*
X285322619Y-11030952D01*
D10*
D11*
X60000000Y-198007200D02*
X60000000Y-200007200D01*
D10*
D11*
X110000000Y-198007200D02*
X110000000Y-200007200D01*
D10*
D11*
X160000000Y-198007200D02*
X160000000Y-200007200D01*
D10*
D11*
X210000000Y-198007200D02*
X210000000Y-200007200D01*
D10*
D11*
X260000000Y-198007200D02*
X260000000Y-200007200D01*
D10*
D11*
X36065476Y-199595295D02*
X35322619Y-199595295D01*
X35694047Y-199595295D02*
X35694047Y-198295295D01*
X35570238Y-198481009D01*
X35446428Y-198604819D01*
X35322619Y-198666723D01*
D10*
D11*
X85322619Y-198419104D02*
X85384523Y-198357200D01*
X85508333Y-198295295D01*
X85817857Y-198295295D01*
X85941666Y-198357200D01*
X86003571Y-198419104D01*
X86065476Y-198542914D01*
X86065476Y-198666723D01*
X86003571Y-198852438D01*
X85260714Y-199595295D01*
X86065476Y-199595295D01*
D10*
D11*
X135260714Y-198295295D02*
X136065476Y-198295295D01*
X135632142Y-198790533D01*
X135817857Y-198790533D01*
X135941666Y-198852438D01*
X136003571Y-198914342D01*
X136065476Y-199038152D01*
X136065476Y-199347676D01*
X136003571Y-199471485D01*
X135941666Y-199533390D01*
X135817857Y-199595295D01*
X135446428Y-199595295D01*
X135322619Y-199533390D01*
X135260714Y-199471485D01*
D10*
D11*
X185941666Y-198728628D02*
X185941666Y-199595295D01*
X185632142Y-198233390D02*
X185322619Y-199161961D01*
X186127380Y-199161961D01*
D10*
D11*
X236003571Y-198295295D02*
X235384523Y-198295295D01*
X235322619Y-198914342D01*
X235384523Y-198852438D01*
X235508333Y-198790533D01*
X235817857Y-198790533D01*
X235941666Y-198852438D01*
X236003571Y-198914342D01*
X236065476Y-199038152D01*
X236065476Y-199347676D01*
X236003571Y-199471485D01*
X235941666Y-199533390D01*
X235817857Y-199595295D01*
X235508333Y-199595295D01*
X235384523Y-199533390D01*
X235322619Y-199471485D01*
D10*
D11*
X285941666Y-198295295D02*
X285694047Y-198295295D01*
X285570238Y-198357200D01*
X285508333Y-198419104D01*
X285384523Y-198604819D01*
X285322619Y-198852438D01*
X285322619Y-199347676D01*
X285384523Y-199471485D01*
X285446428Y-199533390D01*
X285570238Y-199595295D01*
X285817857Y-199595295D01*
X285941666Y-199533390D01*
X286003571Y-199471485D01*
X286065476Y-199347676D01*
X286065476Y-199038152D01*
X286003571Y-198914342D01*
X285941666Y-198852438D01*
X285817857Y-198790533D01*
X285570238Y-198790533D01*
X285446428Y-198852438D01*
X285384523Y-198914342D01*
X285322619Y-199038152D01*
D10*
D11*
X10000000Y-60000000D02*
X12000000Y-60000000D01*
D10*
D11*
X10000000Y-110000000D02*
X12000000Y-110000000D01*
D10*
D11*
X10000000Y-160000000D02*
X12000000Y-160000000D01*
D10*
D11*
X10690476Y-35216666D02*
X11309523Y-35216666D01*
X10566666Y-35588095D02*
X11000000Y-34288095D01*
X11433333Y-35588095D01*
D10*
D11*
X11092857Y-84907142D02*
X11278571Y-84969047D01*
X11340476Y-85030952D01*
X11402380Y-85154761D01*
X11402380Y-85340476D01*
X11340476Y-85464285D01*
X11278571Y-85526190D01*
X11154761Y-85588095D01*
X10659523Y-85588095D01*
X10659523Y-84288095D01*
X11092857Y-84288095D01*
X11216666Y-84350000D01*
X11278571Y-84411904D01*
X11340476Y-84535714D01*
X11340476Y-84659523D01*
X11278571Y-84783333D01*
X11216666Y-84845238D01*
X11092857Y-84907142D01*
X10659523Y-84907142D01*
D10*
D11*
X11402380Y-135464285D02*
X11340476Y-135526190D01*
X11154761Y-135588095D01*
X11030952Y-135588095D01*
X10845238Y-135526190D01*
X10721428Y-135402380D01*
X10659523Y-135278571D01*
X10597619Y-135030952D01*
X10597619Y-134845238D01*
X10659523Y-134597619D01*
X10721428Y-134473809D01*
X10845238Y-134350000D01*
X11030952Y-134288095D01*
X11154761Y-134288095D01*
X11340476Y-134350000D01*
X11402380Y-134411904D01*
D10*
D11*
X10659523Y-185588095D02*
X10659523Y-184288095D01*
X10969047Y-184288095D01*
X11154761Y-184350000D01*
X11278571Y-184473809D01*
X11340476Y-184597619D01*
X11402380Y-184845238D01*
X11402380Y-185030952D01*
X11340476Y-185278571D01*
X11278571Y-185402380D01*
X11154761Y-185526190D01*
X10969047Y-185588095D01*
X10659523Y-185588095D01*
D10*
D11*
X287002200Y-60000000D02*
X285002200Y-60000000D01*
D10*
D11*
X287002200Y-110000000D02*
X285002200Y-110000000D01*
D10*
D11*
X287002200Y-160000000D02*
X285002200Y-160000000D01*
D10*
D11*
X285692676Y-35216666D02*
X286311723Y-35216666D01*
X285568866Y-35588095D02*
X286002200Y-34288095D01*
X286435533Y-35588095D01*
D10*
D11*
X286095057Y-84907142D02*
X286280771Y-84969047D01*
X286342676Y-85030952D01*
X286404580Y-85154761D01*
X286404580Y-85340476D01*
X286342676Y-85464285D01*
X286280771Y-85526190D01*
X286156961Y-85588095D01*
X285661723Y-85588095D01*
X285661723Y-84288095D01*
X286095057Y-84288095D01*
X286218866Y-84350000D01*
X286280771Y-84411904D01*
X286342676Y-84535714D01*
X286342676Y-84659523D01*
X286280771Y-84783333D01*
X286218866Y-84845238D01*
X286095057Y-84907142D01*
X285661723Y-84907142D01*
D10*
D11*
X286404580Y-135464285D02*
X286342676Y-135526190D01*
X286156961Y-135588095D01*
X286033152Y-135588095D01*
X285847438Y-135526190D01*
X285723628Y-135402380D01*
X285661723Y-135278571D01*
X285599819Y-135030952D01*
X285599819Y-134845238D01*
X285661723Y-134597619D01*
X285723628Y-134473809D01*
X285847438Y-134350000D01*
X286033152Y-134288095D01*
X286156961Y-134288095D01*
X286342676Y-134350000D01*
X286404580Y-134411904D01*
D10*
D11*
X285661723Y-185588095D02*
X285661723Y-184288095D01*
X285971247Y-184288095D01*
X286156961Y-184350000D01*
X286280771Y-184473809D01*
X286342676Y-184597619D01*
X286404580Y-184845238D01*
X286404580Y-185030952D01*
X286342676Y-185278571D01*
X286280771Y-185402380D01*
X286156961Y-185526190D01*
X285971247Y-185588095D01*
X285661723Y-185588095D01*
D10*
D11*
X200434342Y-193785771D02*
X200434342Y-192285771D01*
X200791485Y-192285771D01*
X201005771Y-192357200D01*
X201148628Y-192500057D01*
X201220057Y-192642914D01*
X201291485Y-192928628D01*
X201291485Y-193142914D01*
X201220057Y-193428628D01*
X201148628Y-193571485D01*
X201005771Y-193714342D01*
X200791485Y-193785771D01*
X200434342Y-193785771D01*
X202577200Y-193785771D02*
X202577200Y-193000057D01*
X202505771Y-192857200D01*
X202362914Y-192785771D01*
X202077200Y-192785771D01*
X201934342Y-192857200D01*
X202577200Y-193714342D02*
X202434342Y-193785771D01*
X202077200Y-193785771D01*
X201934342Y-193714342D01*
X201862914Y-193571485D01*
X201862914Y-193428628D01*
X201934342Y-193285771D01*
X202077200Y-193214342D01*
X202434342Y-193214342D01*
X202577200Y-193142914D01*
X203077200Y-192785771D02*
X203648628Y-192785771D01*
X203291485Y-192285771D02*
X203291485Y-193571485D01*
X203362914Y-193714342D01*
X203505771Y-193785771D01*
X203648628Y-193785771D01*
X204720057Y-193714342D02*
X204577200Y-193785771D01*
X204291485Y-193785771D01*
X204148628Y-193714342D01*
X204077200Y-193571485D01*
X204077200Y-193000057D01*
X204148628Y-192857200D01*
X204291485Y-192785771D01*
X204577200Y-192785771D01*
X204720057Y-192857200D01*
X204791485Y-193000057D01*
X204791485Y-193142914D01*
X204077200Y-193285771D01*
X205434342Y-193642914D02*
X205505771Y-193714342D01*
X205434342Y-193785771D01*
X205362914Y-193714342D01*
X205434342Y-193642914D01*
X205434342Y-193785771D01*
X205434342Y-192857200D02*
X205505771Y-192928628D01*
X205434342Y-193000057D01*
X205362914Y-192928628D01*
X205434342Y-192857200D01*
X205434342Y-193000057D01*
X207220057Y-192428628D02*
X207291485Y-192357200D01*
X207434342Y-192285771D01*
X207791485Y-192285771D01*
X207934342Y-192357200D01*
X208005771Y-192428628D01*
X208077200Y-192571485D01*
X208077200Y-192714342D01*
X208005771Y-192928628D01*
X207148628Y-193785771D01*
X208077200Y-193785771D01*
X209005771Y-192285771D02*
X209148628Y-192285771D01*
X209291485Y-192357200D01*
X209362914Y-192428628D01*
X209434342Y-192571485D01*
X209505771Y-192857200D01*
X209505771Y-193214342D01*
X209434342Y-193500057D01*
X209362914Y-193642914D01*
X209291485Y-193714342D01*
X209148628Y-193785771D01*
X209005771Y-193785771D01*
X208862914Y-193714342D01*
X208791485Y-193642914D01*
X208720057Y-193500057D01*
X208648628Y-193214342D01*
X208648628Y-192857200D01*
X208720057Y-192571485D01*
X208791485Y-192428628D01*
X208862914Y-192357200D01*
X209005771Y-192285771D01*
X210077200Y-192428628D02*
X210148628Y-192357200D01*
X210291485Y-192285771D01*
X210648628Y-192285771D01*
X210791485Y-192357200D01*
X210862914Y-192428628D01*
X210934342Y-192571485D01*
X210934342Y-192714342D01*
X210862914Y-192928628D01*
X210005771Y-193785771D01*
X210934342Y-193785771D01*
X212362914Y-193785771D02*
X211505771Y-193785771D01*
X211934342Y-193785771D02*
X211934342Y-192285771D01*
X211791485Y-192500057D01*
X211648628Y-192642914D01*
X211505771Y-192714342D01*
X213005771Y-193214342D02*
X214148628Y-193214342D01*
X215648628Y-193785771D02*
X214791485Y-193785771D01*
X215220057Y-193785771D02*
X215220057Y-192285771D01*
X215077200Y-192500057D01*
X214934342Y-192642914D01*
X214791485Y-192714342D01*
X216220057Y-192428628D02*
X216291485Y-192357200D01*
X216434342Y-192285771D01*
X216791485Y-192285771D01*
X216934342Y-192357200D01*
X217005771Y-192428628D01*
X217077200Y-192571485D01*
X217077200Y-192714342D01*
X217005771Y-192928628D01*
X216148628Y-193785771D01*
X217077200Y-193785771D01*
X217720057Y-193214342D02*
X218862914Y-193214342D01*
X219505771Y-192428628D02*
X219577200Y-192357200D01*
X219720057Y-192285771D01*
X220077200Y-192285771D01*
X220220057Y-192357200D01*
X220291485Y-192428628D01*
X220362914Y-192571485D01*
X220362914Y-192714342D01*
X220291485Y-192928628D01*
X219434342Y-193785771D01*
X220362914Y-193785771D01*
X221220057Y-192928628D02*
X221077200Y-192857200D01*
X221005771Y-192785771D01*
X220934342Y-192642914D01*
X220934342Y-192571485D01*
X221005771Y-192428628D01*
X221077200Y-192357200D01*
X221220057Y-192285771D01*
X221505771Y-192285771D01*
X221648628Y-192357200D01*
X221720057Y-192428628D01*
X221791485Y-192571485D01*
X221791485Y-192642914D01*
X221720057Y-192785771D01*
X221648628Y-192857200D01*
X221505771Y-192928628D01*
X221220057Y-192928628D01*
X221077200Y-193000057D01*
X221005771Y-193071485D01*
X220934342Y-193214342D01*
X220934342Y-193500057D01*
X221005771Y-193642914D01*
X221077200Y-193714342D01*
X221220057Y-193785771D01*
X221505771Y-193785771D01*
X221648628Y-193714342D01*
X221720057Y-193642914D01*
X221791485Y-193500057D01*
X221791485Y-193214342D01*
X221720057Y-193071485D01*
X221648628Y-193000057D01*
X221505771Y-192928628D01*
D10*
D11*
X177002200Y-194507200D02*
X285002200Y-194507200D01*
D10*
D11*
X178434342Y-196585771D02*
X178434342Y-195085771D01*
X179291485Y-196585771D02*
X178648628Y-195728628D01*
X179291485Y-195085771D02*
X178434342Y-195942914D01*
X179934342Y-196585771D02*
X179934342Y-195585771D01*
X179934342Y-195085771D02*
X179862914Y-195157200D01*
X179934342Y-195228628D01*
X180005771Y-195157200D01*
X179934342Y-195085771D01*
X179934342Y-195228628D01*
X181505771Y-196442914D02*
X181434342Y-196514342D01*
X181220057Y-196585771D01*
X181077200Y-196585771D01*
X180862914Y-196514342D01*
X180720057Y-196371485D01*
X180648628Y-196228628D01*
X180577200Y-195942914D01*
X180577200Y-195728628D01*
X180648628Y-195442914D01*
X180720057Y-195300057D01*
X180862914Y-195157200D01*
X181077200Y-195085771D01*
X181220057Y-195085771D01*
X181434342Y-195157200D01*
X181505771Y-195228628D01*
X182791485Y-196585771D02*
X182791485Y-195800057D01*
X182720057Y-195657200D01*
X182577200Y-195585771D01*
X182291485Y-195585771D01*
X182148628Y-195657200D01*
X182791485Y-196514342D02*
X182648628Y-196585771D01*
X182291485Y-196585771D01*
X182148628Y-196514342D01*
X182077200Y-196371485D01*
X182077200Y-196228628D01*
X182148628Y-196085771D01*
X182291485Y-196014342D01*
X182648628Y-196014342D01*
X182791485Y-195942914D01*
X184148628Y-196585771D02*
X184148628Y-195085771D01*
X184148628Y-196514342D02*
X184005771Y-196585771D01*
X183720057Y-196585771D01*
X183577200Y-196514342D01*
X183505771Y-196442914D01*
X183434342Y-196300057D01*
X183434342Y-195871485D01*
X183505771Y-195728628D01*
X183577200Y-195657200D01*
X183720057Y-195585771D01*
X184005771Y-195585771D01*
X184148628Y-195657200D01*
X186005771Y-195800057D02*
X186505771Y-195800057D01*
X186720057Y-196585771D02*
X186005771Y-196585771D01*
X186005771Y-195085771D01*
X186720057Y-195085771D01*
X187362914Y-196442914D02*
X187434342Y-196514342D01*
X187362914Y-196585771D01*
X187291485Y-196514342D01*
X187362914Y-196442914D01*
X187362914Y-196585771D01*
X188077200Y-196585771D02*
X188077200Y-195085771D01*
X188434342Y-195085771D01*
X188648628Y-195157200D01*
X188791485Y-195300057D01*
X188862914Y-195442914D01*
X188934342Y-195728628D01*
X188934342Y-195942914D01*
X188862914Y-196228628D01*
X188791485Y-196371485D01*
X188648628Y-196514342D01*
X188434342Y-196585771D01*
X188077200Y-196585771D01*
X189577200Y-196442914D02*
X189648628Y-196514342D01*
X189577200Y-196585771D01*
X189505771Y-196514342D01*
X189577200Y-196442914D01*
X189577200Y-196585771D01*
X190220057Y-196157200D02*
X190934342Y-196157200D01*
X190077200Y-196585771D02*
X190577200Y-195085771D01*
X191077200Y-196585771D01*
X191577200Y-196442914D02*
X191648628Y-196514342D01*
X191577200Y-196585771D01*
X191505771Y-196514342D01*
X191577200Y-196442914D01*
X191577200Y-196585771D01*
X194577200Y-196585771D02*
X194577200Y-195085771D01*
X194720057Y-196014342D02*
X195148628Y-196585771D01*
X195148628Y-195585771D02*
X194577200Y-196157200D01*
X195791485Y-196585771D02*
X195791485Y-195585771D01*
X195791485Y-195085771D02*
X195720057Y-195157200D01*
X195791485Y-195228628D01*
X195862914Y-195157200D01*
X195791485Y-195085771D01*
X195791485Y-195228628D01*
X197148628Y-196514342D02*
X197005771Y-196585771D01*
X196720057Y-196585771D01*
X196577200Y-196514342D01*
X196505771Y-196442914D01*
X196434342Y-196300057D01*
X196434342Y-195871485D01*
X196505771Y-195728628D01*
X196577200Y-195657200D01*
X196720057Y-195585771D01*
X197005771Y-195585771D01*
X197148628Y-195657200D01*
X198434342Y-196585771D02*
X198434342Y-195800057D01*
X198362914Y-195657200D01*
X198220057Y-195585771D01*
X197934342Y-195585771D01*
X197791485Y-195657200D01*
X198434342Y-196514342D02*
X198291485Y-196585771D01*
X197934342Y-196585771D01*
X197791485Y-196514342D01*
X197720057Y-196371485D01*
X197720057Y-196228628D01*
X197791485Y-196085771D01*
X197934342Y-196014342D01*
X198291485Y-196014342D01*
X198434342Y-195942914D01*
X199791485Y-196585771D02*
X199791485Y-195085771D01*
X199791485Y-196514342D02*
X199648628Y-196585771D01*
X199362914Y-196585771D01*
X199220057Y-196514342D01*
X199148628Y-196442914D01*
X199077200Y-196300057D01*
X199077200Y-195871485D01*
X199148628Y-195728628D01*
X199220057Y-195657200D01*
X199362914Y-195585771D01*
X199648628Y-195585771D01*
X199791485Y-195657200D01*
X202077200Y-197157200D02*
X202005771Y-197085771D01*
X201862914Y-196871485D01*
X201791485Y-196728628D01*
X201720057Y-196514342D01*
X201648628Y-196157200D01*
X201648628Y-195871485D01*
X201720057Y-195514342D01*
X201791485Y-195300057D01*
X201862914Y-195157200D01*
X202005771Y-194942914D01*
X202077200Y-194871485D01*
X203291485Y-195085771D02*
X203005771Y-195085771D01*
X202862914Y-195157200D01*
X202791485Y-195228628D01*
X202648628Y-195442914D01*
X202577200Y-195728628D01*
X202577200Y-196300057D01*
X202648628Y-196442914D01*
X202720057Y-196514342D01*
X202862914Y-196585771D01*
X203148628Y-196585771D01*
X203291485Y-196514342D01*
X203362914Y-196442914D01*
X203434342Y-196300057D01*
X203434342Y-195942914D01*
X203362914Y-195800057D01*
X203291485Y-195728628D01*
X203148628Y-195657200D01*
X202862914Y-195657200D01*
X202720057Y-195728628D01*
X202648628Y-195800057D01*
X202577200Y-195942914D01*
X204077200Y-196442914D02*
X204148628Y-196514342D01*
X204077200Y-196585771D01*
X204005771Y-196514342D01*
X204077200Y-196442914D01*
X204077200Y-196585771D01*
X205077200Y-195085771D02*
X205220057Y-195085771D01*
X205362914Y-195157200D01*
X205434342Y-195228628D01*
X205505771Y-195371485D01*
X205577200Y-195657200D01*
X205577200Y-196014342D01*
X205505771Y-196300057D01*
X205434342Y-196442914D01*
X205362914Y-196514342D01*
X205220057Y-196585771D01*
X205077200Y-196585771D01*
X204934342Y-196514342D01*
X204862914Y-196442914D01*
X204791485Y-196300057D01*
X204720057Y-196014342D01*
X204720057Y-195657200D01*
X204791485Y-195371485D01*
X204862914Y-195228628D01*
X204934342Y-195157200D01*
X205077200Y-195085771D01*
X206220057Y-196442914D02*
X206291485Y-196514342D01*
X206220057Y-196585771D01*
X206148628Y-196514342D01*
X206220057Y-196442914D01*
X206220057Y-196585771D01*
X207005771Y-196585771D02*
X207291485Y-196585771D01*
X207434342Y-196514342D01*
X207505771Y-196442914D01*
X207648628Y-196228628D01*
X207720057Y-195942914D01*
X207720057Y-195371485D01*
X207648628Y-195228628D01*
X207577200Y-195157200D01*
X207434342Y-195085771D01*
X207148628Y-195085771D01*
X207005771Y-195157200D01*
X206934342Y-195228628D01*
X206862914Y-195371485D01*
X206862914Y-195728628D01*
X206934342Y-195871485D01*
X207005771Y-195942914D01*
X207148628Y-196014342D01*
X207434342Y-196014342D01*
X207577200Y-195942914D01*
X207648628Y-195871485D01*
X207720057Y-195728628D01*
X208220057Y-197157200D02*
X208291485Y-197085771D01*
X208434342Y-196871485D01*
X208505771Y-196728628D01*
X208577200Y-196514342D01*
X208648628Y-196157200D01*
X208648628Y-195871485D01*
X208577200Y-195514342D01*
X208505771Y-195300057D01*
X208434342Y-195157200D01*
X208291485Y-194942914D01*
X208220057Y-194871485D01*
D10*
D11*
X177002200Y-191507200D02*
X285002200Y-191507200D01*
D10*
D12*
X264411485Y-193785771D02*
X263911485Y-193071485D01*
X263554342Y-193785771D02*
X263554342Y-192285771D01*
X264125771Y-192285771D01*
X264268628Y-192357200D01*
X264340057Y-192428628D01*
X264411485Y-192571485D01*
X264411485Y-192785771D01*
X264340057Y-192928628D01*
X264268628Y-193000057D01*
X264125771Y-193071485D01*
X263554342Y-193071485D01*
X265625771Y-193714342D02*
X265482914Y-193785771D01*
X265197200Y-193785771D01*
X265054342Y-193714342D01*
X264982914Y-193571485D01*
X264982914Y-193000057D01*
X265054342Y-192857200D01*
X265197200Y-192785771D01*
X265482914Y-192785771D01*
X265625771Y-192857200D01*
X265697200Y-193000057D01*
X265697200Y-193142914D01*
X264982914Y-193285771D01*
X266197200Y-192785771D02*
X266554342Y-193785771D01*
X266911485Y-192785771D01*
X267482914Y-193642914D02*
X267554342Y-193714342D01*
X267482914Y-193785771D01*
X267411485Y-193714342D01*
X267482914Y-193642914D01*
X267482914Y-193785771D01*
X267482914Y-192857200D02*
X267554342Y-192928628D01*
X267482914Y-193000057D01*
X267411485Y-192928628D01*
X267482914Y-192857200D01*
X267482914Y-193000057D01*
X270054342Y-192285771D02*
X269340057Y-192285771D01*
X269268628Y-193000057D01*
X269340057Y-192928628D01*
X269482914Y-192857200D01*
X269840057Y-192857200D01*
X269982914Y-192928628D01*
X270054342Y-193000057D01*
X270125771Y-193142914D01*
X270125771Y-193500057D01*
X270054342Y-193642914D01*
X269982914Y-193714342D01*
X269840057Y-193785771D01*
X269482914Y-193785771D01*
X269340057Y-193714342D01*
X269268628Y-193642914D01*
X270768628Y-193642914D02*
X270840057Y-193714342D01*
X270768628Y-193785771D01*
X270697200Y-193714342D01*
X270768628Y-193642914D01*
X270768628Y-193785771D01*
X271340057Y-192285771D02*
X272268628Y-192285771D01*
X271768628Y-192857200D01*
X271982914Y-192857200D01*
X272125771Y-192928628D01*
X272197200Y-193000057D01*
X272268628Y-193142914D01*
X272268628Y-193500057D01*
X272197200Y-193642914D01*
X272125771Y-193714342D01*
X271982914Y-193785771D01*
X271554342Y-193785771D01*
X271411485Y-193714342D01*
X271340057Y-193642914D01*
D10*
D11*
X178362914Y-193714342D02*
X178577200Y-193785771D01*
X178934342Y-193785771D01*
X179077200Y-193714342D01*
X179148628Y-193642914D01*
X179220057Y-193500057D01*
X179220057Y-193357200D01*
X179148628Y-193214342D01*
X179077200Y-193142914D01*
X178934342Y-193071485D01*
X178648628Y-193000057D01*
X178505771Y-192928628D01*
X178434342Y-192857200D01*
X178362914Y-192714342D01*
X178362914Y-192571485D01*
X178434342Y-192428628D01*
X178505771Y-192357200D01*
X178648628Y-192285771D01*
X179005771Y-192285771D01*
X179220057Y-192357200D01*
X179862914Y-193785771D02*
X179862914Y-192785771D01*
X179862914Y-192285771D02*
X179791485Y-192357200D01*
X179862914Y-192428628D01*
X179934342Y-192357200D01*
X179862914Y-192285771D01*
X179862914Y-192428628D01*
X180434342Y-192785771D02*
X181220057Y-192785771D01*
X180434342Y-193785771D01*
X181220057Y-193785771D01*
X182362914Y-193714342D02*
X182220057Y-193785771D01*
X181934342Y-193785771D01*
X181791485Y-193714342D01*
X181720057Y-193571485D01*
X181720057Y-193000057D01*
X181791485Y-192857200D01*
X181934342Y-192785771D01*
X182220057Y-192785771D01*
X182362914Y-192857200D01*
X182434342Y-193000057D01*
X182434342Y-193142914D01*
X181720057Y-193285771D01*
X183077200Y-193642914D02*
X183148628Y-193714342D01*
X183077200Y-193785771D01*
X183005771Y-193714342D01*
X183077200Y-193642914D01*
X183077200Y-193785771D01*
X183077200Y-192857200D02*
X183148628Y-192928628D01*
X183077200Y-193000057D01*
X183005771Y-192928628D01*
X183077200Y-192857200D01*
X183077200Y-193000057D01*
X184862914Y-193357200D02*
X185577200Y-193357200D01*
X184720057Y-193785771D02*
X185220057Y-192285771D01*
X185720057Y-193785771D01*
X186862914Y-192785771D02*
X186862914Y-193785771D01*
X186505771Y-192214342D02*
X186148628Y-193285771D01*
X187077200Y-193285771D01*
D10*
D11*
X263434342Y-196585771D02*
X263434342Y-195085771D01*
X264791485Y-196585771D02*
X264791485Y-195085771D01*
X264791485Y-196514342D02*
X264648628Y-196585771D01*
X264362914Y-196585771D01*
X264220057Y-196514342D01*
X264148628Y-196442914D01*
X264077200Y-196300057D01*
X264077200Y-195871485D01*
X264148628Y-195728628D01*
X264220057Y-195657200D01*
X264362914Y-195585771D01*
X264648628Y-195585771D01*
X264791485Y-195657200D01*
X265505771Y-196442914D02*
X265577200Y-196514342D01*
X265505771Y-196585771D01*
X265434342Y-196514342D01*
X265505771Y-196442914D01*
X265505771Y-196585771D01*
X265505771Y-195657200D02*
X265577200Y-195728628D01*
X265505771Y-195800057D01*
X265434342Y-195728628D01*
X265505771Y-195657200D01*
X265505771Y-195800057D01*
X268148628Y-196585771D02*
X267291485Y-196585771D01*
X267720057Y-196585771D02*
X267720057Y-195085771D01*
X267577200Y-195300057D01*
X267434342Y-195442914D01*
X267291485Y-195514342D01*
X269862914Y-195014342D02*
X268577200Y-196942914D01*
X271148628Y-196585771D02*
X270291485Y-196585771D01*
X270720057Y-196585771D02*
X270720057Y-195085771D01*
X270577200Y-195300057D01*
X270434342Y-195442914D01*
X270291485Y-195514342D01*
D10*
D11*
X177002200Y-187507200D02*
X285002200Y-187507200D01*
D10*
D13*
X178714580Y-188211961D02*
X179857438Y-188211961D01*
X179036009Y-190211961D02*
X179286009Y-188211961D01*
X180274104Y-190211961D02*
X180440771Y-188878628D01*
X180524104Y-188211961D02*
X180416961Y-188307200D01*
X180500295Y-188402438D01*
X180607438Y-188307200D01*
X180524104Y-188211961D01*
X180500295Y-188402438D01*
X181107438Y-188878628D02*
X181869342Y-188878628D01*
X181476485Y-188211961D02*
X181262200Y-189926247D01*
X181333628Y-190116723D01*
X181512200Y-190211961D01*
X181702676Y-190211961D01*
X182655057Y-190211961D02*
X182476485Y-190116723D01*
X182405057Y-189926247D01*
X182619342Y-188211961D01*
X184190771Y-190116723D02*
X183988390Y-190211961D01*
X183607438Y-190211961D01*
X183428866Y-190116723D01*
X183357438Y-189926247D01*
X183452676Y-189164342D01*
X183571723Y-188973866D01*
X183774104Y-188878628D01*
X184155057Y-188878628D01*
X184333628Y-188973866D01*
X184405057Y-189164342D01*
X184381247Y-189354819D01*
X183405057Y-189545295D01*
X185155057Y-190021485D02*
X185238390Y-190116723D01*
X185131247Y-190211961D01*
X185047914Y-190116723D01*
X185155057Y-190021485D01*
X185131247Y-190211961D01*
X185286009Y-188973866D02*
X185369342Y-189069104D01*
X185262200Y-189164342D01*
X185178866Y-189069104D01*
X185286009Y-188973866D01*
X185262200Y-189164342D01*
D10*
D11*
X178934342Y-185600057D02*
X178434342Y-185600057D01*
X178434342Y-186385771D02*
X178434342Y-184885771D01*
X179148628Y-184885771D01*
X179720057Y-186385771D02*
X179720057Y-185385771D01*
X179720057Y-184885771D02*
X179648628Y-184957200D01*
X179720057Y-185028628D01*
X179791485Y-184957200D01*
X179720057Y-184885771D01*
X179720057Y-185028628D01*
X180648628Y-186385771D02*
X180505771Y-186314342D01*
X180434342Y-186171485D01*
X180434342Y-184885771D01*
X181791485Y-186314342D02*
X181648628Y-186385771D01*
X181362914Y-186385771D01*
X181220057Y-186314342D01*
X181148628Y-186171485D01*
X181148628Y-185600057D01*
X181220057Y-185457200D01*
X181362914Y-185385771D01*
X181648628Y-185385771D01*
X181791485Y-185457200D01*
X181862914Y-185600057D01*
X181862914Y-185742914D01*
X181148628Y-185885771D01*
X182505771Y-186242914D02*
X182577200Y-186314342D01*
X182505771Y-186385771D01*
X182434342Y-186314342D01*
X182505771Y-186242914D01*
X182505771Y-186385771D01*
X182505771Y-185457200D02*
X182577200Y-185528628D01*
X182505771Y-185600057D01*
X182434342Y-185528628D01*
X182505771Y-185457200D01*
X182505771Y-185600057D01*
X185077200Y-186385771D02*
X184362914Y-186385771D01*
X184362914Y-184885771D01*
X185577200Y-186385771D02*
X185577200Y-184885771D01*
X185934342Y-184885771D01*
X186148628Y-184957200D01*
X186291485Y-185100057D01*
X186362914Y-185242914D01*
X186434342Y-185528628D01*
X186434342Y-185742914D01*
X186362914Y-186028628D01*
X186291485Y-186171485D01*
X186148628Y-186314342D01*
X185934342Y-186385771D01*
X185577200Y-186385771D01*
X187005771Y-185957200D02*
X187720057Y-185957200D01*
X186862914Y-186385771D02*
X187362914Y-184885771D01*
X187862914Y-186385771D01*
X188362914Y-186385771D02*
X188362914Y-184885771D01*
X188720057Y-184885771D01*
X188934342Y-184957200D01*
X189077200Y-185100057D01*
X189148628Y-185242914D01*
X189220057Y-185528628D01*
X189220057Y-185742914D01*
X189148628Y-186028628D01*
X189077200Y-186171485D01*
X188934342Y-186314342D01*
X188720057Y-186385771D01*
X188362914Y-186385771D01*
X189505771Y-186528628D02*
X190648628Y-186528628D01*
X191434342Y-184885771D02*
X191434342Y-185957200D01*
X191362914Y-186171485D01*
X191220057Y-186314342D01*
X191005771Y-186385771D01*
X190862914Y-186385771D01*
X192791485Y-185385771D02*
X192791485Y-186385771D01*
X192148628Y-185385771D02*
X192148628Y-186171485D01*
X192220057Y-186314342D01*
X192362914Y-186385771D01*
X192577200Y-186385771D01*
X192720057Y-186314342D01*
X192791485Y-186242914D01*
X193505771Y-185385771D02*
X193505771Y-186385771D01*
X193505771Y-185528628D02*
X193577200Y-185457200D01*
X193720057Y-185385771D01*
X193934342Y-185385771D01*
X194077200Y-185457200D01*
X194148628Y-185600057D01*
X194148628Y-186385771D01*
X195505771Y-186314342D02*
X195362914Y-186385771D01*
X195077200Y-186385771D01*
X194934342Y-186314342D01*
X194862914Y-186242914D01*
X194791485Y-186100057D01*
X194791485Y-185671485D01*
X194862914Y-185528628D01*
X194934342Y-185457200D01*
X195077200Y-185385771D01*
X195362914Y-185385771D01*
X195505771Y-185457200D01*
X195934342Y-185385771D02*
X196505771Y-185385771D01*
X196148628Y-184885771D02*
X196148628Y-186171485D01*
X196220057Y-186314342D01*
X196362914Y-186385771D01*
X196505771Y-186385771D01*
X197005771Y-186385771D02*
X197005771Y-185385771D01*
X197005771Y-184885771D02*
X196934342Y-184957200D01*
X197005771Y-185028628D01*
X197077200Y-184957200D01*
X197005771Y-184885771D01*
X197005771Y-185028628D01*
X197934342Y-186385771D02*
X197791485Y-186314342D01*
X197720057Y-186242914D01*
X197648628Y-186100057D01*
X197648628Y-185671485D01*
X197720057Y-185528628D01*
X197791485Y-185457200D01*
X197934342Y-185385771D01*
X198148628Y-185385771D01*
X198291485Y-185457200D01*
X198362914Y-185528628D01*
X198434342Y-185671485D01*
X198434342Y-186100057D01*
X198362914Y-186242914D01*
X198291485Y-186314342D01*
X198148628Y-186385771D01*
X197934342Y-186385771D01*
X199077200Y-185385771D02*
X199077200Y-186385771D01*
X199077200Y-185528628D02*
X199148628Y-185457200D01*
X199291485Y-185385771D01*
X199505771Y-185385771D01*
X199648628Y-185457200D01*
X199720057Y-185600057D01*
X199720057Y-186385771D01*
X200077200Y-186528628D02*
X201220057Y-186528628D01*
X202077200Y-185600057D02*
X202291485Y-185671485D01*
X202362914Y-185742914D01*
X202434342Y-185885771D01*
X202434342Y-186100057D01*
X202362914Y-186242914D01*
X202291485Y-186314342D01*
X202148628Y-186385771D01*
X201577200Y-186385771D01*
X201577200Y-184885771D01*
X202077200Y-184885771D01*
X202220057Y-184957200D01*
X202291485Y-185028628D01*
X202362914Y-185171485D01*
X202362914Y-185314342D01*
X202291485Y-185457200D01*
X202220057Y-185528628D01*
X202077200Y-185600057D01*
X201577200Y-185600057D01*
X203291485Y-186385771D02*
X203148628Y-186314342D01*
X203077200Y-186242914D01*
X203005771Y-186100057D01*
X203005771Y-185671485D01*
X203077200Y-185528628D01*
X203148628Y-185457200D01*
X203291485Y-185385771D01*
X203505771Y-185385771D01*
X203648628Y-185457200D01*
X203720057Y-185528628D01*
X203791485Y-185671485D01*
X203791485Y-186100057D01*
X203720057Y-186242914D01*
X203648628Y-186314342D01*
X203505771Y-186385771D01*
X203291485Y-186385771D01*
X204291485Y-186385771D02*
X205077200Y-185385771D01*
X204291485Y-185385771D02*
X205077200Y-186385771D01*
X205291485Y-186528628D02*
X206434342Y-186528628D01*
X206648628Y-184885771D02*
X207648628Y-184885771D01*
X207005771Y-186385771D01*
X208291485Y-186385771D02*
X208577200Y-186385771D01*
X208720057Y-186314342D01*
X208791485Y-186242914D01*
X208934342Y-186028628D01*
X209005771Y-185742914D01*
X209005771Y-185171485D01*
X208934342Y-185028628D01*
X208862914Y-184957200D01*
X208720057Y-184885771D01*
X208434342Y-184885771D01*
X208291485Y-184957200D01*
X208220057Y-185028628D01*
X208148628Y-185171485D01*
X208148628Y-185528628D01*
X208220057Y-185671485D01*
X208291485Y-185742914D01*
X208434342Y-185814342D01*
X208720057Y-185814342D01*
X208862914Y-185742914D01*
X208934342Y-185671485D01*
X209005771Y-185528628D01*
X209505771Y-186385771D02*
X210291485Y-185385771D01*
X209505771Y-185385771D02*
X210291485Y-186385771D01*
X210720057Y-184885771D02*
X211648628Y-184885771D01*
X211148628Y-185457200D01*
X211362914Y-185457200D01*
X211505771Y-185528628D01*
X211577200Y-185600057D01*
X211648628Y-185742914D01*
X211648628Y-186100057D01*
X211577200Y-186242914D01*
X211505771Y-186314342D01*
X211362914Y-186385771D01*
X210934342Y-186385771D01*
X210791485Y-186314342D01*
X210720057Y-186242914D01*
X213077200Y-186385771D02*
X212220057Y-186385771D01*
X212648628Y-186385771D02*
X212648628Y-184885771D01*
X212505771Y-185100057D01*
X212362914Y-185242914D01*
X212220057Y-185314342D01*
X213720057Y-186385771D02*
X213720057Y-185385771D01*
X213720057Y-185528628D02*
X213791485Y-185457200D01*
X213934342Y-185385771D01*
X214148628Y-185385771D01*
X214291485Y-185457200D01*
X214362914Y-185600057D01*
X214362914Y-186385771D01*
X214362914Y-185600057D02*
X214434342Y-185457200D01*
X214577200Y-185385771D01*
X214791485Y-185385771D01*
X214934342Y-185457200D01*
X215005771Y-185600057D01*
X215005771Y-186385771D01*
X215720057Y-186385771D02*
X215720057Y-185385771D01*
X215720057Y-185528628D02*
X215791485Y-185457200D01*
X215934342Y-185385771D01*
X216148628Y-185385771D01*
X216291485Y-185457200D01*
X216362914Y-185600057D01*
X216362914Y-186385771D01*
X216362914Y-185600057D02*
X216434342Y-185457200D01*
X216577200Y-185385771D01*
X216791485Y-185385771D01*
X216934342Y-185457200D01*
X217005771Y-185600057D01*
X217005771Y-186385771D01*
X217362914Y-186528628D02*
X218505771Y-186528628D01*
X218791485Y-185957200D02*
X219505771Y-185957200D01*
X218648628Y-186385771D02*
X219148628Y-184885771D01*
X219648628Y-186385771D01*
X221005771Y-186242914D02*
X220934342Y-186314342D01*
X220720057Y-186385771D01*
X220577200Y-186385771D01*
X220362914Y-186314342D01*
X220220057Y-186171485D01*
X220148628Y-186028628D01*
X220077200Y-185742914D01*
X220077200Y-185528628D01*
X220148628Y-185242914D01*
X220220057Y-185100057D01*
X220362914Y-184957200D01*
X220577200Y-184885771D01*
X220720057Y-184885771D01*
X220934342Y-184957200D01*
X221005771Y-185028628D01*
X221577200Y-185028628D02*
X221648628Y-184957200D01*
X221791485Y-184885771D01*
X222148628Y-184885771D01*
X222291485Y-184957200D01*
X222362914Y-185028628D01*
X222434342Y-185171485D01*
X222434342Y-185314342D01*
X222362914Y-185528628D01*
X221505771Y-186385771D01*
X222434342Y-186385771D01*
X223005771Y-185028628D02*
X223077200Y-184957200D01*
X223220057Y-184885771D01*
X223577200Y-184885771D01*
X223720057Y-184957200D01*
X223791485Y-185028628D01*
X223862914Y-185171485D01*
X223862914Y-185314342D01*
X223791485Y-185528628D01*
X222934342Y-186385771D01*
X223862914Y-186385771D01*
X224791485Y-184885771D02*
X224934342Y-184885771D01*
X225077199Y-184957200D01*
X225148628Y-185028628D01*
X225220057Y-185171485D01*
X225291485Y-185457200D01*
X225291485Y-185814342D01*
X225220057Y-186100057D01*
X225148628Y-186242914D01*
X225077199Y-186314342D01*
X224934342Y-186385771D01*
X224791485Y-186385771D01*
X224648628Y-186314342D01*
X224577199Y-186242914D01*
X224505771Y-186100057D01*
X224434342Y-185814342D01*
X224434342Y-185457200D01*
X224505771Y-185171485D01*
X224577199Y-185028628D01*
X224648628Y-184957200D01*
X224791485Y-184885771D01*
X225720057Y-184885771D02*
X226220057Y-186385771D01*
X226720057Y-184885771D01*
X227220057Y-186242914D02*
X227291485Y-186314342D01*
X227220057Y-186385771D01*
X227148628Y-186314342D01*
X227220057Y-186242914D01*
X227220057Y-186385771D01*
X227934342Y-186385771D02*
X227934342Y-184885771D01*
X228077199Y-185814342D02*
X228505771Y-186385771D01*
X228505771Y-185385771D02*
X227934342Y-185957200D01*
X229148628Y-186385771D02*
X229148628Y-185385771D01*
X229148628Y-184885771D02*
X229077199Y-184957200D01*
X229148628Y-185028628D01*
X229220057Y-184957200D01*
X229148628Y-184885771D01*
X229148628Y-185028628D01*
X230505771Y-186314342D02*
X230362914Y-186385771D01*
X230077200Y-186385771D01*
X229934342Y-186314342D01*
X229862914Y-186242914D01*
X229791485Y-186100057D01*
X229791485Y-185671485D01*
X229862914Y-185528628D01*
X229934342Y-185457200D01*
X230077200Y-185385771D01*
X230362914Y-185385771D01*
X230505771Y-185457200D01*
X231791485Y-186385771D02*
X231791485Y-185600057D01*
X231720057Y-185457200D01*
X231577199Y-185385771D01*
X231291485Y-185385771D01*
X231148628Y-185457200D01*
X231791485Y-186314342D02*
X231648628Y-186385771D01*
X231291485Y-186385771D01*
X231148628Y-186314342D01*
X231077199Y-186171485D01*
X231077199Y-186028628D01*
X231148628Y-185885771D01*
X231291485Y-185814342D01*
X231648628Y-185814342D01*
X231791485Y-185742914D01*
X233148628Y-186385771D02*
X233148628Y-184885771D01*
X233148628Y-186314342D02*
X233005771Y-186385771D01*
X232720057Y-186385771D01*
X232577199Y-186314342D01*
X232505771Y-186242914D01*
X232434342Y-186100057D01*
X232434342Y-185671485D01*
X232505771Y-185528628D01*
X232577199Y-185457200D01*
X232720057Y-185385771D01*
X233005771Y-185385771D01*
X233148628Y-185457200D01*
X233505771Y-186528628D02*
X234648628Y-186528628D01*
X235005771Y-185385771D02*
X235005771Y-186885771D01*
X235005771Y-185457200D02*
X235148628Y-185385771D01*
X235434342Y-185385771D01*
X235577199Y-185457200D01*
X235648628Y-185528628D01*
X235720057Y-185671485D01*
X235720057Y-186100057D01*
X235648628Y-186242914D01*
X235577199Y-186314342D01*
X235434342Y-186385771D01*
X235148628Y-186385771D01*
X235005771Y-186314342D01*
X237005771Y-186314342D02*
X236862914Y-186385771D01*
X236577200Y-186385771D01*
X236434342Y-186314342D01*
X236362914Y-186242914D01*
X236291485Y-186100057D01*
X236291485Y-185671485D01*
X236362914Y-185528628D01*
X236434342Y-185457200D01*
X236577200Y-185385771D01*
X236862914Y-185385771D01*
X237005771Y-185457200D01*
X237648628Y-186385771D02*
X237648628Y-184885771D01*
X237648628Y-185457200D02*
X237791485Y-185385771D01*
X238077199Y-185385771D01*
X238220057Y-185457200D01*
X238291485Y-185528628D01*
X238362914Y-185671485D01*
X238362914Y-186100057D01*
X238291485Y-186242914D01*
X238220057Y-186314342D01*
X238077199Y-186385771D01*
X237791485Y-186385771D01*
X237648628Y-186314342D01*
D10*
D11*
X177002200Y-181507200D02*
X285002200Y-181507200D01*
D10*
D11*
X178362914Y-183614342D02*
X178577200Y-183685771D01*
X178934342Y-183685771D01*
X179077200Y-183614342D01*
X179148628Y-183542914D01*
X179220057Y-183400057D01*
X179220057Y-183257200D01*
X179148628Y-183114342D01*
X179077200Y-183042914D01*
X178934342Y-182971485D01*
X178648628Y-182900057D01*
X178505771Y-182828628D01*
X178434342Y-182757200D01*
X178362914Y-182614342D01*
X178362914Y-182471485D01*
X178434342Y-182328628D01*
X178505771Y-182257200D01*
X178648628Y-182185771D01*
X179005771Y-182185771D01*
X179220057Y-182257200D01*
X179862914Y-183685771D02*
X179862914Y-182185771D01*
X180505771Y-183685771D02*
X180505771Y-182900057D01*
X180434342Y-182757200D01*
X180291485Y-182685771D01*
X180077200Y-182685771D01*
X179934342Y-182757200D01*
X179862914Y-182828628D01*
X181791485Y-183614342D02*
X181648628Y-183685771D01*
X181362914Y-183685771D01*
X181220057Y-183614342D01*
X181148628Y-183471485D01*
X181148628Y-182900057D01*
X181220057Y-182757200D01*
X181362914Y-182685771D01*
X181648628Y-182685771D01*
X181791485Y-182757200D01*
X181862914Y-182900057D01*
X181862914Y-183042914D01*
X181148628Y-183185771D01*
X183077200Y-183614342D02*
X182934342Y-183685771D01*
X182648628Y-183685771D01*
X182505771Y-183614342D01*
X182434342Y-183471485D01*
X182434342Y-182900057D01*
X182505771Y-182757200D01*
X182648628Y-182685771D01*
X182934342Y-182685771D01*
X183077200Y-182757200D01*
X183148628Y-182900057D01*
X183148628Y-183042914D01*
X182434342Y-183185771D01*
X183577200Y-182685771D02*
X184148628Y-182685771D01*
X183791485Y-182185771D02*
X183791485Y-183471485D01*
X183862914Y-183614342D01*
X184005771Y-183685771D01*
X184148628Y-183685771D01*
X184648628Y-183542914D02*
X184720057Y-183614342D01*
X184648628Y-183685771D01*
X184577200Y-183614342D01*
X184648628Y-183542914D01*
X184648628Y-183685771D01*
X184648628Y-182757200D02*
X184720057Y-182828628D01*
X184648628Y-182900057D01*
X184577200Y-182828628D01*
X184648628Y-182757200D01*
X184648628Y-182900057D01*
D10*
D12*
X178482914Y-180257200D02*
X179197200Y-180257200D01*
X178340057Y-180685771D02*
X178840057Y-179185771D01*
X179340057Y-180685771D01*
X180411485Y-180614342D02*
X180268628Y-180685771D01*
X179982914Y-180685771D01*
X179840057Y-180614342D01*
X179768628Y-180471485D01*
X179768628Y-179900057D01*
X179840057Y-179757200D01*
X179982914Y-179685771D01*
X180268628Y-179685771D01*
X180411485Y-179757200D01*
X180482914Y-179900057D01*
X180482914Y-180042914D01*
X179768628Y-180185771D01*
X181340057Y-180685771D02*
X181197200Y-180614342D01*
X181125771Y-180542914D01*
X181054342Y-180400057D01*
X181054342Y-179971485D01*
X181125771Y-179828628D01*
X181197200Y-179757200D01*
X181340057Y-179685771D01*
X181554342Y-179685771D01*
X181697200Y-179757200D01*
X181768628Y-179828628D01*
X181840057Y-179971485D01*
X181840057Y-180400057D01*
X181768628Y-180542914D01*
X181697200Y-180614342D01*
X181554342Y-180685771D01*
X181340057Y-180685771D01*
X182482914Y-179685771D02*
X182482914Y-180685771D01*
X182482914Y-179828628D02*
X182554342Y-179757200D01*
X182697200Y-179685771D01*
X182911485Y-179685771D01*
X183054342Y-179757200D01*
X183125771Y-179900057D01*
X183125771Y-180685771D01*
X184554342Y-180685771D02*
X183840057Y-180685771D01*
X183840057Y-179185771D01*
X185697200Y-180685771D02*
X185697200Y-179900057D01*
X185625771Y-179757200D01*
X185482914Y-179685771D01*
X185197200Y-179685771D01*
X185054342Y-179757200D01*
X185697200Y-180614342D02*
X185554342Y-180685771D01*
X185197200Y-180685771D01*
X185054342Y-180614342D01*
X184982914Y-180471485D01*
X184982914Y-180328628D01*
X185054342Y-180185771D01*
X185197200Y-180114342D01*
X185554342Y-180114342D01*
X185697200Y-180042914D01*
X186411485Y-180685771D02*
X186411485Y-179185771D01*
X186411485Y-179757200D02*
X186554342Y-179685771D01*
X186840057Y-179685771D01*
X186982914Y-179757200D01*
X187054342Y-179828628D01*
X187125771Y-179971485D01*
X187125771Y-180400057D01*
X187054342Y-180542914D01*
X186982914Y-180614342D01*
X186840057Y-180685771D01*
X186554342Y-180685771D01*
X186411485Y-180614342D01*
X187697200Y-180614342D02*
X187840057Y-180685771D01*
X188125771Y-180685771D01*
X188268628Y-180614342D01*
X188340057Y-180471485D01*
X188340057Y-180400057D01*
X188268628Y-180257200D01*
X188125771Y-180185771D01*
X187911485Y-180185771D01*
X187768628Y-180114342D01*
X187697200Y-179971485D01*
X187697200Y-179900057D01*
X187768628Y-179757200D01*
X187911485Y-179685771D01*
X188125771Y-179685771D01*
X188268628Y-179757200D01*
D10*
D11*
D10*
D11*
D10*
D11*
D10*
D11*
D10*
D11*
X197002200Y-191507200D02*
X197002200Y-194507200D01*
D10*
D11*
X261002200Y-191507200D02*
X261002200Y-198007200D01*
D14*
G04 #@! TO.C,G\u002A\u002A\u002A*
X169930000Y-122315000D02*
X169925000Y-125235000D01*
X222945000Y-137820000D02*
X222955000Y-150965000D01*
X143720000Y-150965000D02*
X143710000Y-137915000D01*
X169775000Y-153355000D02*
X169755000Y-151115000D01*
X168540000Y-122325000D02*
X146590000Y-122305000D01*
X197425000Y-153375000D02*
X220155000Y-153395000D01*
X169755000Y-151115000D02*
X168745000Y-151115000D01*
X195485000Y-125164700D02*
X195480000Y-122314700D01*
X143700000Y-136915000D02*
X143700000Y-125495000D01*
X169775000Y-153355000D02*
X195035000Y-153365000D01*
X221165000Y-137815000D02*
X221165000Y-136817500D01*
X169925000Y-125235000D02*
X168545000Y-125235000D01*
X168545000Y-125235000D02*
X168540000Y-122325000D01*
X196870000Y-122314700D02*
X219700000Y-122324700D01*
X196875000Y-125164700D02*
X195485000Y-125164700D01*
X196870000Y-122314700D02*
X196875000Y-125164700D01*
X197425000Y-150105000D02*
X195035000Y-150100000D01*
X168745000Y-151115000D02*
X168745000Y-153355000D01*
X143700000Y-136915000D02*
X144815000Y-136925000D01*
X144815000Y-136925000D02*
X144815000Y-137925000D01*
X144815000Y-137925000D02*
X143710000Y-137915000D01*
X221165000Y-136817500D02*
X222945000Y-136820000D01*
X222945000Y-136820000D02*
X222940000Y-125294700D01*
X195480000Y-122314700D02*
X169930000Y-122315000D01*
X168745000Y-153355000D02*
X146780000Y-153345000D01*
X197425000Y-153375000D02*
X197425000Y-150105000D01*
X195035000Y-150100000D02*
X195035000Y-153365000D01*
X222945000Y-137820000D02*
X221165000Y-137815000D01*
X146590000Y-122305000D02*
G75*
G03*
X143700000Y-125495000I375481J-3244276D01*
G01*
X143720000Y-150965000D02*
G75*
G03*
X146780000Y-153345000I3113656J846129D01*
G01*
X220154997Y-153394985D02*
G75*
G03*
X222955000Y-150965000I-855797J3814285D01*
G01*
X222940000Y-125294700D02*
G75*
G03*
X219700000Y-122324700I-3295300J-342600D01*
G01*
G04 #@! TD*
D15*
G04 #@! TO.C,HiLink1*
X194170000Y-134520000D03*
D16*
X194170000Y-139520000D03*
X164770000Y-129320000D03*
X164770000Y-144720000D03*
G04 #@! TD*
D17*
G04 #@! TO.C,BAT3*
X201815000Y-149020000D03*
X201815000Y-150020000D03*
X201815000Y-151020000D03*
D18*
X199290000Y-152320000D03*
X199290000Y-147720000D03*
G04 #@! TD*
D19*
G04 #@! TO.C,PF1*
X220050000Y-150560000D03*
X218850000Y-145460000D03*
G04 #@! TD*
D20*
G04 #@! TO.C,MCY1*
X147600000Y-123330000D03*
X149800000Y-123330000D03*
X149800000Y-125130000D03*
X147600000Y-125130000D03*
G04 #@! TD*
D21*
G04 #@! TO.C,TXR1*
X157630000Y-137300000D03*
X155630000Y-137300000D03*
G04 #@! TD*
D22*
G04 #@! TO.C,PJ2*
X220330000Y-128800000D03*
D23*
X220330000Y-127530000D03*
X220330000Y-126260000D03*
G04 #@! TD*
D24*
G04 #@! TO.C,I2C1*
X159710000Y-148295000D03*
D25*
X156210000Y-148295000D03*
X152710000Y-148295000D03*
X149210000Y-148295000D03*
G04 #@! TD*
D22*
G04 #@! TO.C,CJ1*
X164720000Y-125400000D03*
D23*
X165990000Y-125400000D03*
G04 #@! TD*
D26*
G04 #@! TO.C,CC3*
X145630000Y-123965000D03*
X145630000Y-125515000D03*
G04 #@! TD*
D27*
G04 #@! TO.C,HLL1*
X208262500Y-133962500D03*
D28*
X208190000Y-141030000D03*
X199512500Y-134032500D03*
X199435000Y-141080000D03*
G04 #@! TD*
D29*
G04 #@! TO.C,ICSP1*
X193820000Y-150790000D03*
X190010000Y-150790000D03*
X192550000Y-150790000D03*
X188740000Y-150790000D03*
X191280000Y-150790000D03*
D30*
X189375000Y-151945000D03*
X190645000Y-151945000D03*
X191915000Y-151945000D03*
X193185000Y-151945000D03*
G04 #@! TD*
D31*
G04 #@! TO.C,ER5*
X192495000Y-148250000D03*
X190845000Y-148250000D03*
G04 #@! TD*
D32*
G04 #@! TO.C,F1*
X202910000Y-144172500D03*
X202910000Y-147147500D03*
G04 #@! TD*
D33*
G04 #@! TO.C,HLV1*
X220870000Y-141680000D03*
X219470000Y-134180000D03*
G04 #@! TD*
D34*
G04 #@! TO.C,ICR2*
X144735000Y-135140000D03*
X146385000Y-135140000D03*
G04 #@! TD*
D35*
G04 #@! TO.C,CBU3*
X144315000Y-127362500D03*
X144965000Y-127362500D03*
D36*
X145615000Y-127362500D03*
D35*
X146265000Y-127362500D03*
X146915000Y-127362500D03*
D36*
X147565000Y-127362500D03*
D35*
X148215000Y-127362500D03*
X148865000Y-127362500D03*
X149515000Y-127362500D03*
D36*
X150165000Y-127362500D03*
D35*
X150165000Y-133132500D03*
D36*
X149515000Y-133132500D03*
D35*
X148865000Y-133132500D03*
X148215000Y-133132500D03*
X147565000Y-133132500D03*
X146915000Y-133132500D03*
X146265000Y-133132500D03*
X145615000Y-133132500D03*
D36*
X144965000Y-133132500D03*
D35*
X144315000Y-133132500D03*
G04 #@! TD*
D22*
G04 #@! TO.C,PJ3*
X145350000Y-142955000D03*
D23*
X145350000Y-144225000D03*
X145350000Y-145495000D03*
G04 #@! TD*
D37*
G04 #@! TO.C,TXS1*
X156530000Y-132367500D03*
D38*
X157465000Y-133052500D03*
X157465000Y-133552500D03*
X157465000Y-134052500D03*
X157465000Y-134552500D03*
X157465000Y-135052500D03*
D37*
X156530000Y-135737500D03*
X155030000Y-135737500D03*
D39*
X154095000Y-135052500D03*
X154095000Y-134552500D03*
X154095000Y-134052500D03*
X154095000Y-133552500D03*
X154095000Y-133052500D03*
D37*
X155030000Y-132367500D03*
D40*
X155780000Y-134052500D03*
D41*
X155280000Y-133552500D03*
X156280000Y-133552500D03*
X156280000Y-134552500D03*
X155280000Y-134552500D03*
G04 #@! TD*
D28*
G04 #@! TO.C,HLC1*
X214850000Y-142600000D03*
X214850000Y-132600000D03*
G04 #@! TD*
D24*
G04 #@! TO.C,CANBUS1*
X152920000Y-127215000D03*
D25*
X156420000Y-127215000D03*
X159920000Y-127215000D03*
G04 #@! TD*
D42*
G04 #@! TO.C,PWR220*
X211980000Y-148180000D03*
D43*
X206900000Y-148180000D03*
G04 #@! TD*
D24*
G04 #@! TO.C,I2C2*
X205090000Y-127055000D03*
D25*
X208590000Y-127055000D03*
X212090000Y-127055000D03*
X215590000Y-127055000D03*
G04 #@! TD*
M02*
