G04 #@! TF.GenerationSoftware,KiCad,Pcbnew,(6.0.9)*
G04 #@! TF.CreationDate,2022-11-26T17:41:20+01:00*
G04 #@! TF.ProjectId,LDAD_Junction_Box_79x31mm_AC220V,4c444144-5f4a-4756-9e63-74696f6e5f42,5.3*
G04 #@! TF.SameCoordinates,Original*
G04 #@! TF.FileFunction,Copper,L1,Top*
G04 #@! TF.FilePolarity,Positive*
%FSLAX46Y46*%
G04 Gerber Fmt 4.6, Leading zero omitted, Abs format (unit mm)*
G04 Created by KiCad (PCBNEW (6.0.9)) date 2022-11-26 17:41:20*
%MOMM*%
%LPD*%
G01*
G04 APERTURE LIST*
G04 Aperture macros list*
%AMRoundRect*
0 Rectangle with rounded corners*
0 $1 Rounding radius*
0 $2 $3 $4 $5 $6 $7 $8 $9 X,Y pos of 4 corners*
0 Add a 4 corners polygon primitive as box body*
4,1,4,$2,$3,$4,$5,$6,$7,$8,$9,$2,$3,0*
0 Add four circle primitives for the rounded corners*
1,1,$1+$1,$2,$3*
1,1,$1+$1,$4,$5*
1,1,$1+$1,$6,$7*
1,1,$1+$1,$8,$9*
0 Add four rect primitives between the rounded corners*
20,1,$1+$1,$2,$3,$4,$5,0*
20,1,$1+$1,$4,$5,$6,$7,0*
20,1,$1+$1,$6,$7,$8,$9,0*
20,1,$1+$1,$8,$9,$2,$3,0*%
%AMRotRect*
0 Rectangle, with rotation*
0 The origin of the aperture is its center*
0 $1 length*
0 $2 width*
0 $3 Rotation angle, in degrees counterclockwise*
0 Add horizontal line*
21,1,$1,$2,0,0,$3*%
%AMFreePoly0*
4,1,6,0.500000,-0.850000,-0.500000,-0.850000,-0.500000,0.550000,-0.200000,0.850000,0.500000,0.850000,0.500000,-0.850000,0.500000,-0.850000,$1*%
G04 Aperture macros list end*
%ADD10C,0.100000*%
%ADD11C,0.150000*%
%ADD12C,0.300000*%
%ADD13C,0.400000*%
G04 #@! TA.AperFunction,NonConductor*
%ADD14C,0.200000*%
G04 #@! TD*
G04 #@! TA.AperFunction,Profile*
%ADD15C,0.120000*%
G04 #@! TD*
G04 #@! TA.AperFunction,SMDPad,CuDef*
%ADD16RoundRect,0.225000X-0.225000X-0.250000X0.225000X-0.250000X0.225000X0.250000X-0.225000X0.250000X0*%
G04 #@! TD*
G04 #@! TA.AperFunction,SMDPad,CuDef*
%ADD17RoundRect,0.250000X-0.262500X-0.450000X0.262500X-0.450000X0.262500X0.450000X-0.262500X0.450000X0*%
G04 #@! TD*
G04 #@! TA.AperFunction,SMDPad,CuDef*
%ADD18RoundRect,0.250000X0.250000X0.475000X-0.250000X0.475000X-0.250000X-0.475000X0.250000X-0.475000X0*%
G04 #@! TD*
G04 #@! TA.AperFunction,SMDPad,CuDef*
%ADD19RoundRect,0.225000X0.250000X-0.225000X0.250000X0.225000X-0.250000X0.225000X-0.250000X-0.225000X0*%
G04 #@! TD*
G04 #@! TA.AperFunction,SMDPad,CuDef*
%ADD20C,1.000000*%
G04 #@! TD*
G04 #@! TA.AperFunction,SMDPad,CuDef*
%ADD21RoundRect,0.225000X-0.250000X0.225000X-0.250000X-0.225000X0.250000X-0.225000X0.250000X0.225000X0*%
G04 #@! TD*
G04 #@! TA.AperFunction,SMDPad,CuDef*
%ADD22RoundRect,0.250000X0.475000X-0.250000X0.475000X0.250000X-0.475000X0.250000X-0.475000X-0.250000X0*%
G04 #@! TD*
G04 #@! TA.AperFunction,SMDPad,CuDef*
%ADD23R,1.000000X1.300000*%
G04 #@! TD*
G04 #@! TA.AperFunction,SMDPad,CuDef*
%ADD24RoundRect,0.042000X-0.258000X0.943000X-0.258000X-0.943000X0.258000X-0.943000X0.258000X0.943000X0*%
G04 #@! TD*
G04 #@! TA.AperFunction,SMDPad,CuDef*
%ADD25R,3.302000X2.413000*%
G04 #@! TD*
G04 #@! TA.AperFunction,SMDPad,CuDef*
%ADD26RoundRect,0.250000X-0.337500X-0.475000X0.337500X-0.475000X0.337500X0.475000X-0.337500X0.475000X0*%
G04 #@! TD*
G04 #@! TA.AperFunction,SMDPad,CuDef*
%ADD27RoundRect,0.250000X-0.450000X0.350000X-0.450000X-0.350000X0.450000X-0.350000X0.450000X0.350000X0*%
G04 #@! TD*
G04 #@! TA.AperFunction,SMDPad,CuDef*
%ADD28RoundRect,0.150000X0.150000X-0.825000X0.150000X0.825000X-0.150000X0.825000X-0.150000X-0.825000X0*%
G04 #@! TD*
G04 #@! TA.AperFunction,SMDPad,CuDef*
%ADD29R,0.550000X0.250000*%
G04 #@! TD*
G04 #@! TA.AperFunction,SMDPad,CuDef*
%ADD30R,0.001000X0.001000*%
G04 #@! TD*
G04 #@! TA.AperFunction,SMDPad,CuDef*
%ADD31FreePoly0,180.000000*%
G04 #@! TD*
G04 #@! TA.AperFunction,SMDPad,CuDef*
%ADD32RoundRect,0.150000X0.587500X0.150000X-0.587500X0.150000X-0.587500X-0.150000X0.587500X-0.150000X0*%
G04 #@! TD*
G04 #@! TA.AperFunction,SMDPad,CuDef*
%ADD33RoundRect,0.124800X-0.475200X-0.275200X0.475200X-0.275200X0.475200X0.275200X-0.475200X0.275200X0*%
G04 #@! TD*
G04 #@! TA.AperFunction,SMDPad,CuDef*
%ADD34RoundRect,0.200000X-0.275000X0.200000X-0.275000X-0.200000X0.275000X-0.200000X0.275000X0.200000X0*%
G04 #@! TD*
G04 #@! TA.AperFunction,SMDPad,CuDef*
%ADD35RoundRect,0.041300X-0.253700X0.948700X-0.253700X-0.948700X0.253700X-0.948700X0.253700X0.948700X0*%
G04 #@! TD*
G04 #@! TA.AperFunction,SMDPad,CuDef*
%ADD36RoundRect,0.200000X0.200000X0.275000X-0.200000X0.275000X-0.200000X-0.275000X0.200000X-0.275000X0*%
G04 #@! TD*
G04 #@! TA.AperFunction,SMDPad,CuDef*
%ADD37RoundRect,0.250000X-0.450000X0.262500X-0.450000X-0.262500X0.450000X-0.262500X0.450000X0.262500X0*%
G04 #@! TD*
G04 #@! TA.AperFunction,SMDPad,CuDef*
%ADD38R,0.400000X25.500000*%
G04 #@! TD*
G04 #@! TA.AperFunction,SMDPad,CuDef*
%ADD39RoundRect,0.243750X-0.243750X-0.456250X0.243750X-0.456250X0.243750X0.456250X-0.243750X0.456250X0*%
G04 #@! TD*
G04 #@! TA.AperFunction,SMDPad,CuDef*
%ADD40RoundRect,0.250000X1.075000X-0.375000X1.075000X0.375000X-1.075000X0.375000X-1.075000X-0.375000X0*%
G04 #@! TD*
G04 #@! TA.AperFunction,SMDPad,CuDef*
%ADD41R,2.250000X1.100000*%
G04 #@! TD*
G04 #@! TA.AperFunction,SMDPad,CuDef*
%ADD42R,1.100000X1.050000*%
G04 #@! TD*
G04 #@! TA.AperFunction,SMDPad,CuDef*
%ADD43RoundRect,0.250000X-0.475000X0.250000X-0.475000X-0.250000X0.475000X-0.250000X0.475000X0.250000X0*%
G04 #@! TD*
G04 #@! TA.AperFunction,SMDPad,CuDef*
%ADD44RoundRect,0.150000X0.150000X-0.675000X0.150000X0.675000X-0.150000X0.675000X-0.150000X-0.675000X0*%
G04 #@! TD*
G04 #@! TA.AperFunction,SMDPad,CuDef*
%ADD45RoundRect,0.000250X0.000250X-0.000250X0.000250X0.000250X-0.000250X0.000250X-0.000250X-0.000250X0*%
G04 #@! TD*
G04 #@! TA.AperFunction,SMDPad,CuDef*
%ADD46RoundRect,0.250000X0.262500X0.450000X-0.262500X0.450000X-0.262500X-0.450000X0.262500X-0.450000X0*%
G04 #@! TD*
G04 #@! TA.AperFunction,SMDPad,CuDef*
%ADD47RoundRect,0.218750X0.218750X0.381250X-0.218750X0.381250X-0.218750X-0.381250X0.218750X-0.381250X0*%
G04 #@! TD*
G04 #@! TA.AperFunction,SMDPad,CuDef*
%ADD48RoundRect,0.200000X0.275000X-0.200000X0.275000X0.200000X-0.275000X0.200000X-0.275000X-0.200000X0*%
G04 #@! TD*
G04 #@! TA.AperFunction,SMDPad,CuDef*
%ADD49RoundRect,0.225000X0.225000X0.250000X-0.225000X0.250000X-0.225000X-0.250000X0.225000X-0.250000X0*%
G04 #@! TD*
G04 #@! TA.AperFunction,SMDPad,CuDef*
%ADD50RoundRect,0.088500X-0.206500X0.746500X-0.206500X-0.746500X0.206500X-0.746500X0.206500X0.746500X0*%
G04 #@! TD*
G04 #@! TA.AperFunction,SMDPad,CuDef*
%ADD51RoundRect,0.088500X0.206500X-0.746500X0.206500X0.746500X-0.206500X0.746500X-0.206500X-0.746500X0*%
G04 #@! TD*
G04 #@! TA.AperFunction,SMDPad,CuDef*
%ADD52RoundRect,0.250000X-0.250000X-0.475000X0.250000X-0.475000X0.250000X0.475000X-0.250000X0.475000X0*%
G04 #@! TD*
G04 #@! TA.AperFunction,SMDPad,CuDef*
%ADD53RoundRect,0.150000X0.150000X-0.587500X0.150000X0.587500X-0.150000X0.587500X-0.150000X-0.587500X0*%
G04 #@! TD*
G04 #@! TA.AperFunction,SMDPad,CuDef*
%ADD54R,0.400000X25.400000*%
G04 #@! TD*
G04 #@! TA.AperFunction,SMDPad,CuDef*
%ADD55RoundRect,0.250001X-1.074999X0.462499X-1.074999X-0.462499X1.074999X-0.462499X1.074999X0.462499X0*%
G04 #@! TD*
G04 #@! TA.AperFunction,SMDPad,CuDef*
%ADD56R,5.000000X0.400000*%
G04 #@! TD*
G04 #@! TA.AperFunction,SMDPad,CuDef*
%ADD57R,1.400000X2.100000*%
G04 #@! TD*
G04 #@! TA.AperFunction,SMDPad,CuDef*
%ADD58RoundRect,0.250000X0.350000X0.450000X-0.350000X0.450000X-0.350000X-0.450000X0.350000X-0.450000X0*%
G04 #@! TD*
G04 #@! TA.AperFunction,SMDPad,CuDef*
%ADD59RoundRect,0.150000X-0.150000X0.587500X-0.150000X-0.587500X0.150000X-0.587500X0.150000X0.587500X0*%
G04 #@! TD*
G04 #@! TA.AperFunction,SMDPad,CuDef*
%ADD60RoundRect,0.150000X-0.587500X-0.150000X0.587500X-0.150000X0.587500X0.150000X-0.587500X0.150000X0*%
G04 #@! TD*
G04 #@! TA.AperFunction,SMDPad,CuDef*
%ADD61RoundRect,0.200000X-0.200000X-0.275000X0.200000X-0.275000X0.200000X0.275000X-0.200000X0.275000X0*%
G04 #@! TD*
G04 #@! TA.AperFunction,SMDPad,CuDef*
%ADD62RoundRect,0.066000X0.154000X-0.404000X0.154000X0.404000X-0.154000X0.404000X-0.154000X-0.404000X0*%
G04 #@! TD*
G04 #@! TA.AperFunction,SMDPad,CuDef*
%ADD63RoundRect,0.250000X0.450000X-0.350000X0.450000X0.350000X-0.450000X0.350000X-0.450000X-0.350000X0*%
G04 #@! TD*
G04 #@! TA.AperFunction,SMDPad,CuDef*
%ADD64RoundRect,0.200000X-0.200000X-0.600000X0.200000X-0.600000X0.200000X0.600000X-0.200000X0.600000X0*%
G04 #@! TD*
G04 #@! TA.AperFunction,SMDPad,CuDef*
%ADD65RoundRect,0.250001X-0.624999X0.462499X-0.624999X-0.462499X0.624999X-0.462499X0.624999X0.462499X0*%
G04 #@! TD*
G04 #@! TA.AperFunction,SMDPad,CuDef*
%ADD66R,2.195000X2.195000*%
G04 #@! TD*
G04 #@! TA.AperFunction,SMDPad,CuDef*
%ADD67RoundRect,0.050000X0.309359X-0.238649X-0.238649X0.309359X-0.309359X0.238649X0.238649X-0.309359X0*%
G04 #@! TD*
G04 #@! TA.AperFunction,SMDPad,CuDef*
%ADD68RoundRect,0.050000X0.309359X0.238649X0.238649X0.309359X-0.309359X-0.238649X-0.238649X-0.309359X0*%
G04 #@! TD*
G04 #@! TA.AperFunction,SMDPad,CuDef*
%ADD69RotRect,5.600000X5.600000X135.000000*%
G04 #@! TD*
G04 #@! TA.AperFunction,SMDPad,CuDef*
%ADD70R,13.000000X0.400000*%
G04 #@! TD*
G04 #@! TA.AperFunction,SMDPad,CuDef*
%ADD71R,20.500000X0.400000*%
G04 #@! TD*
G04 #@! TA.AperFunction,SMDPad,CuDef*
%ADD72RoundRect,0.100000X-0.100000X-0.550000X0.100000X-0.550000X0.100000X0.550000X-0.100000X0.550000X0*%
G04 #@! TD*
G04 #@! TA.AperFunction,SMDPad,CuDef*
%ADD73RoundRect,0.262500X0.737500X0.262500X-0.737500X0.262500X-0.737500X-0.262500X0.737500X-0.262500X0*%
G04 #@! TD*
G04 #@! TA.AperFunction,SMDPad,CuDef*
%ADD74RoundRect,0.100000X0.100000X0.550000X-0.100000X0.550000X-0.100000X-0.550000X0.100000X-0.550000X0*%
G04 #@! TD*
G04 #@! TA.AperFunction,SMDPad,CuDef*
%ADD75R,0.580000X0.350000*%
G04 #@! TD*
G04 #@! TA.AperFunction,SMDPad,CuDef*
%ADD76R,0.350000X0.580000*%
G04 #@! TD*
G04 #@! TA.AperFunction,SMDPad,CuDef*
%ADD77RoundRect,0.218750X-0.218750X-0.381250X0.218750X-0.381250X0.218750X0.381250X-0.218750X0.381250X0*%
G04 #@! TD*
G04 #@! TA.AperFunction,SMDPad,CuDef*
%ADD78RoundRect,0.250000X0.375000X1.075000X-0.375000X1.075000X-0.375000X-1.075000X0.375000X-1.075000X0*%
G04 #@! TD*
G04 #@! TA.AperFunction,SMDPad,CuDef*
%ADD79R,1.300000X1.000000*%
G04 #@! TD*
G04 #@! TA.AperFunction,SMDPad,CuDef*
%ADD80R,0.500000X0.500000*%
G04 #@! TD*
G04 #@! TA.AperFunction,ComponentPad*
%ADD81R,2.300000X2.000000*%
G04 #@! TD*
G04 #@! TA.AperFunction,ComponentPad*
%ADD82C,2.300000*%
G04 #@! TD*
G04 #@! TA.AperFunction,ComponentPad*
%ADD83C,2.010000*%
G04 #@! TD*
G04 #@! TA.AperFunction,ComponentPad*
%ADD84R,1.000000X1.000000*%
G04 #@! TD*
G04 #@! TA.AperFunction,ComponentPad*
%ADD85O,1.000000X1.000000*%
G04 #@! TD*
G04 #@! TA.AperFunction,ComponentPad*
%ADD86R,2.600000X2.600000*%
G04 #@! TD*
G04 #@! TA.AperFunction,ComponentPad*
%ADD87C,2.600000*%
G04 #@! TD*
G04 #@! TA.AperFunction,ComponentPad*
%ADD88R,2.000000X2.000000*%
G04 #@! TD*
G04 #@! TA.AperFunction,ComponentPad*
%ADD89C,2.000000*%
G04 #@! TD*
G04 #@! TA.AperFunction,SMDPad,CuDef*
%ADD90O,0.800000X1.500000*%
G04 #@! TD*
G04 #@! TA.AperFunction,ComponentPad*
%ADD91C,1.800000*%
G04 #@! TD*
G04 #@! TA.AperFunction,ComponentPad*
%ADD92C,0.400000*%
G04 #@! TD*
G04 #@! TA.AperFunction,ComponentPad*
%ADD93R,3.000000X3.000000*%
G04 #@! TD*
G04 #@! TA.AperFunction,ComponentPad*
%ADD94C,3.000000*%
G04 #@! TD*
G04 #@! TA.AperFunction,ViaPad*
%ADD95C,0.500000*%
G04 #@! TD*
G04 #@! TA.AperFunction,ViaPad*
%ADD96C,0.700000*%
G04 #@! TD*
G04 #@! TA.AperFunction,ViaPad*
%ADD97C,0.600000*%
G04 #@! TD*
G04 #@! TA.AperFunction,ViaPad*
%ADD98C,0.800000*%
G04 #@! TD*
G04 #@! TA.AperFunction,Conductor*
%ADD99C,0.500000*%
G04 #@! TD*
G04 #@! TA.AperFunction,Conductor*
%ADD100C,0.200000*%
G04 #@! TD*
G04 #@! TA.AperFunction,Conductor*
%ADD101C,0.150000*%
G04 #@! TD*
G04 #@! TA.AperFunction,Conductor*
%ADD102C,0.400000*%
G04 #@! TD*
G04 #@! TA.AperFunction,Conductor*
%ADD103C,0.300000*%
G04 #@! TD*
G04 #@! TA.AperFunction,Conductor*
%ADD104C,0.510000*%
G04 #@! TD*
G04 #@! TA.AperFunction,Conductor*
%ADD105C,0.250000*%
G04 #@! TD*
G04 #@! TA.AperFunction,Conductor*
%ADD106C,0.180000*%
G04 #@! TD*
G04 #@! TA.AperFunction,Conductor*
%ADD107C,0.320000*%
G04 #@! TD*
G04 APERTURE END LIST*
D10*
D11*
X177002200Y-166007200D02*
X177002200Y-198007200D01*
X285002200Y-198007200D01*
X285002200Y-166007200D01*
X177002200Y-166007200D01*
D10*
D11*
X10000000Y-10000000D02*
X10000000Y-200007200D01*
X287002200Y-200007200D01*
X287002200Y-10000000D01*
X10000000Y-10000000D01*
D10*
D11*
X12000000Y-12000000D02*
X12000000Y-198007200D01*
X285002200Y-198007200D01*
X285002200Y-12000000D01*
X12000000Y-12000000D01*
D10*
D11*
X60000000Y-12000000D02*
X60000000Y-10000000D01*
D10*
D11*
X110000000Y-12000000D02*
X110000000Y-10000000D01*
D10*
D11*
X160000000Y-12000000D02*
X160000000Y-10000000D01*
D10*
D11*
X210000000Y-12000000D02*
X210000000Y-10000000D01*
D10*
D11*
X260000000Y-12000000D02*
X260000000Y-10000000D01*
D10*
D11*
X36065476Y-11588095D02*
X35322619Y-11588095D01*
X35694047Y-11588095D02*
X35694047Y-10288095D01*
X35570238Y-10473809D01*
X35446428Y-10597619D01*
X35322619Y-10659523D01*
D10*
D11*
X85322619Y-10411904D02*
X85384523Y-10350000D01*
X85508333Y-10288095D01*
X85817857Y-10288095D01*
X85941666Y-10350000D01*
X86003571Y-10411904D01*
X86065476Y-10535714D01*
X86065476Y-10659523D01*
X86003571Y-10845238D01*
X85260714Y-11588095D01*
X86065476Y-11588095D01*
D10*
D11*
X135260714Y-10288095D02*
X136065476Y-10288095D01*
X135632142Y-10783333D01*
X135817857Y-10783333D01*
X135941666Y-10845238D01*
X136003571Y-10907142D01*
X136065476Y-11030952D01*
X136065476Y-11340476D01*
X136003571Y-11464285D01*
X135941666Y-11526190D01*
X135817857Y-11588095D01*
X135446428Y-11588095D01*
X135322619Y-11526190D01*
X135260714Y-11464285D01*
D10*
D11*
X185941666Y-10721428D02*
X185941666Y-11588095D01*
X185632142Y-10226190D02*
X185322619Y-11154761D01*
X186127380Y-11154761D01*
D10*
D11*
X236003571Y-10288095D02*
X235384523Y-10288095D01*
X235322619Y-10907142D01*
X235384523Y-10845238D01*
X235508333Y-10783333D01*
X235817857Y-10783333D01*
X235941666Y-10845238D01*
X236003571Y-10907142D01*
X236065476Y-11030952D01*
X236065476Y-11340476D01*
X236003571Y-11464285D01*
X235941666Y-11526190D01*
X235817857Y-11588095D01*
X235508333Y-11588095D01*
X235384523Y-11526190D01*
X235322619Y-11464285D01*
D10*
D11*
X285941666Y-10288095D02*
X285694047Y-10288095D01*
X285570238Y-10350000D01*
X285508333Y-10411904D01*
X285384523Y-10597619D01*
X285322619Y-10845238D01*
X285322619Y-11340476D01*
X285384523Y-11464285D01*
X285446428Y-11526190D01*
X285570238Y-11588095D01*
X285817857Y-11588095D01*
X285941666Y-11526190D01*
X286003571Y-11464285D01*
X286065476Y-11340476D01*
X286065476Y-11030952D01*
X286003571Y-10907142D01*
X285941666Y-10845238D01*
X285817857Y-10783333D01*
X285570238Y-10783333D01*
X285446428Y-10845238D01*
X285384523Y-10907142D01*
X285322619Y-11030952D01*
D10*
D11*
X60000000Y-198007200D02*
X60000000Y-200007200D01*
D10*
D11*
X110000000Y-198007200D02*
X110000000Y-200007200D01*
D10*
D11*
X160000000Y-198007200D02*
X160000000Y-200007200D01*
D10*
D11*
X210000000Y-198007200D02*
X210000000Y-200007200D01*
D10*
D11*
X260000000Y-198007200D02*
X260000000Y-200007200D01*
D10*
D11*
X36065476Y-199595295D02*
X35322619Y-199595295D01*
X35694047Y-199595295D02*
X35694047Y-198295295D01*
X35570238Y-198481009D01*
X35446428Y-198604819D01*
X35322619Y-198666723D01*
D10*
D11*
X85322619Y-198419104D02*
X85384523Y-198357200D01*
X85508333Y-198295295D01*
X85817857Y-198295295D01*
X85941666Y-198357200D01*
X86003571Y-198419104D01*
X86065476Y-198542914D01*
X86065476Y-198666723D01*
X86003571Y-198852438D01*
X85260714Y-199595295D01*
X86065476Y-199595295D01*
D10*
D11*
X135260714Y-198295295D02*
X136065476Y-198295295D01*
X135632142Y-198790533D01*
X135817857Y-198790533D01*
X135941666Y-198852438D01*
X136003571Y-198914342D01*
X136065476Y-199038152D01*
X136065476Y-199347676D01*
X136003571Y-199471485D01*
X135941666Y-199533390D01*
X135817857Y-199595295D01*
X135446428Y-199595295D01*
X135322619Y-199533390D01*
X135260714Y-199471485D01*
D10*
D11*
X185941666Y-198728628D02*
X185941666Y-199595295D01*
X185632142Y-198233390D02*
X185322619Y-199161961D01*
X186127380Y-199161961D01*
D10*
D11*
X236003571Y-198295295D02*
X235384523Y-198295295D01*
X235322619Y-198914342D01*
X235384523Y-198852438D01*
X235508333Y-198790533D01*
X235817857Y-198790533D01*
X235941666Y-198852438D01*
X236003571Y-198914342D01*
X236065476Y-199038152D01*
X236065476Y-199347676D01*
X236003571Y-199471485D01*
X235941666Y-199533390D01*
X235817857Y-199595295D01*
X235508333Y-199595295D01*
X235384523Y-199533390D01*
X235322619Y-199471485D01*
D10*
D11*
X285941666Y-198295295D02*
X285694047Y-198295295D01*
X285570238Y-198357200D01*
X285508333Y-198419104D01*
X285384523Y-198604819D01*
X285322619Y-198852438D01*
X285322619Y-199347676D01*
X285384523Y-199471485D01*
X285446428Y-199533390D01*
X285570238Y-199595295D01*
X285817857Y-199595295D01*
X285941666Y-199533390D01*
X286003571Y-199471485D01*
X286065476Y-199347676D01*
X286065476Y-199038152D01*
X286003571Y-198914342D01*
X285941666Y-198852438D01*
X285817857Y-198790533D01*
X285570238Y-198790533D01*
X285446428Y-198852438D01*
X285384523Y-198914342D01*
X285322619Y-199038152D01*
D10*
D11*
X10000000Y-60000000D02*
X12000000Y-60000000D01*
D10*
D11*
X10000000Y-110000000D02*
X12000000Y-110000000D01*
D10*
D11*
X10000000Y-160000000D02*
X12000000Y-160000000D01*
D10*
D11*
X10690476Y-35216666D02*
X11309523Y-35216666D01*
X10566666Y-35588095D02*
X11000000Y-34288095D01*
X11433333Y-35588095D01*
D10*
D11*
X11092857Y-84907142D02*
X11278571Y-84969047D01*
X11340476Y-85030952D01*
X11402380Y-85154761D01*
X11402380Y-85340476D01*
X11340476Y-85464285D01*
X11278571Y-85526190D01*
X11154761Y-85588095D01*
X10659523Y-85588095D01*
X10659523Y-84288095D01*
X11092857Y-84288095D01*
X11216666Y-84350000D01*
X11278571Y-84411904D01*
X11340476Y-84535714D01*
X11340476Y-84659523D01*
X11278571Y-84783333D01*
X11216666Y-84845238D01*
X11092857Y-84907142D01*
X10659523Y-84907142D01*
D10*
D11*
X11402380Y-135464285D02*
X11340476Y-135526190D01*
X11154761Y-135588095D01*
X11030952Y-135588095D01*
X10845238Y-135526190D01*
X10721428Y-135402380D01*
X10659523Y-135278571D01*
X10597619Y-135030952D01*
X10597619Y-134845238D01*
X10659523Y-134597619D01*
X10721428Y-134473809D01*
X10845238Y-134350000D01*
X11030952Y-134288095D01*
X11154761Y-134288095D01*
X11340476Y-134350000D01*
X11402380Y-134411904D01*
D10*
D11*
X10659523Y-185588095D02*
X10659523Y-184288095D01*
X10969047Y-184288095D01*
X11154761Y-184350000D01*
X11278571Y-184473809D01*
X11340476Y-184597619D01*
X11402380Y-184845238D01*
X11402380Y-185030952D01*
X11340476Y-185278571D01*
X11278571Y-185402380D01*
X11154761Y-185526190D01*
X10969047Y-185588095D01*
X10659523Y-185588095D01*
D10*
D11*
X287002200Y-60000000D02*
X285002200Y-60000000D01*
D10*
D11*
X287002200Y-110000000D02*
X285002200Y-110000000D01*
D10*
D11*
X287002200Y-160000000D02*
X285002200Y-160000000D01*
D10*
D11*
X285692676Y-35216666D02*
X286311723Y-35216666D01*
X285568866Y-35588095D02*
X286002200Y-34288095D01*
X286435533Y-35588095D01*
D10*
D11*
X286095057Y-84907142D02*
X286280771Y-84969047D01*
X286342676Y-85030952D01*
X286404580Y-85154761D01*
X286404580Y-85340476D01*
X286342676Y-85464285D01*
X286280771Y-85526190D01*
X286156961Y-85588095D01*
X285661723Y-85588095D01*
X285661723Y-84288095D01*
X286095057Y-84288095D01*
X286218866Y-84350000D01*
X286280771Y-84411904D01*
X286342676Y-84535714D01*
X286342676Y-84659523D01*
X286280771Y-84783333D01*
X286218866Y-84845238D01*
X286095057Y-84907142D01*
X285661723Y-84907142D01*
D10*
D11*
X286404580Y-135464285D02*
X286342676Y-135526190D01*
X286156961Y-135588095D01*
X286033152Y-135588095D01*
X285847438Y-135526190D01*
X285723628Y-135402380D01*
X285661723Y-135278571D01*
X285599819Y-135030952D01*
X285599819Y-134845238D01*
X285661723Y-134597619D01*
X285723628Y-134473809D01*
X285847438Y-134350000D01*
X286033152Y-134288095D01*
X286156961Y-134288095D01*
X286342676Y-134350000D01*
X286404580Y-134411904D01*
D10*
D11*
X285661723Y-185588095D02*
X285661723Y-184288095D01*
X285971247Y-184288095D01*
X286156961Y-184350000D01*
X286280771Y-184473809D01*
X286342676Y-184597619D01*
X286404580Y-184845238D01*
X286404580Y-185030952D01*
X286342676Y-185278571D01*
X286280771Y-185402380D01*
X286156961Y-185526190D01*
X285971247Y-185588095D01*
X285661723Y-185588095D01*
D10*
D11*
X200434342Y-193785771D02*
X200434342Y-192285771D01*
X200791485Y-192285771D01*
X201005771Y-192357200D01*
X201148628Y-192500057D01*
X201220057Y-192642914D01*
X201291485Y-192928628D01*
X201291485Y-193142914D01*
X201220057Y-193428628D01*
X201148628Y-193571485D01*
X201005771Y-193714342D01*
X200791485Y-193785771D01*
X200434342Y-193785771D01*
X202577200Y-193785771D02*
X202577200Y-193000057D01*
X202505771Y-192857200D01*
X202362914Y-192785771D01*
X202077200Y-192785771D01*
X201934342Y-192857200D01*
X202577200Y-193714342D02*
X202434342Y-193785771D01*
X202077200Y-193785771D01*
X201934342Y-193714342D01*
X201862914Y-193571485D01*
X201862914Y-193428628D01*
X201934342Y-193285771D01*
X202077200Y-193214342D01*
X202434342Y-193214342D01*
X202577200Y-193142914D01*
X203077200Y-192785771D02*
X203648628Y-192785771D01*
X203291485Y-192285771D02*
X203291485Y-193571485D01*
X203362914Y-193714342D01*
X203505771Y-193785771D01*
X203648628Y-193785771D01*
X204720057Y-193714342D02*
X204577200Y-193785771D01*
X204291485Y-193785771D01*
X204148628Y-193714342D01*
X204077200Y-193571485D01*
X204077200Y-193000057D01*
X204148628Y-192857200D01*
X204291485Y-192785771D01*
X204577200Y-192785771D01*
X204720057Y-192857200D01*
X204791485Y-193000057D01*
X204791485Y-193142914D01*
X204077200Y-193285771D01*
X205434342Y-193642914D02*
X205505771Y-193714342D01*
X205434342Y-193785771D01*
X205362914Y-193714342D01*
X205434342Y-193642914D01*
X205434342Y-193785771D01*
X205434342Y-192857200D02*
X205505771Y-192928628D01*
X205434342Y-193000057D01*
X205362914Y-192928628D01*
X205434342Y-192857200D01*
X205434342Y-193000057D01*
X207220057Y-192428628D02*
X207291485Y-192357200D01*
X207434342Y-192285771D01*
X207791485Y-192285771D01*
X207934342Y-192357200D01*
X208005771Y-192428628D01*
X208077200Y-192571485D01*
X208077200Y-192714342D01*
X208005771Y-192928628D01*
X207148628Y-193785771D01*
X208077200Y-193785771D01*
X209005771Y-192285771D02*
X209148628Y-192285771D01*
X209291485Y-192357200D01*
X209362914Y-192428628D01*
X209434342Y-192571485D01*
X209505771Y-192857200D01*
X209505771Y-193214342D01*
X209434342Y-193500057D01*
X209362914Y-193642914D01*
X209291485Y-193714342D01*
X209148628Y-193785771D01*
X209005771Y-193785771D01*
X208862914Y-193714342D01*
X208791485Y-193642914D01*
X208720057Y-193500057D01*
X208648628Y-193214342D01*
X208648628Y-192857200D01*
X208720057Y-192571485D01*
X208791485Y-192428628D01*
X208862914Y-192357200D01*
X209005771Y-192285771D01*
X210077200Y-192428628D02*
X210148628Y-192357200D01*
X210291485Y-192285771D01*
X210648628Y-192285771D01*
X210791485Y-192357200D01*
X210862914Y-192428628D01*
X210934342Y-192571485D01*
X210934342Y-192714342D01*
X210862914Y-192928628D01*
X210005771Y-193785771D01*
X210934342Y-193785771D01*
X212362914Y-193785771D02*
X211505771Y-193785771D01*
X211934342Y-193785771D02*
X211934342Y-192285771D01*
X211791485Y-192500057D01*
X211648628Y-192642914D01*
X211505771Y-192714342D01*
X213005771Y-193214342D02*
X214148628Y-193214342D01*
X215648628Y-193785771D02*
X214791485Y-193785771D01*
X215220057Y-193785771D02*
X215220057Y-192285771D01*
X215077200Y-192500057D01*
X214934342Y-192642914D01*
X214791485Y-192714342D01*
X216220057Y-192428628D02*
X216291485Y-192357200D01*
X216434342Y-192285771D01*
X216791485Y-192285771D01*
X216934342Y-192357200D01*
X217005771Y-192428628D01*
X217077200Y-192571485D01*
X217077200Y-192714342D01*
X217005771Y-192928628D01*
X216148628Y-193785771D01*
X217077200Y-193785771D01*
X217720057Y-193214342D02*
X218862914Y-193214342D01*
X219505771Y-192428628D02*
X219577200Y-192357200D01*
X219720057Y-192285771D01*
X220077200Y-192285771D01*
X220220057Y-192357200D01*
X220291485Y-192428628D01*
X220362914Y-192571485D01*
X220362914Y-192714342D01*
X220291485Y-192928628D01*
X219434342Y-193785771D01*
X220362914Y-193785771D01*
X221220057Y-192928628D02*
X221077200Y-192857200D01*
X221005771Y-192785771D01*
X220934342Y-192642914D01*
X220934342Y-192571485D01*
X221005771Y-192428628D01*
X221077200Y-192357200D01*
X221220057Y-192285771D01*
X221505771Y-192285771D01*
X221648628Y-192357200D01*
X221720057Y-192428628D01*
X221791485Y-192571485D01*
X221791485Y-192642914D01*
X221720057Y-192785771D01*
X221648628Y-192857200D01*
X221505771Y-192928628D01*
X221220057Y-192928628D01*
X221077200Y-193000057D01*
X221005771Y-193071485D01*
X220934342Y-193214342D01*
X220934342Y-193500057D01*
X221005771Y-193642914D01*
X221077200Y-193714342D01*
X221220057Y-193785771D01*
X221505771Y-193785771D01*
X221648628Y-193714342D01*
X221720057Y-193642914D01*
X221791485Y-193500057D01*
X221791485Y-193214342D01*
X221720057Y-193071485D01*
X221648628Y-193000057D01*
X221505771Y-192928628D01*
D10*
D11*
X177002200Y-194507200D02*
X285002200Y-194507200D01*
D10*
D11*
X178434342Y-196585771D02*
X178434342Y-195085771D01*
X179291485Y-196585771D02*
X178648628Y-195728628D01*
X179291485Y-195085771D02*
X178434342Y-195942914D01*
X179934342Y-196585771D02*
X179934342Y-195585771D01*
X179934342Y-195085771D02*
X179862914Y-195157200D01*
X179934342Y-195228628D01*
X180005771Y-195157200D01*
X179934342Y-195085771D01*
X179934342Y-195228628D01*
X181505771Y-196442914D02*
X181434342Y-196514342D01*
X181220057Y-196585771D01*
X181077200Y-196585771D01*
X180862914Y-196514342D01*
X180720057Y-196371485D01*
X180648628Y-196228628D01*
X180577200Y-195942914D01*
X180577200Y-195728628D01*
X180648628Y-195442914D01*
X180720057Y-195300057D01*
X180862914Y-195157200D01*
X181077200Y-195085771D01*
X181220057Y-195085771D01*
X181434342Y-195157200D01*
X181505771Y-195228628D01*
X182791485Y-196585771D02*
X182791485Y-195800057D01*
X182720057Y-195657200D01*
X182577200Y-195585771D01*
X182291485Y-195585771D01*
X182148628Y-195657200D01*
X182791485Y-196514342D02*
X182648628Y-196585771D01*
X182291485Y-196585771D01*
X182148628Y-196514342D01*
X182077200Y-196371485D01*
X182077200Y-196228628D01*
X182148628Y-196085771D01*
X182291485Y-196014342D01*
X182648628Y-196014342D01*
X182791485Y-195942914D01*
X184148628Y-196585771D02*
X184148628Y-195085771D01*
X184148628Y-196514342D02*
X184005771Y-196585771D01*
X183720057Y-196585771D01*
X183577200Y-196514342D01*
X183505771Y-196442914D01*
X183434342Y-196300057D01*
X183434342Y-195871485D01*
X183505771Y-195728628D01*
X183577200Y-195657200D01*
X183720057Y-195585771D01*
X184005771Y-195585771D01*
X184148628Y-195657200D01*
X186005771Y-195800057D02*
X186505771Y-195800057D01*
X186720057Y-196585771D02*
X186005771Y-196585771D01*
X186005771Y-195085771D01*
X186720057Y-195085771D01*
X187362914Y-196442914D02*
X187434342Y-196514342D01*
X187362914Y-196585771D01*
X187291485Y-196514342D01*
X187362914Y-196442914D01*
X187362914Y-196585771D01*
X188077200Y-196585771D02*
X188077200Y-195085771D01*
X188434342Y-195085771D01*
X188648628Y-195157200D01*
X188791485Y-195300057D01*
X188862914Y-195442914D01*
X188934342Y-195728628D01*
X188934342Y-195942914D01*
X188862914Y-196228628D01*
X188791485Y-196371485D01*
X188648628Y-196514342D01*
X188434342Y-196585771D01*
X188077200Y-196585771D01*
X189577200Y-196442914D02*
X189648628Y-196514342D01*
X189577200Y-196585771D01*
X189505771Y-196514342D01*
X189577200Y-196442914D01*
X189577200Y-196585771D01*
X190220057Y-196157200D02*
X190934342Y-196157200D01*
X190077200Y-196585771D02*
X190577200Y-195085771D01*
X191077200Y-196585771D01*
X191577200Y-196442914D02*
X191648628Y-196514342D01*
X191577200Y-196585771D01*
X191505771Y-196514342D01*
X191577200Y-196442914D01*
X191577200Y-196585771D01*
X194577200Y-196585771D02*
X194577200Y-195085771D01*
X194720057Y-196014342D02*
X195148628Y-196585771D01*
X195148628Y-195585771D02*
X194577200Y-196157200D01*
X195791485Y-196585771D02*
X195791485Y-195585771D01*
X195791485Y-195085771D02*
X195720057Y-195157200D01*
X195791485Y-195228628D01*
X195862914Y-195157200D01*
X195791485Y-195085771D01*
X195791485Y-195228628D01*
X197148628Y-196514342D02*
X197005771Y-196585771D01*
X196720057Y-196585771D01*
X196577200Y-196514342D01*
X196505771Y-196442914D01*
X196434342Y-196300057D01*
X196434342Y-195871485D01*
X196505771Y-195728628D01*
X196577200Y-195657200D01*
X196720057Y-195585771D01*
X197005771Y-195585771D01*
X197148628Y-195657200D01*
X198434342Y-196585771D02*
X198434342Y-195800057D01*
X198362914Y-195657200D01*
X198220057Y-195585771D01*
X197934342Y-195585771D01*
X197791485Y-195657200D01*
X198434342Y-196514342D02*
X198291485Y-196585771D01*
X197934342Y-196585771D01*
X197791485Y-196514342D01*
X197720057Y-196371485D01*
X197720057Y-196228628D01*
X197791485Y-196085771D01*
X197934342Y-196014342D01*
X198291485Y-196014342D01*
X198434342Y-195942914D01*
X199791485Y-196585771D02*
X199791485Y-195085771D01*
X199791485Y-196514342D02*
X199648628Y-196585771D01*
X199362914Y-196585771D01*
X199220057Y-196514342D01*
X199148628Y-196442914D01*
X199077200Y-196300057D01*
X199077200Y-195871485D01*
X199148628Y-195728628D01*
X199220057Y-195657200D01*
X199362914Y-195585771D01*
X199648628Y-195585771D01*
X199791485Y-195657200D01*
X202077200Y-197157200D02*
X202005771Y-197085771D01*
X201862914Y-196871485D01*
X201791485Y-196728628D01*
X201720057Y-196514342D01*
X201648628Y-196157200D01*
X201648628Y-195871485D01*
X201720057Y-195514342D01*
X201791485Y-195300057D01*
X201862914Y-195157200D01*
X202005771Y-194942914D01*
X202077200Y-194871485D01*
X203291485Y-195085771D02*
X203005771Y-195085771D01*
X202862914Y-195157200D01*
X202791485Y-195228628D01*
X202648628Y-195442914D01*
X202577200Y-195728628D01*
X202577200Y-196300057D01*
X202648628Y-196442914D01*
X202720057Y-196514342D01*
X202862914Y-196585771D01*
X203148628Y-196585771D01*
X203291485Y-196514342D01*
X203362914Y-196442914D01*
X203434342Y-196300057D01*
X203434342Y-195942914D01*
X203362914Y-195800057D01*
X203291485Y-195728628D01*
X203148628Y-195657200D01*
X202862914Y-195657200D01*
X202720057Y-195728628D01*
X202648628Y-195800057D01*
X202577200Y-195942914D01*
X204077200Y-196442914D02*
X204148628Y-196514342D01*
X204077200Y-196585771D01*
X204005771Y-196514342D01*
X204077200Y-196442914D01*
X204077200Y-196585771D01*
X205077200Y-195085771D02*
X205220057Y-195085771D01*
X205362914Y-195157200D01*
X205434342Y-195228628D01*
X205505771Y-195371485D01*
X205577200Y-195657200D01*
X205577200Y-196014342D01*
X205505771Y-196300057D01*
X205434342Y-196442914D01*
X205362914Y-196514342D01*
X205220057Y-196585771D01*
X205077200Y-196585771D01*
X204934342Y-196514342D01*
X204862914Y-196442914D01*
X204791485Y-196300057D01*
X204720057Y-196014342D01*
X204720057Y-195657200D01*
X204791485Y-195371485D01*
X204862914Y-195228628D01*
X204934342Y-195157200D01*
X205077200Y-195085771D01*
X206220057Y-196442914D02*
X206291485Y-196514342D01*
X206220057Y-196585771D01*
X206148628Y-196514342D01*
X206220057Y-196442914D01*
X206220057Y-196585771D01*
X207005771Y-196585771D02*
X207291485Y-196585771D01*
X207434342Y-196514342D01*
X207505771Y-196442914D01*
X207648628Y-196228628D01*
X207720057Y-195942914D01*
X207720057Y-195371485D01*
X207648628Y-195228628D01*
X207577200Y-195157200D01*
X207434342Y-195085771D01*
X207148628Y-195085771D01*
X207005771Y-195157200D01*
X206934342Y-195228628D01*
X206862914Y-195371485D01*
X206862914Y-195728628D01*
X206934342Y-195871485D01*
X207005771Y-195942914D01*
X207148628Y-196014342D01*
X207434342Y-196014342D01*
X207577200Y-195942914D01*
X207648628Y-195871485D01*
X207720057Y-195728628D01*
X208220057Y-197157200D02*
X208291485Y-197085771D01*
X208434342Y-196871485D01*
X208505771Y-196728628D01*
X208577200Y-196514342D01*
X208648628Y-196157200D01*
X208648628Y-195871485D01*
X208577200Y-195514342D01*
X208505771Y-195300057D01*
X208434342Y-195157200D01*
X208291485Y-194942914D01*
X208220057Y-194871485D01*
D10*
D11*
X177002200Y-191507200D02*
X285002200Y-191507200D01*
D10*
D12*
X264411485Y-193785771D02*
X263911485Y-193071485D01*
X263554342Y-193785771D02*
X263554342Y-192285771D01*
X264125771Y-192285771D01*
X264268628Y-192357200D01*
X264340057Y-192428628D01*
X264411485Y-192571485D01*
X264411485Y-192785771D01*
X264340057Y-192928628D01*
X264268628Y-193000057D01*
X264125771Y-193071485D01*
X263554342Y-193071485D01*
X265625771Y-193714342D02*
X265482914Y-193785771D01*
X265197200Y-193785771D01*
X265054342Y-193714342D01*
X264982914Y-193571485D01*
X264982914Y-193000057D01*
X265054342Y-192857200D01*
X265197200Y-192785771D01*
X265482914Y-192785771D01*
X265625771Y-192857200D01*
X265697200Y-193000057D01*
X265697200Y-193142914D01*
X264982914Y-193285771D01*
X266197200Y-192785771D02*
X266554342Y-193785771D01*
X266911485Y-192785771D01*
X267482914Y-193642914D02*
X267554342Y-193714342D01*
X267482914Y-193785771D01*
X267411485Y-193714342D01*
X267482914Y-193642914D01*
X267482914Y-193785771D01*
X267482914Y-192857200D02*
X267554342Y-192928628D01*
X267482914Y-193000057D01*
X267411485Y-192928628D01*
X267482914Y-192857200D01*
X267482914Y-193000057D01*
X270054342Y-192285771D02*
X269340057Y-192285771D01*
X269268628Y-193000057D01*
X269340057Y-192928628D01*
X269482914Y-192857200D01*
X269840057Y-192857200D01*
X269982914Y-192928628D01*
X270054342Y-193000057D01*
X270125771Y-193142914D01*
X270125771Y-193500057D01*
X270054342Y-193642914D01*
X269982914Y-193714342D01*
X269840057Y-193785771D01*
X269482914Y-193785771D01*
X269340057Y-193714342D01*
X269268628Y-193642914D01*
X270768628Y-193642914D02*
X270840057Y-193714342D01*
X270768628Y-193785771D01*
X270697200Y-193714342D01*
X270768628Y-193642914D01*
X270768628Y-193785771D01*
X271340057Y-192285771D02*
X272268628Y-192285771D01*
X271768628Y-192857200D01*
X271982914Y-192857200D01*
X272125771Y-192928628D01*
X272197200Y-193000057D01*
X272268628Y-193142914D01*
X272268628Y-193500057D01*
X272197200Y-193642914D01*
X272125771Y-193714342D01*
X271982914Y-193785771D01*
X271554342Y-193785771D01*
X271411485Y-193714342D01*
X271340057Y-193642914D01*
D10*
D11*
X178362914Y-193714342D02*
X178577200Y-193785771D01*
X178934342Y-193785771D01*
X179077200Y-193714342D01*
X179148628Y-193642914D01*
X179220057Y-193500057D01*
X179220057Y-193357200D01*
X179148628Y-193214342D01*
X179077200Y-193142914D01*
X178934342Y-193071485D01*
X178648628Y-193000057D01*
X178505771Y-192928628D01*
X178434342Y-192857200D01*
X178362914Y-192714342D01*
X178362914Y-192571485D01*
X178434342Y-192428628D01*
X178505771Y-192357200D01*
X178648628Y-192285771D01*
X179005771Y-192285771D01*
X179220057Y-192357200D01*
X179862914Y-193785771D02*
X179862914Y-192785771D01*
X179862914Y-192285771D02*
X179791485Y-192357200D01*
X179862914Y-192428628D01*
X179934342Y-192357200D01*
X179862914Y-192285771D01*
X179862914Y-192428628D01*
X180434342Y-192785771D02*
X181220057Y-192785771D01*
X180434342Y-193785771D01*
X181220057Y-193785771D01*
X182362914Y-193714342D02*
X182220057Y-193785771D01*
X181934342Y-193785771D01*
X181791485Y-193714342D01*
X181720057Y-193571485D01*
X181720057Y-193000057D01*
X181791485Y-192857200D01*
X181934342Y-192785771D01*
X182220057Y-192785771D01*
X182362914Y-192857200D01*
X182434342Y-193000057D01*
X182434342Y-193142914D01*
X181720057Y-193285771D01*
X183077200Y-193642914D02*
X183148628Y-193714342D01*
X183077200Y-193785771D01*
X183005771Y-193714342D01*
X183077200Y-193642914D01*
X183077200Y-193785771D01*
X183077200Y-192857200D02*
X183148628Y-192928628D01*
X183077200Y-193000057D01*
X183005771Y-192928628D01*
X183077200Y-192857200D01*
X183077200Y-193000057D01*
X184862914Y-193357200D02*
X185577200Y-193357200D01*
X184720057Y-193785771D02*
X185220057Y-192285771D01*
X185720057Y-193785771D01*
X186862914Y-192785771D02*
X186862914Y-193785771D01*
X186505771Y-192214342D02*
X186148628Y-193285771D01*
X187077200Y-193285771D01*
D10*
D11*
X263434342Y-196585771D02*
X263434342Y-195085771D01*
X264791485Y-196585771D02*
X264791485Y-195085771D01*
X264791485Y-196514342D02*
X264648628Y-196585771D01*
X264362914Y-196585771D01*
X264220057Y-196514342D01*
X264148628Y-196442914D01*
X264077200Y-196300057D01*
X264077200Y-195871485D01*
X264148628Y-195728628D01*
X264220057Y-195657200D01*
X264362914Y-195585771D01*
X264648628Y-195585771D01*
X264791485Y-195657200D01*
X265505771Y-196442914D02*
X265577200Y-196514342D01*
X265505771Y-196585771D01*
X265434342Y-196514342D01*
X265505771Y-196442914D01*
X265505771Y-196585771D01*
X265505771Y-195657200D02*
X265577200Y-195728628D01*
X265505771Y-195800057D01*
X265434342Y-195728628D01*
X265505771Y-195657200D01*
X265505771Y-195800057D01*
X268148628Y-196585771D02*
X267291485Y-196585771D01*
X267720057Y-196585771D02*
X267720057Y-195085771D01*
X267577200Y-195300057D01*
X267434342Y-195442914D01*
X267291485Y-195514342D01*
X269862914Y-195014342D02*
X268577200Y-196942914D01*
X271148628Y-196585771D02*
X270291485Y-196585771D01*
X270720057Y-196585771D02*
X270720057Y-195085771D01*
X270577200Y-195300057D01*
X270434342Y-195442914D01*
X270291485Y-195514342D01*
D10*
D11*
X177002200Y-187507200D02*
X285002200Y-187507200D01*
D10*
D13*
X178714580Y-188211961D02*
X179857438Y-188211961D01*
X179036009Y-190211961D02*
X179286009Y-188211961D01*
X180274104Y-190211961D02*
X180440771Y-188878628D01*
X180524104Y-188211961D02*
X180416961Y-188307200D01*
X180500295Y-188402438D01*
X180607438Y-188307200D01*
X180524104Y-188211961D01*
X180500295Y-188402438D01*
X181107438Y-188878628D02*
X181869342Y-188878628D01*
X181476485Y-188211961D02*
X181262200Y-189926247D01*
X181333628Y-190116723D01*
X181512200Y-190211961D01*
X181702676Y-190211961D01*
X182655057Y-190211961D02*
X182476485Y-190116723D01*
X182405057Y-189926247D01*
X182619342Y-188211961D01*
X184190771Y-190116723D02*
X183988390Y-190211961D01*
X183607438Y-190211961D01*
X183428866Y-190116723D01*
X183357438Y-189926247D01*
X183452676Y-189164342D01*
X183571723Y-188973866D01*
X183774104Y-188878628D01*
X184155057Y-188878628D01*
X184333628Y-188973866D01*
X184405057Y-189164342D01*
X184381247Y-189354819D01*
X183405057Y-189545295D01*
X185155057Y-190021485D02*
X185238390Y-190116723D01*
X185131247Y-190211961D01*
X185047914Y-190116723D01*
X185155057Y-190021485D01*
X185131247Y-190211961D01*
X185286009Y-188973866D02*
X185369342Y-189069104D01*
X185262200Y-189164342D01*
X185178866Y-189069104D01*
X185286009Y-188973866D01*
X185262200Y-189164342D01*
D10*
D11*
X178934342Y-185600057D02*
X178434342Y-185600057D01*
X178434342Y-186385771D02*
X178434342Y-184885771D01*
X179148628Y-184885771D01*
X179720057Y-186385771D02*
X179720057Y-185385771D01*
X179720057Y-184885771D02*
X179648628Y-184957200D01*
X179720057Y-185028628D01*
X179791485Y-184957200D01*
X179720057Y-184885771D01*
X179720057Y-185028628D01*
X180648628Y-186385771D02*
X180505771Y-186314342D01*
X180434342Y-186171485D01*
X180434342Y-184885771D01*
X181791485Y-186314342D02*
X181648628Y-186385771D01*
X181362914Y-186385771D01*
X181220057Y-186314342D01*
X181148628Y-186171485D01*
X181148628Y-185600057D01*
X181220057Y-185457200D01*
X181362914Y-185385771D01*
X181648628Y-185385771D01*
X181791485Y-185457200D01*
X181862914Y-185600057D01*
X181862914Y-185742914D01*
X181148628Y-185885771D01*
X182505771Y-186242914D02*
X182577200Y-186314342D01*
X182505771Y-186385771D01*
X182434342Y-186314342D01*
X182505771Y-186242914D01*
X182505771Y-186385771D01*
X182505771Y-185457200D02*
X182577200Y-185528628D01*
X182505771Y-185600057D01*
X182434342Y-185528628D01*
X182505771Y-185457200D01*
X182505771Y-185600057D01*
X185077200Y-186385771D02*
X184362914Y-186385771D01*
X184362914Y-184885771D01*
X185577200Y-186385771D02*
X185577200Y-184885771D01*
X185934342Y-184885771D01*
X186148628Y-184957200D01*
X186291485Y-185100057D01*
X186362914Y-185242914D01*
X186434342Y-185528628D01*
X186434342Y-185742914D01*
X186362914Y-186028628D01*
X186291485Y-186171485D01*
X186148628Y-186314342D01*
X185934342Y-186385771D01*
X185577200Y-186385771D01*
X187005771Y-185957200D02*
X187720057Y-185957200D01*
X186862914Y-186385771D02*
X187362914Y-184885771D01*
X187862914Y-186385771D01*
X188362914Y-186385771D02*
X188362914Y-184885771D01*
X188720057Y-184885771D01*
X188934342Y-184957200D01*
X189077200Y-185100057D01*
X189148628Y-185242914D01*
X189220057Y-185528628D01*
X189220057Y-185742914D01*
X189148628Y-186028628D01*
X189077200Y-186171485D01*
X188934342Y-186314342D01*
X188720057Y-186385771D01*
X188362914Y-186385771D01*
X189505771Y-186528628D02*
X190648628Y-186528628D01*
X191434342Y-184885771D02*
X191434342Y-185957200D01*
X191362914Y-186171485D01*
X191220057Y-186314342D01*
X191005771Y-186385771D01*
X190862914Y-186385771D01*
X192791485Y-185385771D02*
X192791485Y-186385771D01*
X192148628Y-185385771D02*
X192148628Y-186171485D01*
X192220057Y-186314342D01*
X192362914Y-186385771D01*
X192577200Y-186385771D01*
X192720057Y-186314342D01*
X192791485Y-186242914D01*
X193505771Y-185385771D02*
X193505771Y-186385771D01*
X193505771Y-185528628D02*
X193577200Y-185457200D01*
X193720057Y-185385771D01*
X193934342Y-185385771D01*
X194077200Y-185457200D01*
X194148628Y-185600057D01*
X194148628Y-186385771D01*
X195505771Y-186314342D02*
X195362914Y-186385771D01*
X195077200Y-186385771D01*
X194934342Y-186314342D01*
X194862914Y-186242914D01*
X194791485Y-186100057D01*
X194791485Y-185671485D01*
X194862914Y-185528628D01*
X194934342Y-185457200D01*
X195077200Y-185385771D01*
X195362914Y-185385771D01*
X195505771Y-185457200D01*
X195934342Y-185385771D02*
X196505771Y-185385771D01*
X196148628Y-184885771D02*
X196148628Y-186171485D01*
X196220057Y-186314342D01*
X196362914Y-186385771D01*
X196505771Y-186385771D01*
X197005771Y-186385771D02*
X197005771Y-185385771D01*
X197005771Y-184885771D02*
X196934342Y-184957200D01*
X197005771Y-185028628D01*
X197077200Y-184957200D01*
X197005771Y-184885771D01*
X197005771Y-185028628D01*
X197934342Y-186385771D02*
X197791485Y-186314342D01*
X197720057Y-186242914D01*
X197648628Y-186100057D01*
X197648628Y-185671485D01*
X197720057Y-185528628D01*
X197791485Y-185457200D01*
X197934342Y-185385771D01*
X198148628Y-185385771D01*
X198291485Y-185457200D01*
X198362914Y-185528628D01*
X198434342Y-185671485D01*
X198434342Y-186100057D01*
X198362914Y-186242914D01*
X198291485Y-186314342D01*
X198148628Y-186385771D01*
X197934342Y-186385771D01*
X199077200Y-185385771D02*
X199077200Y-186385771D01*
X199077200Y-185528628D02*
X199148628Y-185457200D01*
X199291485Y-185385771D01*
X199505771Y-185385771D01*
X199648628Y-185457200D01*
X199720057Y-185600057D01*
X199720057Y-186385771D01*
X200077200Y-186528628D02*
X201220057Y-186528628D01*
X202077200Y-185600057D02*
X202291485Y-185671485D01*
X202362914Y-185742914D01*
X202434342Y-185885771D01*
X202434342Y-186100057D01*
X202362914Y-186242914D01*
X202291485Y-186314342D01*
X202148628Y-186385771D01*
X201577200Y-186385771D01*
X201577200Y-184885771D01*
X202077200Y-184885771D01*
X202220057Y-184957200D01*
X202291485Y-185028628D01*
X202362914Y-185171485D01*
X202362914Y-185314342D01*
X202291485Y-185457200D01*
X202220057Y-185528628D01*
X202077200Y-185600057D01*
X201577200Y-185600057D01*
X203291485Y-186385771D02*
X203148628Y-186314342D01*
X203077200Y-186242914D01*
X203005771Y-186100057D01*
X203005771Y-185671485D01*
X203077200Y-185528628D01*
X203148628Y-185457200D01*
X203291485Y-185385771D01*
X203505771Y-185385771D01*
X203648628Y-185457200D01*
X203720057Y-185528628D01*
X203791485Y-185671485D01*
X203791485Y-186100057D01*
X203720057Y-186242914D01*
X203648628Y-186314342D01*
X203505771Y-186385771D01*
X203291485Y-186385771D01*
X204291485Y-186385771D02*
X205077200Y-185385771D01*
X204291485Y-185385771D02*
X205077200Y-186385771D01*
X205291485Y-186528628D02*
X206434342Y-186528628D01*
X206648628Y-184885771D02*
X207648628Y-184885771D01*
X207005771Y-186385771D01*
X208291485Y-186385771D02*
X208577200Y-186385771D01*
X208720057Y-186314342D01*
X208791485Y-186242914D01*
X208934342Y-186028628D01*
X209005771Y-185742914D01*
X209005771Y-185171485D01*
X208934342Y-185028628D01*
X208862914Y-184957200D01*
X208720057Y-184885771D01*
X208434342Y-184885771D01*
X208291485Y-184957200D01*
X208220057Y-185028628D01*
X208148628Y-185171485D01*
X208148628Y-185528628D01*
X208220057Y-185671485D01*
X208291485Y-185742914D01*
X208434342Y-185814342D01*
X208720057Y-185814342D01*
X208862914Y-185742914D01*
X208934342Y-185671485D01*
X209005771Y-185528628D01*
X209505771Y-186385771D02*
X210291485Y-185385771D01*
X209505771Y-185385771D02*
X210291485Y-186385771D01*
X210720057Y-184885771D02*
X211648628Y-184885771D01*
X211148628Y-185457200D01*
X211362914Y-185457200D01*
X211505771Y-185528628D01*
X211577200Y-185600057D01*
X211648628Y-185742914D01*
X211648628Y-186100057D01*
X211577200Y-186242914D01*
X211505771Y-186314342D01*
X211362914Y-186385771D01*
X210934342Y-186385771D01*
X210791485Y-186314342D01*
X210720057Y-186242914D01*
X213077200Y-186385771D02*
X212220057Y-186385771D01*
X212648628Y-186385771D02*
X212648628Y-184885771D01*
X212505771Y-185100057D01*
X212362914Y-185242914D01*
X212220057Y-185314342D01*
X213720057Y-186385771D02*
X213720057Y-185385771D01*
X213720057Y-185528628D02*
X213791485Y-185457200D01*
X213934342Y-185385771D01*
X214148628Y-185385771D01*
X214291485Y-185457200D01*
X214362914Y-185600057D01*
X214362914Y-186385771D01*
X214362914Y-185600057D02*
X214434342Y-185457200D01*
X214577200Y-185385771D01*
X214791485Y-185385771D01*
X214934342Y-185457200D01*
X215005771Y-185600057D01*
X215005771Y-186385771D01*
X215720057Y-186385771D02*
X215720057Y-185385771D01*
X215720057Y-185528628D02*
X215791485Y-185457200D01*
X215934342Y-185385771D01*
X216148628Y-185385771D01*
X216291485Y-185457200D01*
X216362914Y-185600057D01*
X216362914Y-186385771D01*
X216362914Y-185600057D02*
X216434342Y-185457200D01*
X216577200Y-185385771D01*
X216791485Y-185385771D01*
X216934342Y-185457200D01*
X217005771Y-185600057D01*
X217005771Y-186385771D01*
X217362914Y-186528628D02*
X218505771Y-186528628D01*
X218791485Y-185957200D02*
X219505771Y-185957200D01*
X218648628Y-186385771D02*
X219148628Y-184885771D01*
X219648628Y-186385771D01*
X221005771Y-186242914D02*
X220934342Y-186314342D01*
X220720057Y-186385771D01*
X220577200Y-186385771D01*
X220362914Y-186314342D01*
X220220057Y-186171485D01*
X220148628Y-186028628D01*
X220077200Y-185742914D01*
X220077200Y-185528628D01*
X220148628Y-185242914D01*
X220220057Y-185100057D01*
X220362914Y-184957200D01*
X220577200Y-184885771D01*
X220720057Y-184885771D01*
X220934342Y-184957200D01*
X221005771Y-185028628D01*
X221577200Y-185028628D02*
X221648628Y-184957200D01*
X221791485Y-184885771D01*
X222148628Y-184885771D01*
X222291485Y-184957200D01*
X222362914Y-185028628D01*
X222434342Y-185171485D01*
X222434342Y-185314342D01*
X222362914Y-185528628D01*
X221505771Y-186385771D01*
X222434342Y-186385771D01*
X223005771Y-185028628D02*
X223077200Y-184957200D01*
X223220057Y-184885771D01*
X223577200Y-184885771D01*
X223720057Y-184957200D01*
X223791485Y-185028628D01*
X223862914Y-185171485D01*
X223862914Y-185314342D01*
X223791485Y-185528628D01*
X222934342Y-186385771D01*
X223862914Y-186385771D01*
X224791485Y-184885771D02*
X224934342Y-184885771D01*
X225077199Y-184957200D01*
X225148628Y-185028628D01*
X225220057Y-185171485D01*
X225291485Y-185457200D01*
X225291485Y-185814342D01*
X225220057Y-186100057D01*
X225148628Y-186242914D01*
X225077199Y-186314342D01*
X224934342Y-186385771D01*
X224791485Y-186385771D01*
X224648628Y-186314342D01*
X224577199Y-186242914D01*
X224505771Y-186100057D01*
X224434342Y-185814342D01*
X224434342Y-185457200D01*
X224505771Y-185171485D01*
X224577199Y-185028628D01*
X224648628Y-184957200D01*
X224791485Y-184885771D01*
X225720057Y-184885771D02*
X226220057Y-186385771D01*
X226720057Y-184885771D01*
X227220057Y-186242914D02*
X227291485Y-186314342D01*
X227220057Y-186385771D01*
X227148628Y-186314342D01*
X227220057Y-186242914D01*
X227220057Y-186385771D01*
X227934342Y-186385771D02*
X227934342Y-184885771D01*
X228077199Y-185814342D02*
X228505771Y-186385771D01*
X228505771Y-185385771D02*
X227934342Y-185957200D01*
X229148628Y-186385771D02*
X229148628Y-185385771D01*
X229148628Y-184885771D02*
X229077199Y-184957200D01*
X229148628Y-185028628D01*
X229220057Y-184957200D01*
X229148628Y-184885771D01*
X229148628Y-185028628D01*
X230505771Y-186314342D02*
X230362914Y-186385771D01*
X230077200Y-186385771D01*
X229934342Y-186314342D01*
X229862914Y-186242914D01*
X229791485Y-186100057D01*
X229791485Y-185671485D01*
X229862914Y-185528628D01*
X229934342Y-185457200D01*
X230077200Y-185385771D01*
X230362914Y-185385771D01*
X230505771Y-185457200D01*
X231791485Y-186385771D02*
X231791485Y-185600057D01*
X231720057Y-185457200D01*
X231577199Y-185385771D01*
X231291485Y-185385771D01*
X231148628Y-185457200D01*
X231791485Y-186314342D02*
X231648628Y-186385771D01*
X231291485Y-186385771D01*
X231148628Y-186314342D01*
X231077199Y-186171485D01*
X231077199Y-186028628D01*
X231148628Y-185885771D01*
X231291485Y-185814342D01*
X231648628Y-185814342D01*
X231791485Y-185742914D01*
X233148628Y-186385771D02*
X233148628Y-184885771D01*
X233148628Y-186314342D02*
X233005771Y-186385771D01*
X232720057Y-186385771D01*
X232577199Y-186314342D01*
X232505771Y-186242914D01*
X232434342Y-186100057D01*
X232434342Y-185671485D01*
X232505771Y-185528628D01*
X232577199Y-185457200D01*
X232720057Y-185385771D01*
X233005771Y-185385771D01*
X233148628Y-185457200D01*
X233505771Y-186528628D02*
X234648628Y-186528628D01*
X235005771Y-185385771D02*
X235005771Y-186885771D01*
X235005771Y-185457200D02*
X235148628Y-185385771D01*
X235434342Y-185385771D01*
X235577199Y-185457200D01*
X235648628Y-185528628D01*
X235720057Y-185671485D01*
X235720057Y-186100057D01*
X235648628Y-186242914D01*
X235577199Y-186314342D01*
X235434342Y-186385771D01*
X235148628Y-186385771D01*
X235005771Y-186314342D01*
X237005771Y-186314342D02*
X236862914Y-186385771D01*
X236577200Y-186385771D01*
X236434342Y-186314342D01*
X236362914Y-186242914D01*
X236291485Y-186100057D01*
X236291485Y-185671485D01*
X236362914Y-185528628D01*
X236434342Y-185457200D01*
X236577200Y-185385771D01*
X236862914Y-185385771D01*
X237005771Y-185457200D01*
X237648628Y-186385771D02*
X237648628Y-184885771D01*
X237648628Y-185457200D02*
X237791485Y-185385771D01*
X238077199Y-185385771D01*
X238220057Y-185457200D01*
X238291485Y-185528628D01*
X238362914Y-185671485D01*
X238362914Y-186100057D01*
X238291485Y-186242914D01*
X238220057Y-186314342D01*
X238077199Y-186385771D01*
X237791485Y-186385771D01*
X237648628Y-186314342D01*
D10*
D11*
X177002200Y-181507200D02*
X285002200Y-181507200D01*
D10*
D11*
X178362914Y-183614342D02*
X178577200Y-183685771D01*
X178934342Y-183685771D01*
X179077200Y-183614342D01*
X179148628Y-183542914D01*
X179220057Y-183400057D01*
X179220057Y-183257200D01*
X179148628Y-183114342D01*
X179077200Y-183042914D01*
X178934342Y-182971485D01*
X178648628Y-182900057D01*
X178505771Y-182828628D01*
X178434342Y-182757200D01*
X178362914Y-182614342D01*
X178362914Y-182471485D01*
X178434342Y-182328628D01*
X178505771Y-182257200D01*
X178648628Y-182185771D01*
X179005771Y-182185771D01*
X179220057Y-182257200D01*
X179862914Y-183685771D02*
X179862914Y-182185771D01*
X180505771Y-183685771D02*
X180505771Y-182900057D01*
X180434342Y-182757200D01*
X180291485Y-182685771D01*
X180077200Y-182685771D01*
X179934342Y-182757200D01*
X179862914Y-182828628D01*
X181791485Y-183614342D02*
X181648628Y-183685771D01*
X181362914Y-183685771D01*
X181220057Y-183614342D01*
X181148628Y-183471485D01*
X181148628Y-182900057D01*
X181220057Y-182757200D01*
X181362914Y-182685771D01*
X181648628Y-182685771D01*
X181791485Y-182757200D01*
X181862914Y-182900057D01*
X181862914Y-183042914D01*
X181148628Y-183185771D01*
X183077200Y-183614342D02*
X182934342Y-183685771D01*
X182648628Y-183685771D01*
X182505771Y-183614342D01*
X182434342Y-183471485D01*
X182434342Y-182900057D01*
X182505771Y-182757200D01*
X182648628Y-182685771D01*
X182934342Y-182685771D01*
X183077200Y-182757200D01*
X183148628Y-182900057D01*
X183148628Y-183042914D01*
X182434342Y-183185771D01*
X183577200Y-182685771D02*
X184148628Y-182685771D01*
X183791485Y-182185771D02*
X183791485Y-183471485D01*
X183862914Y-183614342D01*
X184005771Y-183685771D01*
X184148628Y-183685771D01*
X184648628Y-183542914D02*
X184720057Y-183614342D01*
X184648628Y-183685771D01*
X184577200Y-183614342D01*
X184648628Y-183542914D01*
X184648628Y-183685771D01*
X184648628Y-182757200D02*
X184720057Y-182828628D01*
X184648628Y-182900057D01*
X184577200Y-182828628D01*
X184648628Y-182757200D01*
X184648628Y-182900057D01*
D10*
D12*
X178482914Y-180257200D02*
X179197200Y-180257200D01*
X178340057Y-180685771D02*
X178840057Y-179185771D01*
X179340057Y-180685771D01*
X180411485Y-180614342D02*
X180268628Y-180685771D01*
X179982914Y-180685771D01*
X179840057Y-180614342D01*
X179768628Y-180471485D01*
X179768628Y-179900057D01*
X179840057Y-179757200D01*
X179982914Y-179685771D01*
X180268628Y-179685771D01*
X180411485Y-179757200D01*
X180482914Y-179900057D01*
X180482914Y-180042914D01*
X179768628Y-180185771D01*
X181340057Y-180685771D02*
X181197200Y-180614342D01*
X181125771Y-180542914D01*
X181054342Y-180400057D01*
X181054342Y-179971485D01*
X181125771Y-179828628D01*
X181197200Y-179757200D01*
X181340057Y-179685771D01*
X181554342Y-179685771D01*
X181697200Y-179757200D01*
X181768628Y-179828628D01*
X181840057Y-179971485D01*
X181840057Y-180400057D01*
X181768628Y-180542914D01*
X181697200Y-180614342D01*
X181554342Y-180685771D01*
X181340057Y-180685771D01*
X182482914Y-179685771D02*
X182482914Y-180685771D01*
X182482914Y-179828628D02*
X182554342Y-179757200D01*
X182697200Y-179685771D01*
X182911485Y-179685771D01*
X183054342Y-179757200D01*
X183125771Y-179900057D01*
X183125771Y-180685771D01*
X184554342Y-180685771D02*
X183840057Y-180685771D01*
X183840057Y-179185771D01*
X185697200Y-180685771D02*
X185697200Y-179900057D01*
X185625771Y-179757200D01*
X185482914Y-179685771D01*
X185197200Y-179685771D01*
X185054342Y-179757200D01*
X185697200Y-180614342D02*
X185554342Y-180685771D01*
X185197200Y-180685771D01*
X185054342Y-180614342D01*
X184982914Y-180471485D01*
X184982914Y-180328628D01*
X185054342Y-180185771D01*
X185197200Y-180114342D01*
X185554342Y-180114342D01*
X185697200Y-180042914D01*
X186411485Y-180685771D02*
X186411485Y-179185771D01*
X186411485Y-179757200D02*
X186554342Y-179685771D01*
X186840057Y-179685771D01*
X186982914Y-179757200D01*
X187054342Y-179828628D01*
X187125771Y-179971485D01*
X187125771Y-180400057D01*
X187054342Y-180542914D01*
X186982914Y-180614342D01*
X186840057Y-180685771D01*
X186554342Y-180685771D01*
X186411485Y-180614342D01*
X187697200Y-180614342D02*
X187840057Y-180685771D01*
X188125771Y-180685771D01*
X188268628Y-180614342D01*
X188340057Y-180471485D01*
X188340057Y-180400057D01*
X188268628Y-180257200D01*
X188125771Y-180185771D01*
X187911485Y-180185771D01*
X187768628Y-180114342D01*
X187697200Y-179971485D01*
X187697200Y-179900057D01*
X187768628Y-179757200D01*
X187911485Y-179685771D01*
X188125771Y-179685771D01*
X188268628Y-179757200D01*
D10*
D11*
D10*
D11*
D10*
D11*
D10*
D11*
D10*
D11*
X197002200Y-191507200D02*
X197002200Y-194507200D01*
D10*
D11*
X261002200Y-191507200D02*
X261002200Y-198007200D01*
D14*
X176710000Y-131170000D02*
G75*
G03*
X176710000Y-131170000I-100000J0D01*
G01*
D15*
G04 #@! TO.C,G\u002A\u002A\u002A*
X169930000Y-122315000D02*
X169925000Y-125235000D01*
X222945000Y-137820000D02*
X222955000Y-150965000D01*
X143720000Y-150965000D02*
X143710000Y-137915000D01*
X169775000Y-153355000D02*
X169755000Y-151115000D01*
X168540000Y-122325000D02*
X146590000Y-122305000D01*
X197425000Y-153375000D02*
X220155000Y-153395000D01*
X169755000Y-151115000D02*
X168745000Y-151115000D01*
X195485000Y-125164700D02*
X195480000Y-122314700D01*
X143700000Y-136915000D02*
X143700000Y-125495000D01*
X169775000Y-153355000D02*
X195035000Y-153365000D01*
X221165000Y-137815000D02*
X221165000Y-136817500D01*
X169925000Y-125235000D02*
X168545000Y-125235000D01*
X168545000Y-125235000D02*
X168540000Y-122325000D01*
X196870000Y-122314700D02*
X219700000Y-122324700D01*
X196875000Y-125164700D02*
X195485000Y-125164700D01*
X196870000Y-122314700D02*
X196875000Y-125164700D01*
X197425000Y-150105000D02*
X195035000Y-150100000D01*
X168745000Y-151115000D02*
X168745000Y-153355000D01*
X143700000Y-136915000D02*
X144815000Y-136925000D01*
X144815000Y-136925000D02*
X144815000Y-137925000D01*
X144815000Y-137925000D02*
X143710000Y-137915000D01*
X221165000Y-136817500D02*
X222945000Y-136820000D01*
X222945000Y-136820000D02*
X222940000Y-125294700D01*
X195480000Y-122314700D02*
X169930000Y-122315000D01*
X168745000Y-153355000D02*
X146780000Y-153345000D01*
X197425000Y-153375000D02*
X197425000Y-150105000D01*
X195035000Y-150100000D02*
X195035000Y-153365000D01*
X222945000Y-137820000D02*
X221165000Y-137815000D01*
X146590000Y-122305000D02*
G75*
G03*
X143700000Y-125495000I375481J-3244276D01*
G01*
X143720000Y-150965000D02*
G75*
G03*
X146780000Y-153345000I3113656J846129D01*
G01*
X220154997Y-153394985D02*
G75*
G03*
X222955000Y-150965000I-855797J3814285D01*
G01*
X222940000Y-125294700D02*
G75*
G03*
X219700000Y-122324700I-3295300J-342600D01*
G01*
G04 #@! TD*
D16*
G04 #@! TO.P,EC50,1*
G04 #@! TO.N,Net-(EC50-Pad1)*
X194385000Y-132090000D03*
G04 #@! TO.P,EC50,2*
G04 #@! TO.N,GND*
X195935000Y-132090000D03*
G04 #@! TD*
D17*
G04 #@! TO.P,MR2,1*
G04 #@! TO.N,Net-(MR1-Pad2)*
X160917500Y-136960000D03*
G04 #@! TO.P,MR2,2*
G04 #@! TO.N,GND*
X162742500Y-136960000D03*
G04 #@! TD*
D18*
G04 #@! TO.P,EC15,1*
G04 #@! TO.N,GND*
X182990000Y-144550000D03*
G04 #@! TO.P,EC15,2*
G04 #@! TO.N,3V3*
X181090000Y-144550000D03*
G04 #@! TD*
D19*
G04 #@! TO.P,IMUC2,1*
G04 #@! TO.N,GND*
X198300000Y-128855000D03*
G04 #@! TO.P,IMUC2,2*
G04 #@! TO.N,3V3*
X198300000Y-127305000D03*
G04 #@! TD*
D17*
G04 #@! TO.P,TPR2,1*
G04 #@! TO.N,GND*
X199127500Y-145540000D03*
G04 #@! TO.P,TPR2,2*
G04 #@! TO.N,BAT_NTC*
X200952500Y-145540000D03*
G04 #@! TD*
D20*
G04 #@! TO.P,MT_VIN1,1,1*
G04 #@! TO.N,4V2*
X164925000Y-132200000D03*
G04 #@! TD*
D21*
G04 #@! TO.P,EC12,1*
G04 #@! TO.N,Net-(EC12-Pad1)*
X179400000Y-144635000D03*
G04 #@! TO.P,EC12,2*
G04 #@! TO.N,GND*
X179400000Y-146185000D03*
G04 #@! TD*
D22*
G04 #@! TO.P,EC25,1*
G04 #@! TO.N,VDD_SPI*
X183990000Y-129000000D03*
G04 #@! TO.P,EC25,2*
G04 #@! TO.N,GND*
X183990000Y-127100000D03*
G04 #@! TD*
D23*
G04 #@! TO.P,ECY1,1,1*
G04 #@! TO.N,Net-(EC12-Pad1)*
X177322500Y-145180000D03*
G04 #@! TO.P,ECY1,2,2*
G04 #@! TO.N,GND*
X177322500Y-142980000D03*
G04 #@! TO.P,ECY1,3,3*
G04 #@! TO.N,Net-(EC13-Pad1)*
X175522500Y-142980000D03*
G04 #@! TO.P,ECY1,4,4*
G04 #@! TO.N,GND*
X175522500Y-145180000D03*
G04 #@! TD*
D24*
G04 #@! TO.P,TPU1,1,TEMP*
G04 #@! TO.N,BAT_NTC*
X197095000Y-142785000D03*
G04 #@! TO.P,TPU1,2,PROG*
G04 #@! TO.N,Net-(TPR1-Pad2)*
X195825000Y-142785000D03*
G04 #@! TO.P,TPU1,3,GND*
G04 #@! TO.N,GND*
X194555000Y-142785000D03*
G04 #@! TO.P,TPU1,4,VCC*
G04 #@! TO.N,5V0*
X193285000Y-142785000D03*
G04 #@! TO.P,TPU1,5,BAT*
G04 #@! TO.N,VIN_BATF*
X193285000Y-147735000D03*
G04 #@! TO.P,TPU1,6,~{STDBY}*
G04 #@! TO.N,STDBY_LED_G*
X194555000Y-147735000D03*
G04 #@! TO.P,TPU1,7,~{CHRG}*
G04 #@! TO.N,CHRG_LED_R*
X195825000Y-147735000D03*
G04 #@! TO.P,TPU1,8,CE*
G04 #@! TO.N,GPIO2_BAT_EN_CHR*
X197095000Y-147735000D03*
D25*
G04 #@! TO.P,TPU1,9,EP*
G04 #@! TO.N,GND*
X195190000Y-145260000D03*
G04 #@! TD*
D26*
G04 #@! TO.P,AC1,1*
G04 #@! TO.N,3V3*
X153822500Y-135860000D03*
G04 #@! TO.P,AC1,2*
G04 #@! TO.N,GND*
X155897500Y-135860000D03*
G04 #@! TD*
D27*
G04 #@! TO.P,AR2,1*
G04 #@! TO.N,Net-(AR1-Pad2)*
X153010000Y-139810000D03*
G04 #@! TO.P,AR2,2*
G04 #@! TO.N,GND*
X153010000Y-141810000D03*
G04 #@! TD*
D28*
G04 #@! TO.P,EPS1,1,~{CE}*
G04 #@! TO.N,SPICS1*
X171805000Y-130425000D03*
G04 #@! TO.P,EPS1,2,SIO1*
G04 #@! TO.N,SPIQ*
X173075000Y-130425000D03*
G04 #@! TO.P,EPS1,3,SIO2*
G04 #@! TO.N,SPIWP*
X174345000Y-130425000D03*
G04 #@! TO.P,EPS1,4,VSS*
G04 #@! TO.N,GND*
X175615000Y-130425000D03*
G04 #@! TO.P,EPS1,5,SiO0*
G04 #@! TO.N,SPID*
X175615000Y-125475000D03*
G04 #@! TO.P,EPS1,6,SCLK*
G04 #@! TO.N,SPICLK*
X174345000Y-125475000D03*
G04 #@! TO.P,EPS1,7,SIO3*
G04 #@! TO.N,SPIHD*
X173075000Y-125475000D03*
G04 #@! TO.P,EPS1,8,VCC*
G04 #@! TO.N,VDD_SPI*
X171805000Y-125475000D03*
G04 #@! TD*
D29*
G04 #@! TO.P,SH1,1,SDA*
G04 #@! TO.N,GPIO8_I2C_SDA*
X202335000Y-128300000D03*
G04 #@! TO.P,SH1,2,ADDR*
G04 #@! TO.N,GND*
X202335000Y-127800000D03*
G04 #@! TO.P,SH1,3,ALERT*
G04 #@! TO.N,unconnected-(SH1-Pad3)*
X202335000Y-127300000D03*
G04 #@! TO.P,SH1,4,SCL*
G04 #@! TO.N,GPIO9_I2C_SCL*
X202335000Y-126800000D03*
G04 #@! TO.P,SH1,5,VDD*
G04 #@! TO.N,3V3*
X199985000Y-126800000D03*
D30*
G04 #@! TO.P,SH1,6,~{RESET}*
G04 #@! TO.N,unconnected-(SH1-Pad6)*
X199985000Y-127300000D03*
D29*
G04 #@! TO.P,SH1,7,R*
G04 #@! TO.N,GND*
X199985000Y-127800000D03*
G04 #@! TO.P,SH1,8,VSS*
X199985000Y-128300000D03*
D31*
G04 #@! TO.P,SH1,9,VSS*
X201160000Y-127550000D03*
G04 #@! TD*
D32*
G04 #@! TO.P,Q2,1,G*
G04 #@! TO.N,Net-(Q2-Pad1)*
X214147500Y-125000000D03*
G04 #@! TO.P,Q2,2,S*
G04 #@! TO.N,3V3*
X214147500Y-123100000D03*
G04 #@! TO.P,Q2,3,D*
G04 #@! TO.N,Net-(I2C2-Pad2)*
X212272500Y-124050000D03*
G04 #@! TD*
D33*
G04 #@! TO.P,LED2,1,GA*
G04 #@! TO.N,Net-(L2R2-Pad2)*
X202950000Y-141770000D03*
G04 #@! TO.P,LED2,2,BA*
G04 #@! TO.N,Net-(LED2-Pad2)*
X206130000Y-141780000D03*
G04 #@! TO.P,LED2,3,RA*
G04 #@! TO.N,Net-(L2R1-Pad2)*
X202950000Y-140630000D03*
G04 #@! TO.P,LED2,4,K*
G04 #@! TO.N,3V3*
X206140000Y-140660000D03*
G04 #@! TD*
D34*
G04 #@! TO.P,ICR1,1*
G04 #@! TO.N,3V3*
X173720000Y-137365000D03*
G04 #@! TO.P,ICR1,2*
G04 #@! TO.N,GPIO9_I2C_SCL*
X173720000Y-139015000D03*
G04 #@! TD*
D20*
G04 #@! TO.P,TP1,1,1*
G04 #@! TO.N,5V0*
X159150000Y-130420000D03*
G04 #@! TD*
D35*
G04 #@! TO.P,U2,1*
G04 #@! TO.N,N/C*
X189565000Y-124270000D03*
G04 #@! TO.P,U2,2*
X188295000Y-124270000D03*
G04 #@! TO.P,U2,3*
X187025000Y-124270000D03*
G04 #@! TO.P,U2,4,GND*
G04 #@! TO.N,GND*
X185755000Y-124270000D03*
G04 #@! TO.P,U2,5,SDA*
G04 #@! TO.N,GPIO8_I2C_SDA*
X185755000Y-129210000D03*
G04 #@! TO.P,U2,6,SCL*
G04 #@! TO.N,GPIO9_I2C_SCL*
X187025000Y-129210000D03*
G04 #@! TO.P,U2,7*
G04 #@! TO.N,N/C*
X188295000Y-129210000D03*
G04 #@! TO.P,U2,8,VCC*
G04 #@! TO.N,3V3*
X189565000Y-129210000D03*
G04 #@! TD*
D36*
G04 #@! TO.P,PWSWR1,1*
G04 #@! TO.N,GND*
X200505000Y-151830000D03*
G04 #@! TO.P,PWSWR1,2*
G04 #@! TO.N,PROBE_5V0*
X198855000Y-151830000D03*
G04 #@! TD*
D21*
G04 #@! TO.P,EC24,1*
G04 #@! TO.N,VDD_SPI*
X183960000Y-123965000D03*
G04 #@! TO.P,EC24,2*
G04 #@! TO.N,GND*
X183960000Y-125515000D03*
G04 #@! TD*
D37*
G04 #@! TO.P,MR1,1*
G04 #@! TO.N,5V0*
X158840000Y-135147500D03*
G04 #@! TO.P,MR1,2*
G04 #@! TO.N,Net-(MR1-Pad2)*
X158840000Y-136972500D03*
G04 #@! TD*
D33*
G04 #@! TO.P,LED1,1,GA*
G04 #@! TO.N,GPIO12_LED_G*
X198660000Y-132100000D03*
G04 #@! TO.P,LED1,2,BA*
G04 #@! TO.N,GPIO11_LED_B*
X201840000Y-132110000D03*
G04 #@! TO.P,LED1,3,RA*
G04 #@! TO.N,Net-(LED1-Pad3)*
X198660000Y-130960000D03*
G04 #@! TO.P,LED1,4,K*
G04 #@! TO.N,3V3*
X201850000Y-130990000D03*
G04 #@! TD*
D17*
G04 #@! TO.P,HLR1,1*
G04 #@! TO.N,Net-(HLD1-Pad2)*
X159437500Y-145190000D03*
G04 #@! TO.P,HLR1,2*
G04 #@! TO.N,Net-(HLL2-Pad2)*
X161262500Y-145190000D03*
G04 #@! TD*
D38*
G04 #@! TO.P,,1*
G04 #@! TO.N,N/C*
X190675000Y-135270000D03*
G04 #@! TD*
D37*
G04 #@! TO.P,TPR1,1*
G04 #@! TO.N,GND*
X197070000Y-138767500D03*
G04 #@! TO.P,TPR1,2*
G04 #@! TO.N,Net-(TPR1-Pad2)*
X197070000Y-140592500D03*
G04 #@! TD*
D39*
G04 #@! TO.P,HLD1,1,K*
G04 #@! TO.N,GND*
X155892500Y-143790000D03*
G04 #@! TO.P,HLD1,2,A*
G04 #@! TO.N,Net-(HLD1-Pad2)*
X157767500Y-143790000D03*
G04 #@! TD*
D40*
G04 #@! TO.P,HLL2,1,1*
G04 #@! TO.N,PROBE_5V0*
X164590000Y-149910000D03*
G04 #@! TO.P,HLL2,2,2*
G04 #@! TO.N,Net-(HLL2-Pad2)*
X164590000Y-147110000D03*
G04 #@! TD*
D41*
G04 #@! TO.P,J1,1,GND*
G04 #@! TO.N,GND*
X171780000Y-152515000D03*
G04 #@! TO.P,J1,2,GND*
X171780000Y-149565000D03*
D42*
G04 #@! TO.P,J1,3,SIG*
G04 #@! TO.N,unconnected-(J1-Pad3)*
X173330000Y-151040000D03*
G04 #@! TD*
D43*
G04 #@! TO.P,MC1,1*
G04 #@! TO.N,4V2*
X168020000Y-140110000D03*
G04 #@! TO.P,MC1,2*
G04 #@! TO.N,GND*
X168020000Y-142010000D03*
G04 #@! TD*
D18*
G04 #@! TO.P,EC14,1*
G04 #@! TO.N,GND*
X182970000Y-146415000D03*
G04 #@! TO.P,EC14,2*
G04 #@! TO.N,3V3*
X181070000Y-146415000D03*
G04 #@! TD*
D44*
G04 #@! TO.P,CBU1,1,D*
G04 #@! TO.N,Net-(CBU1-Pad1)*
X145405000Y-129745000D03*
G04 #@! TO.P,CBU1,2,GND*
G04 #@! TO.N,GND*
X146675000Y-129745000D03*
G04 #@! TO.P,CBU1,3,VCC*
G04 #@! TO.N,5V0*
X147945000Y-129745000D03*
G04 #@! TO.P,CBU1,4,R*
G04 #@! TO.N,Net-(CBU1-Pad4)*
X149215000Y-129745000D03*
D45*
G04 #@! TO.P,CBU1,5,Vref*
G04 #@! TO.N,unconnected-(CBU1-Pad5)*
X149215000Y-124495000D03*
D44*
G04 #@! TO.P,CBU1,6,CANL*
G04 #@! TO.N,Net-(CANBUS1-Pad1)*
X147945000Y-124495000D03*
G04 #@! TO.P,CBU1,7,CANH*
G04 #@! TO.N,Net-(CANBUS1-Pad2)*
X146675000Y-124495000D03*
G04 #@! TO.P,CBU1,8,Rs*
G04 #@! TO.N,GND*
X145405000Y-124495000D03*
G04 #@! TD*
D46*
G04 #@! TO.P,MR3,1*
G04 #@! TO.N,VIN_BAT*
X200842500Y-136780000D03*
G04 #@! TO.P,MR3,2*
G04 #@! TO.N,GPIO4_BAT_SENSE*
X199017500Y-136780000D03*
G04 #@! TD*
D16*
G04 #@! TO.P,CC1,1*
G04 #@! TO.N,GND*
X146285000Y-132090000D03*
G04 #@! TO.P,CC1,2*
G04 #@! TO.N,5V0*
X147835000Y-132090000D03*
G04 #@! TD*
G04 #@! TO.P,EC20,1*
G04 #@! TO.N,Net-(EC20-Pad1)*
X187545000Y-145700000D03*
G04 #@! TO.P,EC20,2*
G04 #@! TO.N,GND*
X189095000Y-145700000D03*
G04 #@! TD*
G04 #@! TO.P,EC38,1*
G04 #@! TO.N,Net-(EC38-Pad1)*
X183205000Y-149560000D03*
G04 #@! TO.P,EC38,2*
G04 #@! TO.N,GND*
X184755000Y-149560000D03*
G04 #@! TD*
D21*
G04 #@! TO.P,EC19,1*
G04 #@! TO.N,3V3*
X189260000Y-142025000D03*
G04 #@! TO.P,EC19,2*
G04 #@! TO.N,GND*
X189260000Y-143575000D03*
G04 #@! TD*
D47*
G04 #@! TO.P,L2,1,1*
G04 #@! TO.N,3V3*
X187452500Y-143670000D03*
G04 #@! TO.P,L2,2,2*
G04 #@! TO.N,Net-(EC20-Pad1)*
X185327500Y-143670000D03*
G04 #@! TD*
D48*
G04 #@! TO.P,LR1,1*
G04 #@! TO.N,GPIO5_LED_R*
X197010000Y-135645000D03*
G04 #@! TO.P,LR1,2*
G04 #@! TO.N,Net-(LED1-Pad3)*
X197010000Y-133995000D03*
G04 #@! TD*
D49*
G04 #@! TO.P,EC37,1*
G04 #@! TO.N,Net-(ANT1-Pad1)*
X176865000Y-149550000D03*
G04 #@! TO.P,EC37,2*
G04 #@! TO.N,GND*
X175315000Y-149550000D03*
G04 #@! TD*
D50*
G04 #@! TO.P,U1,1,SW*
G04 #@! TO.N,Net-(MD1-Pad2)*
X162685000Y-139295000D03*
G04 #@! TO.P,U1,2,GND*
G04 #@! TO.N,GND*
X161755000Y-139290000D03*
G04 #@! TO.P,U1,3,FB*
G04 #@! TO.N,Net-(MR1-Pad2)*
X160805000Y-139290000D03*
D51*
G04 #@! TO.P,U1,4,EN*
G04 #@! TO.N,4V2*
X160790000Y-141970000D03*
G04 #@! TO.P,U1,5,IN*
X161740000Y-141965000D03*
G04 #@! TO.P,U1,6*
G04 #@! TO.N,N/C*
X162690000Y-141965000D03*
G04 #@! TD*
D52*
G04 #@! TO.P,AUC1,1*
G04 #@! TO.N,GND*
X187490000Y-131350000D03*
G04 #@! TO.P,AUC1,2*
G04 #@! TO.N,3V3*
X189390000Y-131350000D03*
G04 #@! TD*
D48*
G04 #@! TO.P,IDR1,1*
G04 #@! TO.N,GPIO8_I2C_SDA*
X171900000Y-139005000D03*
G04 #@! TO.P,IDR1,2*
G04 #@! TO.N,3V3*
X171900000Y-137355000D03*
G04 #@! TD*
D20*
G04 #@! TO.P,MT_GND1,1,1*
G04 #@! TO.N,GND*
X162850000Y-126830000D03*
G04 #@! TD*
D21*
G04 #@! TO.P,EC13,1*
G04 #@! TO.N,Net-(EC13-Pad1)*
X173630000Y-144565000D03*
G04 #@! TO.P,EC13,2*
G04 #@! TO.N,GND*
X173630000Y-146115000D03*
G04 #@! TD*
D36*
G04 #@! TO.P,ER1,1*
G04 #@! TO.N,3V3*
X189365000Y-140030000D03*
G04 #@! TO.P,ER1,2*
G04 #@! TO.N,CHIP_EN*
X187715000Y-140030000D03*
G04 #@! TD*
D53*
G04 #@! TO.P,PWDSWT1,1*
G04 #@! TO.N,PROBE_5V0*
X201050000Y-149677500D03*
G04 #@! TO.P,PWDSWT1,2*
G04 #@! TO.N,VIN_BAT*
X202950000Y-149677500D03*
G04 #@! TO.P,PWDSWT1,3*
G04 #@! TO.N,4V2*
X202000000Y-147802500D03*
G04 #@! TD*
D17*
G04 #@! TO.P,CR1,1*
G04 #@! TO.N,Net-(CANBUS1-Pad1)*
X156537500Y-123790000D03*
G04 #@! TO.P,CR1,2*
G04 #@! TO.N,Net-(CJ1-Pad2)*
X158362500Y-123790000D03*
G04 #@! TD*
D54*
G04 #@! TO.P,,1*
G04 #@! TO.N,N/C*
X170575000Y-135230000D03*
G04 #@! TD*
D55*
G04 #@! TO.P,MD1,1,K*
G04 #@! TO.N,5V0*
X165370000Y-134357500D03*
G04 #@! TO.P,MD1,2,A*
G04 #@! TO.N,Net-(MD1-Pad2)*
X165370000Y-137332500D03*
G04 #@! TD*
D20*
G04 #@! TO.P,TP2,1,1*
G04 #@! TO.N,3V3*
X152300000Y-132840000D03*
G04 #@! TD*
D56*
G04 #@! TO.P,,1*
G04 #@! TO.N,N/C*
X187980000Y-147820000D03*
G04 #@! TD*
D46*
G04 #@! TO.P,TPR3,1*
G04 #@! TO.N,BAT_NTC*
X200592500Y-143730000D03*
G04 #@! TO.P,TPR3,2*
G04 #@! TO.N,5V0*
X198767500Y-143730000D03*
G04 #@! TD*
D57*
G04 #@! TO.P,ANT1,1,1*
G04 #@! TO.N,Net-(ANT1-Pad1)*
X176000000Y-152220000D03*
G04 #@! TO.P,ANT1,2,2*
G04 #@! TO.N,unconnected-(ANT1-Pad2)*
X185500000Y-152220000D03*
G04 #@! TD*
D58*
G04 #@! TO.P,AR1,1*
G04 #@! TO.N,3V3*
X155830000Y-137880000D03*
G04 #@! TO.P,AR1,2*
G04 #@! TO.N,Net-(AR1-Pad2)*
X153830000Y-137880000D03*
G04 #@! TD*
D19*
G04 #@! TO.P,IMUC1,1*
G04 #@! TO.N,GND*
X171790000Y-146105000D03*
G04 #@! TO.P,IMUC1,2*
G04 #@! TO.N,3V3*
X171790000Y-144555000D03*
G04 #@! TD*
D16*
G04 #@! TO.P,CC2,1*
G04 #@! TO.N,Net-(CBU3-Pad8)*
X151635000Y-123500000D03*
G04 #@! TO.P,CC2,2*
G04 #@! TO.N,GND*
X153185000Y-123500000D03*
G04 #@! TD*
D19*
G04 #@! TO.P,EC16,1*
G04 #@! TO.N,3V3*
X175550000Y-139165000D03*
G04 #@! TO.P,EC16,2*
G04 #@! TO.N,GND*
X175550000Y-137615000D03*
G04 #@! TD*
D46*
G04 #@! TO.P,MR4,1*
G04 #@! TO.N,GPIO4_BAT_SENSE*
X200812500Y-138610000D03*
G04 #@! TO.P,MR4,2*
G04 #@! TO.N,GND*
X198987500Y-138610000D03*
G04 #@! TD*
D59*
G04 #@! TO.P,Q1,1,G*
G04 #@! TO.N,Net-(Q1-Pad1)*
X146570000Y-147902500D03*
G04 #@! TO.P,Q1,2,S*
G04 #@! TO.N,3V3*
X144670000Y-147902500D03*
G04 #@! TO.P,Q1,3,D*
G04 #@! TO.N,Net-(I2C1-Pad3)*
X145620000Y-149777500D03*
G04 #@! TD*
D60*
G04 #@! TO.P,LEDSS85,1*
G04 #@! TO.N,GPIO8_I2C_SDA*
X214302500Y-137610000D03*
G04 #@! TO.P,LEDSS85,2*
G04 #@! TO.N,Net-(LED2-Pad2)*
X214302500Y-139510000D03*
G04 #@! TO.P,LEDSS85,3*
G04 #@! TO.N,GND*
X216177500Y-138560000D03*
G04 #@! TD*
D61*
G04 #@! TO.P,L2R1,1*
G04 #@! TO.N,CHRG_LED_R*
X205045000Y-143890000D03*
G04 #@! TO.P,L2R1,2*
G04 #@! TO.N,Net-(L2R1-Pad2)*
X206695000Y-143890000D03*
G04 #@! TD*
D62*
G04 #@! TO.P,ESP_FLASH1,1,~{CS}*
G04 #@! TO.N,SPICS0*
X177735000Y-131745000D03*
G04 #@! TO.P,ESP_FLASH1,2,DO(IO1)*
G04 #@! TO.N,SPIQ*
X179005000Y-131745000D03*
G04 #@! TO.P,ESP_FLASH1,3,IO2*
G04 #@! TO.N,SPIWP*
X180275000Y-131745000D03*
G04 #@! TO.P,ESP_FLASH1,4,GND*
G04 #@! TO.N,GND*
X181545000Y-131745000D03*
G04 #@! TO.P,ESP_FLASH1,5,DI(IO0)*
G04 #@! TO.N,SPID*
X181545000Y-123955000D03*
G04 #@! TO.P,ESP_FLASH1,6,CLK*
G04 #@! TO.N,SPICLK*
X180275000Y-123955000D03*
G04 #@! TO.P,ESP_FLASH1,7,IO3*
G04 #@! TO.N,SPIHD*
X179005000Y-123955000D03*
G04 #@! TO.P,ESP_FLASH1,8,VCC*
G04 #@! TO.N,VDD_SPI*
X177735000Y-123955000D03*
G04 #@! TD*
D63*
G04 #@! TO.P,L2R2,1*
G04 #@! TO.N,STDBY_LED_G*
X202530000Y-135880000D03*
G04 #@! TO.P,L2R2,2*
G04 #@! TO.N,Net-(L2R2-Pad2)*
X202530000Y-133880000D03*
G04 #@! TD*
D58*
G04 #@! TO.P,QR1,1*
G04 #@! TO.N,GPIO1_PLUG_PWR_3V3*
X150430000Y-145630000D03*
G04 #@! TO.P,QR1,2*
G04 #@! TO.N,Net-(Q1-Pad1)*
X148430000Y-145630000D03*
G04 #@! TD*
D52*
G04 #@! TO.P,HLC3,1*
G04 #@! TO.N,PROBE_5V0*
X167670000Y-149530000D03*
G04 #@! TO.P,HLC3,2*
G04 #@! TO.N,GND3*
X169570000Y-149530000D03*
G04 #@! TD*
D19*
G04 #@! TO.P,EC26,1*
G04 #@! TO.N,3V3*
X185750000Y-133265000D03*
G04 #@! TO.P,EC26,2*
G04 #@! TO.N,GND*
X185750000Y-131715000D03*
G04 #@! TD*
D64*
G04 #@! TO.P,RST1,1,1*
G04 #@! TO.N,GND*
X156255000Y-141405000D03*
G04 #@! TO.P,RST1,2,2*
G04 #@! TO.N,CHIP_EN*
X159595000Y-141405000D03*
G04 #@! TD*
D65*
G04 #@! TO.P,HLD6,1,K*
G04 #@! TO.N,5V0*
X167670000Y-144595000D03*
G04 #@! TO.P,HLD6,2,A*
G04 #@! TO.N,PROBE_5V0*
X167670000Y-147570000D03*
G04 #@! TD*
D26*
G04 #@! TO.P,AC2,1*
G04 #@! TO.N,5V0*
X149022500Y-143560000D03*
G04 #@! TO.P,AC2,2*
G04 #@! TO.N,GND*
X151097500Y-143560000D03*
G04 #@! TD*
D18*
G04 #@! TO.P,MC2,1*
G04 #@! TO.N,5V0*
X162750000Y-134790000D03*
G04 #@! TO.P,MC2,2*
G04 #@! TO.N,GND*
X160850000Y-134790000D03*
G04 #@! TD*
D48*
G04 #@! TO.P,QR2,1*
G04 #@! TO.N,GPIO10_PLUG_PWR_3V3*
X218410000Y-125235000D03*
G04 #@! TO.P,QR2,2*
G04 #@! TO.N,Net-(Q2-Pad1)*
X218410000Y-123585000D03*
G04 #@! TD*
D66*
G04 #@! TO.P,BZ1,1,-*
G04 #@! TO.N,GPIO7_BUZZER*
X211980000Y-130960000D03*
G04 #@! TO.P,BZ1,2,+*
G04 #@! TO.N,GND*
X204580000Y-130960000D03*
G04 #@! TO.P,BZ1,3*
G04 #@! TO.N,N/C*
X204580000Y-138360000D03*
G04 #@! TD*
D67*
G04 #@! TO.P,ESP32S3,1,LNA_IN/RF*
G04 #@! TO.N,Net-(EC38-Pad1)*
X182042202Y-141959106D03*
G04 #@! TO.P,ESP32S3,2,VDD3P3*
G04 #@! TO.N,Net-(EC20-Pad1)*
X182325045Y-141676263D03*
G04 #@! TO.P,ESP32S3,3,VDD3P3*
X182607887Y-141393421D03*
G04 #@! TO.P,ESP32S3,4,CHIP_PU/RESET*
G04 #@! TO.N,CHIP_EN*
X182890730Y-141110578D03*
G04 #@! TO.P,ESP32S3,5,GPIO0/BOOT*
G04 #@! TO.N,ESP_GPIO0_BOOT-DTR*
X183173573Y-140827735D03*
G04 #@! TO.P,ESP32S3,6,GPIO1/ADC1_CH0*
G04 #@! TO.N,GPIO1_PLUG_PWR_3V3*
X183456415Y-140544893D03*
G04 #@! TO.P,ESP32S3,7,GPIO2/ADC1_CH1*
G04 #@! TO.N,GPIO2_BAT_EN_CHR*
X183739258Y-140262050D03*
G04 #@! TO.P,ESP32S3,8,GPIO3/ADC1_CH2*
G04 #@! TO.N,GND*
X184022101Y-139979207D03*
G04 #@! TO.P,ESP32S3,9,GPIO4/ADC1_CH3*
G04 #@! TO.N,GPIO4_BAT_SENSE*
X184304944Y-139696364D03*
G04 #@! TO.P,ESP32S3,10,GPIO5/ADC1_CH4*
G04 #@! TO.N,GPIO5_LED_R*
X184587786Y-139413522D03*
G04 #@! TO.P,ESP32S3,11,GPIO6/ADC1_CH5*
G04 #@! TO.N,GPIO6_EXT_PLUG2*
X184870629Y-139130679D03*
G04 #@! TO.P,ESP32S3,12,GPIO7/ADC1_CH6*
G04 #@! TO.N,GPIO7_BUZZER*
X185153472Y-138847836D03*
G04 #@! TO.P,ESP32S3,13,GPIO8/ADC1_CH7*
G04 #@! TO.N,GPIO8_I2C_SDA*
X185436314Y-138564994D03*
G04 #@! TO.P,ESP32S3,14,GPIO9/ADC1_CH8*
G04 #@! TO.N,GPIO9_I2C_SCL*
X185719157Y-138282151D03*
D68*
G04 #@! TO.P,ESP32S3,15,GPIO10/ADC1_CH9*
G04 #@! TO.N,GPIO10_PLUG_PWR_3V3*
X185719157Y-137097747D03*
G04 #@! TO.P,ESP32S3,16,GPIO11/ADC2_CH0*
G04 #@! TO.N,GPIO11_LED_B*
X185436314Y-136814904D03*
G04 #@! TO.P,ESP32S3,17,GPIO12/ADC2_CH1*
G04 #@! TO.N,GPIO12_LED_G*
X185153472Y-136532062D03*
G04 #@! TO.P,ESP32S3,18,GPIO13/ADC2_CH2*
G04 #@! TO.N,GPIO13_CAN_CS*
X184870629Y-136249219D03*
G04 #@! TO.P,ESP32S3,19,GPIO14/ADC2_CH3*
G04 #@! TO.N,IO14_CAN_MISO*
X184587786Y-135966376D03*
G04 #@! TO.P,ESP32S3,20,VDD3P3_RTC*
G04 #@! TO.N,3V3*
X184304944Y-135683534D03*
G04 #@! TO.P,ESP32S3,21,GPIO15/ADC2_CH4/XTAL_32K_P*
G04 #@! TO.N,Net-(EC50-Pad1)*
X184022101Y-135400691D03*
G04 #@! TO.P,ESP32S3,22,GPIO16/ADC2_CH5/XTAL_32K_N*
G04 #@! TO.N,Net-(EC51-Pad1)*
X183739258Y-135117848D03*
G04 #@! TO.P,ESP32S3,23,GPIO17/ADC2_CH6/DAC_2*
G04 #@! TO.N,unconnected-(ESP32S3-Pad23)*
X183456415Y-134835005D03*
G04 #@! TO.P,ESP32S3,24,GPIO18/ADC2_CH7/DAC_1*
G04 #@! TO.N,unconnected-(ESP32S3-Pad24)*
X183173573Y-134552163D03*
G04 #@! TO.P,ESP32S3,25,GPIO19/USB_D-/ADC2_CH8*
G04 #@! TO.N,USB_D-*
X182890730Y-134269320D03*
G04 #@! TO.P,ESP32S3,26,GPIO20/USB_D+/ADC2_CH9*
G04 #@! TO.N,USB_D+*
X182607887Y-133986477D03*
G04 #@! TO.P,ESP32S3,27,GPIO21*
G04 #@! TO.N,IO21_CAN_MOSI*
X182325045Y-133703635D03*
G04 #@! TO.P,ESP32S3,28,SPI_CS1/GPIO26*
G04 #@! TO.N,SPICS1*
X182042202Y-133420792D03*
D67*
G04 #@! TO.P,ESP32S3,29,VDD_SPI*
G04 #@! TO.N,VDD_SPI*
X180857798Y-133420792D03*
G04 #@! TO.P,ESP32S3,30,SPIHD/GPIO27*
G04 #@! TO.N,SPIHD*
X180574955Y-133703635D03*
G04 #@! TO.P,ESP32S3,31,SPIWP/GPIO28*
G04 #@! TO.N,SPIWP*
X180292113Y-133986477D03*
G04 #@! TO.P,ESP32S3,32,SPICS0/GPIO29*
G04 #@! TO.N,SPICS0*
X180009270Y-134269320D03*
G04 #@! TO.P,ESP32S3,33,SPICLK/GPIO30*
G04 #@! TO.N,SPICLK*
X179726427Y-134552163D03*
G04 #@! TO.P,ESP32S3,34,SPIQ/GPIO31*
G04 #@! TO.N,SPIQ*
X179443585Y-134835005D03*
G04 #@! TO.P,ESP32S3,35,SPID/GPIO32*
G04 #@! TO.N,SPID*
X179160742Y-135117848D03*
G04 #@! TO.P,ESP32S3,36,SPICLK_N/GPIO48*
G04 #@! TO.N,unconnected-(ESP32S3-Pad36)*
X178877899Y-135400691D03*
G04 #@! TO.P,ESP32S3,37,SPICLK_P/GPIO47*
G04 #@! TO.N,unconnected-(ESP32S3-Pad37)*
X178595056Y-135683534D03*
G04 #@! TO.P,ESP32S3,38,GPIO33*
G04 #@! TO.N,unconnected-(ESP32S3-Pad38)*
X178312214Y-135966376D03*
G04 #@! TO.P,ESP32S3,39,GPIO34*
G04 #@! TO.N,GPIO34_CAN_SCK*
X178029371Y-136249219D03*
G04 #@! TO.P,ESP32S3,40,GPIO35*
G04 #@! TO.N,GPIO35_5V0_SENSE*
X177746528Y-136532062D03*
G04 #@! TO.P,ESP32S3,41,GPIO36*
G04 #@! TO.N,GPIO36_EXT_PLUG1*
X177463686Y-136814904D03*
G04 #@! TO.P,ESP32S3,42,GPIO37*
G04 #@! TO.N,GPIO37_IMU_CS*
X177180843Y-137097747D03*
D68*
G04 #@! TO.P,ESP32S3,43,GPIO38*
G04 #@! TO.N,unconnected-(ESP32S3-Pad43)*
X177180843Y-138282151D03*
G04 #@! TO.P,ESP32S3,44,MTCK/JTAG/GPIO39*
G04 #@! TO.N,unconnected-(ESP32S3-Pad44)*
X177463686Y-138564994D03*
G04 #@! TO.P,ESP32S3,45,MTDO/JTAG/GPIO40*
G04 #@! TO.N,unconnected-(ESP32S3-Pad45)*
X177746528Y-138847836D03*
G04 #@! TO.P,ESP32S3,46,VDD3P3_CPU*
G04 #@! TO.N,3V3*
X178029371Y-139130679D03*
G04 #@! TO.P,ESP32S3,47,MTDI/JTAG/GPIO41*
G04 #@! TO.N,unconnected-(ESP32S3-Pad47)*
X178312214Y-139413522D03*
G04 #@! TO.P,ESP32S3,48,MTMS/JTAG/GPIO42*
G04 #@! TO.N,unconnected-(ESP32S3-Pad48)*
X178595056Y-139696364D03*
G04 #@! TO.P,ESP32S3,49,U0TXD/PROG/GPIO43*
G04 #@! TO.N,Net-(ER2-Pad2)*
X178877899Y-139979207D03*
G04 #@! TO.P,ESP32S3,50,U0RXD/PROG/GPIO44*
G04 #@! TO.N,RXD0*
X179160742Y-140262050D03*
G04 #@! TO.P,ESP32S3,51,GPIO45*
G04 #@! TO.N,GND*
X179443585Y-140544893D03*
G04 #@! TO.P,ESP32S3,52,GPIO46*
G04 #@! TO.N,ESP_GPIO0_BOOT-DTR*
X179726427Y-140827735D03*
G04 #@! TO.P,ESP32S3,53,XTAL_N*
G04 #@! TO.N,Net-(EC13-Pad1)*
X180009270Y-141110578D03*
G04 #@! TO.P,ESP32S3,54,XTAL_P*
G04 #@! TO.N,Net-(EC12-Pad1)*
X180292113Y-141393421D03*
G04 #@! TO.P,ESP32S3,55,VDDA*
G04 #@! TO.N,3V3*
X180574955Y-141676263D03*
G04 #@! TO.P,ESP32S3,56,VDDA*
X180857798Y-141959106D03*
D69*
G04 #@! TO.P,ESP32S3,57,GND*
G04 #@! TO.N,GND*
X181450000Y-137689949D03*
G04 #@! TD*
D18*
G04 #@! TO.P,EC17,1*
G04 #@! TO.N,3V3*
X189450000Y-133310000D03*
G04 #@! TO.P,EC17,2*
G04 #@! TO.N,GND*
X187550000Y-133310000D03*
G04 #@! TD*
D70*
G04 #@! TO.P,,1*
G04 #@! TO.N,N/C*
X176870000Y-147730000D03*
G04 #@! TD*
D46*
G04 #@! TO.P,MR6,1*
G04 #@! TO.N,GPIO35_5V0_SENSE*
X163502500Y-151900000D03*
G04 #@! TO.P,MR6,2*
G04 #@! TO.N,GND*
X161677500Y-151900000D03*
G04 #@! TD*
D71*
G04 #@! TO.P,,1*
G04 #@! TO.N,N/C*
X180620000Y-122650000D03*
G04 #@! TD*
D49*
G04 #@! TO.P,EC51,1*
G04 #@! TO.N,Net-(EC51-Pad1)*
X196025000Y-126820000D03*
G04 #@! TO.P,EC51,2*
G04 #@! TO.N,GND*
X194475000Y-126820000D03*
G04 #@! TD*
D40*
G04 #@! TO.P,ML1,1,1*
G04 #@! TO.N,4V2*
X165240000Y-142220000D03*
G04 #@! TO.P,ML1,2,2*
G04 #@! TO.N,Net-(MD1-Pad2)*
X165240000Y-139420000D03*
G04 #@! TD*
D36*
G04 #@! TO.P,ER2,1*
G04 #@! TO.N,TXD0*
X189785000Y-149280000D03*
G04 #@! TO.P,ER2,2*
G04 #@! TO.N,Net-(ER2-Pad2)*
X188135000Y-149280000D03*
G04 #@! TD*
D18*
G04 #@! TO.P,EC18,1*
G04 #@! TO.N,3V3*
X189470000Y-135180000D03*
G04 #@! TO.P,EC18,2*
G04 #@! TO.N,GND*
X187570000Y-135180000D03*
G04 #@! TD*
D72*
G04 #@! TO.P,AU1,1,FB*
G04 #@! TO.N,Net-(AR1-Pad2)*
X151165000Y-137665000D03*
G04 #@! TO.P,AU1,2,GND*
G04 #@! TO.N,GND*
X150225000Y-137670000D03*
D73*
X150200000Y-139385000D03*
D72*
G04 #@! TO.P,AU1,3,SW*
G04 #@! TO.N,Net-(AL1-Pad2)*
X149240000Y-137670000D03*
D74*
G04 #@! TO.P,AU1,4,VIN_SW*
G04 #@! TO.N,5V0*
X149270000Y-141060000D03*
G04 #@! TO.P,AU1,5,VIN_A*
X150185000Y-141055000D03*
G04 #@! TO.P,AU1,6,EN*
X151145000Y-141055000D03*
G04 #@! TD*
D22*
G04 #@! TO.P,TPC2,1*
G04 #@! TO.N,VIN_BATF*
X199060000Y-149060000D03*
G04 #@! TO.P,TPC2,2*
G04 #@! TO.N,GND*
X199060000Y-147160000D03*
G04 #@! TD*
D75*
G04 #@! TO.P,IMU1,1,SDO/SA0*
G04 #@! TO.N,unconnected-(IMU1-Pad1)*
X171535000Y-141050000D03*
G04 #@! TO.P,IMU1,2,SDX*
G04 #@! TO.N,unconnected-(IMU1-Pad2)*
X171535000Y-141550000D03*
G04 #@! TO.P,IMU1,3,SCX*
G04 #@! TO.N,unconnected-(IMU1-Pad3)*
X171535000Y-142050000D03*
G04 #@! TO.P,IMU1,4,INT1*
G04 #@! TO.N,unconnected-(IMU1-Pad4)*
X171535000Y-142550000D03*
D76*
G04 #@! TO.P,IMU1,5,VDDIO*
G04 #@! TO.N,3V3*
X172210000Y-142725000D03*
G04 #@! TO.P,IMU1,6,GND*
G04 #@! TO.N,GND*
X172710000Y-142725000D03*
G04 #@! TO.P,IMU1,7,GND*
X173210000Y-142725000D03*
D75*
G04 #@! TO.P,IMU1,8,VDD*
G04 #@! TO.N,3V3*
X173885000Y-142550000D03*
G04 #@! TO.P,IMU1,9,INT2*
G04 #@! TO.N,unconnected-(IMU1-Pad9)*
X173885000Y-142050000D03*
G04 #@! TO.P,IMU1,10,NC*
G04 #@! TO.N,unconnected-(IMU1-Pad10)*
X173885000Y-141550000D03*
G04 #@! TO.P,IMU1,11,NC*
G04 #@! TO.N,unconnected-(IMU1-Pad11)*
X173885000Y-141050000D03*
D76*
G04 #@! TO.P,IMU1,12,CS*
G04 #@! TO.N,GPIO37_IMU_CS*
X173210000Y-140875000D03*
G04 #@! TO.P,IMU1,13,SCL*
G04 #@! TO.N,GPIO9_I2C_SCL*
X172710000Y-140875000D03*
G04 #@! TO.P,IMU1,14,SDA*
G04 #@! TO.N,GPIO8_I2C_SDA*
X172210000Y-140875000D03*
G04 #@! TD*
D77*
G04 #@! TO.P,EL4,1,1*
G04 #@! TO.N,Net-(ANT1-Pad1)*
X179227500Y-149590000D03*
G04 #@! TO.P,EL4,2,2*
G04 #@! TO.N,Net-(EC38-Pad1)*
X181352500Y-149590000D03*
G04 #@! TD*
D49*
G04 #@! TO.P,EC40,1*
G04 #@! TO.N,GND*
X187325000Y-141860000D03*
G04 #@! TO.P,EC40,2*
G04 #@! TO.N,CHIP_EN*
X185775000Y-141860000D03*
G04 #@! TD*
D78*
G04 #@! TO.P,AL1,1,1*
G04 #@! TO.N,3V3*
X152060000Y-135100000D03*
G04 #@! TO.P,AL1,2,2*
G04 #@! TO.N,Net-(AL1-Pad2)*
X149260000Y-135100000D03*
G04 #@! TD*
D79*
G04 #@! TO.P,ECY2,1,1*
G04 #@! TO.N,Net-(EC50-Pad1)*
X194080000Y-130270000D03*
G04 #@! TO.P,ECY2,2,2*
G04 #@! TO.N,GND*
X196280000Y-130270000D03*
G04 #@! TO.P,ECY2,3,3*
G04 #@! TO.N,Net-(EC51-Pad1)*
X196280000Y-128470000D03*
G04 #@! TO.P,ECY2,4,4*
G04 #@! TO.N,GND*
X194080000Y-128470000D03*
G04 #@! TD*
D46*
G04 #@! TO.P,MR5,1*
G04 #@! TO.N,PROBE_5V0*
X167302500Y-151900000D03*
G04 #@! TO.P,MR5,2*
G04 #@! TO.N,GPIO35_5V0_SENSE*
X165477500Y-151900000D03*
G04 #@! TD*
D36*
G04 #@! TO.P,PSR1,1*
G04 #@! TO.N,SPICS1*
X173415000Y-132840000D03*
G04 #@! TO.P,PSR1,2*
G04 #@! TO.N,VDD_SPI*
X171765000Y-132840000D03*
G04 #@! TD*
D80*
G04 #@! TO.P,,2*
G04 #@! TO.N,N/C*
X170395000Y-147680000D03*
G04 #@! TD*
D81*
G04 #@! TO.P,HiLink1,1,AC_N*
G04 #@! TO.N,Net-(HLL1-Pad3)*
X194170000Y-134520000D03*
D82*
G04 #@! TO.P,HiLink1,2,AC_L*
G04 #@! TO.N,Net-(HLL1-Pad1)*
X194170000Y-139520000D03*
G04 #@! TO.P,HiLink1,3,DC-*
G04 #@! TO.N,GND3*
X164770000Y-129320000D03*
G04 #@! TO.P,HiLink1,4,DC+*
G04 #@! TO.N,Net-(HLL2-Pad2)*
X164770000Y-144720000D03*
G04 #@! TD*
D80*
G04 #@! TO.P,,1*
G04 #@! TO.N,N/C*
X174095000Y-151135000D03*
G04 #@! TD*
D83*
G04 #@! TO.P,PF1,1*
G04 #@! TO.N,/AC_220_IN*
X220050000Y-150560000D03*
G04 #@! TO.P,PF1,2*
G04 #@! TO.N,Net-(HLC1-Pad1)*
X218850000Y-145460000D03*
G04 #@! TD*
D84*
G04 #@! TO.P,PJ2,1,Pin_1*
G04 #@! TO.N,GPIO6_EXT_PLUG2*
X220330000Y-128800000D03*
D85*
G04 #@! TO.P,PJ2,2,Pin_2*
G04 #@! TO.N,Net-(I2C2-Pad3)*
X220330000Y-127530000D03*
G04 #@! TO.P,PJ2,3,Pin_3*
G04 #@! TO.N,GPIO8_I2C_SDA*
X220330000Y-126260000D03*
G04 #@! TD*
D86*
G04 #@! TO.P,I2C1,1,Pin_1*
G04 #@! TO.N,GPIO9_I2C_SCL*
X159710000Y-148295000D03*
D87*
G04 #@! TO.P,I2C1,2,Pin_2*
G04 #@! TO.N,Net-(I2C1-Pad2)*
X156210000Y-148295000D03*
G04 #@! TO.P,I2C1,3,Pin_3*
G04 #@! TO.N,Net-(I2C1-Pad3)*
X152710000Y-148295000D03*
G04 #@! TO.P,I2C1,4,Pin_4*
G04 #@! TO.N,GND*
X149210000Y-148295000D03*
G04 #@! TD*
D84*
G04 #@! TO.P,CJ1,1,1*
G04 #@! TO.N,Net-(CANBUS1-Pad2)*
X164720000Y-125400000D03*
D85*
G04 #@! TO.P,CJ1,2,2*
G04 #@! TO.N,Net-(CJ1-Pad2)*
X165990000Y-125400000D03*
G04 #@! TD*
D80*
G04 #@! TO.P,,1*
G04 #@! TO.N,N/C*
X169770000Y-147675000D03*
G04 #@! TD*
D88*
G04 #@! TO.P,HLL1,1,1*
G04 #@! TO.N,Net-(HLL1-Pad1)*
X208262500Y-133962500D03*
D89*
G04 #@! TO.P,HLL1,2,2*
G04 #@! TO.N,Net-(HLC1-Pad1)*
X208190000Y-141030000D03*
G04 #@! TO.P,HLL1,3,3*
G04 #@! TO.N,Net-(HLL1-Pad3)*
X199512500Y-134032500D03*
G04 #@! TO.P,HLL1,4,4*
G04 #@! TO.N,/GND_220*
X199435000Y-141080000D03*
G04 #@! TD*
D90*
G04 #@! TO.P,ICSP1,5,Pin_5*
G04 #@! TO.N,CHIP_EN*
X193185000Y-151945000D03*
G04 #@! TO.P,ICSP1,6,Pin_6*
G04 #@! TO.N,ESP_GPIO0_BOOT-DTR*
X191915000Y-151945000D03*
G04 #@! TO.P,ICSP1,7,Pin_7*
G04 #@! TO.N,unconnected-(ICSP1-Pad7)*
X190645000Y-151945000D03*
G04 #@! TO.P,ICSP1,8,Pin_8*
G04 #@! TO.N,3V3*
X189375000Y-151945000D03*
G04 #@! TD*
D91*
G04 #@! TO.P,HLV1,1*
G04 #@! TO.N,Net-(HLC1-Pad1)*
X220870000Y-141680000D03*
G04 #@! TO.P,HLV1,2*
G04 #@! TO.N,/GND_220*
X219470000Y-134180000D03*
G04 #@! TD*
D80*
G04 #@! TO.P,,2*
G04 #@! TO.N,N/C*
X174720000Y-151140000D03*
G04 #@! TD*
D84*
G04 #@! TO.P,PJ3,1,Pin_1*
G04 #@! TO.N,GPIO36_EXT_PLUG1*
X145350000Y-142955000D03*
D85*
G04 #@! TO.P,PJ3,2,Pin_2*
G04 #@! TO.N,Net-(I2C1-Pad2)*
X145350000Y-144225000D03*
G04 #@! TO.P,PJ3,3,Pin_3*
G04 #@! TO.N,GPIO8_I2C_SDA*
X145350000Y-145495000D03*
G04 #@! TD*
D92*
G04 #@! TO.P,TXS1,15_1,EP*
G04 #@! TO.N,GND*
X155280000Y-133552500D03*
G04 #@! TO.P,TXS1,15_2,EP*
X156280000Y-133552500D03*
G04 #@! TO.P,TXS1,15_3,EP*
X156280000Y-134552500D03*
G04 #@! TO.P,TXS1,15_4,EP*
X155280000Y-134552500D03*
G04 #@! TD*
D89*
G04 #@! TO.P,HLC1,1*
G04 #@! TO.N,Net-(HLC1-Pad1)*
X214850000Y-142600000D03*
G04 #@! TO.P,HLC1,2*
G04 #@! TO.N,/GND_220*
X214850000Y-132600000D03*
G04 #@! TD*
D86*
G04 #@! TO.P,CANBUS1,1,Pin_1*
G04 #@! TO.N,Net-(CANBUS1-Pad1)*
X152920000Y-127215000D03*
D87*
G04 #@! TO.P,CANBUS1,2,Pin_2*
G04 #@! TO.N,Net-(CANBUS1-Pad2)*
X156420000Y-127215000D03*
G04 #@! TO.P,CANBUS1,3,Pin_3*
G04 #@! TO.N,GND*
X159920000Y-127215000D03*
G04 #@! TD*
D93*
G04 #@! TO.P,PWR220,1,Pin_1*
G04 #@! TO.N,/AC_220_IN*
X211980000Y-148180000D03*
D94*
G04 #@! TO.P,PWR220,2,Pin_2*
G04 #@! TO.N,/GND_220*
X206900000Y-148180000D03*
G04 #@! TD*
D86*
G04 #@! TO.P,I2C2,1,Pin_1*
G04 #@! TO.N,GND*
X205090000Y-127055000D03*
D87*
G04 #@! TO.P,I2C2,2,Pin_2*
G04 #@! TO.N,Net-(I2C2-Pad2)*
X208590000Y-127055000D03*
G04 #@! TO.P,I2C2,3,Pin_3*
G04 #@! TO.N,Net-(I2C2-Pad3)*
X212090000Y-127055000D03*
G04 #@! TO.P,I2C2,4,Pin_4*
G04 #@! TO.N,GPIO9_I2C_SCL*
X215590000Y-127055000D03*
G04 #@! TD*
D95*
G04 #@! TO.N,*
X190720000Y-122800000D03*
D96*
G04 #@! TO.N,3V3*
X208460000Y-123580000D03*
D95*
X189460000Y-131890000D03*
X189440000Y-132570000D03*
X189390000Y-140890000D03*
D97*
X181260000Y-142460000D03*
D98*
X154270000Y-131470000D03*
D97*
X186940000Y-151950000D03*
D98*
X148800000Y-152510000D03*
D95*
X175540000Y-140830000D03*
X171670000Y-143420000D03*
X185240000Y-134430000D03*
D98*
X200210000Y-129360000D03*
D95*
X169250000Y-131220000D03*
D98*
X155170000Y-139140000D03*
D97*
X176400000Y-138800000D03*
D95*
X169720000Y-137730000D03*
D98*
X153820000Y-132290000D03*
X162170000Y-149860000D03*
D96*
X188530000Y-136470000D03*
X198720000Y-126090000D03*
D95*
X172810000Y-137850000D03*
D98*
X144670000Y-146630000D03*
D96*
X187760000Y-136460000D03*
D95*
G04 #@! TO.N,CHIP_EN*
X159190000Y-143530000D03*
X184480000Y-150760000D03*
D97*
X191480000Y-146460000D03*
D95*
X184940000Y-142610000D03*
G04 #@! TO.N,ESP_GPIO0_BOOT-DTR*
X184620000Y-141970000D03*
X178790000Y-142150000D03*
D97*
X191830000Y-149330000D03*
G04 #@! TO.N,GPIO8_I2C_SDA*
X185900000Y-127570000D03*
X202990000Y-128930000D03*
X159310000Y-132670000D03*
D95*
X171560000Y-140110000D03*
D97*
X160570000Y-146440000D03*
X155090000Y-145360000D03*
D95*
X186700000Y-137740000D03*
D98*
X218320000Y-129210000D03*
D95*
G04 #@! TO.N,SPICLK*
X175610000Y-127830000D03*
X178030000Y-132700000D03*
G04 #@! TO.N,SPID*
X176470000Y-127820000D03*
X176510000Y-132030000D03*
D97*
G04 #@! TO.N,TXD0*
X190900000Y-149610000D03*
D95*
G04 #@! TO.N,RXD0*
X177490000Y-140830000D03*
D96*
G04 #@! TO.N,Net-(CANBUS1-Pad1)*
X155200000Y-124310000D03*
D97*
G04 #@! TO.N,Net-(CBU1-Pad1)*
X144460000Y-129620000D03*
G04 #@! TO.N,Net-(CBU1-Pad4)*
X150210000Y-129770000D03*
G04 #@! TO.N,Net-(CBU3-Pad8)*
X150990000Y-124590000D03*
G04 #@! TO.N,5V0*
X187050000Y-150180000D03*
D98*
X192365000Y-141865000D03*
X191540000Y-124930000D03*
X144660000Y-136340000D03*
D97*
X188210000Y-151610000D03*
X197720000Y-143830000D03*
D98*
X168420000Y-127290000D03*
X191540000Y-126040000D03*
D96*
X157240000Y-132380000D03*
D98*
X163710000Y-135150000D03*
X154130000Y-130120000D03*
X166950000Y-143280000D03*
X168150000Y-128360000D03*
X168070000Y-135150000D03*
X160970000Y-130480000D03*
X153090000Y-130130000D03*
D95*
G04 #@! TO.N,BAT_NTC*
X200950000Y-146680000D03*
D98*
G04 #@! TO.N,VIN_BAT*
X202950000Y-143050000D03*
D97*
G04 #@! TO.N,CHRG_LED_R*
X204890000Y-145070000D03*
X195950000Y-148850000D03*
G04 #@! TO.N,Net-(L2R1-Pad2)*
X204070000Y-142570000D03*
X204090000Y-140840000D03*
G04 #@! TO.N,STDBY_LED_G*
X194780000Y-148830000D03*
X201610000Y-140800000D03*
G04 #@! TO.N,GPIO9_I2C_SCL*
X158360000Y-132200000D03*
D95*
X185990000Y-137800000D03*
D97*
X202645000Y-125965000D03*
D95*
X172700000Y-139890000D03*
D97*
X187040000Y-127620000D03*
G04 #@! TO.N,Net-(I2C1-Pad2)*
X147040000Y-145100000D03*
D95*
G04 #@! TO.N,Net-(ER2-Pad2)*
X176690000Y-140860000D03*
D97*
X187050000Y-149140000D03*
D95*
G04 #@! TO.N,SPICS1*
X182780000Y-130150000D03*
X173470000Y-128410000D03*
G04 #@! TO.N,PROBE_5V0*
X187390000Y-152920000D03*
D97*
X166540000Y-149910000D03*
D98*
G04 #@! TO.N,VIN_BATF*
X198710000Y-150080000D03*
D96*
X193520000Y-149310000D03*
D97*
G04 #@! TO.N,Net-(HLL2-Pad2)*
X162270000Y-145840000D03*
D95*
G04 #@! TO.N,Net-(EC50-Pad1)*
X184800000Y-132510000D03*
X193260000Y-131080000D03*
G04 #@! TO.N,Net-(EC51-Pad1)*
X184530000Y-131750000D03*
X192920000Y-130380000D03*
D98*
G04 #@! TO.N,4V2*
X201120000Y-142340000D03*
X167080000Y-127760000D03*
X192380000Y-140500000D03*
X192930000Y-125960000D03*
X167140000Y-126620000D03*
X192930000Y-124920000D03*
G04 #@! TO.N,GPIO7_BUZZER*
X206970000Y-130940000D03*
D95*
X187490000Y-137960000D03*
G04 #@! TO.N,GPIO13_CAN_CS*
X186610000Y-134740000D03*
G04 #@! TO.N,IO14_CAN_MISO*
X185970000Y-134400000D03*
G04 #@! TO.N,IO21_CAN_MOSI*
X182910000Y-133010000D03*
D97*
G04 #@! TO.N,GPIO34_CAN_SCK*
X173520000Y-134600000D03*
G04 #@! TO.N,GPIO4_BAT_SENSE*
X193280000Y-137650000D03*
D95*
X185550000Y-140610000D03*
G04 #@! TO.N,GPIO6_EXT_PLUG2*
X187810000Y-138770000D03*
G04 #@! TO.N,GPIO10_PLUG_PWR_3V3*
X188080000Y-137320000D03*
D98*
X218150000Y-126590000D03*
D95*
G04 #@! TO.N,GPIO11_LED_B*
X186270000Y-136270000D03*
D97*
X200710000Y-131790000D03*
D95*
G04 #@! TO.N,GPIO35_5V0_SENSE*
X175820000Y-135070000D03*
X158890000Y-138370000D03*
G04 #@! TO.N,GPIO36_EXT_PLUG1*
X174680000Y-135600000D03*
G04 #@! TO.N,GPIO37_IMU_CS*
X175810000Y-136280000D03*
X173605000Y-139895000D03*
D97*
G04 #@! TO.N,GND*
X161900000Y-137900000D03*
X152330000Y-142820000D03*
X151550000Y-139430000D03*
D95*
X190730000Y-141970000D03*
D98*
X194120000Y-144590000D03*
X168030000Y-143120000D03*
D97*
X170690000Y-135110000D03*
X176300000Y-141810000D03*
X174480000Y-150260000D03*
D98*
X159830000Y-151970000D03*
D97*
X152040000Y-146390000D03*
X152140000Y-141110000D03*
D96*
X154550000Y-123330000D03*
D98*
X179770000Y-138930000D03*
D97*
X186810000Y-132280000D03*
X153430000Y-142970000D03*
D95*
X183650000Y-144900000D03*
D98*
X183850000Y-137330000D03*
D97*
X188280000Y-126930000D03*
X170540000Y-141750000D03*
X185090000Y-130560000D03*
D98*
X181210000Y-134860000D03*
X168410000Y-130410000D03*
X157630000Y-142120000D03*
D97*
X155340000Y-142420000D03*
D95*
X172750000Y-141920000D03*
D96*
X198090000Y-145490000D03*
D97*
X189440000Y-147690000D03*
X176810000Y-147630000D03*
D96*
X144370000Y-125070000D03*
D97*
X170660000Y-147620000D03*
X170490000Y-132710000D03*
D98*
X169150000Y-129470000D03*
D95*
X187990000Y-144620000D03*
X187940000Y-141230000D03*
D96*
X150340000Y-127390000D03*
D98*
X181040000Y-137510000D03*
X160030000Y-135910000D03*
D97*
X147460000Y-126140000D03*
D95*
X178430000Y-129970000D03*
D98*
X182390000Y-138710000D03*
X170790000Y-122900000D03*
D95*
X181390000Y-130420000D03*
D98*
X148390000Y-139580000D03*
D97*
X200870000Y-147820000D03*
X185680000Y-147910000D03*
D98*
X182480000Y-136110000D03*
X179730000Y-136280000D03*
X178370000Y-137680000D03*
X180930000Y-140030000D03*
D97*
X199960000Y-150920000D03*
G04 #@! TO.N,GPIO12_LED_G*
X199930000Y-131180000D03*
D95*
X186460000Y-135460000D03*
D97*
G04 #@! TO.N,GPIO5_LED_R*
X194180000Y-137040000D03*
D95*
X186350000Y-140230000D03*
D98*
G04 #@! TO.N,Net-(I2C1-Pad3)*
X150640000Y-150770000D03*
D97*
G04 #@! TO.N,GPIO2_BAT_EN_CHR*
X191530000Y-144980000D03*
X192350000Y-143830000D03*
D95*
X184680000Y-140850000D03*
D97*
X197560000Y-144640000D03*
G04 #@! TO.N,GPIO1_PLUG_PWR_3V3*
X161870000Y-147940000D03*
D95*
X184160000Y-141370000D03*
G04 #@! TD*
D99*
G04 #@! TO.N,Net-(MD1-Pad2)*
X165240000Y-139420000D02*
X165240000Y-137360000D01*
X164342500Y-137387500D02*
X164342500Y-137192500D01*
X162690000Y-139320000D02*
X165140000Y-139320000D01*
D100*
G04 #@! TO.N,Net-(I2C2-Pad3)*
X214650000Y-129280000D02*
X216820000Y-129280000D01*
D101*
X212070000Y-127220000D02*
X212070000Y-128010000D01*
D100*
X212590000Y-127220000D02*
X214650000Y-129280000D01*
X216820000Y-129280000D02*
X218570000Y-127530000D01*
X212070000Y-127220000D02*
X212590000Y-127220000D01*
X218570000Y-127530000D02*
X220330000Y-127530000D01*
G04 #@! TO.N,Net-(ANT1-Pad1)*
X174725000Y-151280000D02*
X175535000Y-151280000D01*
D101*
X175790500Y-151910000D02*
X175790500Y-151319500D01*
D100*
X176600000Y-149990000D02*
X177040000Y-149550000D01*
D101*
X179170000Y-149560000D02*
X177050000Y-149560000D01*
D100*
X176600000Y-151565000D02*
X176600000Y-149990000D01*
D101*
X177050000Y-149560000D02*
X177040000Y-149550000D01*
X177040000Y-149550000D02*
X176690000Y-149900000D01*
D99*
G04 #@! TO.N,3V3*
X153822500Y-135860000D02*
X152710000Y-135860000D01*
D102*
X155830000Y-137880000D02*
X155830000Y-138370000D01*
D103*
X199985000Y-126800000D02*
X198630000Y-126800000D01*
X198630000Y-126800000D02*
X198300000Y-127130000D01*
D100*
X173900000Y-143210000D02*
X173900000Y-142577500D01*
X171690000Y-143410000D02*
X171690000Y-144490000D01*
D99*
X189240000Y-140242500D02*
X189452500Y-140030000D01*
D102*
X200330000Y-129470000D02*
X200320000Y-129470000D01*
D104*
X189450000Y-135160000D02*
X189470000Y-135180000D01*
D101*
X206260000Y-140716496D02*
X206260000Y-135770000D01*
X202990000Y-132500000D02*
X202990000Y-131260000D01*
D104*
X187542500Y-143760000D02*
X187452500Y-143670000D01*
D103*
X150520000Y-152560000D02*
X148850000Y-152560000D01*
X175550000Y-139340000D02*
X175870000Y-139340000D01*
D100*
X184650000Y-135340000D02*
X185270000Y-134720000D01*
D102*
X153830000Y-131910000D02*
X153830000Y-132240000D01*
D103*
X161090000Y-150830000D02*
X152250000Y-150830000D01*
D100*
X169720000Y-133070000D02*
X169200000Y-132550000D01*
D102*
X153822500Y-135942500D02*
X155760000Y-137880000D01*
D100*
X185270000Y-134720000D02*
X185270000Y-134410000D01*
D105*
X189540000Y-129125000D02*
X189555000Y-129110000D01*
D99*
X187452500Y-143657500D02*
X187452500Y-143670000D01*
D103*
X198720000Y-126710000D02*
X198720000Y-126090000D01*
X189375000Y-152405000D02*
X189375000Y-151839500D01*
D104*
X189390000Y-140395000D02*
X189390000Y-141565000D01*
D105*
X172842500Y-137817500D02*
X172810000Y-137850000D01*
D102*
X155760000Y-137880000D02*
X155830000Y-137880000D01*
D101*
X202990000Y-131260000D02*
X202720000Y-130990000D01*
D100*
X173670000Y-143440000D02*
X173900000Y-143210000D01*
D99*
X189470000Y-135180000D02*
X189470000Y-140012500D01*
D102*
X201850000Y-130990000D02*
X200330000Y-129470000D01*
D104*
X188425000Y-136470000D02*
X187855000Y-136470000D01*
D100*
X178019321Y-139130679D02*
X177650000Y-139500000D01*
X171690000Y-143440000D02*
X172190000Y-143440000D01*
D99*
X189260000Y-141850000D02*
X187452500Y-143657500D01*
D103*
X162090000Y-149860000D02*
X162060000Y-149860000D01*
D104*
X189450000Y-133270000D02*
X189450000Y-132600000D01*
D100*
X177650000Y-139500000D02*
X175710000Y-139500000D01*
X184306466Y-135683534D02*
X184304944Y-135683534D01*
X180310000Y-142500000D02*
X180230000Y-142500000D01*
D103*
X209050000Y-123030000D02*
X208460000Y-123620000D01*
D100*
X185590000Y-133480000D02*
X185560000Y-133450000D01*
D103*
X189132500Y-152350000D02*
X187790000Y-152350000D01*
D100*
X172190000Y-142732500D02*
X172210000Y-142712500D01*
D104*
X181260000Y-144270000D02*
X181190000Y-144340000D01*
D100*
X176440000Y-138840000D02*
X176370000Y-138840000D01*
D103*
X180280000Y-142640000D02*
X180280000Y-142500000D01*
X175870000Y-139340000D02*
X176370000Y-138840000D01*
X187790000Y-152350000D02*
X187390000Y-151950000D01*
D100*
X180574955Y-141676263D02*
X180230000Y-142021218D01*
D103*
X181260000Y-142880000D02*
X180520000Y-142880000D01*
D106*
X184650000Y-135340000D02*
X184680000Y-135310000D01*
D102*
X153830000Y-133730000D02*
X153830000Y-135852500D01*
D100*
X173900000Y-142577500D02*
X173872500Y-142550000D01*
X184361101Y-135628899D02*
X184650000Y-135340000D01*
X180230000Y-142021218D02*
X180230000Y-142500000D01*
X185270000Y-133745000D02*
X185270000Y-134460000D01*
D104*
X189470000Y-135180000D02*
X189480000Y-135190000D01*
D105*
X173720000Y-137277500D02*
X172842500Y-137277500D01*
D101*
X153750000Y-133810000D02*
X153830000Y-133730000D01*
D100*
X175710000Y-139500000D02*
X175550000Y-139340000D01*
D102*
X153822500Y-135860000D02*
X153822500Y-135942500D01*
X154270000Y-131470000D02*
X153830000Y-131910000D01*
D103*
X162060000Y-149860000D02*
X161090000Y-150830000D01*
D104*
X188380000Y-136470000D02*
X189470000Y-136470000D01*
X181260000Y-142460000D02*
X181260000Y-142880000D01*
D100*
X175550000Y-139340000D02*
X175550000Y-140900000D01*
X172190000Y-143440000D02*
X173670000Y-143440000D01*
D99*
X189470000Y-140012500D02*
X189452500Y-140030000D01*
D104*
X189450000Y-133270000D02*
X189450000Y-135160000D01*
D103*
X189375000Y-151839500D02*
X189375000Y-151975000D01*
D105*
X189540000Y-131270000D02*
X189540000Y-129125000D01*
D104*
X189440000Y-132710000D02*
X189440000Y-131750000D01*
D100*
X169720000Y-137730000D02*
X169720000Y-133070000D01*
D103*
X144670000Y-147902500D02*
X144670000Y-146830000D01*
D105*
X172842500Y-137277500D02*
X172842500Y-137817500D01*
D100*
X172190000Y-143440000D02*
X172190000Y-142732500D01*
D101*
X202720000Y-130990000D02*
X201850000Y-130990000D01*
D104*
X181260000Y-142880000D02*
X181260000Y-144270000D01*
X181140000Y-146480000D02*
X181140000Y-144770000D01*
D102*
X153830000Y-135852500D02*
X153822500Y-135860000D01*
D100*
X180850894Y-141959106D02*
X180310000Y-142500000D01*
D102*
X155575000Y-138625000D02*
X155335000Y-138865000D01*
D100*
X181160000Y-142780000D02*
X181260000Y-142880000D01*
D102*
X155830000Y-138370000D02*
X155575000Y-138625000D01*
D103*
X214130000Y-123030000D02*
X209050000Y-123030000D01*
D105*
X171910000Y-137277500D02*
X171900000Y-137267500D01*
D101*
X152370000Y-133080000D02*
X153790000Y-133080000D01*
D102*
X153830000Y-132240000D02*
X153830000Y-133730000D01*
D100*
X180857798Y-141959106D02*
X180850894Y-141959106D01*
D105*
X172842500Y-137277500D02*
X171910000Y-137277500D01*
D103*
X187390000Y-151950000D02*
X186940000Y-151950000D01*
D100*
X169200000Y-132550000D02*
X169200000Y-131080000D01*
D103*
X180520000Y-142880000D02*
X180280000Y-142640000D01*
D101*
X206260000Y-135770000D02*
X202990000Y-132500000D01*
D100*
X185750000Y-133265000D02*
X185270000Y-133745000D01*
D103*
X152250000Y-150830000D02*
X150520000Y-152560000D01*
X198300000Y-127130000D02*
X198720000Y-126710000D01*
X148850000Y-152560000D02*
X148800000Y-152510000D01*
X189375000Y-151839500D02*
X189375000Y-152235000D01*
D100*
G04 #@! TO.N,Net-(EC20-Pad1)*
X182875000Y-142125000D02*
X182875000Y-142226218D01*
D103*
X184130000Y-142850000D02*
X184500000Y-143220000D01*
X183580000Y-142850000D02*
X184130000Y-142850000D01*
D100*
X182325045Y-141676263D02*
X182968782Y-142320000D01*
X183235000Y-142505000D02*
X182875000Y-142145000D01*
X182968782Y-142320000D02*
X183050000Y-142320000D01*
D105*
X187360000Y-145620000D02*
X187330000Y-145650000D01*
D103*
X184500000Y-143220000D02*
X185525000Y-143220000D01*
D107*
X183580000Y-142850000D02*
X183235000Y-142505000D01*
D100*
X187340000Y-145660000D02*
X187330000Y-145650000D01*
X182607887Y-141393421D02*
X182875000Y-141660534D01*
D107*
X183235000Y-142505000D02*
X183050000Y-142320000D01*
D99*
X185340000Y-143670000D02*
X185327500Y-143670000D01*
D100*
X182875000Y-142226218D02*
X182968782Y-142320000D01*
D99*
X187370000Y-145700000D02*
X185340000Y-143670000D01*
D100*
X182875000Y-141660534D02*
X182875000Y-142125000D01*
D107*
X183050000Y-142320000D02*
X182875000Y-142145000D01*
D100*
G04 #@! TO.N,VDD_SPI*
X183010000Y-129000000D02*
X183990000Y-129000000D01*
X171805000Y-124325000D02*
X171805000Y-125475000D01*
X171677500Y-132287500D02*
X171677500Y-132840000D01*
X177735000Y-123195000D02*
X177780000Y-123150000D01*
X171140000Y-131360000D02*
X171140000Y-131750000D01*
X177735000Y-123955000D02*
X177735000Y-123195000D01*
X182780000Y-123850000D02*
X182910000Y-123850000D01*
X177780000Y-123150000D02*
X172980000Y-123150000D01*
X181340000Y-123150000D02*
X182080000Y-123150000D01*
X182740000Y-124190000D02*
X182740000Y-123810000D01*
X171140000Y-131750000D02*
X171677500Y-132287500D01*
X178530000Y-123150000D02*
X177780000Y-123150000D01*
X172980000Y-123150000D02*
X171805000Y-124325000D01*
X182080000Y-132370000D02*
X182080000Y-129930000D01*
X182910000Y-123850000D02*
X183970000Y-123850000D01*
X171805000Y-128305000D02*
X171140000Y-128970000D01*
X183970000Y-123850000D02*
X184030000Y-123790000D01*
X181340000Y-123150000D02*
X178530000Y-123150000D01*
X171805000Y-125475000D02*
X171805000Y-128305000D01*
X180857798Y-133420792D02*
X181029208Y-133420792D01*
X182660000Y-123730000D02*
X182780000Y-123850000D01*
X182740000Y-124190000D02*
X182740000Y-128730000D01*
X182080000Y-123150000D02*
X182660000Y-123730000D01*
X182740000Y-124020000D02*
X182910000Y-123850000D01*
X182740000Y-128730000D02*
X183010000Y-129000000D01*
X171140000Y-128970000D02*
X171140000Y-131360000D01*
X182080000Y-129930000D02*
X183010000Y-129000000D01*
X181029208Y-133420792D02*
X182080000Y-132370000D01*
X182740000Y-124190000D02*
X182740000Y-124020000D01*
X182740000Y-123810000D02*
X182660000Y-123730000D01*
G04 #@! TO.N,Net-(EC38-Pad1)*
X182192500Y-142132500D02*
X182567500Y-142507500D01*
D101*
X183030000Y-149180000D02*
X183030000Y-149560000D01*
D107*
X184300000Y-147910000D02*
X184115000Y-148095000D01*
D100*
X182042202Y-141959106D02*
X182042202Y-141962202D01*
X183340000Y-149570000D02*
X181342500Y-149570000D01*
D107*
X183610000Y-143370000D02*
X183340000Y-143370000D01*
D101*
X183450000Y-143370000D02*
X183610000Y-143370000D01*
X184115000Y-148095000D02*
X183030000Y-149180000D01*
D107*
X183340000Y-143370000D02*
X182540000Y-142570000D01*
X183610000Y-143370000D02*
X183840000Y-143370000D01*
X184300000Y-143830000D02*
X184300000Y-147910000D01*
X184050000Y-143580000D02*
X184300000Y-143830000D01*
X183840000Y-143370000D02*
X184050000Y-143580000D01*
D101*
G04 #@! TO.N,CHIP_EN*
X185600000Y-141710000D02*
X186450000Y-140860000D01*
X184460000Y-142570000D02*
X184940000Y-142570000D01*
X186060000Y-148920000D02*
X186060000Y-150410000D01*
X187627500Y-140172500D02*
X187627500Y-140030000D01*
X191470000Y-146410000D02*
X191450000Y-146390000D01*
X191810000Y-148300000D02*
X192420000Y-148300000D01*
X183895026Y-142420000D02*
X184310000Y-142420000D01*
X184450000Y-150780000D02*
X184430000Y-150760000D01*
X183250000Y-141774974D02*
X183895026Y-142420000D01*
X186680000Y-148300000D02*
X186060000Y-148920000D01*
X185600000Y-141860000D02*
X185600000Y-141710000D01*
X192460000Y-149430000D02*
X192460000Y-148260000D01*
X186940000Y-140860000D02*
X187627500Y-140172500D01*
X184310000Y-142420000D02*
X184460000Y-142570000D01*
D100*
X182890730Y-141110578D02*
X182890730Y-141110730D01*
D101*
X192460000Y-147890000D02*
X192460000Y-147330000D01*
X185690000Y-150780000D02*
X184450000Y-150780000D01*
X192460000Y-148260000D02*
X192460000Y-147890000D01*
X192050000Y-148300000D02*
X191810000Y-148300000D01*
X192905000Y-149875000D02*
X192460000Y-149430000D01*
X159350000Y-141800000D02*
X159350000Y-143500000D01*
X183250000Y-141460000D02*
X183250000Y-141774974D01*
X193185000Y-151839500D02*
X193185000Y-150155000D01*
D105*
X187810000Y-139920000D02*
X187810000Y-140000000D01*
D101*
X191810000Y-148300000D02*
X186680000Y-148300000D01*
X186060000Y-150410000D02*
X185690000Y-150780000D01*
D100*
X185100000Y-142360000D02*
X185600000Y-141860000D01*
D101*
X192460000Y-147330000D02*
X191400000Y-146270000D01*
X193185000Y-150155000D02*
X192905000Y-149875000D01*
X182837865Y-141047865D02*
X183250000Y-141460000D01*
X186450000Y-140860000D02*
X186940000Y-140860000D01*
X192420000Y-148300000D02*
X192460000Y-148260000D01*
D100*
G04 #@! TO.N,ESP_GPIO0_BOOT-DTR*
X179726132Y-140827735D02*
X178793867Y-141760000D01*
D101*
X183910000Y-141940000D02*
X183600000Y-141630000D01*
X183600000Y-141260000D02*
X183053573Y-140713573D01*
D100*
X178790000Y-141760000D02*
X178790000Y-142150000D01*
X183173573Y-140827735D02*
X183173573Y-140833573D01*
D101*
X191915000Y-151839500D02*
X191915000Y-149415000D01*
X184590000Y-141940000D02*
X183910000Y-141940000D01*
X183600000Y-141630000D02*
X183600000Y-141260000D01*
G04 #@! TO.N,GPIO8_I2C_SDA*
X160600000Y-146290000D02*
X158224974Y-146290000D01*
X158224974Y-146290000D02*
X157414974Y-145480000D01*
D100*
X172210000Y-140510000D02*
X172210000Y-140887500D01*
D101*
X157780000Y-138300000D02*
X157780000Y-133790000D01*
D100*
X202990000Y-128930000D02*
X203320000Y-129260000D01*
X217680000Y-130040000D02*
X218300000Y-129420000D01*
X218300000Y-129420000D02*
X218300000Y-129010000D01*
X185238157Y-138368157D02*
X185830000Y-138960000D01*
D101*
X157780000Y-133790000D02*
X158900000Y-132670000D01*
X154520000Y-141560000D02*
X157780000Y-138300000D01*
D100*
X185830000Y-138960000D02*
X186140000Y-138960000D01*
D101*
X154520000Y-144790000D02*
X154520000Y-141560000D01*
X155210000Y-145480000D02*
X154520000Y-144790000D01*
D100*
X185910000Y-129340000D02*
X185910000Y-127500000D01*
D101*
X221140000Y-126260000D02*
X220330000Y-126260000D01*
D100*
X203320000Y-129260000D02*
X213270000Y-129260000D01*
X185436314Y-138564994D02*
X185436314Y-138576314D01*
X186140000Y-138960000D02*
X186420000Y-138680000D01*
D101*
X222190000Y-129560000D02*
X222190000Y-128830000D01*
D100*
X186700000Y-138400000D02*
X186700000Y-137740000D01*
D105*
X171560000Y-140110000D02*
X171900000Y-139770000D01*
D100*
X214050000Y-130040000D02*
X217680000Y-130040000D01*
D101*
X160530000Y-146360000D02*
X160600000Y-146290000D01*
D100*
X171810000Y-140110000D02*
X172210000Y-140510000D01*
X186420000Y-138680000D02*
X186700000Y-138400000D01*
X202335000Y-128300000D02*
X202360000Y-128300000D01*
D101*
X157414974Y-145480000D02*
X155210000Y-145480000D01*
X222190000Y-127310000D02*
X221140000Y-126260000D01*
X158900000Y-132670000D02*
X159310000Y-132670000D01*
X222190000Y-129560000D02*
X222190000Y-127310000D01*
D100*
X171560000Y-140110000D02*
X171810000Y-140110000D01*
D105*
X171900000Y-139770000D02*
X171900000Y-139092500D01*
D100*
X202360000Y-128300000D02*
X202990000Y-128930000D01*
D101*
X222190000Y-130080000D02*
X222190000Y-129560000D01*
X219140000Y-137610000D02*
X222190000Y-134560000D01*
X222190000Y-134560000D02*
X222190000Y-130080000D01*
D100*
X213270000Y-129260000D02*
X214050000Y-130040000D01*
D101*
X214302500Y-137610000D02*
X219140000Y-137610000D01*
D100*
G04 #@! TO.N,USB_D-*
X182890730Y-134269320D02*
X182890730Y-134259270D01*
G04 #@! TO.N,SPIHD*
X179005000Y-124675000D02*
X179005000Y-123955000D01*
X180130000Y-132990000D02*
X180130000Y-133256365D01*
X180960000Y-130980000D02*
X180960000Y-132380000D01*
X179015000Y-123810000D02*
X179015000Y-124215000D01*
X173075000Y-125475000D02*
X173075000Y-126975000D01*
X173075000Y-126975000D02*
X174470000Y-128370000D01*
X179005000Y-124475000D02*
X179005000Y-123955000D01*
X176270000Y-123690000D02*
X173710000Y-123690000D01*
X173470000Y-123930000D02*
X173075000Y-124325000D01*
X174470000Y-128370000D02*
X178350000Y-128370000D01*
X180960000Y-132380000D02*
X180620000Y-132720000D01*
X173075000Y-124325000D02*
X173075000Y-125475000D01*
X177130000Y-124550000D02*
X176895000Y-124315000D01*
X180620000Y-132720000D02*
X180400000Y-132720000D01*
X178760000Y-124920000D02*
X179005000Y-124675000D01*
X173710000Y-123690000D02*
X173470000Y-123930000D01*
X178350000Y-128370000D02*
X180960000Y-130980000D01*
X180400000Y-132720000D02*
X180130000Y-132990000D01*
X176895000Y-124315000D02*
X176270000Y-123690000D01*
X177500000Y-124920000D02*
X178760000Y-124920000D01*
X177130000Y-124550000D02*
X177330000Y-124750000D01*
X177330000Y-124750000D02*
X176970000Y-124390000D01*
X177130000Y-124550000D02*
X177500000Y-124920000D01*
X180130000Y-133256365D02*
X180563635Y-133690000D01*
G04 #@! TO.N,SPIWP*
X180275000Y-131745000D02*
X180275000Y-130935000D01*
X180275000Y-132275000D02*
X180275000Y-131745000D01*
X179710000Y-133400000D02*
X179710000Y-132840000D01*
X178320000Y-128980000D02*
X174790000Y-128980000D01*
X174790000Y-128980000D02*
X174345000Y-129425000D01*
X180286477Y-133976477D02*
X179710000Y-133400000D01*
X174345000Y-129425000D02*
X174345000Y-130425000D01*
X180275000Y-130935000D02*
X178320000Y-128980000D01*
X179710000Y-132840000D02*
X180275000Y-132275000D01*
G04 #@! TO.N,SPICS0*
X179135000Y-133375000D02*
X180009270Y-134249270D01*
X177885000Y-131785000D02*
X179135000Y-133035000D01*
X179135000Y-133035000D02*
X179135000Y-133375000D01*
X177735000Y-132025000D02*
X177735000Y-131745000D01*
X180009270Y-134249270D02*
X180009270Y-134269320D01*
G04 #@! TO.N,SPICLK*
X174345000Y-125475000D02*
X174345000Y-126695000D01*
X174345000Y-126695000D02*
X175460000Y-127810000D01*
X179726427Y-134552163D02*
X179726427Y-134546427D01*
X178030000Y-132850000D02*
X178030000Y-132700000D01*
X179620000Y-125330000D02*
X180275000Y-124675000D01*
X177270000Y-125330000D02*
X179620000Y-125330000D01*
X180285000Y-123810000D02*
X180285000Y-124235000D01*
X178640000Y-133460000D02*
X178030000Y-132850000D01*
X179726427Y-134546427D02*
X178640000Y-133460000D01*
X174345000Y-125475000D02*
X174345000Y-124395000D01*
X174345000Y-124395000D02*
X174640000Y-124100000D01*
X178640000Y-133460000D02*
X178190000Y-133010000D01*
X176040000Y-124100000D02*
X177270000Y-125330000D01*
X174640000Y-124100000D02*
X176040000Y-124100000D01*
X180275000Y-124675000D02*
X180275000Y-123955000D01*
G04 #@! TO.N,SPIQ*
X177890000Y-133280000D02*
X177835000Y-133225000D01*
X179005000Y-131085000D02*
X178700000Y-130780000D01*
X177890000Y-133280000D02*
X177060000Y-132450000D01*
X177890000Y-133280000D02*
X177670000Y-133060000D01*
X175340000Y-131840000D02*
X175650000Y-131840000D01*
X178700000Y-130780000D02*
X177400000Y-130780000D01*
X176590000Y-131190000D02*
X177000000Y-130780000D01*
X175940000Y-131840000D02*
X176590000Y-131190000D01*
X175650000Y-131840000D02*
X175940000Y-131840000D01*
X179420000Y-134810000D02*
X177890000Y-133280000D01*
X177835000Y-133225000D02*
X177750000Y-133140000D01*
X177060000Y-131660000D02*
X176590000Y-131190000D01*
X173810000Y-131840000D02*
X175340000Y-131840000D01*
X177000000Y-130780000D02*
X177400000Y-130780000D01*
X179005000Y-131745000D02*
X178990000Y-131730000D01*
X177060000Y-132450000D02*
X177060000Y-131660000D01*
X173075000Y-130425000D02*
X173075000Y-131105000D01*
X179005000Y-131745000D02*
X179005000Y-131085000D01*
X173075000Y-131105000D02*
X173810000Y-131840000D01*
G04 #@! TO.N,SPID*
X175615000Y-125475000D02*
X175615000Y-126505000D01*
X180570000Y-125730000D02*
X175870000Y-125730000D01*
X181355000Y-124945000D02*
X180570000Y-125730000D01*
X176400000Y-127730000D02*
X176440000Y-127770000D01*
X176510000Y-132470000D02*
X176510000Y-132030000D01*
X179160742Y-135117848D02*
X179157848Y-135117848D01*
X177265000Y-133225000D02*
X176510000Y-132470000D01*
X181555000Y-123810000D02*
X181555000Y-124015000D01*
X176400000Y-127290000D02*
X176400000Y-127730000D01*
X175870000Y-125730000D02*
X175615000Y-125475000D01*
X175615000Y-125475000D02*
X175780000Y-125310000D01*
X181545000Y-124755000D02*
X181355000Y-124945000D01*
X181545000Y-123955000D02*
X181545000Y-124755000D01*
X175615000Y-126505000D02*
X176400000Y-127290000D01*
X179157848Y-135117848D02*
X177265000Y-133225000D01*
G04 #@! TO.N,USB_D+*
X182607887Y-133986477D02*
X182613523Y-133986477D01*
X182607887Y-133986477D02*
X182607887Y-133982113D01*
D101*
G04 #@! TO.N,TXD0*
X189946250Y-149600000D02*
X190953750Y-149600000D01*
G04 #@! TO.N,RXD0*
X179160742Y-140262050D02*
X178702792Y-140720000D01*
X177600000Y-140720000D02*
X177490000Y-140830000D01*
D100*
X177580000Y-140780000D02*
X177530000Y-140830000D01*
D101*
X178702792Y-140720000D02*
X177600000Y-140720000D01*
D100*
G04 #@! TO.N,unconnected-(ESP32S3-Pad47)*
X178312214Y-139413522D02*
X178306478Y-139413522D01*
D105*
G04 #@! TO.N,Net-(CANBUS1-Pad1)*
X149930000Y-126480000D02*
X152185000Y-126480000D01*
X147945000Y-124495000D02*
X149930000Y-126480000D01*
X155720000Y-123790000D02*
X155200000Y-124310000D01*
X156537500Y-123790000D02*
X155720000Y-123790000D01*
X152185000Y-126480000D02*
X152920000Y-127215000D01*
G04 #@! TO.N,Net-(CANBUS1-Pad2)*
X149930000Y-124000000D02*
X149070000Y-123140000D01*
X146660000Y-123680000D02*
X146660000Y-124480000D01*
X150430000Y-125240000D02*
X149930000Y-124740000D01*
X155490000Y-125240000D02*
X156500000Y-125240000D01*
X149070000Y-123140000D02*
X147200000Y-123140000D01*
X164560000Y-125240000D02*
X164720000Y-125400000D01*
X156420000Y-127215000D02*
X156420000Y-125320000D01*
X158810000Y-125240000D02*
X164560000Y-125240000D01*
X156420000Y-125320000D02*
X156500000Y-125240000D01*
X147200000Y-123140000D02*
X146660000Y-123680000D01*
X158810000Y-125240000D02*
X159150000Y-125240000D01*
X155490000Y-125240000D02*
X155850000Y-125240000D01*
X149930000Y-124740000D02*
X149930000Y-124000000D01*
X155490000Y-125240000D02*
X150430000Y-125240000D01*
X156500000Y-125240000D02*
X158810000Y-125240000D01*
X146660000Y-124480000D02*
X146675000Y-124495000D01*
G04 #@! TO.N,Net-(CBU1-Pad1)*
X145405000Y-129745000D02*
X144585000Y-129745000D01*
X144585000Y-129745000D02*
X144460000Y-129620000D01*
G04 #@! TO.N,Net-(CBU1-Pad4)*
X150185000Y-129745000D02*
X150210000Y-129770000D01*
X149215000Y-129745000D02*
X150185000Y-129745000D01*
G04 #@! TO.N,Net-(CBU3-Pad8)*
X151635000Y-123500000D02*
X151010000Y-124125000D01*
X151010000Y-124125000D02*
X151010000Y-124430000D01*
X151010000Y-124430000D02*
X151130000Y-124550000D01*
G04 #@! TO.N,Net-(CJ1-Pad2)*
X165990000Y-124520000D02*
X165990000Y-125400000D01*
X158362500Y-123790000D02*
X160690000Y-123790000D01*
X160690000Y-123790000D02*
X161290000Y-123790000D01*
X165260000Y-123790000D02*
X165990000Y-124520000D01*
X160690000Y-123790000D02*
X165260000Y-123790000D01*
D102*
G04 #@! TO.N,5V0*
X160970000Y-133520000D02*
X160970000Y-131860000D01*
D99*
X160970000Y-133520000D02*
X162280000Y-133520000D01*
D101*
X193357325Y-142405000D02*
X192725000Y-142405000D01*
D102*
X149254995Y-143057505D02*
X149032500Y-143280000D01*
D99*
X168110000Y-129280000D02*
X168110000Y-127600000D01*
D103*
X188270500Y-151520500D02*
X187070000Y-150320000D01*
D99*
X198433750Y-143810000D02*
X197726250Y-143810000D01*
D102*
X149254995Y-141230003D02*
X149254995Y-142245005D01*
D99*
X163710000Y-135140000D02*
X164492500Y-134357500D01*
X163710000Y-135150000D02*
X163710000Y-135140000D01*
X168110000Y-127600000D02*
X168420000Y-127290000D01*
X159060000Y-134120000D02*
X159660000Y-133520000D01*
X147345000Y-142645000D02*
X148260000Y-143560000D01*
D102*
X150179995Y-142132505D02*
X149367495Y-142132505D01*
D105*
X160890000Y-131500000D02*
X160970000Y-131580000D01*
D99*
X168110000Y-133540000D02*
X167150000Y-132580000D01*
D102*
X160970000Y-131860000D02*
X160970000Y-131580000D01*
D101*
X159400000Y-130490000D02*
X161020000Y-130490000D01*
D99*
X159060000Y-135127500D02*
X159060000Y-134120000D01*
D102*
X168495000Y-144595000D02*
X167670000Y-144595000D01*
X168110000Y-138150000D02*
X169170000Y-139210000D01*
X169170000Y-139210000D02*
X169170000Y-143920000D01*
X144660000Y-136410000D02*
X147220000Y-136410000D01*
X149367495Y-142132505D02*
X149254995Y-142245005D01*
X147945000Y-129745000D02*
X147945000Y-132025000D01*
X151144995Y-141225003D02*
X151144995Y-141875005D01*
D99*
X148010000Y-132980000D02*
X148010000Y-132090000D01*
D102*
X150887495Y-142132505D02*
X150179995Y-142132505D01*
X149254995Y-142245005D02*
X149254995Y-143057505D01*
D99*
X192050000Y-141550000D02*
X191510000Y-141010000D01*
D102*
X147220000Y-136410000D02*
X147345000Y-136285000D01*
D99*
X148260000Y-143560000D02*
X149022500Y-143560000D01*
D102*
X160970000Y-131580000D02*
X160970000Y-130480000D01*
X152730000Y-130130000D02*
X150770000Y-132090000D01*
X169170000Y-143920000D02*
X168495000Y-144595000D01*
D99*
X191340000Y-126240000D02*
X191540000Y-126040000D01*
X192905000Y-142405000D02*
X192365000Y-141865000D01*
X168110000Y-137310000D02*
X168110000Y-134670000D01*
X193350000Y-142405000D02*
X192897675Y-142405000D01*
D100*
X159060000Y-134120000D02*
X159060000Y-134100000D01*
D102*
X150770000Y-132090000D02*
X148010000Y-132090000D01*
D99*
X168110000Y-135110000D02*
X168110000Y-133540000D01*
D105*
X157610000Y-131500000D02*
X160890000Y-131500000D01*
D102*
X151144995Y-141875005D02*
X150887495Y-142132505D01*
D105*
X157240000Y-132380000D02*
X157240000Y-131870000D01*
D99*
X164492500Y-134357500D02*
X165370000Y-134357500D01*
X162280000Y-133520000D02*
X162750000Y-133990000D01*
X191340000Y-140840000D02*
X191340000Y-126240000D01*
D102*
X150179995Y-141225003D02*
X150179995Y-142132505D01*
D99*
X167150000Y-130240000D02*
X168110000Y-129280000D01*
D102*
X153890000Y-130130000D02*
X152730000Y-130130000D01*
D99*
X167050000Y-144542500D02*
X167050000Y-143277500D01*
X163111250Y-134980000D02*
X163608750Y-134980000D01*
X159660000Y-133520000D02*
X160970000Y-133520000D01*
D105*
X147945000Y-132025000D02*
X148010000Y-132090000D01*
D99*
X147345000Y-133645000D02*
X148010000Y-132980000D01*
D103*
X187070000Y-150320000D02*
X187050000Y-150320000D01*
D99*
X165297500Y-134430000D02*
X165370000Y-134357500D01*
X192050000Y-141550000D02*
X191340000Y-140840000D01*
X167150000Y-132580000D02*
X167150000Y-130240000D01*
X192365000Y-141865000D02*
X192050000Y-141550000D01*
D103*
X188279500Y-151520500D02*
X188270500Y-151520500D01*
D99*
X147345000Y-136285000D02*
X147345000Y-133645000D01*
X149022500Y-143560000D02*
X149179994Y-143402506D01*
X147345000Y-136285000D02*
X147345000Y-142645000D01*
D102*
X168110000Y-137310000D02*
X168110000Y-138150000D01*
D105*
X157240000Y-131870000D02*
X157610000Y-131500000D01*
D99*
X162750000Y-133990000D02*
X162750000Y-134822500D01*
D101*
G04 #@! TO.N,Net-(LED1-Pad3)*
X198660000Y-130960000D02*
X198010000Y-130960000D01*
X197440000Y-131530000D02*
X197440000Y-132080000D01*
X197440000Y-132080000D02*
X197440000Y-133740000D01*
X198010000Y-130960000D02*
X197440000Y-131530000D01*
G04 #@! TO.N,BAT_NTC*
X197642325Y-142590000D02*
X197167325Y-142115000D01*
X200952500Y-145540000D02*
X200952500Y-146587500D01*
X200602500Y-145540000D02*
X200602500Y-143740000D01*
X200180000Y-142590000D02*
X197642325Y-142590000D01*
X200602500Y-143740000D02*
X200592500Y-143730000D01*
X197167325Y-142115000D02*
X197167325Y-142647325D01*
X200592500Y-143002500D02*
X200180000Y-142590000D01*
X200592500Y-143730000D02*
X200592500Y-143002500D01*
X200952500Y-146587500D02*
X200952500Y-146602500D01*
D102*
G04 #@! TO.N,Net-(AR1-Pad2)*
X152669997Y-138350003D02*
X153014997Y-138695003D01*
D99*
X153014997Y-138695003D02*
X153830000Y-137880000D01*
X153010000Y-138700000D02*
X153014997Y-138695003D01*
D102*
X151985000Y-137665000D02*
X151165000Y-137665000D01*
X152669997Y-138349997D02*
X151985000Y-137665000D01*
D99*
X153010000Y-139480000D02*
X153010000Y-139810000D01*
D102*
X152669997Y-138350003D02*
X152669997Y-138349997D01*
D99*
X153010000Y-139810000D02*
X153010000Y-138700000D01*
G04 #@! TO.N,Net-(MR1-Pad2)*
X160840000Y-136952500D02*
X160847500Y-136960000D01*
X159942500Y-138712500D02*
X159942500Y-136952500D01*
X160550000Y-139320000D02*
X159942500Y-138712500D01*
X159060000Y-136952500D02*
X159942500Y-136952500D01*
X159942500Y-136952500D02*
X160840000Y-136952500D01*
X160790000Y-139320000D02*
X160550000Y-139320000D01*
D101*
G04 #@! TO.N,VIN_BAT*
X200842500Y-136912500D02*
X200842500Y-136780000D01*
X201180000Y-136780000D02*
X200842500Y-136780000D01*
D102*
X203030000Y-149518750D02*
X203030000Y-143321250D01*
D101*
X201860000Y-137460000D02*
X201180000Y-136780000D01*
X201860000Y-137930000D02*
X201860000Y-138200000D01*
X200960000Y-141130000D02*
X203120000Y-143290000D01*
X201860000Y-138310000D02*
X201860000Y-137460000D01*
X201860000Y-138200000D02*
X201860000Y-139190000D01*
X201860000Y-138200000D02*
X201860000Y-138310000D01*
X200960000Y-140090000D02*
X200960000Y-141130000D01*
X201860000Y-139190000D02*
X200960000Y-140090000D01*
D102*
G04 #@! TO.N,Net-(AL1-Pad2)*
X149239995Y-136110005D02*
X149290000Y-136060000D01*
X149240000Y-138109999D02*
X149240000Y-135870001D01*
D101*
G04 #@! TO.N,CHRG_LED_R*
X195897325Y-147065000D02*
X195897325Y-148432675D01*
X204870000Y-143890000D02*
X204870000Y-145050000D01*
X204870000Y-145050000D02*
X204890000Y-145070000D01*
G04 #@! TO.N,Net-(L2R1-Pad2)*
X205800000Y-142820000D02*
X204320000Y-142820000D01*
X202970000Y-140630000D02*
X203840000Y-140630000D01*
X204320000Y-142820000D02*
X204070000Y-142570000D01*
X203840000Y-140630000D02*
X204010000Y-140800000D01*
X206870000Y-143890000D02*
X205800000Y-142820000D01*
G04 #@! TO.N,STDBY_LED_G*
X194627325Y-147065000D02*
X194627325Y-148462675D01*
X202210000Y-136570000D02*
X202210000Y-138920000D01*
X202400000Y-136380000D02*
X202210000Y-136570000D01*
X201500000Y-140170000D02*
X201500000Y-140720000D01*
X202210000Y-138920000D02*
X202210000Y-139460000D01*
X202210000Y-139460000D02*
X201500000Y-140170000D01*
G04 #@! TO.N,Net-(L2R2-Pad2)*
X204160000Y-141770000D02*
X204730000Y-141200000D01*
X203940000Y-134390000D02*
X203430000Y-133880000D01*
X202600000Y-139450000D02*
X202600000Y-137530000D01*
X203070000Y-141826496D02*
X202586496Y-141826496D01*
X203940000Y-136190000D02*
X203940000Y-134390000D01*
X203430000Y-133880000D02*
X202530000Y-133880000D01*
X202600000Y-137530000D02*
X203940000Y-136190000D01*
X204730000Y-141200000D02*
X204730000Y-140270000D01*
X203010000Y-139860000D02*
X202600000Y-139450000D01*
X202490000Y-134380000D02*
X202400000Y-134380000D01*
X204320000Y-139860000D02*
X203010000Y-139860000D01*
X202950000Y-141770000D02*
X204160000Y-141770000D01*
X204730000Y-140270000D02*
X204320000Y-139860000D01*
D105*
G04 #@! TO.N,Net-(TPR1-Pad2)*
X196787500Y-140592500D02*
X197070000Y-140592500D01*
X195825000Y-142785000D02*
X195825000Y-141555000D01*
X195825000Y-141555000D02*
X196787500Y-140592500D01*
D101*
G04 #@! TO.N,GPIO9_I2C_SCL*
X159710000Y-148295000D02*
X159710000Y-148270000D01*
X157650000Y-146210000D02*
X154670000Y-146210000D01*
D100*
X202335000Y-126800000D02*
X202335000Y-126275000D01*
D101*
X159710000Y-148270000D02*
X157650000Y-146210000D01*
X154670000Y-146210000D02*
X154160000Y-145700000D01*
D100*
X185599578Y-138140421D02*
X186020421Y-137719578D01*
X185719157Y-138282151D02*
X185722151Y-138282151D01*
X172700000Y-139890000D02*
X172710000Y-139900000D01*
X172710000Y-139900000D02*
X172710000Y-140887500D01*
D101*
X157330000Y-133230000D02*
X158360000Y-132200000D01*
D105*
X172700000Y-139890000D02*
X172730000Y-139890000D01*
D101*
X154160000Y-145700000D02*
X154160000Y-141390000D01*
D100*
X185719157Y-138282151D02*
X185732151Y-138282151D01*
D105*
X173517500Y-139102500D02*
X173720000Y-139102500D01*
D100*
X202335000Y-126275000D02*
X202645000Y-125965000D01*
D105*
X172730000Y-139890000D02*
X173517500Y-139102500D01*
D101*
X154160000Y-141390000D02*
X157330000Y-138220000D01*
X157330000Y-138220000D02*
X157330000Y-133230000D01*
D100*
X187040000Y-129067500D02*
X187040000Y-127632500D01*
D105*
G04 #@! TO.N,Net-(I2C1-Pad2)*
X146275000Y-144225000D02*
X145350000Y-144225000D01*
X156210000Y-148295000D02*
X156210000Y-149400000D01*
X146980000Y-144930000D02*
X146275000Y-144225000D01*
D101*
G04 #@! TO.N,Net-(ER2-Pad2)*
X177260000Y-140260000D02*
X176780000Y-140740000D01*
X188057500Y-149140000D02*
X187180000Y-149140000D01*
X177950000Y-140260000D02*
X177260000Y-140260000D01*
D100*
X178877899Y-139979207D02*
X178877899Y-139982101D01*
D101*
X178490000Y-140370000D02*
X178060000Y-140370000D01*
X178060000Y-140370000D02*
X177950000Y-140260000D01*
X178877899Y-139982101D02*
X178490000Y-140370000D01*
D100*
X176780000Y-140740000D02*
X176780000Y-140860000D01*
D105*
G04 #@! TO.N,SPICS1*
X173382500Y-132622500D02*
X173382500Y-132840000D01*
D101*
X182700000Y-132290000D02*
X182700000Y-130150000D01*
X182365000Y-132625000D02*
X182700000Y-132290000D01*
X182174629Y-133295371D02*
X182365000Y-133105000D01*
D100*
X171805000Y-130425000D02*
X171805000Y-129625000D01*
D105*
X171805000Y-130425000D02*
X171805000Y-131045000D01*
D101*
X182700000Y-130150000D02*
X182810000Y-130040000D01*
D100*
X173020000Y-128410000D02*
X173470000Y-128410000D01*
X171805000Y-129625000D02*
X173020000Y-128410000D01*
D106*
X171805000Y-131045000D02*
X173382500Y-132622500D01*
D101*
X182365000Y-133105000D02*
X182365000Y-132625000D01*
G04 #@! TO.N,PROBE_5V0*
X194980000Y-149500000D02*
X197610000Y-149500000D01*
X187540000Y-153070000D02*
X193830000Y-153070000D01*
X198767500Y-151830000D02*
X198767500Y-152567500D01*
X198767500Y-152567500D02*
X198990000Y-152790000D01*
X201050000Y-150700000D02*
X201050000Y-149677500D01*
X194540000Y-152360000D02*
X194540000Y-149940000D01*
X201440000Y-151090000D02*
X201050000Y-150700000D01*
X198990000Y-152790000D02*
X201100000Y-152790000D01*
D100*
X167670000Y-150640000D02*
X167670000Y-149530000D01*
D101*
X201440000Y-152450000D02*
X201440000Y-151090000D01*
D99*
X166540000Y-149910000D02*
X167290000Y-149910000D01*
D101*
X198280000Y-151830000D02*
X198767500Y-151830000D01*
X193830000Y-153070000D02*
X194540000Y-152360000D01*
D99*
X167670000Y-149530000D02*
X167670000Y-147300000D01*
D101*
X197910000Y-151460000D02*
X198280000Y-151830000D01*
X187390000Y-152920000D02*
X187540000Y-153070000D01*
D99*
X167670000Y-147300000D02*
X167730000Y-147240000D01*
D101*
X201100000Y-152790000D02*
X201440000Y-152450000D01*
X197610000Y-149500000D02*
X197910000Y-149800000D01*
X194540000Y-149940000D02*
X194980000Y-149500000D01*
D99*
X167290000Y-149910000D02*
X167670000Y-149530000D01*
D100*
X167302500Y-151900000D02*
X167302500Y-151007500D01*
D99*
X164590000Y-149910000D02*
X166540000Y-149910000D01*
D101*
X197910000Y-149800000D02*
X197910000Y-151460000D01*
D100*
X167302500Y-151007500D02*
X167670000Y-150640000D01*
D99*
G04 #@! TO.N,VIN_BATF*
X193285000Y-149075000D02*
X193520000Y-149310000D01*
X198740000Y-149300000D02*
X198740000Y-150040000D01*
X193285000Y-147735000D02*
X193285000Y-149075000D01*
D101*
G04 #@! TO.N,Net-(HLD1-Pad2)*
X159687500Y-144880000D02*
X159640000Y-144880000D01*
X159105000Y-145345000D02*
X158015000Y-144255000D01*
G04 #@! TO.N,Net-(HLL2-Pad2)*
X161660000Y-145200000D02*
X162280000Y-145820000D01*
D99*
X164690000Y-147010000D02*
X164590000Y-147110000D01*
D101*
X161512500Y-144880000D02*
X161700000Y-144880000D01*
D99*
X164690000Y-144660000D02*
X164690000Y-147010000D01*
D100*
G04 #@! TO.N,Net-(EC12-Pad1)*
X179830000Y-143065686D02*
X179830000Y-141855534D01*
D105*
X179410000Y-144625000D02*
X179400000Y-144635000D01*
X178310000Y-144820000D02*
X179215000Y-144820000D01*
D100*
X179410000Y-143485686D02*
X179830000Y-143065686D01*
X179410000Y-144625000D02*
X179410000Y-143485686D01*
D105*
X177950000Y-145180000D02*
X178310000Y-144820000D01*
D100*
X179830000Y-141855534D02*
X180292113Y-141393421D01*
D105*
X177322500Y-145180000D02*
X177950000Y-145180000D01*
D103*
X179150000Y-144650000D02*
X179150000Y-144630000D01*
D105*
X179215000Y-144820000D02*
X179400000Y-144635000D01*
D101*
G04 #@! TO.N,Net-(LED2-Pad2)*
X209690000Y-142790000D02*
X207420000Y-142790000D01*
X206410000Y-141780000D02*
X206150000Y-141780000D01*
X212970000Y-139510000D02*
X209690000Y-142790000D01*
X207420000Y-142790000D02*
X206410000Y-141780000D01*
X214302500Y-139510000D02*
X212970000Y-139510000D01*
D100*
G04 #@! TO.N,Net-(EC13-Pad1)*
X179430000Y-141689848D02*
X179430000Y-142900000D01*
X180009270Y-141110578D02*
X179430000Y-141689848D01*
X175170000Y-142980000D02*
X175522500Y-142980000D01*
X173630000Y-144565000D02*
X173630000Y-144520000D01*
X178260000Y-144070000D02*
X174740000Y-144070000D01*
X173720000Y-144300000D02*
X173630000Y-144390000D01*
X174410000Y-143740000D02*
X175170000Y-142980000D01*
X174740000Y-144070000D02*
X174410000Y-143740000D01*
X173630000Y-144520000D02*
X174410000Y-143740000D01*
X179430000Y-142900000D02*
X178260000Y-144070000D01*
D101*
G04 #@! TO.N,Net-(EC50-Pad1)*
X194080000Y-131110000D02*
X193470000Y-131110000D01*
X184630000Y-133290000D02*
X184630000Y-132680000D01*
X184630000Y-133290000D02*
X184630000Y-132660000D01*
X184029258Y-135390742D02*
X184630000Y-134790000D01*
X184630000Y-134790000D02*
X184630000Y-133290000D01*
D105*
X194080000Y-130270000D02*
X194080000Y-131110000D01*
X194060000Y-131880000D02*
X194180000Y-132000000D01*
X194080000Y-131110000D02*
X194080000Y-132100000D01*
D101*
X184630000Y-132680000D02*
X184800000Y-132510000D01*
G04 #@! TO.N,Net-(EC51-Pad1)*
X195380000Y-129370000D02*
X194150000Y-129370000D01*
X184122894Y-134737106D02*
X184280000Y-134580000D01*
X184280000Y-132000000D02*
X184530000Y-131750000D01*
X196280000Y-128470000D02*
X195380000Y-129370000D01*
X184280000Y-134580000D02*
X184280000Y-132000000D01*
X183739258Y-135117848D02*
X184120000Y-134737106D01*
X194150000Y-129370000D02*
X193370000Y-129370000D01*
D100*
X183739258Y-135117848D02*
X183739258Y-135110742D01*
D101*
X196200000Y-126820000D02*
X196200000Y-128390000D01*
X196200000Y-128390000D02*
X196280000Y-128470000D01*
X192920000Y-129820000D02*
X192920000Y-130380000D01*
X184120000Y-134737106D02*
X184122894Y-134737106D01*
X193370000Y-129370000D02*
X192920000Y-129820000D01*
G04 #@! TO.N,unconnected-(ESP32S3-Pad43)*
X177180843Y-138282151D02*
X177092994Y-138370000D01*
X177180843Y-138282151D02*
X176972994Y-138490000D01*
D102*
G04 #@! TO.N,4V2*
X163795000Y-142925000D02*
X163510000Y-143210000D01*
D99*
X160790000Y-141850000D02*
X160790000Y-141660000D01*
X167100000Y-128510000D02*
X167100000Y-126660000D01*
X202040000Y-144050000D02*
X202000000Y-144010000D01*
X164220000Y-142500000D02*
X163795000Y-142925000D01*
X192900000Y-126220000D02*
X192130000Y-126990000D01*
X165240000Y-142220000D02*
X164190000Y-142220000D01*
D102*
X168020000Y-140110000D02*
X167100000Y-139190000D01*
D99*
X192130000Y-140250000D02*
X192380000Y-140500000D01*
X165895000Y-141875000D02*
X167685000Y-140085000D01*
X202040000Y-147762500D02*
X202040000Y-144050000D01*
X165350000Y-142330000D02*
X165240000Y-142220000D01*
D102*
X167100000Y-139190000D02*
X167100000Y-134670000D01*
X163510000Y-143210000D02*
X161880000Y-143210000D01*
X167100000Y-128510000D02*
X167100000Y-128040000D01*
D99*
X192900000Y-125000000D02*
X192900000Y-126220000D01*
X167100000Y-133520000D02*
X166420000Y-132840000D01*
X192130000Y-126990000D02*
X192130000Y-140250000D01*
D102*
X160980000Y-143210000D02*
X160790000Y-143020000D01*
X161740000Y-141965000D02*
X161740000Y-143070000D01*
X160790000Y-143020000D02*
X160790000Y-141970000D01*
X161740000Y-143070000D02*
X161880000Y-143210000D01*
D99*
X166420000Y-132840000D02*
X166420000Y-129950000D01*
X166420000Y-129950000D02*
X167100000Y-129270000D01*
X165240000Y-142220000D02*
X165850000Y-142220000D01*
X202000000Y-144010000D02*
X202000000Y-143220000D01*
D101*
X166265000Y-132210000D02*
X164635000Y-132210000D01*
D99*
X167100000Y-129270000D02*
X167100000Y-128510000D01*
X167100000Y-126660000D02*
X167140000Y-126620000D01*
X202000000Y-143220000D02*
X201120000Y-142340000D01*
X202000000Y-147802500D02*
X202040000Y-147762500D01*
D102*
X161880000Y-143210000D02*
X160980000Y-143210000D01*
D99*
X167100000Y-134670000D02*
X167100000Y-133520000D01*
D101*
G04 #@! TO.N,GPIO7_BUZZER*
X186300000Y-139340000D02*
X187160000Y-138480000D01*
X187340000Y-137960000D02*
X187490000Y-137960000D01*
X211980000Y-130960000D02*
X206990000Y-130960000D01*
X187160000Y-138140000D02*
X187340000Y-137960000D01*
X185315000Y-138995000D02*
X185660000Y-139340000D01*
X206990000Y-130960000D02*
X206970000Y-130940000D01*
X187160000Y-138480000D02*
X187160000Y-138140000D01*
X185660000Y-139340000D02*
X186300000Y-139340000D01*
G04 #@! TO.N,GPIO13_CAN_CS*
X186370000Y-134740000D02*
X186610000Y-134740000D01*
X185980000Y-135130000D02*
X186370000Y-134740000D01*
X184978893Y-136131107D02*
X185980000Y-135130000D01*
G04 #@! TO.N,IO14_CAN_MISO*
X184587786Y-135966376D02*
X184587786Y-135962214D01*
X184587786Y-135966376D02*
X184593624Y-135966376D01*
X184749629Y-135810371D02*
X185980000Y-134580000D01*
X185980000Y-134580000D02*
X185980000Y-134410000D01*
G04 #@! TO.N,IO21_CAN_MOSI*
X182900000Y-133120000D02*
X182900000Y-132950000D01*
X182349258Y-133670742D02*
X182900000Y-133120000D01*
G04 #@! TO.N,GPIO34_CAN_SCK*
X173770000Y-134400000D02*
X173440000Y-134730000D01*
X176875000Y-135075000D02*
X176200000Y-134400000D01*
X178029371Y-136229371D02*
X176875000Y-135075000D01*
X176200000Y-134400000D02*
X173770000Y-134400000D01*
G04 #@! TO.N,GPIO4_BAT_SENSE*
X185650000Y-140600000D02*
X185650000Y-140630000D01*
X184190000Y-139570000D02*
X185290000Y-140670000D01*
X185290000Y-140670000D02*
X185480000Y-140670000D01*
D100*
X184304944Y-139696364D02*
X184306364Y-139696364D01*
D101*
X199050000Y-136780000D02*
X200812500Y-138542500D01*
X200812500Y-138542500D02*
X200812500Y-138610000D01*
X199017500Y-136780000D02*
X197004974Y-136780000D01*
X199017500Y-136780000D02*
X199050000Y-136780000D01*
X196124974Y-137660000D02*
X193550000Y-137660000D01*
X197004974Y-136780000D02*
X196124974Y-137660000D01*
D100*
G04 #@! TO.N,GPIO6_EXT_PLUG2*
X184870629Y-139130679D02*
X184870679Y-139130679D01*
D101*
X187380000Y-138770000D02*
X187810000Y-138770000D01*
X185440000Y-139690000D02*
X185760000Y-139690000D01*
X186460000Y-139690000D02*
X187380000Y-138770000D01*
X185429950Y-139690000D02*
X184870629Y-139130679D01*
X185760000Y-139690000D02*
X186460000Y-139690000D01*
X185760000Y-139690000D02*
X185429950Y-139690000D01*
G04 #@! TO.N,GPIO10_PLUG_PWR_3V3*
X185719157Y-137097747D02*
X187197747Y-137097747D01*
X218410000Y-126130000D02*
X218070000Y-126470000D01*
D100*
X185719157Y-137097747D02*
X185722253Y-137097747D01*
D101*
X187197747Y-137097747D02*
X187325000Y-137225000D01*
X187325000Y-137225000D02*
X187420000Y-137320000D01*
X218410000Y-125410000D02*
X218410000Y-126130000D01*
X187420000Y-137320000D02*
X188080000Y-137320000D01*
G04 #@! TO.N,GPIO11_LED_B*
X201840000Y-132110000D02*
X202140000Y-132410000D01*
X200660000Y-131820000D02*
X201780000Y-131820000D01*
X185214446Y-137055553D02*
X186049999Y-136219999D01*
G04 #@! TO.N,GPIO35_5V0_SENSE*
X177742062Y-136532062D02*
X176760000Y-135550000D01*
X158960000Y-144130000D02*
X161670000Y-144130000D01*
X162845000Y-145305000D02*
X162845000Y-150995000D01*
X162845000Y-150995000D02*
X163710000Y-151860000D01*
X161670000Y-144130000D02*
X162845000Y-145305000D01*
X158890000Y-138370000D02*
X158590000Y-138670000D01*
D100*
X164550000Y-151860000D02*
X164310000Y-151860000D01*
X165337500Y-151860000D02*
X164550000Y-151860000D01*
X177746528Y-136532062D02*
X177742062Y-136532062D01*
D101*
X158590000Y-143760000D02*
X158960000Y-144130000D01*
D100*
X164390000Y-151860000D02*
X163442500Y-151860000D01*
D101*
X158590000Y-138670000D02*
X158590000Y-143760000D01*
X176760000Y-135550000D02*
X176190000Y-134980000D01*
X176190000Y-134980000D02*
X175860000Y-134980000D01*
X163710000Y-151860000D02*
X164550000Y-151860000D01*
D100*
G04 #@! TO.N,GPIO36_EXT_PLUG1*
X177463686Y-136814904D02*
X177463686Y-136813686D01*
D101*
X177463686Y-136813686D02*
X176250000Y-135600000D01*
X176250000Y-135600000D02*
X174680000Y-135600000D01*
G04 #@! TO.N,GPIO37_IMU_CS*
X176330000Y-136240000D02*
X175810000Y-136240000D01*
X176650000Y-136560000D02*
X177180843Y-137090843D01*
X176650000Y-136560000D02*
X176330000Y-136240000D01*
D100*
X173605000Y-139895000D02*
X173605000Y-139915000D01*
D101*
X177180843Y-137090843D02*
X177180843Y-137097747D01*
D100*
X173210000Y-140310000D02*
X173210000Y-140887500D01*
X173605000Y-139915000D02*
X173210000Y-140310000D01*
G04 #@! TO.N,GND*
X170680000Y-147680000D02*
X170660000Y-147660000D01*
D102*
X155280000Y-134552500D02*
X156280000Y-134552500D01*
D101*
X184930000Y-149560000D02*
X184940000Y-149550000D01*
D103*
X180495000Y-147740000D02*
X179235000Y-147740000D01*
D100*
X199060000Y-147160000D02*
X200210000Y-147160000D01*
X170595000Y-145190000D02*
X170615000Y-145210000D01*
X179300000Y-147770000D02*
X179210000Y-147680000D01*
X179320000Y-146530000D02*
X179320000Y-147570000D01*
X184190000Y-140150000D02*
X181907899Y-137867899D01*
D105*
X144830000Y-125070000D02*
X144370000Y-125070000D01*
X194555000Y-141725000D02*
X194555000Y-142785000D01*
D103*
X189270000Y-144630000D02*
X189270000Y-143760000D01*
D102*
X151830000Y-139710000D02*
X151550000Y-139430000D01*
D101*
X172920000Y-141880000D02*
X172710000Y-141880000D01*
D103*
X190635000Y-139870000D02*
X190675000Y-139910000D01*
D102*
X197640000Y-125520000D02*
X198090000Y-125070000D01*
X169530000Y-146950000D02*
X169770000Y-146710000D01*
D105*
X198300000Y-129110000D02*
X198300000Y-129030000D01*
D101*
X153010000Y-142550000D02*
X153430000Y-142970000D01*
D103*
X160030000Y-135910000D02*
X161760000Y-135910000D01*
D101*
X176300000Y-141810000D02*
X177297500Y-142807500D01*
D102*
X149488749Y-139540000D02*
X148351251Y-139540000D01*
D105*
X146080000Y-132060000D02*
X146110000Y-132090000D01*
X195910000Y-140370000D02*
X194555000Y-141725000D01*
X187550000Y-133270000D02*
X187550000Y-135160000D01*
D100*
X187200000Y-131280000D02*
X187430000Y-131280000D01*
D105*
X171630000Y-136010000D02*
X171140000Y-136010000D01*
D100*
X185040000Y-130300000D02*
X185040000Y-125680000D01*
X175140000Y-149550000D02*
X175140000Y-147750000D01*
X170600000Y-136030000D02*
X170600000Y-141740000D01*
D103*
X190675000Y-144485000D02*
X190675000Y-147220000D01*
D99*
X169800000Y-147680000D02*
X170420000Y-147680000D01*
D102*
X200480000Y-125070000D02*
X201160000Y-125750000D01*
D103*
X170555000Y-147590000D02*
X170685000Y-147720000D01*
D100*
X170570000Y-147570000D02*
X170660000Y-147660000D01*
D102*
X196880000Y-125520000D02*
X197640000Y-125520000D01*
D101*
X199960000Y-150470000D02*
X199960000Y-150920000D01*
D105*
X147460000Y-127410000D02*
X147500000Y-127410000D01*
D100*
X200210000Y-147160000D02*
X200870000Y-147820000D01*
D102*
X159775000Y-127215000D02*
X159920000Y-127215000D01*
D105*
X174850000Y-136500000D02*
X175550000Y-137200000D01*
D100*
X185095000Y-130590000D02*
X186510000Y-130590000D01*
D103*
X149905000Y-148295000D02*
X149210000Y-148295000D01*
D105*
X146675000Y-128195000D02*
X147460000Y-127410000D01*
D103*
X182880000Y-146520000D02*
X182890000Y-146530000D01*
X190675000Y-139910000D02*
X190675000Y-140720000D01*
D105*
X185030000Y-125690000D02*
X185090000Y-125630000D01*
X187550000Y-135160000D02*
X187570000Y-135180000D01*
D101*
X172517500Y-150040000D02*
X174062500Y-150040000D01*
D100*
X170595000Y-147630000D02*
X170685000Y-147720000D01*
D101*
X173210000Y-142712500D02*
X173210000Y-142170000D01*
D102*
X150200000Y-139385000D02*
X151505000Y-139385000D01*
D99*
X199120000Y-145571250D02*
X199120000Y-146570000D01*
D102*
X150230000Y-138185004D02*
X150230000Y-139014995D01*
D103*
X174970000Y-149550000D02*
X174400000Y-150120000D01*
D100*
X183990000Y-125720000D02*
X183960000Y-125690000D01*
X183990000Y-127100000D02*
X183990000Y-125720000D01*
D105*
X185830000Y-131550000D02*
X185560000Y-131550000D01*
D102*
X169530000Y-149490000D02*
X169530000Y-146950000D01*
D105*
X145405000Y-124495000D02*
X144830000Y-125070000D01*
D102*
X152840000Y-141810000D02*
X152140000Y-141110000D01*
D103*
X182970000Y-146415000D02*
X182970000Y-145490000D01*
D101*
X174062500Y-150040000D02*
X174282500Y-150260000D01*
D100*
X170575000Y-135230000D02*
X170575000Y-134210000D01*
D101*
X172710000Y-142596250D02*
X172710000Y-141863750D01*
D102*
X151505000Y-139385000D02*
X151550000Y-139430000D01*
D105*
X171630000Y-136010000D02*
X172120000Y-136500000D01*
D99*
X198140000Y-145540000D02*
X198070000Y-145470000D01*
D101*
X176300000Y-141810000D02*
X176330000Y-141780000D01*
X207680000Y-138560000D02*
X206610000Y-137490000D01*
D105*
X147500000Y-127410000D02*
X147500000Y-126180000D01*
X189030000Y-122670000D02*
X189020000Y-122680000D01*
D101*
X200870000Y-147820000D02*
X200260000Y-148430000D01*
D102*
X155897500Y-135860000D02*
X155780000Y-135742500D01*
D103*
X182795000Y-144920000D02*
X183625000Y-144920000D01*
D105*
X187550000Y-133270000D02*
X187550000Y-133020000D01*
D101*
X200260000Y-148430000D02*
X200260000Y-150170000D01*
D102*
X182890000Y-146480000D02*
X183150000Y-146480000D01*
D100*
X186510000Y-130590000D02*
X187200000Y-131280000D01*
D103*
X190675000Y-143530000D02*
X190675000Y-144440000D01*
D101*
X177297500Y-142807500D02*
X177572500Y-142807500D01*
D103*
X178315000Y-147740000D02*
X177545000Y-147740000D01*
D100*
X201410000Y-127800000D02*
X201160000Y-127550000D01*
D103*
X182875000Y-147740000D02*
X180755000Y-147740000D01*
D100*
X181540000Y-131740000D02*
X181540000Y-130570000D01*
X170595000Y-145100000D02*
X170595000Y-147630000D01*
D105*
X154470000Y-123500000D02*
X154610000Y-123360000D01*
D100*
X179150000Y-147740000D02*
X179210000Y-147680000D01*
D99*
X152630000Y-142820000D02*
X153010000Y-142440000D01*
D103*
X187570000Y-135180000D02*
X187570000Y-135570000D01*
X190675000Y-147220000D02*
X190675000Y-147740000D01*
D101*
X178208478Y-141780000D02*
X179443585Y-140544893D01*
D103*
X185765000Y-124217500D02*
X185765000Y-122745000D01*
D99*
X161788750Y-135881250D02*
X160850000Y-134942500D01*
D105*
X172120000Y-136500000D02*
X174850000Y-136500000D01*
D100*
X181750000Y-139139949D02*
X181460000Y-139139949D01*
D101*
X153010000Y-141810000D02*
X153010000Y-142550000D01*
D103*
X151097500Y-143777500D02*
X151980000Y-144660000D01*
D105*
X196260000Y-131820000D02*
X196080000Y-132000000D01*
D100*
X187940000Y-141430000D02*
X187940000Y-141230000D01*
D103*
X189020000Y-122680000D02*
X189980000Y-122680000D01*
X190665000Y-130510000D02*
X190665000Y-133900000D01*
D102*
X157170000Y-142660000D02*
X157630000Y-142200000D01*
D103*
X189220000Y-144580000D02*
X189270000Y-144630000D01*
X171260000Y-147760000D02*
X170975000Y-147760000D01*
X177545000Y-147740000D02*
X170705000Y-147740000D01*
D101*
X189430000Y-147800000D02*
X189320000Y-147910000D01*
D103*
X190645000Y-143500000D02*
X190675000Y-143530000D01*
D99*
X194290000Y-126410000D02*
X194290000Y-125520000D01*
D105*
X183960000Y-125690000D02*
X185030000Y-125690000D01*
D99*
X161760000Y-138120000D02*
X162672500Y-137207500D01*
D101*
X189430000Y-147800000D02*
X190655000Y-147800000D01*
X159920000Y-127215000D02*
X160305000Y-126830000D01*
D100*
X179290000Y-140700000D02*
X181294944Y-138695056D01*
D103*
X161760000Y-135910000D02*
X161788750Y-135881250D01*
D100*
X185620000Y-131550000D02*
X186080000Y-131550000D01*
D99*
X162672500Y-136765000D02*
X161843750Y-135936250D01*
D100*
X187605000Y-141765000D02*
X187940000Y-141430000D01*
X181545000Y-131745000D02*
X181540000Y-131740000D01*
D99*
X190705000Y-122745000D02*
X192385000Y-122745000D01*
D101*
X206610000Y-137490000D02*
X206610000Y-135625026D01*
D102*
X169770000Y-146710000D02*
X169770000Y-138840000D01*
D101*
X190620000Y-147685000D02*
X190695000Y-147760000D01*
D103*
X190675000Y-147740000D02*
X190695000Y-147760000D01*
D101*
X173210000Y-142170000D02*
X172920000Y-141880000D01*
D100*
X178410000Y-129950000D02*
X178430000Y-129970000D01*
D102*
X151887500Y-142770000D02*
X151097500Y-143560000D01*
D100*
X170635000Y-144030000D02*
X170555000Y-144110000D01*
D105*
X196280000Y-130270000D02*
X197140000Y-130270000D01*
D103*
X189980000Y-122680000D02*
X190600000Y-122680000D01*
D102*
X168900000Y-137970000D02*
X168900000Y-133340000D01*
D101*
X184930000Y-149560000D02*
X185680000Y-148810000D01*
D103*
X190675000Y-144440000D02*
X190675000Y-144485000D01*
X189270000Y-143760000D02*
X189260000Y-143750000D01*
X190675000Y-142620000D02*
X190675000Y-136490000D01*
D102*
X155780000Y-131210000D02*
X159775000Y-127215000D01*
X150724994Y-139524994D02*
X150154994Y-139524994D01*
X151830000Y-140800000D02*
X151830000Y-139710000D01*
D105*
X185745000Y-124975000D02*
X185090000Y-125630000D01*
D103*
X188110000Y-144580000D02*
X189220000Y-144580000D01*
D105*
X175550000Y-137200000D02*
X175550000Y-137615000D01*
D101*
X206610000Y-135625026D02*
X204580000Y-133595026D01*
X186020000Y-147870000D02*
X186130000Y-147760000D01*
D102*
X155280000Y-133552500D02*
X156280000Y-133552500D01*
D100*
X170595000Y-145100000D02*
X170595000Y-145190000D01*
X181540000Y-130570000D02*
X181390000Y-130420000D01*
D99*
X170390000Y-147675000D02*
X170395000Y-147680000D01*
D102*
X168900000Y-133340000D02*
X168010000Y-132450000D01*
X198090000Y-125070000D02*
X200480000Y-125070000D01*
D100*
X175615000Y-130425000D02*
X176090000Y-129950000D01*
D103*
X185765000Y-122745000D02*
X185770000Y-122740000D01*
X161677500Y-151900000D02*
X159790000Y-151900000D01*
D100*
X170600000Y-122830000D02*
X170600000Y-136030000D01*
D103*
X190665000Y-133900000D02*
X190675000Y-133910000D01*
D105*
X201160000Y-127790000D02*
X200650000Y-128300000D01*
D101*
X160305000Y-126830000D02*
X162850000Y-126830000D01*
D105*
X147520000Y-127390000D02*
X147500000Y-127410000D01*
D101*
X197070000Y-138767500D02*
X198830000Y-138767500D01*
D102*
X168010000Y-132450000D02*
X168010000Y-130640000D01*
D105*
X146675000Y-130855000D02*
X146080000Y-131450000D01*
D101*
X198830000Y-138767500D02*
X198987500Y-138610000D01*
D103*
X190675000Y-136490000D02*
X190675000Y-133910000D01*
D101*
X170685000Y-147720000D02*
X170765000Y-147800000D01*
D99*
X203720000Y-130100000D02*
X204580000Y-130960000D01*
D105*
X199985000Y-128300000D02*
X199730000Y-128300000D01*
D102*
X183050000Y-146390000D02*
X183050000Y-146240000D01*
D105*
X146675000Y-129745000D02*
X146675000Y-128195000D01*
D101*
X200180000Y-150881250D02*
X200180000Y-151718750D01*
D102*
X201160000Y-125750000D02*
X201160000Y-127550000D01*
D101*
X170675000Y-122795000D02*
X170640000Y-122760000D01*
D99*
X199120000Y-146570000D02*
X199120000Y-146908750D01*
D100*
X175185000Y-146290000D02*
X170675000Y-146290000D01*
X204490000Y-127800000D02*
X205070000Y-127220000D01*
D102*
X194570000Y-142405000D02*
X194570000Y-144245000D01*
D104*
X182900000Y-144340000D02*
X183050000Y-144490000D01*
D103*
X190675000Y-133910000D02*
X190675000Y-132480000D01*
X190680000Y-147840000D02*
X186460000Y-147840000D01*
D101*
X170685000Y-147720000D02*
X170685000Y-122805000D01*
X176330000Y-141780000D02*
X178208478Y-141780000D01*
D100*
X175550000Y-137440000D02*
X175550000Y-137460000D01*
D103*
X194090000Y-145660000D02*
X190670000Y-145660000D01*
X189270000Y-145700000D02*
X189270000Y-144630000D01*
D101*
X194290000Y-128020000D02*
X194060000Y-128250000D01*
D99*
X205070000Y-130470000D02*
X204580000Y-130960000D01*
D105*
X200910000Y-127800000D02*
X201160000Y-127550000D01*
X199730000Y-128300000D02*
X199360000Y-128670000D01*
D99*
X169820000Y-149530000D02*
X169570000Y-149530000D01*
D105*
X201160000Y-127550000D02*
X201160000Y-127790000D01*
D101*
X190640000Y-122710000D02*
X190640000Y-144490000D01*
D102*
X155970000Y-142430000D02*
X155490000Y-142430000D01*
X156110000Y-142660000D02*
X156110000Y-141338750D01*
D105*
X153395000Y-123290000D02*
X154505000Y-123290000D01*
X146675000Y-129745000D02*
X146675000Y-130855000D01*
D103*
X182970000Y-144570000D02*
X182990000Y-144550000D01*
D101*
X202640000Y-130100000D02*
X203720000Y-130100000D01*
D105*
X150340000Y-127390000D02*
X147520000Y-127390000D01*
X200650000Y-128300000D02*
X199985000Y-128300000D01*
D103*
X190625000Y-122740000D02*
X190655000Y-122710000D01*
X179235000Y-147740000D02*
X178315000Y-147740000D01*
D105*
X185745000Y-124170000D02*
X185745000Y-124975000D01*
D101*
X204580000Y-133595026D02*
X204580000Y-130960000D01*
D100*
X179320000Y-147570000D02*
X179210000Y-147680000D01*
D103*
X180755000Y-147740000D02*
X180495000Y-147740000D01*
D100*
X202335000Y-127800000D02*
X204490000Y-127800000D01*
D99*
X199127500Y-145540000D02*
X198140000Y-145540000D01*
D103*
X151097500Y-143560000D02*
X151097500Y-143777500D01*
D101*
X216177500Y-138560000D02*
X207680000Y-138560000D01*
D103*
X182890000Y-144370000D02*
X182890000Y-144580000D01*
D102*
X169770000Y-138840000D02*
X168900000Y-137970000D01*
D100*
X186080000Y-131550000D02*
X186810000Y-132280000D01*
D99*
X194290000Y-124650000D02*
X194290000Y-125520000D01*
D103*
X185765000Y-123125000D02*
X185765000Y-124217500D01*
D100*
X181460000Y-139989949D02*
X181460000Y-139139949D01*
X170620000Y-136010000D02*
X170600000Y-136030000D01*
D101*
X170685000Y-122805000D02*
X170675000Y-122795000D01*
D100*
X184030000Y-125690000D02*
X184030000Y-125710000D01*
D105*
X197140000Y-130270000D02*
X198300000Y-129110000D01*
D101*
X189320000Y-147910000D02*
X185680000Y-147910000D01*
X190640000Y-144490000D02*
X190620000Y-144510000D01*
D105*
X147500000Y-126180000D02*
X147460000Y-126140000D01*
D102*
X156110000Y-142660000D02*
X157170000Y-142660000D01*
D103*
X190675000Y-142620000D02*
X190675000Y-143530000D01*
X151980000Y-144660000D02*
X151980000Y-146220000D01*
D99*
X152320000Y-142820000D02*
X152630000Y-142820000D01*
D102*
X152140000Y-141110000D02*
X151830000Y-140800000D01*
D100*
X170600000Y-141740000D02*
X170590000Y-141750000D01*
D99*
X170400000Y-147675000D02*
X170405000Y-147680000D01*
D101*
X194310000Y-126630000D02*
X194310000Y-128240000D01*
D102*
X194290000Y-125520000D02*
X196880000Y-125520000D01*
X168010000Y-130640000D02*
X169230000Y-129420000D01*
D105*
X196612500Y-138767500D02*
X195910000Y-139470000D01*
D103*
X170705000Y-147740000D02*
X170685000Y-147720000D01*
D101*
X190620000Y-144510000D02*
X190620000Y-147685000D01*
D102*
X169570000Y-149530000D02*
X169530000Y-149490000D01*
D100*
X202335000Y-127800000D02*
X201410000Y-127800000D01*
D99*
X161760000Y-139113750D02*
X161760000Y-138120000D01*
D103*
X190705000Y-122745000D02*
X190705000Y-123395000D01*
D100*
X187985000Y-147770000D02*
X185325000Y-147770000D01*
X186810000Y-132280000D02*
X186820000Y-132290000D01*
X185040000Y-125680000D02*
X185090000Y-125630000D01*
D101*
X187050000Y-125630000D02*
X188320000Y-126900000D01*
D105*
X195910000Y-139470000D02*
X195910000Y-140370000D01*
D101*
X201160000Y-128620000D02*
X202640000Y-130100000D01*
D99*
X161843750Y-135936250D02*
X161788750Y-135881250D01*
D105*
X197070000Y-138767500D02*
X196612500Y-138767500D01*
X196260000Y-130050000D02*
X196260000Y-131820000D01*
D100*
X190725000Y-140670000D02*
X190675000Y-140720000D01*
D103*
X175315000Y-149550000D02*
X174970000Y-149550000D01*
D99*
X153010000Y-142440000D02*
X153010000Y-141810000D01*
D102*
X153010000Y-141810000D02*
X152840000Y-141810000D01*
D101*
X200260000Y-150170000D02*
X199960000Y-150470000D01*
D100*
X181545000Y-131745000D02*
X181520000Y-131720000D01*
D101*
X171780000Y-149565000D02*
X171780000Y-152515000D01*
D102*
X155780000Y-135742500D02*
X155780000Y-131210000D01*
D100*
X170575000Y-134210000D02*
X170575000Y-127140000D01*
D105*
X198260000Y-128670000D02*
X199360000Y-128670000D01*
D101*
X201160000Y-127550000D02*
X201160000Y-128620000D01*
D99*
X169690000Y-147680000D02*
X169685000Y-147675000D01*
D100*
X176090000Y-129950000D02*
X178410000Y-129950000D01*
D103*
X190700000Y-144590000D02*
X190620000Y-144510000D01*
D105*
X171630000Y-136010000D02*
X170620000Y-136010000D01*
D99*
X162672500Y-137207500D02*
X162672500Y-136960000D01*
D103*
X175170000Y-146823750D02*
X175170000Y-145336250D01*
X175167500Y-146080000D02*
X175167500Y-147612500D01*
D99*
X192385000Y-122745000D02*
X194290000Y-124650000D01*
D102*
X156110000Y-143601250D02*
X156110000Y-142660000D01*
D103*
X185370000Y-122680000D02*
X189020000Y-122680000D01*
D102*
X152410000Y-142770000D02*
X151887500Y-142770000D01*
D105*
X187550000Y-133020000D02*
X186820000Y-132290000D01*
D103*
X182970000Y-145490000D02*
X182970000Y-144570000D01*
D105*
X199985000Y-127800000D02*
X200910000Y-127800000D01*
D101*
X190655000Y-147800000D02*
X190695000Y-147760000D01*
D99*
X168010000Y-142420000D02*
X168010000Y-142980000D01*
D101*
X185090000Y-125630000D02*
X187050000Y-125630000D01*
X185680000Y-148810000D02*
X185680000Y-147910000D01*
D105*
X146080000Y-131450000D02*
X146080000Y-132060000D01*
D101*
G04 #@! TO.N,GPIO12_LED_G*
X199920000Y-131410000D02*
X199920000Y-131000000D01*
X184958893Y-136741107D02*
X186370000Y-135330000D01*
D100*
X185153472Y-136532062D02*
X185157938Y-136532062D01*
D101*
X199135000Y-132035000D02*
X199825000Y-131345000D01*
G04 #@! TO.N,GPIO5_LED_R*
X196220000Y-137070000D02*
X194140000Y-137070000D01*
D100*
X184587786Y-139413522D02*
X184587786Y-139417786D01*
D101*
X196910000Y-135790000D02*
X196910000Y-136380000D01*
X186160000Y-140040000D02*
X186350000Y-140230000D01*
X196910000Y-136380000D02*
X196220000Y-137070000D01*
X185220000Y-140040000D02*
X186160000Y-140040000D01*
X184570000Y-139390000D02*
X185220000Y-140040000D01*
D105*
G04 #@! TO.N,Net-(I2C1-Pad3)*
X152600000Y-148185000D02*
X152710000Y-148295000D01*
D103*
X145620000Y-149777500D02*
X145620000Y-149790000D01*
X146600000Y-150770000D02*
X150680000Y-150770000D01*
X145620000Y-149790000D02*
X146600000Y-150770000D01*
G04 #@! TO.N,Net-(I2C2-Pad2)*
X208590000Y-125240000D02*
X208590000Y-127055000D01*
X212255000Y-123980000D02*
X209850000Y-123980000D01*
X209850000Y-123980000D02*
X208590000Y-125240000D01*
D101*
G04 #@! TO.N,Net-(Q1-Pad1)*
X147550000Y-145930000D02*
X146570000Y-146910000D01*
X146570000Y-146910000D02*
X146570000Y-147902500D01*
X148130000Y-145930000D02*
X147550000Y-145930000D01*
X148430000Y-145630000D02*
X148130000Y-145930000D01*
G04 #@! TO.N,Net-(Q2-Pad1)*
X215660000Y-124930000D02*
X217180000Y-123410000D01*
X217180000Y-123410000D02*
X218410000Y-123410000D01*
X214130000Y-124930000D02*
X215660000Y-124930000D01*
G04 #@! TO.N,GPIO2_BAT_EN_CHR*
X197440000Y-145980000D02*
X197440000Y-146354650D01*
X197440000Y-145980000D02*
X197440000Y-147390000D01*
D100*
X183739258Y-140262050D02*
X183752050Y-140262050D01*
D101*
X191520000Y-145120000D02*
X191520000Y-144660000D01*
X197440000Y-144730000D02*
X197440000Y-145980000D01*
X184330000Y-140850000D02*
X184680000Y-140850000D01*
X183635000Y-140155000D02*
X184330000Y-140850000D01*
X197440000Y-147390000D02*
X197095000Y-147735000D01*
X191520000Y-144660000D02*
X192350000Y-143830000D01*
G04 #@! TO.N,GPIO1_PLUG_PWR_3V3*
X150960000Y-146160000D02*
X150430000Y-145630000D01*
D100*
X183456415Y-140544893D02*
X183456415Y-140546415D01*
D101*
X151730000Y-150400000D02*
X150960000Y-149630000D01*
X160730000Y-150400000D02*
X151730000Y-150400000D01*
X161930000Y-147940000D02*
X161550000Y-148320000D01*
X183545000Y-140625000D02*
X184195000Y-141275000D01*
X150960000Y-149630000D02*
X150960000Y-146160000D01*
X161550000Y-149580000D02*
X160730000Y-150400000D01*
X161550000Y-148320000D02*
X161550000Y-149580000D01*
G04 #@! TD*
G04 #@! TA.AperFunction,Conductor*
G04 #@! TO.N,GND*
G36*
X183505080Y-148126837D02*
G01*
X183550010Y-148168369D01*
X183561947Y-148228379D01*
X183533637Y-148286747D01*
X182956629Y-148863755D01*
X182902112Y-148891532D01*
X182854569Y-148899062D01*
X182854568Y-148899062D01*
X182846874Y-148900281D01*
X182839935Y-148903817D01*
X182839934Y-148903817D01*
X182733719Y-148957936D01*
X182733717Y-148957937D01*
X182726780Y-148961472D01*
X182631472Y-149056780D01*
X182570281Y-149176874D01*
X182569063Y-149184565D01*
X182569062Y-149184568D01*
X182568838Y-149185985D01*
X182568187Y-149187263D01*
X182566655Y-149191978D01*
X182565908Y-149191735D01*
X182541062Y-149240502D01*
X182486546Y-149268281D01*
X182471057Y-149269500D01*
X182089086Y-149269500D01*
X182030895Y-149250593D01*
X181994931Y-149201093D01*
X181990500Y-149178812D01*
X181990500Y-149175754D01*
X181983859Y-149133823D01*
X181976170Y-149085275D01*
X181976170Y-149085273D01*
X181974951Y-149077580D01*
X181970092Y-149068043D01*
X181918194Y-148966188D01*
X181918193Y-148966186D01*
X181914658Y-148959249D01*
X181820751Y-148865342D01*
X181813814Y-148861807D01*
X181813812Y-148861806D01*
X181709360Y-148808585D01*
X181709359Y-148808585D01*
X181702420Y-148805049D01*
X181694727Y-148803830D01*
X181694725Y-148803830D01*
X181608092Y-148790109D01*
X181608090Y-148790109D01*
X181604246Y-148789500D01*
X181100754Y-148789500D01*
X181096910Y-148790109D01*
X181096908Y-148790109D01*
X181010275Y-148803830D01*
X181010273Y-148803830D01*
X181002580Y-148805049D01*
X180995641Y-148808585D01*
X180995640Y-148808585D01*
X180891188Y-148861806D01*
X180891186Y-148861807D01*
X180884249Y-148865342D01*
X180790342Y-148959249D01*
X180786807Y-148966186D01*
X180786806Y-148966188D01*
X180734908Y-149068043D01*
X180730049Y-149077580D01*
X180728830Y-149085273D01*
X180728830Y-149085275D01*
X180715109Y-149171908D01*
X180714500Y-149175754D01*
X180714500Y-150004246D01*
X180715109Y-150008090D01*
X180715109Y-150008092D01*
X180723129Y-150058726D01*
X180730049Y-150102420D01*
X180733585Y-150109359D01*
X180733585Y-150109360D01*
X180769997Y-150180821D01*
X180790342Y-150220751D01*
X180884249Y-150314658D01*
X180884038Y-150314869D01*
X180917123Y-150360405D01*
X180917124Y-150421590D01*
X180881162Y-150471091D01*
X180822969Y-150490000D01*
X179757031Y-150490000D01*
X179698840Y-150471093D01*
X179662876Y-150421593D01*
X179662876Y-150360407D01*
X179695962Y-150314869D01*
X179695751Y-150314658D01*
X179789658Y-150220751D01*
X179810004Y-150180821D01*
X179846415Y-150109360D01*
X179846415Y-150109359D01*
X179849951Y-150102420D01*
X179856872Y-150058726D01*
X179864891Y-150008092D01*
X179864891Y-150008090D01*
X179865500Y-150004246D01*
X179865500Y-149175754D01*
X179864891Y-149171908D01*
X179851170Y-149085275D01*
X179851170Y-149085273D01*
X179849951Y-149077580D01*
X179845092Y-149068043D01*
X179793194Y-148966188D01*
X179793193Y-148966186D01*
X179789658Y-148959249D01*
X179695751Y-148865342D01*
X179688814Y-148861807D01*
X179688812Y-148861806D01*
X179584360Y-148808585D01*
X179584359Y-148808585D01*
X179577420Y-148805049D01*
X179569727Y-148803830D01*
X179569725Y-148803830D01*
X179483092Y-148790109D01*
X179483090Y-148790109D01*
X179479246Y-148789500D01*
X178975754Y-148789500D01*
X178971910Y-148790109D01*
X178971908Y-148790109D01*
X178885275Y-148803830D01*
X178885273Y-148803830D01*
X178877580Y-148805049D01*
X178870641Y-148808585D01*
X178870640Y-148808585D01*
X178766188Y-148861806D01*
X178766186Y-148861807D01*
X178759249Y-148865342D01*
X178665342Y-148959249D01*
X178661807Y-148966186D01*
X178661806Y-148966188D01*
X178609908Y-149068043D01*
X178605049Y-149077580D01*
X178603830Y-149085273D01*
X178603830Y-149085275D01*
X178590109Y-149171908D01*
X178589500Y-149175754D01*
X178589500Y-149185500D01*
X178570593Y-149243691D01*
X178521093Y-149279655D01*
X178490500Y-149284500D01*
X177602903Y-149284500D01*
X177544712Y-149265593D01*
X177508748Y-149216093D01*
X177505122Y-149200987D01*
X177500938Y-149174569D01*
X177500938Y-149174568D01*
X177499719Y-149166874D01*
X177479326Y-149126850D01*
X177442064Y-149053719D01*
X177442063Y-149053717D01*
X177438528Y-149046780D01*
X177343220Y-148951472D01*
X177336283Y-148947937D01*
X177336281Y-148947936D01*
X177230066Y-148893817D01*
X177230065Y-148893817D01*
X177223126Y-148890281D01*
X177215432Y-148889062D01*
X177215431Y-148889062D01*
X177127334Y-148875109D01*
X177127332Y-148875109D01*
X177123488Y-148874500D01*
X176606512Y-148874500D01*
X176602668Y-148875109D01*
X176602666Y-148875109D01*
X176514569Y-148889062D01*
X176514568Y-148889062D01*
X176506874Y-148890281D01*
X176499935Y-148893817D01*
X176499934Y-148893817D01*
X176393719Y-148947936D01*
X176393717Y-148947937D01*
X176386780Y-148951472D01*
X176291472Y-149046780D01*
X176287937Y-149053717D01*
X176287936Y-149053719D01*
X176250674Y-149126850D01*
X176230281Y-149166874D01*
X176229062Y-149174568D01*
X176229062Y-149174569D01*
X176218114Y-149243691D01*
X176214500Y-149266512D01*
X176214500Y-149833488D01*
X176215109Y-149837332D01*
X176215109Y-149837334D01*
X176226826Y-149911309D01*
X176230281Y-149933126D01*
X176287937Y-150046281D01*
X176288710Y-150047799D01*
X176299500Y-150092744D01*
X176299500Y-150391000D01*
X176280593Y-150449191D01*
X176231093Y-150485155D01*
X176200500Y-150490000D01*
X174930000Y-150490000D01*
X174929648Y-150560857D01*
X174929498Y-150590992D01*
X174910301Y-150649088D01*
X174860623Y-150684805D01*
X174830499Y-150689500D01*
X174450252Y-150689500D01*
X174445488Y-150690448D01*
X174445484Y-150690448D01*
X174439380Y-150691662D01*
X174400754Y-150691662D01*
X174389884Y-150689500D01*
X174364748Y-150684500D01*
X174179500Y-150684500D01*
X174121309Y-150665593D01*
X174085345Y-150616093D01*
X174080500Y-150585500D01*
X174080500Y-150495252D01*
X174072799Y-150456535D01*
X174070770Y-150446334D01*
X174070769Y-150446332D01*
X174068867Y-150436769D01*
X174024552Y-150370448D01*
X173958231Y-150326133D01*
X173948668Y-150324231D01*
X173948666Y-150324230D01*
X173916730Y-150317878D01*
X173899748Y-150314500D01*
X172842268Y-150314500D01*
X172784077Y-150295593D01*
X172748113Y-150246093D01*
X172743268Y-150215500D01*
X172743268Y-150140000D01*
X170630000Y-150140000D01*
X170630000Y-151943064D01*
X172743268Y-151943064D01*
X172743268Y-151864500D01*
X172762175Y-151806309D01*
X172811675Y-151770345D01*
X172842268Y-151765500D01*
X173899748Y-151765500D01*
X173925995Y-151760279D01*
X173948666Y-151755770D01*
X173948668Y-151755769D01*
X173958231Y-151753867D01*
X174024552Y-151709552D01*
X174068867Y-151643231D01*
X174069040Y-151642361D01*
X174105141Y-151600090D01*
X174156870Y-151585500D01*
X174364748Y-151585500D01*
X174369512Y-151584552D01*
X174369516Y-151584552D01*
X174375620Y-151583338D01*
X174414246Y-151583338D01*
X174420350Y-151584552D01*
X174450252Y-151590500D01*
X174825031Y-151590500D01*
X174883222Y-151609407D01*
X174919186Y-151658907D01*
X174924030Y-151689993D01*
X174917224Y-153057990D01*
X174898027Y-153116085D01*
X174848349Y-153151803D01*
X174818188Y-153156497D01*
X173195820Y-153155854D01*
X170504210Y-153154788D01*
X170446027Y-153135858D01*
X170410082Y-153086343D01*
X170405249Y-153055513D01*
X170405286Y-153042394D01*
X170412742Y-150360405D01*
X170418668Y-148229225D01*
X170437737Y-148171087D01*
X170487337Y-148135261D01*
X170517668Y-148130500D01*
X183389748Y-148130500D01*
X183444319Y-148119645D01*
X183505080Y-148126837D01*
G37*
G04 #@! TD.AperFunction*
G04 #@! TA.AperFunction,Conductor*
G36*
X184829504Y-144364913D02*
G01*
X184859249Y-144394658D01*
X184866186Y-144398193D01*
X184866188Y-144398194D01*
X184938261Y-144434917D01*
X184977580Y-144454951D01*
X184985273Y-144456170D01*
X184985275Y-144456170D01*
X185071908Y-144469891D01*
X185071910Y-144469891D01*
X185075754Y-144470500D01*
X185462389Y-144470500D01*
X185520580Y-144489407D01*
X185532393Y-144499496D01*
X186865504Y-145832608D01*
X186893281Y-145887125D01*
X186894500Y-145902612D01*
X186894500Y-145983488D01*
X186910281Y-146083126D01*
X186971472Y-146203220D01*
X187066780Y-146298528D01*
X187073717Y-146302063D01*
X187073719Y-146302064D01*
X187179934Y-146356183D01*
X187186874Y-146359719D01*
X187194568Y-146360938D01*
X187194569Y-146360938D01*
X187282666Y-146374891D01*
X187282668Y-146374891D01*
X187286512Y-146375500D01*
X187481150Y-146375500D01*
X187539341Y-146394407D01*
X187575305Y-146443907D01*
X187580144Y-146473401D01*
X187589539Y-147319401D01*
X187571279Y-147377798D01*
X187522181Y-147414309D01*
X187490545Y-147419500D01*
X185460252Y-147419500D01*
X185434005Y-147424721D01*
X185411334Y-147429230D01*
X185411332Y-147429231D01*
X185401769Y-147431133D01*
X185335448Y-147475448D01*
X185291133Y-147541769D01*
X185279500Y-147600252D01*
X185279500Y-148039748D01*
X185281379Y-148049192D01*
X185288715Y-148086074D01*
X185291133Y-148098231D01*
X185335448Y-148164552D01*
X185401769Y-148208867D01*
X185411332Y-148210769D01*
X185411334Y-148210770D01*
X185434005Y-148215279D01*
X185460252Y-148220500D01*
X186130876Y-148220500D01*
X186189067Y-148239407D01*
X186225031Y-148288907D01*
X186225031Y-148350093D01*
X186200880Y-148389504D01*
X185891269Y-148699115D01*
X185876267Y-148711426D01*
X185861376Y-148721376D01*
X185846007Y-148744377D01*
X185846006Y-148744378D01*
X185836261Y-148758963D01*
X185800485Y-148812505D01*
X185798583Y-148822068D01*
X185798582Y-148822070D01*
X185789975Y-148865342D01*
X185784500Y-148892867D01*
X185779103Y-148920000D01*
X185781005Y-148929561D01*
X185782598Y-148937569D01*
X185784500Y-148956884D01*
X185784500Y-150254876D01*
X185765593Y-150313067D01*
X185755504Y-150324880D01*
X185619380Y-150461004D01*
X185564863Y-150488781D01*
X185549376Y-150490000D01*
X184887447Y-150490000D01*
X184829256Y-150471093D01*
X184812448Y-150455623D01*
X184796516Y-150437133D01*
X184779193Y-150417028D01*
X184773276Y-150413193D01*
X184773274Y-150413191D01*
X184676824Y-150350677D01*
X184670906Y-150346841D01*
X184664150Y-150344821D01*
X184664149Y-150344820D01*
X184597475Y-150324880D01*
X184547273Y-150309866D01*
X184470644Y-150309398D01*
X184425282Y-150309121D01*
X184418231Y-150309078D01*
X184411454Y-150311015D01*
X184411453Y-150311015D01*
X184300935Y-150342601D01*
X184300933Y-150342602D01*
X184294155Y-150344539D01*
X184185019Y-150413399D01*
X184180354Y-150418681D01*
X184180347Y-150418687D01*
X184146921Y-150456535D01*
X184094229Y-150487635D01*
X184072718Y-150490000D01*
X181882031Y-150490000D01*
X181823840Y-150471093D01*
X181787876Y-150421593D01*
X181787876Y-150360407D01*
X181820962Y-150314869D01*
X181820751Y-150314658D01*
X181914658Y-150220751D01*
X181935004Y-150180821D01*
X181971415Y-150109360D01*
X181971415Y-150109359D01*
X181974951Y-150102420D01*
X181981872Y-150058726D01*
X181989891Y-150008092D01*
X181989891Y-150008090D01*
X181990500Y-150004246D01*
X181990500Y-149969500D01*
X182009407Y-149911309D01*
X182058907Y-149875345D01*
X182089500Y-149870500D01*
X182476037Y-149870500D01*
X182534228Y-149889407D01*
X182569451Y-149937889D01*
X182570281Y-149943126D01*
X182573817Y-149950066D01*
X182573818Y-149950068D01*
X182626377Y-150053220D01*
X182631472Y-150063220D01*
X182726780Y-150158528D01*
X182733717Y-150162063D01*
X182733719Y-150162064D01*
X182768921Y-150180000D01*
X182846874Y-150219719D01*
X182854568Y-150220938D01*
X182854569Y-150220938D01*
X182942666Y-150234891D01*
X182942668Y-150234891D01*
X182946512Y-150235500D01*
X183463488Y-150235500D01*
X183467332Y-150234891D01*
X183467334Y-150234891D01*
X183555431Y-150220938D01*
X183555432Y-150220938D01*
X183563126Y-150219719D01*
X183641079Y-150180000D01*
X183676281Y-150162064D01*
X183676283Y-150162063D01*
X183683220Y-150158528D01*
X183778528Y-150063220D01*
X183783624Y-150053220D01*
X183836183Y-149950066D01*
X183836183Y-149950065D01*
X183839719Y-149943126D01*
X183850455Y-149875345D01*
X183854891Y-149847334D01*
X183854891Y-149847332D01*
X183855500Y-149843488D01*
X183855500Y-149276512D01*
X183854533Y-149270405D01*
X183840938Y-149184569D01*
X183840938Y-149184568D01*
X183839719Y-149176874D01*
X183821349Y-149140821D01*
X183782064Y-149063719D01*
X183782063Y-149063717D01*
X183778528Y-149056780D01*
X183730686Y-149008938D01*
X183702909Y-148954421D01*
X183712480Y-148893989D01*
X183730686Y-148868930D01*
X184120867Y-148478749D01*
X184179234Y-148450439D01*
X184208841Y-148446935D01*
X184208842Y-148446935D01*
X184216967Y-148445973D01*
X184325156Y-148394022D01*
X184329210Y-148390614D01*
X184520250Y-148199574D01*
X184536552Y-148186409D01*
X184539100Y-148184764D01*
X184539101Y-148184763D01*
X184545976Y-148180324D01*
X184566476Y-148154320D01*
X184570881Y-148149362D01*
X184573205Y-148146619D01*
X184576090Y-148143734D01*
X184587049Y-148128399D01*
X184589828Y-148124698D01*
X184615212Y-148092499D01*
X184620277Y-148086074D01*
X184622830Y-148078805D01*
X184623737Y-148077059D01*
X184628216Y-148070791D01*
X184642305Y-148023680D01*
X184643745Y-148019249D01*
X184657981Y-147978711D01*
X184657982Y-147978708D01*
X184660043Y-147972838D01*
X184660500Y-147967561D01*
X184660500Y-147965420D01*
X184660566Y-147963895D01*
X184660717Y-147962113D01*
X184662603Y-147955807D01*
X184660576Y-147904207D01*
X184660500Y-147900322D01*
X184660500Y-144434917D01*
X184679407Y-144376726D01*
X184728907Y-144340762D01*
X184790093Y-144340762D01*
X184829504Y-144364913D01*
G37*
G04 #@! TD.AperFunction*
G04 #@! TA.AperFunction,Conductor*
G36*
X181920111Y-142275271D02*
G01*
X181933644Y-142292755D01*
X181935705Y-142296141D01*
X181938464Y-142302563D01*
X181942478Y-142307449D01*
X182148916Y-142513887D01*
X182177226Y-142572255D01*
X182186118Y-142647385D01*
X182189027Y-142671967D01*
X182240978Y-142780156D01*
X182244386Y-142784210D01*
X183050426Y-143590250D01*
X183063591Y-143606552D01*
X183069676Y-143615976D01*
X183076105Y-143621044D01*
X183095680Y-143636476D01*
X183100638Y-143640881D01*
X183103381Y-143643205D01*
X183106266Y-143646090D01*
X183121601Y-143657049D01*
X183125300Y-143659826D01*
X183163926Y-143690277D01*
X183171195Y-143692830D01*
X183172941Y-143693737D01*
X183179209Y-143698216D01*
X183187047Y-143700560D01*
X183226318Y-143712305D01*
X183230752Y-143713746D01*
X183271286Y-143727980D01*
X183271290Y-143727981D01*
X183277162Y-143730043D01*
X183282439Y-143730500D01*
X183284585Y-143730500D01*
X183286092Y-143730565D01*
X183287884Y-143730717D01*
X183294192Y-143732603D01*
X183302368Y-143732282D01*
X183302370Y-143732282D01*
X183345791Y-143730576D01*
X183349677Y-143730500D01*
X183649668Y-143730500D01*
X183707859Y-143749407D01*
X183719672Y-143759496D01*
X183910504Y-143950328D01*
X183938281Y-144004845D01*
X183939500Y-144020332D01*
X183939500Y-147719668D01*
X183920593Y-147777859D01*
X183910504Y-147789672D01*
X183838910Y-147861266D01*
X183786784Y-147934209D01*
X183752397Y-148049192D01*
X183749249Y-148048251D01*
X183727262Y-148093122D01*
X183726747Y-148093637D01*
X183672230Y-148121414D01*
X183611798Y-148111843D01*
X183568533Y-148068578D01*
X183559645Y-148004319D01*
X183565907Y-147972838D01*
X183570500Y-147949748D01*
X183570500Y-147510252D01*
X183558867Y-147451769D01*
X183514552Y-147385448D01*
X183448231Y-147341133D01*
X183438668Y-147339231D01*
X183438666Y-147339230D01*
X183415995Y-147334721D01*
X183389748Y-147329500D01*
X182527821Y-147329500D01*
X182469630Y-147310593D01*
X182433666Y-147261093D01*
X182428927Y-147235081D01*
X182388216Y-146356183D01*
X182280000Y-144020000D01*
X181984464Y-143657026D01*
X181737729Y-143353989D01*
X181715500Y-143291481D01*
X181715500Y-142690550D01*
X181725406Y-142647385D01*
X181738635Y-142620080D01*
X181741710Y-142613733D01*
X181750616Y-142560796D01*
X181764862Y-142476124D01*
X181764862Y-142476120D01*
X181765496Y-142472354D01*
X181765647Y-142460000D01*
X181751077Y-142358262D01*
X181761544Y-142297979D01*
X181805445Y-142255361D01*
X181866013Y-142246687D01*
X181920111Y-142275271D01*
G37*
G04 #@! TD.AperFunction*
G04 #@! TD*
M02*
